<svg width="50" height="50" viewBox="0 0 50 50" fill="none" xmlns="http://www.w3.org/2000/svg">
<path d="M30.8958 23.5209L22.0624 14.6875C21.8688 14.4923 21.6384 14.3373 21.3845 14.2315C21.1306 14.1257 20.8583 14.0713 20.5833 14.0713C20.3083 14.0713 20.0359 14.1257 19.7821 14.2315C19.5282 14.3373 19.2978 14.4923 19.1041 14.6875C18.7161 15.0779 18.4983 15.6059 18.4983 16.1563C18.4983 16.7067 18.7161 17.2347 19.1041 17.625L26.4791 25L19.1041 32.375C18.7161 32.7654 18.4983 33.2934 18.4983 33.8438C18.4983 34.3942 18.7161 34.9222 19.1041 35.3125C19.2988 35.5056 19.5296 35.6584 19.7835 35.7621C20.0373 35.8657 20.3091 35.9183 20.5833 35.9167C20.8575 35.9183 21.1293 35.8657 21.3831 35.7621C21.6369 35.6584 21.8678 35.5056 22.0624 35.3125L30.8958 26.4792C31.091 26.2855 31.246 26.0551 31.3518 25.8012C31.4576 25.5474 31.512 25.2751 31.512 25C31.512 24.725 31.4576 24.4527 31.3518 24.1988C31.246 23.945 31.091 23.7145 30.8958 23.5209Z" fill="#FB992D"/>
</svg>
