<svg width="50" height="50" viewBox="0 0 50 50" fill="none" xmlns="http://www.w3.org/2000/svg">
<path d="M19.1042 26.4791L27.9375 35.3125C28.1312 35.5077 28.3616 35.6627 28.6155 35.7685C28.8693 35.8743 29.1416 35.9287 29.4167 35.9287C29.6917 35.9287 29.964 35.8743 30.2179 35.7685C30.4717 35.6627 30.7022 35.5077 30.8958 35.3125C31.2839 34.9221 31.5016 34.3941 31.5016 33.8437C31.5016 33.2933 31.2839 32.7653 30.8958 32.375L23.5208 25L30.8958 17.625C31.2839 17.2346 31.5016 16.7066 31.5016 16.1562C31.5016 15.6058 31.2839 15.0778 30.8958 14.6875C30.7012 14.4944 30.4703 14.3416 30.2165 14.2379C29.9626 14.1343 29.6908 14.0817 29.4167 14.0833C29.1425 14.0817 28.8707 14.1343 28.6169 14.2379C28.363 14.3416 28.1322 14.4944 27.9375 14.6875L19.1042 23.5208C18.9089 23.7145 18.7539 23.9449 18.6481 24.1988C18.5424 24.4526 18.4879 24.7249 18.4879 25C18.4879 25.275 18.5424 25.5473 18.6481 25.8012C18.7539 26.055 18.9089 26.2855 19.1042 26.4791Z" fill="#FB992D"/>
</svg>
