<svg width="145" height="28" viewBox="0 0 145 28" fill="none" xmlns="http://www.w3.org/2000/svg">
<path d="M0.212358 27V1.54545H10.255C12.1856 1.54545 13.8304 1.91418 15.1893 2.65163C16.5482 3.3808 17.5839 4.39583 18.2965 5.69673C19.0174 6.98935 19.3778 8.48082 19.3778 10.1712C19.3778 11.8615 19.0133 13.353 18.2841 14.6456C17.5549 15.9382 16.4985 16.945 15.1147 17.6658C13.7392 18.3867 12.0737 18.7472 10.1183 18.7472H3.71733V14.4343H9.24822C10.284 14.4343 11.1374 14.2562 11.8086 13.8999C12.488 13.5353 12.9935 13.034 13.3249 12.396C13.6647 11.7496 13.8345 11.008 13.8345 10.1712C13.8345 9.32599 13.6647 8.58854 13.3249 7.95881C12.9935 7.32078 12.488 6.82777 11.8086 6.47976C11.1291 6.12346 10.2674 5.94531 9.22337 5.94531H5.59411V27H0.212358ZM31.0922 27.3729C29.1615 27.3729 27.4919 26.9627 26.0833 26.1424C24.6829 25.3138 23.6016 24.1621 22.8393 22.6871C22.077 21.204 21.6958 19.4846 21.6958 17.5291C21.6958 15.5571 22.077 13.8336 22.8393 12.3587C23.6016 10.8755 24.6829 9.72372 26.0833 8.90341C27.4919 8.07481 29.1615 7.66051 31.0922 7.66051C33.0228 7.66051 34.6883 8.07481 36.0886 8.90341C37.4972 9.72372 38.5827 10.8755 39.345 12.3587C40.1073 13.8336 40.4885 15.5571 40.4885 17.5291C40.4885 19.4846 40.1073 21.204 39.345 22.6871C38.5827 24.1621 37.4972 25.3138 36.0886 26.1424C34.6883 26.9627 33.0228 27.3729 31.0922 27.3729ZM31.117 23.2713C31.9953 23.2713 32.7286 23.0227 33.3169 22.5256C33.9052 22.0201 34.3485 21.3324 34.6468 20.4624C34.9534 19.5923 35.1067 18.6022 35.1067 17.4918C35.1067 16.3815 34.9534 15.3913 34.6468 14.5213C34.3485 13.6513 33.9052 12.9635 33.3169 12.4581C32.7286 11.9527 31.9953 11.6999 31.117 11.6999C30.2304 11.6999 29.4847 11.9527 28.8798 12.4581C28.2832 12.9635 27.8316 13.6513 27.525 14.5213C27.2267 15.3913 27.0776 16.3815 27.0776 17.4918C27.0776 18.6022 27.2267 19.5923 27.525 20.4624C27.8316 21.3324 28.2832 22.0201 28.8798 22.5256C29.4847 23.0227 30.2304 23.2713 31.117 23.2713ZM43.9313 27V7.90909H49.0645V11.2401H49.2633C49.6113 10.0552 50.1955 9.16027 51.0158 8.5554C51.8361 7.94223 52.7807 7.63565 53.8496 7.63565C54.1148 7.63565 54.4006 7.65222 54.7072 7.68537C55.0138 7.71851 55.2831 7.76409 55.5151 7.82209V12.5202C55.2665 12.4457 54.9226 12.3794 54.4835 12.3214C54.0443 12.2634 53.6425 12.2344 53.2779 12.2344C52.499 12.2344 51.803 12.4042 51.1898 12.744C50.5849 13.0754 50.1043 13.5394 49.748 14.136C49.4 14.7326 49.226 15.4203 49.226 16.1992V27H43.9313ZM69.3641 7.90909V11.8864H57.8673V7.90909H69.3641ZM60.4774 3.33523H65.7721V21.1335C65.7721 21.6224 65.8467 22.0036 65.9958 22.277C66.145 22.5421 66.3521 22.7286 66.6173 22.8363C66.8907 22.944 67.2056 22.9979 67.5619 22.9979C67.8105 22.9979 68.059 22.9772 68.3076 22.9357C68.5562 22.886 68.7468 22.8487 68.8794 22.8239L69.7121 26.7638C69.4469 26.8467 69.0741 26.942 68.5935 27.0497C68.1129 27.1657 67.5287 27.2362 66.841 27.261C65.565 27.3107 64.4463 27.1409 63.4852 26.7514C62.5323 26.362 61.7907 25.7571 61.2604 24.9368C60.7301 24.1165 60.4691 23.0807 60.4774 21.8295V3.33523ZM83.0795 7.90909V11.8864H71.2968V7.90909H83.0795ZM73.9939 27V6.52947C73.9939 5.14571 74.2632 3.9981 74.8018 3.08665C75.3486 2.17519 76.0944 1.49159 77.039 1.03586C77.9836 0.580136 79.0566 0.352271 80.2581 0.352271C81.0701 0.352271 81.8117 0.414416 82.4829 0.538707C83.1623 0.662997 83.6678 0.774857 83.9992 0.874289L83.0546 4.85156C82.8474 4.78527 82.5906 4.72313 82.284 4.66513C81.9857 4.60713 81.6791 4.57812 81.3643 4.57812C80.5854 4.57812 80.0426 4.76042 79.7361 5.125C79.4295 5.4813 79.2762 5.9826 79.2762 6.62891V27H73.9939ZM94.2562 27.3729C92.3256 27.3729 90.656 26.9627 89.2473 26.1424C87.847 25.3138 86.7657 24.1621 86.0034 22.6871C85.2411 21.204 84.8599 19.4846 84.8599 17.5291C84.8599 15.5571 85.2411 13.8336 86.0034 12.3587C86.7657 10.8755 87.847 9.72372 89.2473 8.90341C90.656 8.07481 92.3256 7.66051 94.2562 7.66051C96.1868 7.66051 97.8523 8.07481 99.2527 8.90341C100.661 9.72372 101.747 10.8755 102.509 12.3587C103.271 13.8336 103.653 15.5571 103.653 17.5291C103.653 19.4846 103.271 21.204 102.509 22.6871C101.747 24.1621 100.661 25.3138 99.2527 26.1424C97.8523 26.9627 96.1868 27.3729 94.2562 27.3729ZM94.2811 23.2713C95.1594 23.2713 95.8927 23.0227 96.481 22.5256C97.0693 22.0201 97.5126 21.3324 97.8109 20.4624C98.1175 19.5923 98.2708 18.6022 98.2708 17.4918C98.2708 16.3815 98.1175 15.3913 97.8109 14.5213C97.5126 13.6513 97.0693 12.9635 96.481 12.4581C95.8927 11.9527 95.1594 11.6999 94.2811 11.6999C93.3945 11.6999 92.6487 11.9527 92.0439 12.4581C91.4473 12.9635 90.9957 13.6513 90.6891 14.5213C90.3908 15.3913 90.2417 16.3815 90.2417 17.4918C90.2417 18.6022 90.3908 19.5923 90.6891 20.4624C90.9957 21.3324 91.4473 22.0201 92.0439 22.5256C92.6487 23.0227 93.3945 23.2713 94.2811 23.2713ZM112.39 1.54545V27H107.095V1.54545H112.39ZM116.631 27V7.90909H121.926V27H116.631ZM119.291 5.44815C118.504 5.44815 117.829 5.18714 117.265 4.66513C116.71 4.13482 116.433 3.50095 116.433 2.76349C116.433 2.03433 116.71 1.40874 117.265 0.886719C117.829 0.356415 118.504 0.0912629 119.291 0.0912629C120.078 0.0912629 120.75 0.356415 121.305 0.886719C121.868 1.40874 122.15 2.03433 122.15 2.76349C122.15 3.50095 121.868 4.13482 121.305 4.66513C120.75 5.18714 120.078 5.44815 119.291 5.44815ZM134.793 27.3729C132.863 27.3729 131.193 26.9627 129.784 26.1424C128.384 25.3138 127.303 24.1621 126.54 22.6871C125.778 21.204 125.397 19.4846 125.397 17.5291C125.397 15.5571 125.778 13.8336 126.54 12.3587C127.303 10.8755 128.384 9.72372 129.784 8.90341C131.193 8.07481 132.863 7.66051 134.793 7.66051C136.724 7.66051 138.389 8.07481 139.79 8.90341C141.198 9.72372 142.284 10.8755 143.046 12.3587C143.808 13.8336 144.19 15.5571 144.19 17.5291C144.19 19.4846 143.808 21.204 143.046 22.6871C142.284 24.1621 141.198 25.3138 139.79 26.1424C138.389 26.9627 136.724 27.3729 134.793 27.3729ZM134.818 23.2713C135.696 23.2713 136.43 23.0227 137.018 22.5256C137.606 22.0201 138.05 21.3324 138.348 20.4624C138.655 19.5923 138.808 18.6022 138.808 17.4918C138.808 16.3815 138.655 15.3913 138.348 14.5213C138.05 13.6513 137.606 12.9635 137.018 12.4581C136.43 11.9527 135.696 11.6999 134.818 11.6999C133.932 11.6999 133.186 11.9527 132.581 12.4581C131.984 12.9635 131.533 13.6513 131.226 14.5213C130.928 15.3913 130.779 16.3815 130.779 17.4918C130.779 18.6022 130.928 19.5923 131.226 20.4624C131.533 21.3324 131.984 22.0201 132.581 22.5256C133.186 23.0227 133.932 23.2713 134.818 23.2713Z" fill="#FB992D"/>
</svg>
