<svg width="88" height="20" viewBox="0 0 88 20" fill="none" xmlns="http://www.w3.org/2000/svg">
<path d="M15.1165 1.54545V19H11.929L4.33523 8.0142H4.20739V19H0.517045V1.54545H3.75568L11.2898 12.5227H11.4432V1.54545H15.1165ZM24.0632 19.2557C22.7166 19.2557 21.5575 18.983 20.5859 18.4375C19.62 17.8864 18.8757 17.108 18.353 16.1023C17.8303 15.0909 17.5689 13.8949 17.5689 12.5142C17.5689 11.1676 17.8303 9.9858 18.353 8.96875C18.8757 7.9517 19.6115 7.15909 20.5604 6.59091C21.5149 6.02273 22.6342 5.73864 23.9183 5.73864C24.782 5.73864 25.5859 5.87784 26.3303 6.15625C27.0803 6.42898 27.7337 6.84091 28.2905 7.39205C28.853 7.94318 29.2905 8.63636 29.603 9.47159C29.9155 10.3011 30.0717 11.2727 30.0717 12.3864V13.3835H19.0178V11.1335H26.6541C26.6541 10.6108 26.5405 10.1477 26.3132 9.74432C26.0859 9.34091 25.7706 9.02557 25.3672 8.7983C24.9695 8.56534 24.5064 8.44886 23.978 8.44886C23.4268 8.44886 22.9382 8.5767 22.5121 8.83239C22.0916 9.08239 21.7621 9.42045 21.5234 9.84659C21.2848 10.267 21.1626 10.7358 21.157 11.2528V13.392C21.157 14.0398 21.2763 14.5994 21.5149 15.071C21.7592 15.5426 22.103 15.9062 22.5462 16.1619C22.9893 16.4176 23.5149 16.5455 24.1229 16.5455C24.5263 16.5455 24.8956 16.4886 25.2308 16.375C25.5661 16.2614 25.853 16.0909 26.0916 15.8636C26.3303 15.6364 26.5121 15.358 26.6371 15.0284L29.995 15.25C29.8246 16.0568 29.4751 16.7614 28.9467 17.3636C28.424 17.9602 27.7479 18.4261 26.9183 18.7614C26.0945 19.0909 25.1428 19.2557 24.0632 19.2557ZM38.3558 19.2557C37.032 19.2557 35.8871 18.9744 34.9212 18.4119C33.9609 17.8437 33.2195 17.054 32.6967 16.0426C32.174 15.0256 31.9126 13.8466 31.9126 12.5057C31.9126 11.1534 32.174 9.97159 32.6967 8.96023C33.2195 7.94318 33.9609 7.15341 34.9212 6.59091C35.8871 6.02273 37.032 5.73864 38.3558 5.73864C39.6797 5.73864 40.8217 6.02273 41.782 6.59091C42.7479 7.15341 43.4922 7.94318 44.0149 8.96023C44.5376 9.97159 44.799 11.1534 44.799 12.5057C44.799 13.8466 44.5376 15.0256 44.0149 16.0426C43.4922 17.054 42.7479 17.8437 41.782 18.4119C40.8217 18.9744 39.6797 19.2557 38.3558 19.2557ZM38.3729 16.4432C38.9751 16.4432 39.478 16.2727 39.8814 15.9318C40.2848 15.5852 40.5888 15.1136 40.7933 14.517C41.0036 13.9205 41.1087 13.2415 41.1087 12.4801C41.1087 11.7188 41.0036 11.0398 40.7933 10.4432C40.5888 9.84659 40.2848 9.375 39.8814 9.02841C39.478 8.68182 38.9751 8.50852 38.3729 8.50852C37.7649 8.50852 37.2536 8.68182 36.8388 9.02841C36.4297 9.375 36.12 9.84659 35.9098 10.4432C35.7053 11.0398 35.603 11.7188 35.603 12.4801C35.603 13.2415 35.7053 13.9205 35.9098 14.517C36.12 15.1136 36.4297 15.5852 36.8388 15.9318C37.2536 16.2727 37.7649 16.4432 38.3729 16.4432ZM52.7827 19V1.54545H59.669C60.9872 1.54545 62.1122 1.78125 63.044 2.25284C63.9815 2.71875 64.6946 3.38068 65.1832 4.23864C65.6776 5.09091 65.9247 6.09375 65.9247 7.24716C65.9247 8.40625 65.6747 9.40341 65.1747 10.2386C64.6747 11.0682 63.9503 11.7045 63.0014 12.1477C62.0582 12.5909 60.9162 12.8125 59.5753 12.8125H54.9645V9.84659H58.9787C59.6832 9.84659 60.2685 9.75 60.7344 9.55682C61.2003 9.36364 61.5469 9.07386 61.7741 8.6875C62.0071 8.30114 62.1236 7.82102 62.1236 7.24716C62.1236 6.66761 62.0071 6.17898 61.7741 5.78125C61.5469 5.38352 61.1974 5.08239 60.7259 4.87784C60.2599 4.66761 59.6719 4.5625 58.9616 4.5625H56.473V19H52.7827ZM62.2088 11.0568L66.5469 19H62.473L58.2287 11.0568H62.2088ZM68.4645 19V5.90909H72.0952V19H68.4645ZM70.2884 4.22159C69.7486 4.22159 69.2855 4.04261 68.8991 3.68466C68.5185 3.32102 68.3281 2.88636 68.3281 2.38068C68.3281 1.88068 68.5185 1.4517 68.8991 1.09375C69.2855 0.730113 69.7486 0.548295 70.2884 0.548295C70.8281 0.548295 71.2884 0.730113 71.669 1.09375C72.0554 1.4517 72.2486 1.88068 72.2486 2.38068C72.2486 2.88636 72.0554 3.32102 71.669 3.68466C71.2884 4.04261 70.8281 4.22159 70.2884 4.22159ZM80.9183 19.2557C79.5945 19.2557 78.4496 18.9744 77.4837 18.4119C76.5234 17.8437 75.782 17.054 75.2592 16.0426C74.7365 15.0256 74.4751 13.8466 74.4751 12.5057C74.4751 11.1534 74.7365 9.97159 75.2592 8.96023C75.782 7.94318 76.5234 7.15341 77.4837 6.59091C78.4496 6.02273 79.5945 5.73864 80.9183 5.73864C82.2422 5.73864 83.3842 6.02273 84.3445 6.59091C85.3104 7.15341 86.0547 7.94318 86.5774 8.96023C87.1001 9.97159 87.3615 11.1534 87.3615 12.5057C87.3615 13.8466 87.1001 15.0256 86.5774 16.0426C86.0547 17.054 85.3104 17.8437 84.3445 18.4119C83.3842 18.9744 82.2422 19.2557 80.9183 19.2557ZM80.9354 16.4432C81.5376 16.4432 82.0405 16.2727 82.4439 15.9318C82.8473 15.5852 83.1513 15.1136 83.3558 14.517C83.5661 13.9205 83.6712 13.2415 83.6712 12.4801C83.6712 11.7188 83.5661 11.0398 83.3558 10.4432C83.1513 9.84659 82.8473 9.375 82.4439 9.02841C82.0405 8.68182 81.5376 8.50852 80.9354 8.50852C80.3274 8.50852 79.8161 8.68182 79.4013 9.02841C78.9922 9.375 78.6825 9.84659 78.4723 10.4432C78.2678 11.0398 78.1655 11.7188 78.1655 12.4801C78.1655 13.2415 78.2678 13.9205 78.4723 14.517C78.6825 15.1136 78.9922 15.5852 79.4013 15.9318C79.8161 16.2727 80.3274 16.4432 80.9354 16.4432Z" fill="#EE696A"/>
</svg>
