<svg width="24" height="24" viewBox="0 0 24 24" fill="none" xmlns="http://www.w3.org/2000/svg">
<g id="Type=Bulk, Icon=Arrow - Right Square">
<g id="Iconly/Bulk/Arrow - Right Square">
<g id="Arrow - Right Square">
<path id="Fill 1" opacity="0.4" d="M7.91588 22H16.0839C19.6229 22 21.9999 19.724 21.9999 16.335V7.665C21.9999 4.276 19.6229 2 16.0839 2H7.91588C4.37788 2 1.99988 4.277 1.99988 7.666L1.99988 16.335C1.99988 19.724 4.37788 22 7.91588 22Z" fill="#545569"/>
<path id="Fill 4" d="M12.8553 16.2792L16.6203 12.5312C16.9033 12.2492 16.9033 11.7502 16.6203 11.4672L12.8553 7.71918C12.5613 7.42718 12.0863 7.42818 11.7943 7.72218C11.5023 8.01618 11.5023 8.49018 11.7963 8.78318L14.2733 11.2502H7.91833C7.50333 11.2502 7.16833 11.5862 7.16833 12.0002C7.16833 12.4142 7.50333 12.7502 7.91833 12.7502H14.2733L11.7963 15.2162C11.6493 15.3632 11.5763 15.5552 11.5763 15.7482C11.5763 15.9392 11.6493 16.1312 11.7943 16.2772C12.0863 16.5702 12.5613 16.5712 12.8553 16.2792Z" fill="#545569"/>
</g>
</g>
</g>
</svg>
