<svg width="24" height="24" viewBox="0 0 24 24" fill="none" xmlns="http://www.w3.org/2000/svg">
<g id="Type=Bulk, Icon=Arrow - Up 3">
<g id="Iconly/Bulk/Arrow - Up 3">
<g id="Arrow - Up 3">
<path id="Fill 1" opacity="0.4" d="M11.3408 20.289L11.3408 11.811C11.3408 11.4188 11.6591 11.1005 12.0513 11.1005C12.4435 11.1005 12.7618 11.4188 12.7618 11.811L12.7618 20.289C12.7618 20.6812 12.4435 20.9995 12.0513 20.9995C11.6591 20.9995 11.3408 20.6812 11.3408 20.289Z" fill="#545569"/>
<g id="Group 5">
<mask id="mask0_22_2305" style="mask-type:alpha" maskUnits="userSpaceOnUse" x="6" y="3" width="12" height="10">
<path id="Clip 4" fill-rule="evenodd" clip-rule="evenodd" d="M17.4998 12.5212L6.60336 12.5212L6.60336 3.58178L17.4998 3.58178V12.5212Z" fill="white"/>
</mask>
<g mask="url(#mask0_22_2305)">
<path id="Fill 3" d="M6.60307 11.8107C6.60307 11.6781 6.64002 11.5473 6.71202 11.4318L11.4498 3.91345C11.5805 3.70692 11.807 3.58092 12.0514 3.58092C12.2958 3.58092 12.5222 3.70692 12.653 3.91345L17.3908 11.4318C17.5281 11.6506 17.5367 11.9272 17.4107 12.1537C17.2856 12.381 17.0478 12.5212 16.7892 12.5212L7.3136 12.5212C7.05497 12.5212 6.81718 12.381 6.69213 12.1537C6.63244 12.0466 6.60307 11.9282 6.60307 11.8107Z" fill="#545569"/>
</g>
</g>
</g>
</g>
</g>
</svg>
