<svg width="24" height="24" viewBox="0 0 24 24" fill="none" xmlns="http://www.w3.org/2000/svg">
<g id="Type=Bulk, Icon=Arrow - Down Square">
<g id="Iconly/Bulk/Arrow - Down Square">
<g id="Arrow - Down Square">
<path id="Fill 1" opacity="0.4" d="M1.99988 7.916V16.084C1.99988 19.623 4.27588 22 7.66488 22H16.3349C19.7239 22 21.9999 19.623 21.9999 16.084V7.916C21.9999 4.378 19.7229 2 16.3339 2H7.66488C4.27588 2 1.99988 4.378 1.99988 7.916Z" fill="#545569"/>
<path id="Fill 4" d="M7.72057 12.8555L11.4686 16.6205C11.7506 16.9035 12.2496 16.9035 12.5326 16.6205L16.2806 12.8555C16.5726 12.5615 16.5716 12.0865 16.2776 11.7945C15.9836 11.5025 15.5096 11.5025 15.2166 11.7965L12.7496 14.2735V7.91846C12.7496 7.50346 12.4136 7.16846 11.9996 7.16846C11.5856 7.16846 11.2496 7.50346 11.2496 7.91846V14.2735L8.78357 11.7965C8.63657 11.6495 8.44457 11.5765 8.25157 11.5765C8.06057 11.5765 7.86857 11.6495 7.72257 11.7945C7.42957 12.0865 7.42857 12.5615 7.72057 12.8555Z" fill="#545569"/>
</g>
</g>
</g>
</svg>
