<svg width="24" height="24" viewBox="0 0 24 24" fill="none" xmlns="http://www.w3.org/2000/svg">
<g id="Type=Bulk, Icon=Arrow - Down Circle">
<g id="Iconly/Bulk/Arrow - Down Circle">
<g id="Arrow - Down Circle">
<path id="Fill 1" opacity="0.4" d="M22.0002 12C22.0002 17.515 17.5142 22 12.0002 22C6.48624 22 2.00024 17.515 2.00024 12C2.00024 6.486 6.48624 2 12.0002 2C17.5142 2 22.0002 6.486 22.0002 12Z" fill="#545569"/>
<path id="Fill 4" d="M16.2209 10.5575C16.2209 10.7485 16.1479 10.9405 16.0019 11.0865L12.5319 14.5735C12.3909 14.7145 12.1999 14.7935 11.9999 14.7935C11.8009 14.7935 11.6099 14.7145 11.4689 14.5735L7.99695 11.0865C7.70495 10.7935 7.70495 10.3195 7.99895 10.0265C8.29295 9.73448 8.76795 9.73548 9.05995 10.0285L11.9999 12.9815L14.9399 10.0285C15.2319 9.73548 15.7059 9.73448 15.9999 10.0265C16.1479 10.1725 16.2209 10.3655 16.2209 10.5575Z" fill="#545569"/>
</g>
</g>
</g>
</svg>
