<svg width="24" height="24" viewBox="0 0 24 24" fill="none" xmlns="http://www.w3.org/2000/svg">
<g id="Type=Bulk, Icon=Arrow - Left Square">
<g id="Iconly/Bulk/Arrow - Left Square">
<g id="Arrow - Left Square">
<path id="Fill 1" opacity="0.4" d="M16.0841 2L7.91612 2C4.37712 2 2.00012 4.276 2.00012 7.665L2.00012 16.335C2.00012 19.724 4.37712 22 7.91612 22L16.0841 22C19.6221 22 22.0001 19.723 22.0001 16.334L22.0001 7.665C22.0001 4.276 19.6221 2 16.0841 2Z" fill="#545569"/>
<path id="Fill 4" d="M11.1447 7.72082L7.37967 11.4688C7.09667 11.7508 7.09667 12.2498 7.37967 12.5328L11.1447 16.2808C11.4387 16.5728 11.9137 16.5718 12.2057 16.2778C12.4977 15.9838 12.4977 15.5098 12.2037 15.2168L9.72667 12.7498H16.0817C16.4967 12.7498 16.8317 12.4138 16.8317 11.9998C16.8317 11.5858 16.4967 11.2498 16.0817 11.2498L9.72667 11.2498L12.2037 8.78382C12.3507 8.63682 12.4237 8.44482 12.4237 8.25182C12.4237 8.06082 12.3507 7.86882 12.2057 7.72282C11.9137 7.42982 11.4387 7.42882 11.1447 7.72082Z" fill="#545569"/>
</g>
</g>
</g>
</svg>
