<svg width="24" height="24" viewBox="0 0 24 24" fill="none" xmlns="http://www.w3.org/2000/svg">
<g id="Type=Bulk, Icon=Arrow - Up Circle">
<g id="Iconly/Bulk/Arrow - Up Circle">
<g id="Arrow - Up Circle">
<path id="Fill 1" opacity="0.4" d="M1.99976 12C1.99976 6.485 6.48576 2 11.9998 2C17.5138 2 21.9998 6.485 21.9998 12C21.9998 17.514 17.5138 22 11.9998 22C6.48576 22 1.99976 17.514 1.99976 12Z" fill="#545569"/>
<path id="Fill 4" d="M7.77905 13.4425C7.77905 13.2515 7.85205 13.0595 7.99805 12.9135L11.4681 9.42652C11.6091 9.28552 11.8001 9.20652 12.0001 9.20652C12.1991 9.20652 12.3901 9.28552 12.5311 9.42652L16.0031 12.9135C16.2951 13.2065 16.2951 13.6805 16.0011 13.9735C15.7071 14.2655 15.2321 14.2645 14.9401 13.9715L12.0001 11.0185L9.06005 13.9715C8.76805 14.2645 8.29405 14.2655 8.00005 13.9735C7.85205 13.8275 7.77905 13.6345 7.77905 13.4425Z" fill="#545569"/>
</g>
</g>
</g>
</svg>
