<svg width="13" height="20" viewBox="0 0 13 20" fill="none" xmlns="http://www.w3.org/2000/svg">
<g id="Type=Bulk, Icon=Deviantart">
<path id="deviantart" d="M12.47 4.351V0.586C12.47 0.430583 12.4083 0.281532 12.2984 0.171635C12.1885 0.0617391 12.0394 0 11.884 0L8.118 0C8.00919 3.1181e-05 7.90253 0.0303578 7.80999 0.0875825C7.71744 0.144807 7.64265 0.22667 7.594 0.324L5.873 3.765H0.586C0.430583 3.765 0.281532 3.82674 0.171635 3.93664C0.0617391 4.04653 0 4.19558 0 4.351L0 8.745C0 8.90042 0.0617391 9.04947 0.171635 9.15936C0.281532 9.26926 0.430583 9.331 0.586 9.331H3.086L0.062 15.387C0.021279 15.4683 5.2133e-05 15.558 0 15.649L0 19.415C0.000264921 19.5702 0.062121 19.719 0.171989 19.8287C0.281856 19.9384 0.430756 20 0.586 20H4.352C4.46081 20 4.56746 19.9696 4.66001 19.9124C4.75256 19.8552 4.82735 19.7733 4.876 19.676L6.6 16.235H11.887C12.0424 16.235 12.1915 16.1733 12.3014 16.0634C12.4113 15.9535 12.473 15.8044 12.473 15.649V11.256C12.473 11.1006 12.4113 10.9515 12.3014 10.8416C12.1915 10.7317 12.0424 10.67 11.887 10.67H9.38L12.408 4.614C12.4487 4.53264 12.4699 4.44295 12.47 4.352V4.351Z" fill="#545569"/>
</g>
</svg>
