<svg width="21" height="21" viewBox="0 0 21 21" fill="none" xmlns="http://www.w3.org/2000/svg">
<g id="Type=Bulk, Icon=Dribbble">
<path id="Path 18" d="M13.01 10.9056C13.9876 13.3765 14.7188 15.938 15.193 18.5526C15.8762 18.1356 16.5074 17.6388 17.073 17.0726C18.5462 15.6071 19.5225 13.7163 19.8641 11.6666C17.6965 10.7731 15.3208 10.5093 13.01 10.9056Z" fill="#545569"/>
<path id="Path 19" d="M17.081 2.93862L17.073 2.92962C15.7751 1.63409 14.1466 0.71942 12.3649 0.285147C10.5832 -0.149127 8.71654 -0.0863597 6.96803 0.466616C8.51748 2.40737 9.88523 4.48645 11.054 6.67762C13.2427 5.74737 15.2754 4.48632 17.081 2.93862Z" fill="#545569"/>
<path id="Path 20" d="M17.8671 3.82353C15.9885 5.43657 13.8735 6.75187 11.5961 7.72353C11.9334 8.4022 12.252 9.09187 12.552 9.79253C13.3976 9.63181 14.2564 9.55111 15.1171 9.55153C16.7832 9.54926 18.4355 9.85437 19.991 10.4515C19.998 10.3015 20.002 10.1515 20.002 9.99953C20.0084 7.75821 19.2559 5.58072 17.8671 3.82153V3.82353Z" fill="#545569"/>
<path id="Path 21" d="M3.84504 17.8846C5.28044 19.0029 6.99312 19.7095 8.79951 19.9286C10.6059 20.1478 12.4379 19.8712 14.099 19.1285C13.6288 16.4018 12.8719 13.7323 11.841 11.1646C10.1021 11.642 8.48686 12.4897 7.10605 13.6496C5.72524 14.8094 4.61147 16.2541 3.84103 17.8846H3.84504Z" fill="#545569"/>
<path id="Path 22" d="M9.81204 10.6266C10.3239 10.41 10.8485 10.225 11.383 10.0726C11.1017 9.42927 10.804 8.79594 10.49 8.17261C7.7822 9.17572 4.91669 9.68611 2.02904 9.67961C1.35104 9.67961 0.677703 9.65194 0.00903616 9.5966C0.00403616 9.7306 3.61614e-05 9.86561 3.61614e-05 9.99661C-0.00350825 11.3104 0.253539 12.6117 0.756301 13.8255C1.25906 15.0392 1.99755 16.1412 2.92904 17.0676C4.38546 14.17 6.82424 11.8844 9.81004 10.6186L9.81204 10.6266Z" fill="#545569"/>
<path id="Path 23" d="M9.94204 7.11553C8.75904 4.9239 7.37296 2.84813 5.80204 0.915527C4.31329 1.6072 3.017 2.65362 2.02687 3.96298C1.03674 5.27235 0.383016 6.80466 0.123039 8.42553C0.751706 8.47686 1.38704 8.50286 2.02904 8.50353C4.72784 8.50615 7.40615 8.035 9.94204 7.11153V7.11553Z" fill="#545569"/>
</g>
</svg>
