<svg width="21" height="10" viewBox="0 0 21 10" fill="none" xmlns="http://www.w3.org/2000/svg">
<g id="Type=Bulk, Icon=Flickr">
<path id="Path 24" d="M4.666 0C3.74315 0 2.84103 0.273656 2.07371 0.786363C1.30639 1.29907 0.708339 2.0278 0.35518 2.8804C0.0020217 3.733 -0.0903807 4.67118 0.089658 5.57629C0.269697 6.48141 0.71409 7.31281 1.36664 7.96536C2.01919 8.61791 2.8506 9.06231 3.75571 9.24234C4.66083 9.42238 5.599 9.32998 6.4516 8.97682C7.3042 8.62366 8.03293 8.02561 8.54564 7.25829C9.05835 6.49097 9.332 5.58885 9.332 4.666C9.33068 3.42891 8.83866 2.24286 7.9639 1.3681C7.08914 0.493344 5.9031 0.00132352 4.666 0Z" fill="#545569"/>
<path id="Path 25" d="M15.338 0C14.4151 0 13.513 0.273656 12.7457 0.786363C11.9784 1.29907 11.3803 2.0278 11.0272 2.8804C10.674 3.733 10.5816 4.67118 10.7617 5.57629C10.9417 6.48141 11.3861 7.31281 12.0386 7.96536C12.6912 8.61791 13.5226 9.06231 14.4277 9.24234C15.3328 9.42238 16.271 9.32998 17.1236 8.97682C17.9762 8.62366 18.7049 8.02561 19.2176 7.25829C19.7303 6.49097 20.004 5.58885 20.004 4.666C20.0027 3.42891 19.5107 2.24286 18.6359 1.3681C17.7611 0.493344 16.5751 0.00132352 15.338 0Z" fill="#545569"/>
</g>
</svg>
