<svg width="24" height="24" viewBox="0 0 24 24" fill="none" xmlns="http://www.w3.org/2000/svg">
<g id="Type=Bulk, Icon=Info Square">
<path id="Fill 1" opacity="0.4" d="M16.34 1.99976H7.67C4.28 1.99976 2 4.37976 2 7.91976V16.0898C2 19.6198 4.28 21.9998 7.67 21.9998H16.34C19.73 21.9998 22 19.6198 22 16.0898V7.91976C22 4.37976 19.73 1.99976 16.34 1.99976Z" fill="#545569"/>
<path id="Combined Shape" fill-rule="evenodd" clip-rule="evenodd" d="M11.1247 8.18921C11.1247 8.67121 11.5157 9.06421 11.9947 9.06421C12.4877 9.06421 12.8797 8.67121 12.8797 8.18921C12.8797 7.70721 12.4877 7.31421 12.0047 7.31421C11.5197 7.31421 11.1247 7.70721 11.1247 8.18921ZM12.8697 11.362C12.8697 10.88 12.4767 10.487 11.9947 10.487C11.5127 10.487 11.1197 10.88 11.1197 11.362V15.782C11.1197 16.264 11.5127 16.657 11.9947 16.657C12.4767 16.657 12.8697 16.264 12.8697 15.782V11.362Z" fill="#545569"/>
</g>
</svg>
