<svg width="20" height="20" viewBox="0 0 20 20" fill="none" xmlns="http://www.w3.org/2000/svg">
<g id="Type=Bulk, Icon=Instagram">
<path id="Path 26" d="M10 5.87891C9.18495 5.87891 8.3882 6.1206 7.7105 6.57343C7.03281 7.02625 6.5046 7.66985 6.19269 8.42287C5.88079 9.17588 5.79917 10.0045 5.95818 10.8039C6.11719 11.6033 6.50969 12.3376 7.08602 12.9139C7.66235 13.4902 8.39664 13.8827 9.19604 14.0417C9.99543 14.2007 10.824 14.1191 11.577 13.8072C12.3301 13.4953 12.9737 12.9671 13.4265 12.2894C13.8793 11.6117 14.121 10.815 14.121 9.99991C14.1197 8.90736 13.6851 7.85994 12.9125 7.08739C12.14 6.31484 11.0926 5.88023 10 5.87891Z" fill="#545569"/>
<path id="Path 27" d="M17.986 2.01501C17.3514 1.37536 16.5963 0.867917 15.7643 0.522044C14.9323 0.17617 14.04 -0.00126506 13.139 6.78922e-06H6.863C5.04445 0.00475703 3.30173 0.729209 2.01573 2.01503C0.729721 3.30084 0.00501523 5.04346 0 6.86201L0 13.139C0.00527902 14.9574 0.730102 16.6997 2.01608 17.9853C3.30206 19.2709 5.04463 19.9953 6.863 20H13.14C14.9579 19.9945 16.6997 19.2698 17.985 17.9843C19.2703 16.6988 19.9947 14.9569 20 13.139V6.86201C20.0013 5.96099 19.8238 5.06867 19.478 4.23669C19.1321 3.40471 18.6246 2.64958 17.985 2.01501H17.986ZM10 15.294C8.95323 15.2938 7.93002 14.9832 7.05974 14.4016C6.18947 13.8199 5.51121 12.9932 5.11071 12.0261C4.71022 11.059 4.60549 9.9948 4.80975 8.96815C5.01402 7.9415 5.51811 6.99847 6.25828 6.25829C6.99846 5.51811 7.94149 5.01402 8.96814 4.80976C9.99479 4.6055 11.059 4.71023 12.0261 5.11072C12.9932 5.51121 13.8199 6.18947 14.4016 7.05975C14.9832 7.93003 15.2938 8.95324 15.294 10C15.2924 11.4036 14.7341 12.7492 13.7417 13.7417C12.7492 14.7341 11.4036 15.2924 10 15.294ZM15.865 4.96501C15.769 5.06079 15.6428 5.12034 15.5079 5.13351C15.373 5.14667 15.2376 5.11264 15.125 5.0372C15.0123 4.96177 14.9293 4.8496 14.8901 4.71981C14.8508 4.59003 14.8578 4.45066 14.9098 4.32545C14.9619 4.20024 15.0557 4.09695 15.1753 4.03317C15.295 3.96938 15.433 3.94906 15.566 3.97567C15.6989 4.00227 15.8185 4.07416 15.9044 4.17907C15.9903 4.28398 16.0372 4.41542 16.037 4.55101C16.0364 4.70626 15.9746 4.85501 15.865 4.96501Z" fill="#545569"/>
</g>
</svg>
