<svg width="20" height="21" viewBox="0 0 20 21" fill="none" xmlns="http://www.w3.org/2000/svg">
<g id="Type=Bulk, Icon=Linkedin">
<path id="Path 28" d="M4.351 6.27612H0.586C0.430583 6.27612 0.281532 6.33786 0.171635 6.44775C0.0617391 6.55765 0 6.7067 0 6.86212L0 19.4121C0 19.5675 0.0617391 19.7166 0.171635 19.8265C0.281532 19.9364 0.430583 19.9981 0.586 19.9981H4.351C4.42795 19.9981 4.50416 19.983 4.57525 19.9535C4.64635 19.9241 4.71095 19.8809 4.76536 19.8265C4.81978 19.7721 4.86294 19.7075 4.89239 19.6364C4.92184 19.5653 4.937 19.4891 4.937 19.4121V6.86212C4.937 6.78517 4.92184 6.70896 4.89239 6.63786C4.86294 6.56677 4.81978 6.50217 4.76536 6.44775C4.71095 6.39334 4.64635 6.35017 4.57525 6.32072C4.50416 6.29128 4.42795 6.27612 4.351 6.27612Z" fill="#545569"/>
<path id="Path 29" d="M2.469 0C1.98068 0 1.50332 0.144804 1.0973 0.416102C0.691273 0.687399 0.374815 1.073 0.187943 1.52415C0.00106977 1.97531 -0.0478247 2.47174 0.0474423 2.95068C0.142709 3.42962 0.377859 3.86955 0.723154 4.21485C1.06845 4.56014 1.50838 4.79529 1.98732 4.89056C2.46626 4.98583 2.9627 4.93693 3.41385 4.75006C3.865 4.56319 4.2506 4.24673 4.5219 3.8407C4.7932 3.43468 4.938 2.95732 4.938 2.469C4.93721 1.81442 4.67683 1.18689 4.21397 0.72403C3.75112 0.261175 3.12358 0.000793907 2.469 0V0Z" fill="#545569"/>
<path id="Path 30" d="M13.768 6.19409C12.8796 6.19483 12.0041 6.40592 11.213 6.81009C11.1998 6.66438 11.1325 6.52888 11.0244 6.43025C10.9164 6.33162 10.7753 6.277 10.629 6.2771H6.86301C6.78605 6.2771 6.70984 6.29225 6.63875 6.3217C6.56765 6.35115 6.50305 6.39432 6.44864 6.44873C6.39422 6.50315 6.35106 6.56774 6.32161 6.63884C6.29216 6.70994 6.27701 6.78614 6.27701 6.8631V19.4161C6.27701 19.493 6.29216 19.5693 6.32161 19.6404C6.35106 19.7114 6.39422 19.776 6.44864 19.8305C6.50305 19.8849 6.56765 19.928 6.63875 19.9575C6.70984 19.9869 6.78605 20.0021 6.86301 20.0021H10.629C10.706 20.0021 10.7822 19.9869 10.8533 19.9575C10.9244 19.928 10.989 19.8849 11.0434 19.8305C11.0978 19.776 11.1409 19.7114 11.1704 19.6404C11.1998 19.5693 11.215 19.493 11.215 19.4161V12.5161C11.2097 12.3012 11.2474 12.0875 11.3259 11.8874C11.4044 11.6873 11.5222 11.505 11.6723 11.3511C11.8223 11.1972 12.0017 11.0749 12.1997 10.9915C12.3978 10.908 12.6106 10.865 12.8255 10.865C13.0404 10.865 13.2532 10.908 13.4513 10.9915C13.6493 11.0749 13.8287 11.1972 13.9788 11.3511C14.1288 11.505 14.2466 11.6873 14.3251 11.8874C14.4037 12.0875 14.4414 12.3012 14.436 12.5161V19.4161C14.436 19.493 14.4512 19.5693 14.4806 19.6404C14.5101 19.7114 14.5532 19.776 14.6076 19.8305C14.6621 19.8849 14.7267 19.928 14.7978 19.9575C14.8689 19.9869 14.945 20.0021 15.022 20.0021H18.788C18.865 20.0021 18.9412 19.9869 19.0123 19.9575C19.0833 19.928 19.148 19.8849 19.2024 19.8305C19.2568 19.776 19.3 19.7114 19.3294 19.6404C19.3589 19.5693 19.374 19.493 19.374 19.4161V11.8011C19.3724 10.3145 18.7812 8.88928 17.73 7.8381C16.6788 6.78693 15.2536 6.19568 13.767 6.19409H13.768Z" fill="#545569"/>
</g>
</svg>
