<svg width="21" height="20" viewBox="0 0 21 20" fill="none" xmlns="http://www.w3.org/2000/svg">
<g id="Type=Bulk, Icon=Messenger">
<path id="Path 31" d="M11.2661 9.56015L8.90512 7.88016C8.75779 7.77263 8.58051 7.71388 8.39812 7.71216C8.24999 7.71375 8.10488 7.75421 7.97729 7.8295C7.84971 7.90478 7.74412 8.01226 7.67111 8.14116L5.71512 11.4412L8.07011 9.84116C8.16902 9.77392 8.28613 9.73854 8.40572 9.73979C8.5253 9.74104 8.64165 9.77887 8.73912 9.84816L11.1001 11.5282C11.2478 11.6358 11.4254 11.6946 11.6081 11.6962C11.7563 11.6947 11.9014 11.6542 12.029 11.5789C12.1566 11.5036 12.2622 11.3961 12.3351 11.2672L14.2911 7.96715L11.9351 9.56715C11.8362 9.63439 11.7191 9.66977 11.5995 9.66852C11.4799 9.66727 11.3636 9.62944 11.2661 9.56015Z" fill="#545569"/>
<path id="Path 32" d="M17.0671 2.83613C15.1727 1.00464 12.6371 -0.0132076 10.0021 0.000129432C7.3672 -0.0131012 4.83159 1.00473 2.93713 2.83613C1.99214 3.7397 1.24366 4.82845 0.738464 6.03436C0.233268 7.24026 -0.0177899 8.5374 0.000979915 9.84472C0.0197497 11.152 0.307944 12.4414 0.847552 13.6323C1.38716 14.8232 2.16659 15.8901 3.13713 16.7661V18.1351C3.12345 18.5655 3.2699 18.9856 3.54813 19.3141C3.68761 19.4698 3.85888 19.5938 4.05037 19.6776C4.24186 19.7615 4.44911 19.8032 4.65813 19.8001C4.91226 19.7976 5.1634 19.7449 5.39713 19.6451L7.01813 18.9731C7.98576 19.2655 8.99127 19.4135 10.0021 19.4121C12.6371 19.4255 15.1727 18.4076 17.0671 16.5761C17.9952 15.6887 18.7339 14.6225 19.2386 13.4417C19.7432 12.261 20.0034 10.9902 20.0034 9.70613C20.0034 8.42205 19.7432 7.15129 19.2386 5.97054C18.7339 4.78978 17.9952 3.72353 17.0671 2.83613ZM15.8361 7.65613L13.3421 11.8681C13.1658 12.1721 12.9127 12.4245 12.6083 12.6C12.3038 12.7755 11.9586 12.8679 11.6071 12.8681C11.1809 12.867 10.7658 12.7324 10.4201 12.4831L8.39113 11.0441L5.50213 13.0081C5.24255 13.2157 4.92727 13.3417 4.59613 13.3701C4.46806 13.3727 4.34164 13.3409 4.22999 13.2781C4.11833 13.2154 4.0255 13.1239 3.96113 13.0131C3.88326 12.8036 3.86158 12.5773 3.89824 12.3568C3.93491 12.1363 4.02864 11.9292 4.17013 11.7561L6.66213 7.54513C6.83845 7.24113 7.09152 6.98877 7.39599 6.81328C7.70047 6.63779 8.0457 6.54532 8.39713 6.54513C8.8233 6.54633 9.23839 6.68096 9.58413 6.93013L11.6131 8.37313L14.5021 6.40013C14.7617 6.1925 15.077 6.06652 15.4081 6.03813C15.5362 6.03558 15.6626 6.06734 15.7743 6.13012C15.8859 6.19289 15.9788 6.28439 16.0431 6.39513C16.1211 6.60466 16.1428 6.83095 16.1062 7.05149C16.0695 7.27202 15.9757 7.47911 15.8341 7.65213L15.8361 7.65613Z" fill="#545569"/>
</g>
</svg>
