<svg width="24" height="24" viewBox="0 0 24 24" fill="none" xmlns="http://www.w3.org/2000/svg">
<g id="Type=Bulk, Icon=Paper Fail">
<g id="Paper Fail">
<path id="Fill 3" opacity="0.4" d="M18.8089 9.021C18.3574 9.021 17.7594 9.011 17.0149 9.011C15.199 9.011 13.7059 7.508 13.7059 5.675V2.459C13.7059 2.206 13.503 2 13.2525 2H7.96337C5.49604 2 3.5 4.026 3.5 6.509V17.284C3.5 19.889 5.59109 22 8.1703 22H16.0455C18.5059 22 20.5 19.987 20.5 17.502V9.471C20.5 9.217 20.298 9.012 20.0465 9.013C19.6238 9.016 19.1168 9.021 18.8089 9.021Z" fill="#545569"/>
<path id="Fill 1" opacity="0.4" d="M16.084 2.56737C15.786 2.25637 15.263 2.47037 15.263 2.90137V5.53837C15.263 6.64437 16.174 7.55437 17.28 7.55437C17.977 7.56237 18.945 7.56437 19.767 7.56237C20.188 7.56137 20.402 7.05837 20.11 6.75437C19.055 5.65737 17.166 3.69137 16.084 2.56737Z" fill="#545569"/>
<path id="Fill 6" d="M12.935 12.9854L14.156 11.7634C14.447 11.4734 14.447 11.0024 14.156 10.7114C13.865 10.4204 13.394 10.4204 13.103 10.7114L11.882 11.9314L10.661 10.7114C10.37 10.4204 9.89798 10.4204 9.60698 10.7114C9.31598 11.0024 9.31598 11.4734 9.60698 11.7634L10.829 12.9854L9.60698 14.2064C9.31598 14.4974 9.31598 14.9684 9.60698 15.2584C9.75298 15.4044 9.94298 15.4774 10.134 15.4774C10.325 15.4774 10.515 15.4044 10.661 15.2584L11.882 14.0384L13.103 15.2584C13.248 15.4044 13.439 15.4774 13.63 15.4774C13.82 15.4774 14.011 15.4044 14.156 15.2584C14.447 14.9684 14.447 14.4974 14.156 14.2064L12.935 12.9854Z" fill="#545569"/>
</g>
</g>
</svg>
