<svg width="24" height="24" viewBox="0 0 24 24" fill="none" xmlns="http://www.w3.org/2000/svg">
<g id="Type=Bulk, Icon=Paper">
<g id="Paper">
<path id="Fill 3" opacity="0.4" d="M18.8088 9.021C18.3573 9.021 17.7592 9.011 17.0146 9.011C15.1987 9.011 13.7055 7.508 13.7055 5.675V2.459C13.7055 2.206 13.5036 2 13.253 2H7.96363C5.49517 2 3.5 4.026 3.5 6.509V17.284C3.5 19.889 5.59022 22 8.16958 22H16.0463C18.5058 22 20.5 19.987 20.5 17.502V9.471C20.5 9.217 20.299 9.012 20.0475 9.013C19.6247 9.016 19.1177 9.021 18.8088 9.021Z" fill="#545569"/>
<path id="Fill 1" opacity="0.4" d="M16.084 2.56737C15.785 2.25637 15.263 2.47037 15.263 2.90137V5.53837C15.263 6.64437 16.174 7.55437 17.28 7.55437C17.977 7.56237 18.945 7.56437 19.767 7.56237C20.188 7.56137 20.402 7.05837 20.11 6.75437C19.055 5.65737 17.166 3.69137 16.084 2.56737Z" fill="#545569"/>
<path id="Combined Shape" fill-rule="evenodd" clip-rule="evenodd" d="M8.97392 11.3877H12.3589C12.7699 11.3877 13.1039 11.0547 13.1039 10.6437C13.1039 10.2327 12.7699 9.89868 12.3589 9.89868H8.97392C8.56292 9.89868 8.22992 10.2327 8.22992 10.6437C8.22992 11.0547 8.56292 11.3877 8.97392 11.3877ZM8.97402 16.3819H14.418C14.829 16.3819 15.163 16.0489 15.163 15.6379C15.163 15.2269 14.829 14.8929 14.418 14.8929H8.97402C8.56302 14.8929 8.23002 15.2269 8.23002 15.6379C8.23002 16.0489 8.56302 16.3819 8.97402 16.3819Z" fill="#545569"/>
</g>
</g>
</svg>
