<svg width="24" height="24" viewBox="0 0 24 24" fill="none" xmlns="http://www.w3.org/2000/svg">
<g id="Type=Bulk, Icon=Paper Plus">
<g id="Paper Plus">
<path id="Fill 3" opacity="0.4" d="M18.8088 9.021C18.3573 9.021 17.7592 9.011 17.0146 9.011C15.1987 9.011 13.7055 7.508 13.7055 5.675V2.459C13.7055 2.206 13.5026 2 13.253 2H7.96363C5.49517 2 3.5 4.026 3.5 6.509V17.284C3.5 19.889 5.59022 22 8.16958 22H16.0453C18.5058 22 20.5 19.987 20.5 17.502V9.471C20.5 9.217 20.298 9.012 20.0465 9.013C19.6247 9.016 19.1168 9.021 18.8088 9.021Z" fill="#545569"/>
<path id="Fill 1" opacity="0.4" d="M16.0841 2.56737C15.7851 2.25637 15.2631 2.47037 15.2631 2.90137V5.53837C15.2631 6.64437 16.1741 7.55437 17.2791 7.55437C17.9771 7.56237 18.9451 7.56437 19.7671 7.56237C20.1881 7.56137 20.4021 7.05837 20.1101 6.75437C19.0551 5.65737 17.1661 3.69137 16.0841 2.56737Z" fill="#545569"/>
<path id="Fill 6" d="M14.3673 12.2364H12.6393V10.5094C12.6393 10.0984 12.3063 9.7644 11.8953 9.7644C11.4843 9.7644 11.1503 10.0984 11.1503 10.5094V12.2364H9.42332C9.01232 12.2364 8.67932 12.5704 8.67932 12.9814C8.67932 13.3924 9.01232 13.7264 9.42332 13.7264H11.1503V15.4524C11.1503 15.8634 11.4843 16.1974 11.8953 16.1974C12.3063 16.1974 12.6393 15.8634 12.6393 15.4524V13.7264H14.3673C14.7783 13.7264 15.1123 13.3924 15.1123 12.9814C15.1123 12.5704 14.7783 12.2364 14.3673 12.2364Z" fill="#545569"/>
</g>
</g>
</svg>
