<svg width="20" height="17" viewBox="0 0 20 17" fill="none" xmlns="http://www.w3.org/2000/svg">
<g id="Type=Bulk, Icon=Reddit">
<path id="Path 33" d="M7.52994 9.37409C7.52994 9.24178 7.49071 9.11242 7.4172 9.0024C7.34369 8.89239 7.23921 8.80664 7.11697 8.756C6.99472 8.70537 6.8602 8.69212 6.73043 8.71793C6.60066 8.74375 6.48146 8.80748 6.3879 8.90104C6.29434 8.9946 6.23062 9.11379 6.20481 9.24357C6.179 9.37334 6.19225 9.50786 6.24288 9.6301C6.29352 9.75235 6.37926 9.85682 6.48928 9.93034C6.5993 10.0038 6.72864 10.0431 6.86095 10.0431C7.0383 10.0428 7.20831 9.97226 7.33372 9.84685C7.45912 9.72145 7.52968 9.55144 7.52994 9.37409Z" fill="#545569"/>
<path id="Path 34" d="M13.1379 8.69897C13.0056 8.69897 12.8763 8.73821 12.7662 8.81172C12.6562 8.88523 12.5705 8.98971 12.5198 9.11195C12.4692 9.2342 12.456 9.36872 12.4818 9.49849C12.5076 9.62826 12.5713 9.74746 12.6649 9.84102C12.7584 9.93458 12.8777 9.99831 13.0074 10.0241C13.1372 10.0499 13.2717 10.0367 13.3939 9.98605C13.5162 9.93542 13.6207 9.84967 13.6942 9.73965C13.7677 9.62964 13.8069 9.50028 13.8069 9.36797C13.8067 9.19062 13.7361 9.02061 13.6107 8.8952C13.4853 8.7698 13.3153 8.69924 13.1379 8.69897Z" fill="#545569"/>
<path id="Path 35" d="M19.9979 8.118C19.998 7.66159 19.8716 7.2141 19.6326 6.82524C19.3937 6.43639 19.0516 6.12141 18.6444 5.91532C18.2372 5.70922 17.7808 5.62008 17.3259 5.6578C16.8711 5.69552 16.4356 5.85863 16.0679 6.129C14.5143 5.11943 12.7238 4.5334 10.8739 4.429L12.2189 1.291L15.0769 2.077C15.1325 2.51018 15.3403 2.90951 15.6631 3.20372C15.9858 3.49793 16.4027 3.66788 16.8391 3.68324C17.2756 3.6986 17.7033 3.55837 18.046 3.28757C18.3887 3.01678 18.624 2.63303 18.7099 2.20483C18.7958 1.77662 18.7268 1.33181 18.5152 0.949767C18.3035 0.567727 17.963 0.273317 17.5544 0.119075C17.1458 -0.0351679 16.6957 -0.039207 16.2844 0.107678C15.8731 0.254563 15.5274 0.542815 15.3089 0.920996L12.0379 0.0209958C11.9014 -0.0165628 11.7559 -0.00342891 11.6283 0.0579695C11.5008 0.119368 11.3997 0.224879 11.3439 0.354996L9.60991 4.4C7.59201 4.43386 5.62409 5.03324 3.92991 6.13C3.65823 5.93025 3.3485 5.7883 3.01983 5.7129C2.69116 5.63751 2.35052 5.63026 2.01894 5.69162C1.68737 5.75297 1.37188 5.88163 1.09195 6.06964C0.81202 6.25765 0.573589 6.50103 0.391369 6.78477C0.20915 7.0685 0.0870079 7.38657 0.0324804 7.71934C-0.0220472 8.05211 -0.0078033 8.39252 0.074333 8.71957C0.156469 9.04662 0.304756 9.35337 0.510041 9.62089C0.715327 9.88841 0.973256 10.111 1.26791 10.275C1.25858 10.3923 1.25391 10.51 1.25391 10.628C1.29203 11.5336 1.55335 12.4157 2.01463 13.1958C2.4759 13.976 3.12285 14.6302 3.89791 15.1C5.70847 16.286 7.8338 16.9003 9.99791 16.863C12.162 16.9003 14.2874 16.2861 16.0979 15.1C16.8732 14.6295 17.5201 13.9747 17.981 13.1938C18.442 12.4128 18.7027 11.5301 18.7399 10.624C18.7399 10.5073 18.7352 10.3903 18.7259 10.273C19.1115 10.0607 19.4331 9.74866 19.6568 9.36957C19.8806 8.99047 19.9984 8.55821 19.9979 8.118ZM5.01991 9.373C5.01991 9.00888 5.12789 8.65294 5.33018 8.35019C5.53247 8.04744 5.81999 7.81147 6.15639 7.67213C6.49279 7.53279 6.86296 7.49633 7.22007 7.56737C7.57719 7.63841 7.90523 7.81374 8.1627 8.07121C8.42017 8.32868 8.5955 8.65672 8.66654 9.01383C8.73757 9.37095 8.70112 9.74112 8.56178 10.0775C8.42243 10.4139 8.18647 10.7014 7.88372 10.9037C7.58097 11.106 7.22503 11.214 6.86091 11.214C6.37281 11.2135 5.90485 11.0193 5.55971 10.6742C5.21457 10.3291 5.02044 9.8611 5.01991 9.373ZM13.5149 13.292C12.4859 14.0128 11.254 14.3869 9.99791 14.36C8.74253 14.3865 7.51134 14.0124 6.48291 13.292C6.36221 13.1969 6.28367 13.0582 6.26423 12.9058C6.24478 12.7534 6.28597 12.5994 6.37894 12.4771C6.47191 12.3548 6.60921 12.2738 6.76127 12.2517C6.91333 12.2296 7.06798 12.2682 7.19191 12.359C8.01588 12.9254 8.9984 13.2157 9.99791 13.188C10.9974 13.2157 11.9799 12.9254 12.8039 12.359C12.9278 12.2682 13.0825 12.2296 13.2346 12.2517C13.3866 12.2738 13.5239 12.3548 13.6169 12.4771C13.7099 12.5994 13.751 12.7534 13.7316 12.9058C13.7122 13.0582 13.6336 13.1969 13.5129 13.292H13.5149ZM13.1379 11.215C12.7738 11.215 12.4179 11.107 12.1151 10.9047C11.8124 10.7024 11.5764 10.4149 11.4371 10.0785C11.2977 9.74212 11.2613 9.37195 11.3323 9.01484C11.4033 8.65772 11.5787 8.32968 11.8361 8.07221C12.0936 7.81474 12.4216 7.63941 12.7788 7.56837C13.1359 7.49733 13.506 7.53379 13.8424 7.67313C14.1788 7.81247 14.4664 8.04844 14.6686 8.35119C14.8709 8.65394 14.9789 9.00988 14.9789 9.374C14.9781 9.86192 14.7839 10.3296 14.4388 10.6745C14.0936 11.0195 13.6258 11.2135 13.1379 11.214V11.215Z" fill="#545569"/>
</g>
</svg>
