<svg width="24" height="24" viewBox="0 0 24 24" fill="none" xmlns="http://www.w3.org/2000/svg">
<g id="Type=Bulk, Icon=Setting">
<g id="Setting">
<path id="Path" d="M12.012 14.8299C10.4075 14.8299 9.1096 13.5799 9.1096 12.0099C9.1096 10.4399 10.4075 9.17993 12.012 9.17993C13.6164 9.17993 14.8837 10.4399 14.8837 12.0099C14.8837 13.5799 13.6164 14.8299 12.012 14.8299Z" fill="#545569"/>
<path id="Path_2" opacity="0.4" d="M21.23 14.37C21.0359 14.07 20.7599 13.77 20.4022 13.58C20.1161 13.44 19.9321 13.21 19.7686 12.94C19.2474 12.08 19.554 10.95 20.4227 10.44C21.4446 9.87 21.7717 8.6 21.1789 7.61L20.4942 6.43C19.9117 5.44 18.6343 5.09 17.6225 5.67C16.7232 6.15 15.5684 5.83 15.0472 4.98C14.8837 4.7 14.7917 4.4 14.8121 4.1C14.8428 3.71 14.7202 3.34 14.5362 3.04C14.1581 2.42 13.4734 2 12.7171 2H11.2762C10.5301 2.02 9.84542 2.42 9.46729 3.04C9.27312 3.34 9.16071 3.71 9.18115 4.1C9.20159 4.4 9.10961 4.7 8.9461 4.98C8.4249 5.83 7.27009 6.15 6.38098 5.67C5.35903 5.09 4.0918 5.44 3.49906 6.43L2.81435 7.61C2.23184 8.6 2.55886 9.87 3.5706 10.44C4.43926 10.95 4.74585 12.08 4.23487 12.94C4.06114 13.21 3.87719 13.44 3.59104 13.58C3.24357 13.77 2.93699 14.07 2.77347 14.37C2.39535 14.99 2.41579 15.77 2.79391 16.42L3.49906 17.62C3.87719 18.26 4.58234 18.66 5.31815 18.66C5.66561 18.66 6.0744 18.56 6.40142 18.36C6.65691 18.19 6.9635 18.13 7.30075 18.13C8.31248 18.13 9.16071 18.96 9.18115 19.95C9.18115 21.1 10.1213 22 11.3068 22H12.6967C13.8719 22 14.8121 21.1 14.8121 19.95C14.8428 18.96 15.691 18.13 16.7028 18.13C17.0298 18.13 17.3364 18.19 17.6021 18.36C17.9291 18.56 18.3277 18.66 18.6854 18.66C19.4109 18.66 20.1161 18.26 20.4942 17.62L21.2096 16.42C21.5775 15.75 21.6081 14.99 21.23 14.37Z" fill="#545569"/>
</g>
</g>
</svg>
