<svg width="21" height="21" viewBox="0 0 21 21" fill="none" xmlns="http://www.w3.org/2000/svg">
<g id="Type=Bulk, Icon=Skype">
<path id="skype" d="M19.4598 12.0025C19.7935 10.4278 19.7285 8.7947 19.2708 7.25151C18.8131 5.70831 17.9772 4.30389 16.8389 3.16581C15.7006 2.02772 14.2961 1.19201 12.7528 0.734577C11.2095 0.277146 9.5764 0.212483 8.00178 0.546461C6.95833 0.0477948 5.78591 -0.115024 4.64606 0.0804371C3.50621 0.275898 2.45501 0.820019 1.63731 1.63784C0.819599 2.45565 0.275618 3.50692 0.0803104 4.6468C-0.114998 5.78668 0.0479782 6.95907 0.546784 8.00246C0.213136 9.57693 0.277996 11.2098 0.735477 12.7529C1.19296 14.2959 2.02857 15.7003 3.16647 16.8385C4.30436 17.9767 5.70851 18.8126 7.25144 19.2705C8.79437 19.7284 10.4272 19.7937 12.0018 19.4605C13.0456 19.9599 14.2186 20.1233 15.3591 19.9281C16.4996 19.7328 17.5515 19.1886 18.3697 18.3704C19.1879 17.5522 19.7322 16.5003 19.9274 15.3598C20.1226 14.2192 19.9593 13.0462 19.4598 12.0025ZM10.0018 9.41746C11.0637 9.3988 12.1075 9.69453 13.0018 10.2675C13.4025 10.5056 13.7371 10.8403 13.9752 11.241C14.2133 11.6417 14.3472 12.0957 14.3648 12.5615C14.3472 13.0272 14.2133 13.4812 13.9752 13.8819C13.7371 14.2826 13.4025 14.6173 13.0018 14.8555C12.1075 15.4284 11.0637 15.7242 10.0018 15.7055C8.93984 15.7242 7.89608 15.4284 7.00178 14.8555C6.60167 14.617 6.26761 14.2821 6.03007 13.8814C5.79252 13.4807 5.65904 13.0269 5.64178 12.5615C5.64178 12.406 5.70352 12.257 5.81342 12.1471C5.92332 12.0372 6.07237 11.9755 6.22778 11.9755C6.3832 11.9755 6.53225 12.0372 6.64215 12.1471C6.75205 12.257 6.81378 12.406 6.81378 12.5615C6.81378 13.6305 8.27479 14.5335 10.0028 14.5335C11.7308 14.5335 13.1918 13.6335 13.1918 12.5615C13.1918 11.4895 11.7318 10.5895 10.0018 10.5895C8.93984 10.6082 7.89608 10.3124 7.00178 9.73946C6.60167 9.50095 6.26761 9.16609 6.03007 8.7654C5.79252 8.36472 5.65904 7.91095 5.64178 7.44546C5.65904 6.97997 5.79252 6.5262 6.03007 6.12552C6.26761 5.72483 6.60167 5.38997 7.00178 5.15146C7.89608 4.57848 8.93984 4.28274 10.0018 4.30146C11.0637 4.28274 12.1075 4.57848 13.0018 5.15146C13.4025 5.38961 13.7371 5.72431 13.9752 6.12502C14.2133 6.52573 14.3472 6.97969 14.3648 7.44546C14.3648 7.60088 14.303 7.74993 14.1931 7.85983C14.0833 7.96972 13.9342 8.03146 13.7788 8.03146C13.6234 8.03146 13.4743 7.96972 13.3644 7.85983C13.2545 7.74993 13.1928 7.60088 13.1928 7.44546C13.1928 6.37646 11.7318 5.47346 10.0038 5.47346C8.27578 5.47346 6.81478 6.37346 6.81478 7.44546C6.81478 8.51746 8.27478 9.41746 10.0018 9.41746Z" fill="#545569"/>
</g>
</svg>
