<svg width="20" height="20" viewBox="0 0 20 20" fill="none" xmlns="http://www.w3.org/2000/svg">
<g id="Type=Bulk, Icon=Snapchat">
<path id="snapchat" d="M19.4067 13.766L16.5067 10.766L17.6347 10.299C17.8741 10.2041 18.0923 10.0626 18.2764 9.88258C18.4606 9.70259 18.6072 9.48777 18.7075 9.25061C18.8079 9.01346 18.8601 8.75871 18.8611 8.50119C18.8621 8.24367 18.8119 7.98852 18.7133 7.7506C18.6148 7.51267 18.4699 7.29672 18.2871 7.11531C18.1044 6.93391 17.8873 6.79066 17.6487 6.69392C17.41 6.59718 17.1545 6.54887 16.897 6.55181C16.6395 6.55475 16.3851 6.60887 16.1487 6.71103L16.0727 6.74303V6.00203C16.0522 4.40315 15.4027 2.87671 14.2648 1.75331C13.1269 0.629913 11.5922 0 9.99323 0C8.39422 0 6.85958 0.629913 5.72168 1.75331C4.58378 2.87671 3.93424 4.40315 3.91373 6.00203V6.74703L3.83773 6.71603C3.60134 6.61387 3.34699 6.55975 3.08949 6.55681C2.83198 6.55387 2.57646 6.60218 2.3378 6.69892C2.09914 6.79566 1.88211 6.93891 1.69933 7.12031C1.51655 7.30172 1.37167 7.51767 1.27313 7.7556C1.1746 7.99352 1.12436 8.24867 1.12536 8.50619C1.12635 8.76371 1.17856 9.01846 1.27893 9.25561C1.3793 9.49277 1.52584 9.70759 1.71002 9.88758C1.8942 10.0676 2.11233 10.2091 2.35173 10.304L3.47973 10.771L0.579734 13.771C0.344225 13.9549 0.168671 14.2045 0.0753707 14.4884C-0.0179294 14.7722 -0.0247643 15.0773 0.0557341 15.365C0.149233 15.5869 0.304686 15.7772 0.503492 15.913C0.702297 16.0489 0.936035 16.1246 1.17673 16.131C1.28706 16.1426 1.39399 16.176 1.49132 16.2292C1.58865 16.2824 1.67445 16.3544 1.74373 16.441C1.81066 16.5232 1.86059 16.6178 1.89064 16.7195C1.92068 16.8211 1.93023 16.9277 1.91873 17.033C1.88744 17.2236 1.89806 17.4186 1.94988 17.6046C2.00169 17.7906 2.09344 17.9631 2.21873 18.11C2.3348 18.235 2.47617 18.3338 2.63344 18.3999C2.7907 18.4659 2.96023 18.4977 3.13073 18.493C3.47883 18.4828 3.81911 18.3874 4.12173 18.215L4.32173 18.109C4.66262 17.9451 5.0376 17.8645 5.41573 17.874C5.85745 17.8627 6.29428 17.9686 6.68173 18.181L8.24373 19.138C8.77118 19.4407 9.36671 19.6048 9.97473 19.615H10.0147C10.6228 19.6048 11.2183 19.4407 11.7457 19.138L13.3077 18.181C13.6952 17.9686 14.132 17.8627 14.5737 17.874C14.9519 17.8645 15.3269 17.945 15.6677 18.109L15.8677 18.215C16.1704 18.3873 16.5106 18.4827 16.8587 18.493C17.0292 18.4977 17.1988 18.4659 17.356 18.3999C17.5133 18.3338 17.6547 18.235 17.7707 18.11C17.896 17.9631 17.9877 17.7906 18.0395 17.6046C18.0913 17.4186 18.102 17.2236 18.0707 17.033C18.0592 16.9277 18.0688 16.8211 18.0988 16.7195C18.1289 16.6178 18.1788 16.5232 18.2457 16.441C18.315 16.3544 18.4008 16.2823 18.4981 16.2291C18.5954 16.1759 18.7024 16.1425 18.8127 16.131C19.0534 16.1246 19.2872 16.0489 19.486 15.913C19.6848 15.7772 19.8402 15.5869 19.9337 15.365C20.0142 15.0773 20.0074 14.7722 19.9141 14.4884C19.8208 14.2045 19.6452 13.9549 19.4097 13.771L19.4067 13.766Z" fill="#545569"/>
</g>
</svg>
