<svg width="21" height="21" viewBox="0 0 21 21" fill="none" xmlns="http://www.w3.org/2000/svg">
<g id="Type=Bulk, Icon=Spotify">
<path id="spotify" d="M17.0721 2.92911C15.1966 1.05363 12.6529 0 10.0006 0C7.34828 0 4.80459 1.05363 2.92911 2.92911C1.05363 4.80459 0 7.34828 0 10.0006C0 12.6529 1.05363 15.1966 2.92911 17.0721C4.80459 18.9476 7.34828 20.0012 10.0006 20.0012C12.6529 20.0012 15.1966 18.9476 17.0721 17.0721C18.9476 15.1966 20.0012 12.6529 20.0012 10.0006C20.0012 7.34828 18.9476 4.80459 17.0721 2.92911ZM14.6211 14.1221C14.5572 14.2637 14.4396 14.3741 14.2943 14.4291C14.1489 14.484 13.9877 14.479 13.8461 14.4151C12.0554 13.6048 10.1116 13.1881 8.14611 13.1931C7.09238 13.1926 6.04199 13.3117 5.01511 13.5481C4.86367 13.5831 4.70453 13.5565 4.57269 13.4742C4.44085 13.3919 4.34712 13.2606 4.31211 13.1091C4.2771 12.9577 4.30369 12.7985 4.38601 12.6667C4.46834 12.5349 4.59967 12.4411 4.75111 12.4061C5.86458 12.1498 7.00353 12.0206 8.14611 12.0211C10.2773 12.0166 12.3847 12.4691 14.3261 13.3481C14.4677 13.4121 14.5781 13.5296 14.6331 13.6749C14.688 13.8203 14.683 13.9815 14.6191 14.1231L14.6211 14.1221ZM15.8581 11.3221C15.8265 11.3923 15.7814 11.4556 15.7254 11.5084C15.6694 11.5611 15.6035 11.6024 15.5315 11.6297C15.4595 11.657 15.3829 11.6698 15.306 11.6675C15.229 11.6652 15.1533 11.6477 15.0831 11.6161C12.9034 10.6338 10.539 10.1285 8.14811 10.1341C6.91523 10.1342 5.68601 10.2683 4.48211 10.5341C4.33204 10.5634 4.17645 10.5329 4.04856 10.4491C3.92066 10.3653 3.8306 10.2348 3.79758 10.0855C3.76456 9.93622 3.79121 9.77993 3.87183 9.65C3.95246 9.52008 4.08067 9.42681 4.22911 9.39011C5.51617 9.10664 6.83021 8.9638 8.14811 8.96411C10.7049 8.95846 13.2333 9.4992 15.5641 10.5501C15.6343 10.5817 15.6976 10.6268 15.7504 10.6828C15.8031 10.7389 15.8444 10.8047 15.8717 10.8767C15.899 10.9487 15.9118 11.0253 15.9095 11.1023C15.9072 11.1792 15.8897 11.2549 15.8581 11.3251V11.3221ZM17.0581 8.60511C17.0266 8.6754 16.9816 8.7388 16.9256 8.79167C16.8696 8.84455 16.8037 8.88586 16.7318 8.91326C16.6598 8.94066 16.5831 8.9536 16.5061 8.95134C16.4291 8.94909 16.3534 8.93168 16.2831 8.90011C13.7259 7.7485 10.9526 7.15531 8.14811 7.16011C6.74253 7.15965 5.34081 7.30713 3.96611 7.60011C3.89044 7.61734 3.8121 7.61937 3.73563 7.60608C3.65917 7.59279 3.58611 7.56444 3.52069 7.52268C3.45527 7.48093 3.3988 7.42659 3.35455 7.36283C3.3103 7.29906 3.27916 7.22715 3.26294 7.15125C3.24671 7.07536 3.24573 6.99699 3.26003 6.92071C3.27434 6.84443 3.30366 6.77175 3.34628 6.7069C3.38891 6.64204 3.44399 6.5863 3.50834 6.5429C3.57268 6.49951 3.64501 6.46933 3.72111 6.45411C5.17634 6.14385 6.66018 5.98766 8.14811 5.98811C11.117 5.98153 14.0532 6.60777 16.7611 7.82511C16.8314 7.85659 16.8948 7.90162 16.9477 7.95761C17.0005 8.01361 17.0419 8.07948 17.0693 8.15146C17.0967 8.22344 17.1096 8.30011 17.1073 8.3771C17.1051 8.45408 17.0877 8.52986 17.0561 8.60011L17.0581 8.60511Z" fill="#545569"/>
</g>
</svg>
