<svg width="24" height="24" viewBox="0 0 24 24" fill="none" xmlns="http://www.w3.org/2000/svg">
<g id="Type=Bulk, Icon=Time Circle">
<g id="Time Circle">
<path id="Fill 1" opacity="0.4" d="M21.9998 12C21.9998 17.524 17.5228 22 11.9998 22C6.47679 22 1.99979 17.524 1.99979 12C1.99979 6.478 6.47679 2 11.9998 2C17.5228 2 21.9998 6.478 21.9998 12Z" fill="#545569"/>
<path id="Fill 4" d="M15.5735 15.8145C15.4425 15.8145 15.3105 15.7805 15.1895 15.7095L11.2635 13.3675C11.0375 13.2315 10.8985 12.9865 10.8985 12.7225V7.67554C10.8985 7.26154 11.2345 6.92554 11.6485 6.92554C12.0625 6.92554 12.3985 7.26154 12.3985 7.67554V12.2965L15.9585 14.4195C16.3135 14.6325 16.4305 15.0925 16.2185 15.4485C16.0775 15.6835 15.8285 15.8145 15.5735 15.8145Z" fill="#545569"/>
</g>
</g>
</svg>
