<svg width="16" height="20" viewBox="0 0 16 20" fill="none" xmlns="http://www.w3.org/2000/svg">
<g id="Type=Bulk, Icon=Twitter">
<path id="twitter" d="M12.355 14.0678H5.879V10.5328H12.354C12.7446 10.54 13.1327 10.4693 13.4956 10.3248C13.8586 10.1803 14.1891 9.96493 14.4679 9.69126C14.7466 9.41758 14.9681 9.0911 15.1192 8.73088C15.2704 8.37066 15.3482 7.98393 15.3482 7.59328C15.3482 7.20263 15.2704 6.8159 15.1192 6.45568C14.9681 6.09546 14.7466 5.76898 14.4679 5.49531C14.1891 5.22163 13.8586 5.00626 13.4956 4.86177C13.1327 4.71728 12.7446 4.64658 12.354 4.65378H5.879V2.88578C5.86479 2.11557 5.54885 1.38169 4.99914 0.842024C4.44942 0.302353 3.70985 0 2.9395 0C2.16915 0 1.42958 0.302353 0.879865 0.842024C0.330148 1.38169 0.0142067 2.11557 0 2.88578L0 17.0078C0.00132333 17.7869 0.311561 18.5338 0.862689 19.0845C1.41382 19.6353 2.16085 19.945 2.94 19.9458H12.355C12.7456 19.953 13.1337 19.8823 13.4966 19.7378C13.8596 19.5933 14.1901 19.3779 14.4689 19.1043C14.7476 18.8306 14.9691 18.5041 15.1202 18.1439C15.2714 17.7837 15.3492 17.3969 15.3492 17.0063C15.3492 16.6156 15.2714 16.2289 15.1202 15.8687C14.9691 15.5085 14.7476 15.182 14.4689 14.9083C14.1901 14.6346 13.8596 14.4193 13.4966 14.2748C13.1337 14.1303 12.7456 14.0596 12.355 14.0668V14.0678Z" fill="#545569"/>
</g>
</svg>
