<svg width="20" height="20" viewBox="0 0 20 20" fill="none" xmlns="http://www.w3.org/2000/svg">
<g id="Type=Bulk, Icon=Twitch">
<path id="Path 36" d="M6.42801 6.19312H7.817V10.0421H6.42801V6.19312Z" fill="#545569"/>
<path id="Path 37" d="M3.68298 13.8091H6.86298C7.0184 13.8091 7.16745 13.8708 7.27735 13.9807C7.38725 14.0906 7.44899 14.2397 7.44899 14.3951V15.1061L9.02199 13.9261C9.12359 13.8501 9.24709 13.809 9.37399 13.8091H12.897L15.697 11.0141V3.68311H3.68298V13.8091ZM10.23 5.60911C10.23 5.45369 10.2917 5.30464 10.4016 5.19474C10.5115 5.08484 10.6606 5.02311 10.816 5.02311H13.377C13.5324 5.02311 13.6815 5.08484 13.7914 5.19474C13.9012 5.30464 13.963 5.45369 13.963 5.60911V10.6301C13.963 10.7855 13.9012 10.9346 13.7914 11.0445C13.6815 11.1544 13.5324 11.2161 13.377 11.2161H10.813C10.6576 11.2161 10.5085 11.1544 10.3986 11.0445C10.2887 10.9346 10.227 10.7855 10.227 10.6301L10.23 5.60911ZM5.25899 5.60911C5.25899 5.45369 5.32073 5.30464 5.43063 5.19474C5.54052 5.08484 5.68957 5.02311 5.84499 5.02311H8.40598C8.5614 5.02311 8.71045 5.08484 8.82035 5.19474C8.93025 5.30464 8.99199 5.45369 8.99199 5.60911V10.6301C8.99199 10.7855 8.93025 10.9346 8.82035 11.0445C8.71045 11.1544 8.5614 11.2161 8.40598 11.2161H5.84399C5.68857 11.2161 5.53952 11.1544 5.42962 11.0445C5.31972 10.9346 5.25799 10.7855 5.25799 10.6301L5.25899 5.60911Z" fill="#545569"/>
<path id="Path 38" d="M11.401 6.19312H12.79V10.0421H11.401V6.19312Z" fill="#545569"/>
<path id="Path 39" d="M18.788 7.16462e-07H1.451C1.33087 -0.000187084 1.21359 0.0365492 1.11503 0.105234C1.01648 0.173919 0.941409 0.271235 0.9 0.384001L0.036 2.741C0.0124638 2.80507 0.00028128 2.87275 0 2.941V16.9C0 17.0554 0.0617391 17.2045 0.171635 17.3144C0.281532 17.4243 0.430583 17.486 0.586 17.486H4.394V19.411C4.3936 19.4882 4.40847 19.5647 4.43774 19.6362C4.46701 19.7076 4.51012 19.7726 4.56457 19.8273C4.61903 19.882 4.68376 19.9255 4.75505 19.9551C4.82635 19.9847 4.90279 20 4.98 20H7.491C7.64435 19.9991 7.79122 19.9381 7.9 19.83L10.239 17.491H14.153C14.3083 17.4908 14.4573 17.4289 14.567 17.319L19.197 12.688C19.3069 12.5783 19.3688 12.4293 19.369 12.274V0.586001C19.369 0.431446 19.308 0.283148 19.1991 0.173394C19.0903 0.0636402 18.9425 0.00131944 18.788 7.16462e-07ZM16.864 11.256C16.8638 11.4113 16.8019 11.5603 16.692 11.67L13.554 14.808C13.4997 14.8625 13.4352 14.9057 13.3641 14.9352C13.2931 14.9647 13.2169 14.98 13.14 14.98H9.569L7.215 16.746C7.12793 16.8114 7.02434 16.8513 6.91587 16.8611C6.80741 16.8709 6.69835 16.8503 6.60093 16.8016C6.50352 16.7529 6.42161 16.678 6.36439 16.5854C6.30717 16.4927 6.27691 16.3859 6.277 16.277V14.977H3.1C2.94458 14.977 2.79553 14.9153 2.68564 14.8054C2.57574 14.6955 2.514 14.5464 2.514 14.391V3.1C2.51347 3.02271 2.52824 2.94608 2.55745 2.87452C2.58667 2.80296 2.62975 2.73789 2.68421 2.68305C2.73868 2.62821 2.80346 2.58469 2.87482 2.55499C2.94618 2.52529 3.02271 2.51 3.1 2.51H16.278C16.4334 2.51 16.5825 2.57174 16.6924 2.68164C16.8023 2.79153 16.864 2.94058 16.864 3.096V11.256Z" fill="#545569"/>
</g>
</svg>
