<svg width="20" height="17" viewBox="0 0 20 17" fill="none" xmlns="http://www.w3.org/2000/svg">
<g id="Type=Bulk, Icon=YouTube">
<path id="Path 40" d="M17.846 0H2.155C1.58362 0.000529545 1.0358 0.227744 0.63177 0.63177C0.227744 1.0358 0.000529545 1.58362 0 2.155L0 14.08C0.000793654 14.6513 0.228092 15.199 0.632061 15.6029C1.03603 16.0069 1.5837 16.2342 2.155 16.235H17.846C18.4171 16.2339 18.9645 16.0065 19.3683 15.6026C19.772 15.1986 19.9992 14.6511 20 14.08V2.155C19.9995 1.58379 19.7724 1.03612 19.3686 0.632123C18.9648 0.228125 18.4172 0.0007942 17.846 0ZM13.566 9.344L8.842 11.706C8.58526 11.8402 8.30067 11.9125 8.011 11.917C7.80987 11.9136 7.61163 11.8685 7.42885 11.7845C7.24606 11.7005 7.08271 11.5795 6.94913 11.4291C6.81555 11.2787 6.71465 11.1022 6.65283 10.9107C6.59102 10.7193 6.56962 10.5171 6.59 10.317V5.921C6.56962 5.72087 6.59102 5.5187 6.65283 5.32727C6.71465 5.13585 6.81555 4.95934 6.94913 4.80894C7.08271 4.65853 7.24606 4.5375 7.42885 4.45351C7.61163 4.36952 7.80987 4.3244 8.011 4.321C8.30067 4.32551 8.58526 4.39777 8.842 4.532L13.567 6.895C13.8176 6.9934 14.0351 7.16079 14.1944 7.37779C14.3537 7.59478 14.4482 7.85247 14.467 8.121C14.4482 8.38953 14.3537 8.64722 14.1944 8.86421C14.0351 9.08121 13.8176 9.2486 13.567 9.347L13.566 9.344Z" fill="#545569"/>
<path id="Path 41" d="M13.043 7.94389L8.31799 5.58089C8.22372 5.52864 8.11865 5.49887 8.01099 5.4939C7.80599 5.4939 7.76199 5.72789 7.76199 5.92389V10.3169C7.76199 10.5169 7.80499 10.7469 8.01099 10.7469C8.11865 10.7419 8.22372 10.7121 8.31799 10.6599L13.043 8.2979C13.0711 8.30721 13.101 8.30972 13.1303 8.30522C13.1595 8.30072 13.1873 8.28933 13.2113 8.272C13.2353 8.25467 13.2548 8.23189 13.2683 8.20554C13.2818 8.17918 13.2888 8.15 13.2888 8.12039C13.2888 8.09079 13.2818 8.06161 13.2683 8.03525C13.2548 8.00889 13.2353 7.98611 13.2113 7.96878C13.1873 7.95145 13.1595 7.94006 13.1303 7.93556C13.101 7.93106 13.0711 7.93357 13.043 7.94289V7.94389Z" fill="#545569"/>
</g>
</svg>
