<svg width="1230" height="613" viewBox="0 0 1230 613" fill="none" xmlns="http://www.w3.org/2000/svg">
<path d="M-0.867188 -68.1149L1229.23 -68.1149L927.856 856.35H-0.867188V-68.1149Z" fill="#F24405"/>
<path d="M-68.0405 412.576C-175.267 353.835 -308.396 376.135 -361.556 394.627C-363.253 481.65 -365.628 657.002 -361.556 662.224C-357.484 667.445 281.464 664.399 600.429 662.224V577.376C532.564 525.162 468.093 481.106 269.588 503.95C117.964 521.399 65.9928 486.002 -68.0405 412.576Z" fill="white" fill-opacity="0.04"/>
<path d="M34.8642 529.687C-74.8033 491.04 -206.709 515.851 -258.954 533.087C-256.761 599.707 -251.301 733.886 -247.002 737.64C-242.704 741.394 395.02 701.798 713.345 681.531L709.556 616.673C639.475 580.718 573.145 550.802 375.998 579.842C225.412 602.024 171.949 577.997 34.8642 529.687Z" fill="white" fill-opacity="0.04"/>
<path d="M360.707 177.935C129.683 167.171 82.7066 302.255 7.92296 271.056C4.55376 121.926 -37.3511 -171.429 -31.6984 -180.416C-26.0457 -189.402 778.85 -172.245 1226.32 -171.484L1227.28 -26.0666C1132.67 64.0524 1208.14 87.6691 864.607 83.1837C621.912 80.015 619.302 189.984 360.707 177.935Z" fill="white" fill-opacity="0.04"/>
<path d="M202.113 119.506C-28.9104 108.742 -75.8871 243.826 -150.671 212.627C-154.04 63.4969 -195.945 -229.858 -190.292 -238.844C-184.639 -247.831 620.256 -230.674 1067.72 -229.913L1068.69 -84.4954C974.08 5.62367 1049.55 29.2404 706.014 24.755C463.318 21.5863 460.708 131.556 202.113 119.506Z" fill="white" fill-opacity="0.04"/>
</svg>
