<svg width="147" height="150" viewBox="0 0 147 150" fill="none" xmlns="http://www.w3.org/2000/svg">
<path id="bg_prop_3" d="M67.9227 0.863221C54.4737 2.1616 41.6303 7.08961 30.7646 15.1207C19.899 23.1517 11.4195 33.9841 6.23233 46.4602C1.04511 58.9362 -0.65492 72.5873 1.31388 85.9545C3.28267 99.3218 8.84631 111.903 17.4103 122.354C25.9743 132.804 37.2168 140.732 49.9365 145.289C62.6562 149.847 76.3751 150.862 89.6273 148.228C102.879 145.594 115.167 139.408 125.177 130.333C135.186 121.257 142.542 109.633 146.458 96.7013L122.426 89.4237C119.829 98.0009 114.95 105.711 108.311 111.731C101.671 117.75 93.5215 121.853 84.7317 123.6C75.9419 125.347 66.8425 124.674 58.4059 121.651C49.9692 118.628 42.5124 113.37 36.8321 106.438C31.1519 99.5066 27.4616 91.1618 26.1558 82.2957C24.85 73.4295 25.9775 64.3752 29.4181 56.1001C32.8586 47.8251 38.4828 40.6403 45.6897 35.3135C52.8966 29.9867 61.4153 26.7181 70.3356 25.8569L67.9227 0.863221Z" fill="url(#paint0_linear_1_2851)"/>
<defs>
<linearGradient id="paint0_linear_1_2851" x1="111.235" y1="171.081" x2="-25.4752" y2="67.0724" gradientUnits="userSpaceOnUse">
<stop stop-color="#85D5FF"/>
<stop offset="1" stop-color="#B8FFF1"/>
</linearGradient>
</defs>
</svg>
