<svg width="211" height="185" viewBox="0 0 211 185" fill="none" xmlns="http://www.w3.org/2000/svg">
<path id="bg_prop_4" d="M0.886989 48.7726C9.80203 36.4582 21.0553 26.0203 34.0042 18.0549C46.9532 10.0895 61.3442 4.75261 76.3557 2.34889C91.3672 -0.0548353 106.705 0.521711 121.494 4.04561C136.283 7.56951 150.232 13.9717 162.547 22.8868C174.861 31.8018 185.299 43.0551 193.264 56.004C201.23 68.953 206.567 83.344 208.97 98.3555C211.374 113.367 210.798 128.705 207.274 143.494C203.75 158.282 197.348 172.232 188.433 184.547L94.6598 116.66L0.886989 48.7726Z" fill="url(#paint0_linear_1_2850)"/>
<defs>
<linearGradient id="paint0_linear_1_2850" x1="119.883" y1="273.887" x2="-55.8297" y2="73.2865" gradientUnits="userSpaceOnUse">
<stop stop-color="#85D5FF"/>
<stop offset="1" stop-color="#B8FFF1"/>
</linearGradient>
</defs>
</svg>
