<svg width="133" height="44" viewBox="0 0 133 44" fill="none" xmlns="http://www.w3.org/2000/svg">
<path d="M11.9827 0.976501V1.16207L11.2041 1.34764V9.56977L11.9827 9.75534V9.94091H8.29151V9.75534L9.07013 9.56977V2.56098L6.01337 10.0694H5.62403L1.65888 2.56098V9.36993L2.69703 9.75534V9.94091H0.231445V9.75534L1.2696 9.36993V1.34764L0.490972 1.16207V0.976501H2.10586C2.35098 0.976501 2.56726 1.00505 2.74029 1.06215C2.91331 1.11925 3.08636 1.19062 3.21613 1.29054C3.36032 1.39046 3.47567 1.50466 3.5766 1.63313C3.67753 1.7616 3.76405 1.91862 3.85056 2.07564L6.67662 7.42859L8.83942 2.07564C8.91152 1.89007 8.98363 1.73305 9.08456 1.60458C9.17107 1.47611 9.2864 1.36191 9.41616 1.26199C9.54593 1.16207 9.70456 1.0907 9.89201 1.04787C10.0795 1.00505 10.3101 0.976501 10.5985 0.976501H11.9827Z" fill="#292F36"/>
<path d="M16.5967 3.36041C17.1302 3.36041 17.6204 3.43179 18.0386 3.5888C18.4567 3.74582 18.8172 3.97422 19.12 4.25971C19.4228 4.55947 19.6391 4.91634 19.7977 5.3303C19.9563 5.74426 20.0284 6.22959 20.0284 6.75775C20.0284 7.28591 19.9563 7.77124 19.7977 8.1852C19.6391 8.59917 19.4084 8.95603 19.12 9.25579C18.8172 9.55556 18.4567 9.76968 18.0386 9.9267C17.6204 10.0837 17.1302 10.1551 16.5967 10.1551C16.0632 10.1551 15.573 10.0837 15.1548 9.9267C14.7367 9.76968 14.3762 9.54129 14.0734 9.25579C13.7706 8.95603 13.5543 8.59917 13.3957 8.1852C13.2371 7.77124 13.165 7.28591 13.165 6.75775C13.165 6.22959 13.2371 5.74426 13.3957 5.3303C13.5543 4.91634 13.7851 4.55947 14.0734 4.25971C14.3762 3.95994 14.7367 3.74582 15.1548 3.5888C15.573 3.43179 16.0488 3.36041 16.5967 3.36041ZM16.5967 9.91242C16.7409 9.91242 16.8851 9.8696 17.0437 9.76968C17.1879 9.66976 17.3176 9.51274 17.433 9.27007C17.5483 9.0274 17.6493 8.71336 17.7214 8.31368C17.7935 7.89971 17.8367 7.38583 17.8367 6.77203C17.8367 6.14395 17.7935 5.63006 17.7214 5.23038C17.6493 4.83069 17.5483 4.50237 17.433 4.27398C17.3176 4.04559 17.1879 3.8743 17.0437 3.77438C16.8995 3.67445 16.7553 3.63163 16.5967 3.63163C16.4525 3.63163 16.3083 3.67445 16.1497 3.77438C16.0055 3.8743 15.8757 4.03131 15.7604 4.27398C15.645 4.51665 15.5441 4.83069 15.472 5.23038C15.3999 5.64434 15.3567 6.15822 15.3567 6.77203C15.3567 7.4001 15.3999 7.91399 15.472 8.31368C15.5441 8.71336 15.645 9.04168 15.7604 9.27007C15.8757 9.49846 16.0055 9.66976 16.1497 9.76968C16.2939 9.85533 16.4381 9.91242 16.5967 9.91242Z" fill="#292F36"/>
<path d="M26.3292 0.976501C27.1078 0.976501 27.4971 1.36191 27.4971 2.13274V9.58405L28.2758 9.76962V9.95518H27.1078C26.7906 9.95518 26.5455 9.91236 26.358 9.81244C26.1706 9.71252 26.012 9.59832 25.9111 9.48413C25.7813 9.34138 25.6804 9.17009 25.6227 8.99879C25.5074 9.22718 25.3632 9.41275 25.1901 9.58405C25.0459 9.72679 24.8441 9.85526 24.599 9.98373C24.3538 10.1122 24.0655 10.1693 23.7338 10.1693C23.3589 10.1693 23.0129 10.0979 22.6957 9.95518C22.364 9.81244 22.0901 9.59832 21.8594 9.31283C21.6287 9.02734 21.4269 8.67048 21.2971 8.25652C21.1529 7.82828 21.0952 7.34294 21.0952 6.77196C21.0952 6.20098 21.1673 5.71565 21.2971 5.28741C21.4413 4.85918 21.6287 4.51659 21.8882 4.2311C22.1333 3.94561 22.4362 3.73149 22.7822 3.58874C23.1283 3.446 23.5176 3.37462 23.9501 3.37462C24.1808 3.37462 24.3827 3.40317 24.5701 3.446C24.7576 3.50309 24.9162 3.56019 25.0459 3.63157C25.2045 3.70294 25.3343 3.78859 25.4497 3.88851V1.39046L24.6711 1.20489V1.01933H26.3292V0.976501ZM25.4208 4.25964C25.3199 4.15972 25.2334 4.07408 25.1181 4.0027C25.0171 3.93133 24.9162 3.87423 24.8008 3.81713C24.6855 3.76004 24.5701 3.74576 24.4404 3.74576C24.2818 3.74576 24.1231 3.78859 23.979 3.87423C23.8348 3.95988 23.7194 4.10262 23.6041 4.31674C23.5031 4.53086 23.4166 4.8449 23.359 5.23031C23.3013 5.63 23.2725 6.12961 23.2725 6.75769C23.2725 7.37149 23.3013 7.85683 23.359 8.24224C23.4166 8.62765 23.4887 8.92742 23.5897 9.14153C23.6762 9.35565 23.7771 9.51267 23.9069 9.58405C24.0222 9.65542 24.1376 9.69824 24.2529 9.69824C24.4548 9.69824 24.6278 9.64114 24.772 9.54122C24.9162 9.4413 25.0315 9.31283 25.1324 9.18436C25.2478 9.02734 25.3488 8.85604 25.4353 8.67048V4.25964H25.4208Z" fill="#292F36"/>
<path d="M32.616 10.1694C31.5058 10.1694 30.6407 9.86961 30.0351 9.27008C29.4151 8.67055 29.1123 7.82835 29.1123 6.77203C29.1123 6.24388 29.1844 5.75854 29.343 5.34458C29.5016 4.93062 29.7179 4.57375 29.9919 4.27399C30.2658 3.97422 30.5974 3.76011 31.0012 3.60309C31.3905 3.44607 31.823 3.37469 32.2988 3.37469C32.7891 3.37469 33.2217 3.44607 33.5966 3.57454C33.9859 3.71728 34.3031 3.90285 34.577 4.13125C34.851 4.35964 35.0528 4.63085 35.197 4.94489C35.3412 5.25893 35.4133 5.58725 35.4133 5.94411C35.4133 6.05831 35.4133 6.1725 35.3989 6.25815C35.3845 6.3438 35.3701 6.42945 35.3556 6.50082C35.3268 6.58647 35.3124 6.65784 35.2835 6.71494C34.9086 6.78631 34.5049 6.85768 34.0723 6.9005C33.7119 6.9576 33.2937 7.00043 32.8179 7.02898C32.3421 7.05752 31.8519 7.08607 31.3328 7.08607C31.3328 7.61423 31.376 8.05674 31.4481 8.41361C31.5202 8.77047 31.6356 9.05596 31.7653 9.2558C31.9095 9.46992 32.0681 9.61267 32.2556 9.69831C32.443 9.78396 32.6593 9.82679 32.8756 9.82679C33.1352 9.82679 33.3802 9.78396 33.6109 9.68404C33.8416 9.58412 34.0435 9.46992 34.2021 9.3129C34.3751 9.15588 34.5049 8.97031 34.6058 8.77047C34.7068 8.57063 34.75 8.37078 34.75 8.15666H35.0672C35.0672 8.41361 35.0096 8.65627 34.8942 8.89894C34.7789 9.14161 34.6058 9.35572 34.3896 9.54129C34.1733 9.72686 33.9137 9.86961 33.6109 9.9838C33.3226 10.1123 32.9909 10.1694 32.616 10.1694ZM31.3184 6.75776C31.6067 6.75776 31.8663 6.75776 32.097 6.74349C32.3277 6.72921 32.5151 6.71494 32.6737 6.70066C32.8612 6.68639 33.0054 6.65784 33.1351 6.64356C33.1496 6.55791 33.1784 6.45799 33.1928 6.35807C33.2072 6.25815 33.2217 6.15823 33.2361 6.04403C33.2505 5.92984 33.2505 5.80137 33.2505 5.6729C33.2505 5.28748 33.2216 4.95917 33.164 4.70223C33.1063 4.44529 33.0342 4.23117 32.9333 4.05987C32.8467 3.90285 32.7458 3.77438 32.616 3.71728C32.4863 3.66019 32.3854 3.61736 32.27 3.61736C32.1547 3.61736 32.0393 3.66019 31.924 3.74583C31.8086 3.83148 31.7077 3.9885 31.6068 4.20262C31.5202 4.43101 31.4337 4.74505 31.3761 5.15901C31.3184 5.57297 31.3184 6.10113 31.3184 6.75776Z" fill="#292F36"/>
<path d="M40.8636 3.80287C40.6041 3.80287 40.3734 3.85997 40.1715 3.95989C39.9697 4.05981 39.7966 4.18828 39.6524 4.31675C39.4938 4.47377 39.364 4.64507 39.2343 4.83064V9.58406L40.0129 9.76963V9.9552H36.3794V9.76963L37.158 9.58406V3.93134L36.3794 3.74577V3.5602H37.5473C37.8501 3.5602 38.0952 3.6173 38.2971 3.71722C38.4845 3.81714 38.6431 3.93134 38.7585 4.04554C38.8882 4.18828 38.9892 4.3453 39.0469 4.5166C39.1766 4.33103 39.3352 4.15973 39.5227 4.00271C39.6813 3.87424 39.8832 3.76005 40.1283 3.64585C40.3734 3.53166 40.6473 3.48883 40.979 3.48883C41.4404 3.48883 41.7864 3.60303 42.0171 3.80287C42.2478 4.01699 42.3487 4.31675 42.3487 4.70217C42.3487 4.98766 42.2622 5.23032 42.0892 5.40162C41.9162 5.57291 41.6711 5.65856 41.3827 5.65856C41.3106 5.65856 41.2529 5.65856 41.1808 5.65856C41.1087 5.65856 41.0655 5.64429 41.0222 5.64429C40.9646 5.63001 40.9069 5.63001 40.8636 5.60146V3.80287Z" fill="#292F36"/>
<path d="M47.9285 5.47304C47.9285 5.18755 47.8997 4.93061 47.842 4.71649C47.7844 4.50237 47.7123 4.33107 47.6114 4.2026C47.5249 4.05986 47.4239 3.95993 47.2942 3.90284C47.1788 3.84574 47.0634 3.80292 46.9481 3.80292C46.7462 3.80292 46.5732 3.86001 46.429 3.95994C46.2848 4.05986 46.1551 4.18833 46.0686 4.3168C45.9532 4.47382 45.8667 4.64511 45.7802 4.83068V9.5841L46.5588 9.76967V9.95524H42.9253V9.76967L43.7039 9.5841V3.93139L42.9253 3.74582V3.56025H44.0932C44.396 3.56025 44.6411 3.61735 44.843 3.71727C45.0304 3.81719 45.189 3.93139 45.3044 4.04558C45.4341 4.18833 45.535 4.34535 45.5927 4.51664C45.7081 4.30252 45.8523 4.10268 46.0253 3.93139C46.1695 3.78864 46.3714 3.66017 46.602 3.5317C46.8327 3.40323 47.1355 3.34613 47.4816 3.34613C47.8565 3.34613 48.2025 3.40323 48.5053 3.5317C48.8225 3.6459 49.0821 3.81719 49.2983 4.00276C49.5146 4.2026 49.6877 4.41672 49.8174 4.67366C49.9472 4.9306 50.0048 5.18754 50.0048 5.45876V9.56983L50.7835 9.7554V9.94097H49.0965C48.3179 9.94097 47.9285 9.55555 47.9285 8.78473V5.47304Z" fill="#292F36"/>
<path d="M1.60107 18.9767V18.4485H11.6221V18.9767L9.51694 19.5049V30.2821H17.0723V19.5049L14.9672 18.9767V18.4485H24.9882V18.9767L22.8831 19.5049V41.7731L24.9882 42.3013V42.8295H14.9672V42.287L17.0723 41.7589V31.1529H9.51694V41.7589L11.6221 42.287V42.8152H1.60107V42.287L3.7062 41.7589V19.4906L1.60107 18.9767Z" fill="#292F36"/>
<path d="M37.4463 24.8864C38.9026 24.8864 40.2003 25.1005 41.3538 25.5145C42.5073 25.9285 43.4733 26.5423 44.2808 27.3416C45.0882 28.141 45.7082 29.1117 46.1264 30.2536C46.5445 31.3956 46.7608 32.6803 46.7608 34.122C46.7608 35.5638 46.5445 36.8485 46.1264 37.9904C45.7082 39.1324 45.0882 40.0888 44.2808 40.8882C43.4733 41.6875 42.4929 42.3013 41.3538 42.7153C40.2003 43.1293 38.9026 43.3434 37.4463 43.3434C35.99 43.3434 34.6924 43.1293 33.5389 42.7153C32.3854 42.3013 31.4193 41.6875 30.6119 40.8882C29.8044 40.0888 29.1844 39.1181 28.7663 37.9904C28.3481 36.8485 28.1318 35.5638 28.1318 34.122C28.1318 32.6803 28.3481 31.3956 28.7663 30.2536C29.1844 29.1117 29.8044 28.1553 30.6119 27.3416C31.4193 26.528 32.3998 25.9285 33.5389 25.5145C34.6924 25.1005 35.99 24.8864 37.4463 24.8864ZM37.4463 42.6297C37.85 42.6297 38.2394 42.5012 38.6431 42.2442C39.0468 41.9873 39.3929 41.5448 39.7101 40.9024C40.0273 40.2601 40.2868 39.3893 40.4887 38.2902C40.6906 37.1911 40.7915 35.7922 40.7915 34.0935C40.7915 32.3948 40.6906 30.9959 40.4887 29.8968C40.2868 28.7976 40.0273 27.9269 39.7101 27.2845C39.3929 26.6422 39.0324 26.1997 38.6431 25.9427C38.2538 25.6858 37.85 25.5573 37.4463 25.5573C37.0426 25.5573 36.6533 25.6858 36.2496 25.9427C35.8459 26.1997 35.4998 26.6422 35.1826 27.2845C34.8654 27.9269 34.6059 28.7976 34.404 29.8968C34.2021 30.9959 34.1012 32.3948 34.1012 34.0935C34.1012 35.7922 34.2021 37.1911 34.404 38.2902C34.6059 39.3893 34.8654 40.2601 35.1826 40.9024C35.4998 41.5448 35.8603 41.9873 36.2496 42.2442C36.6533 42.5012 37.0426 42.6297 37.4463 42.6297Z" fill="#292F36"/>
<path d="M73.1039 30.6248C73.1039 29.7968 73.0318 29.0831 72.8876 28.5264C72.7434 27.9697 72.5704 27.4986 72.3397 27.1418C72.109 26.7849 71.8639 26.528 71.6043 26.3567C71.3304 26.1997 71.0709 26.114 70.8113 26.114C70.3644 26.114 69.975 26.2568 69.629 26.5422C69.2829 26.8277 68.9946 27.1561 68.735 27.4986C68.4611 27.9126 68.2015 28.3837 67.9997 28.8833V41.7589L70.1192 42.2871V42.8152H60.2856V42.2871L62.3908 41.7589V30.6248C62.3908 29.7968 62.3187 29.0831 62.1745 28.5264C62.0303 27.9697 61.8573 27.4986 61.6266 27.1418C61.3959 26.7849 61.1508 26.528 60.8912 26.3567C60.6173 26.1997 60.3577 26.114 60.0982 26.114C59.6512 26.114 59.2619 26.2568 58.9159 26.5422C58.5698 26.8277 58.2814 27.1561 58.0219 27.4986C57.7335 27.9126 57.4884 28.3837 57.2866 28.8833V41.7589L59.3917 42.2871V42.8152H49.5581V42.2871L51.6633 41.7589V26.4566L49.5581 25.9284V25.4003H52.7158C53.5377 25.4003 54.2153 25.543 54.7344 25.8142C55.2679 26.0855 55.6717 26.3995 55.9889 26.7135C56.3349 27.1132 56.5944 27.5415 56.7675 27.9982C57.0703 27.413 57.4451 26.8991 57.8921 26.4281C58.2958 26.0284 58.7861 25.6715 59.3629 25.3432C59.954 25.0149 60.6605 24.8578 61.5112 24.8578C62.9099 24.8578 64.1354 25.1719 65.1447 25.7857C66.1685 26.3995 66.9471 27.1989 67.4806 28.1695C67.7834 27.57 68.1583 27.0276 68.6053 26.528C69.009 26.114 69.4992 25.7286 70.076 25.386C70.6671 25.0434 71.3736 24.8578 72.2243 24.8578C73.1904 24.8578 74.0555 25.0149 74.863 25.3146C75.656 25.6144 76.3481 26.0284 76.9249 26.5565C77.5016 27.0847 77.9486 27.6842 78.2658 28.3837C78.583 29.0831 78.7416 29.8254 78.7416 30.6105V41.7446L80.8468 42.2728V42.8009H76.276C74.1709 42.8009 73.1183 41.7589 73.1183 39.6748V30.6248H73.1039Z" fill="#292F36"/>
<path d="M92.4392 43.3291C89.4401 43.3291 87.1043 42.5155 85.4461 40.8739C83.788 39.2323 82.9517 36.9912 82.9517 34.1078C82.9517 32.666 83.1679 31.3813 83.5861 30.2394C84.0042 29.0974 84.5954 28.141 85.3452 27.3273C86.0949 26.528 87.0033 25.9142 88.0703 25.5002C89.1373 25.0862 90.3052 24.8721 91.5596 24.8721C92.8717 24.8721 94.0541 25.0577 95.0922 25.4288C96.1304 25.8 97.0243 26.2996 97.7453 26.9277C98.4662 27.5557 99.0286 28.298 99.4179 29.1402C99.8072 29.9824 99.9946 30.8817 99.9946 31.8381C99.9946 32.1664 99.9802 32.4519 99.9369 32.6946C99.8937 32.9372 99.8648 33.1514 99.8071 33.3369C99.7351 33.5653 99.6774 33.7652 99.6341 33.9222C98.596 34.1363 97.5146 34.3076 96.3611 34.4503C95.3806 34.5931 94.2415 34.7073 92.9583 34.8215C91.675 34.9214 90.3196 34.9785 88.921 34.9785C88.921 36.4202 89.022 37.6193 89.2382 38.5757C89.4545 39.5321 89.7429 40.3029 90.1178 40.8739C90.4927 41.4449 90.9396 41.8446 91.4587 42.0872C91.9778 42.3299 92.5401 42.4584 93.1457 42.4584C93.8522 42.4584 94.5155 42.3299 95.1355 42.0729C95.7555 41.816 96.289 41.4734 96.7504 41.0452C97.2118 40.6169 97.5723 40.1316 97.8462 39.5892C98.1202 39.0467 98.2499 38.49 98.2499 37.9333H99.1295C99.1295 38.6328 98.9709 39.3037 98.6537 39.946C98.3365 40.6027 97.8895 41.1736 97.2983 41.6733C96.7071 42.1729 96.0151 42.5725 95.1932 42.8723C94.3569 43.1721 93.4341 43.3291 92.4392 43.3291ZM88.921 34.1078C89.7141 34.1078 90.4206 34.0935 91.0262 34.0507C91.6317 34.0078 92.1508 33.9793 92.569 33.9365C93.0592 33.8936 93.4774 33.8365 93.8378 33.7652C93.8811 33.5368 93.9387 33.2798 94.0108 32.9943C94.0541 32.7374 94.0973 32.4519 94.1262 32.1379C94.155 31.8238 94.1839 31.4955 94.1839 31.1529C94.1839 30.1109 94.0973 29.2401 93.9387 28.5264C93.7801 27.8127 93.5638 27.2417 93.3187 26.7992C93.0736 26.3567 92.7853 26.0426 92.4825 25.8571C92.1652 25.6715 91.848 25.5716 91.5452 25.5716C91.2424 25.5716 90.9252 25.6858 90.608 25.8999C90.2908 26.1283 90.0168 26.5422 89.7717 27.1561C89.5266 27.7699 89.3248 28.6406 89.1517 29.754C89.0075 30.8674 88.921 32.3234 88.921 34.1078Z" fill="#292F36"/>
<path d="M117.254 42.4583V28.3408L104.652 18.4628V42.4583H117.254Z" fill="#292F36"/>
<path d="M132.841 42.4583V28.3408L120.44 18.4628V42.4583H132.841Z" fill="#292F36"/>
</svg>
