<svg width="119" height="48" viewBox="0 0 119 48" fill="none" xmlns="http://www.w3.org/2000/svg">
<path d="M0.38623 29.7841V0.57843H17.7608V29.7699H0.38623V29.7841ZM15.6557 22.9894L16.1027 19.7634L14.4877 19.6064L13.9975 22.0902C12.9882 22.5898 11.7482 22.8324 10.2631 22.8324C8.24444 22.8324 6.64395 22.2044 5.47604 20.9339C4.2937 19.6635 3.71695 17.9934 3.71695 15.9093C3.71695 13.8823 4.2937 12.2122 5.43278 10.8989C6.57186 9.58566 8.07145 8.92903 9.93146 8.92903C10.8831 8.92903 11.6905 9.04323 12.3394 9.25735C12.9882 9.47147 13.5794 9.75696 14.1417 10.1281L14.6175 12.5833L16.2613 12.4263L15.7855 9.20025C15.0934 8.615 14.2715 8.14394 13.3198 7.7728C12.3682 7.41593 11.1859 7.23036 9.78727 7.23036C8.12911 7.23036 6.70166 7.63005 5.5049 8.4437C4.30815 9.25735 3.37093 10.3279 2.70767 11.6555C2.04441 12.9973 1.71277 14.439 1.71277 15.9807C1.71277 18.4216 2.47696 20.4629 4.00534 22.0902C5.53373 23.7175 7.5235 24.5311 9.98911 24.5311C12.4115 24.5311 14.3003 24.0172 15.6557 22.9894Z" fill="#292F36"/>
<path d="M23.658 29.7841V0.57843H31.1268V29.7699H23.658V29.7841ZM24.451 24.2742H30.3482V22.8039H28.3152V6.50236H24.4221V7.97264H26.484V22.8039H24.451V24.2742Z" fill="#292F36"/>
<path d="M37.0242 29.7841V0.57843H50.1452V29.7699H37.0242V29.7841ZM39.4033 13.6539L38.9851 16.309L40.4991 16.4945L40.9461 14.5104C41.5949 14.1963 42.3303 14.0393 43.1954 14.0393C44.2335 14.0393 44.9401 14.2963 45.3005 14.8101C45.661 15.324 45.834 15.9949 45.834 16.8229V17.8506C45.5168 17.8221 45.1852 17.7935 44.8247 17.7792C44.4642 17.765 44.1182 17.7507 43.7722 17.7507C42.4745 17.7507 41.2344 17.9791 40.0809 18.4359C38.9274 18.8927 38.3507 19.8491 38.3507 21.2908C38.3507 22.5184 38.74 23.3606 39.5331 23.8174C40.3261 24.2884 41.1047 24.5168 41.8689 24.5168C42.8061 24.5168 43.6135 24.2742 44.2768 23.7888C44.94 23.3035 45.4591 22.7611 45.834 22.133V22.1901C45.8629 23.746 46.5694 24.5168 47.9536 24.5168C48.4871 24.5168 48.9917 24.3884 49.4675 24.1314L49.4387 22.9466C49.208 23.0465 48.9485 23.1036 48.6601 23.1036C47.9968 23.1036 47.6652 22.6897 47.6652 21.8618V16.3946C47.6652 13.8252 46.281 12.5405 43.5126 12.5405C42.7484 12.5405 42.0275 12.6261 41.3498 12.7974C40.6577 12.983 40.0088 13.2685 39.4033 13.6539ZM45.8196 19.9632C45.7475 20.9054 45.3582 21.6619 44.6517 22.2043C43.9452 22.7611 43.1954 23.0323 42.3879 23.0323C41.8833 23.0323 41.3931 22.8895 40.9317 22.6183C40.4559 22.3471 40.2251 21.8332 40.2251 21.0909C40.2251 20.1916 40.5856 19.6207 41.2777 19.3494C41.9842 19.0782 42.7628 18.9498 43.6424 18.9498C44.0317 18.9498 44.4065 18.964 44.767 19.0069C45.1275 19.0354 45.488 19.064 45.8052 19.0782V19.9632H45.8196Z" fill="#292F36"/>
<path d="M56.0569 29.7841V0.57843H67.9812V29.7699H56.0569V29.7841ZM66.7267 20.9482C66.7267 20.0346 66.4816 19.3637 65.9914 18.9212C65.5011 18.4787 64.91 18.1789 64.189 18.0076C63.4681 17.8363 62.7616 17.6936 62.0551 17.5794C61.3486 17.4652 60.743 17.2796 60.2527 17.037C59.7625 16.7943 59.5174 16.3661 59.5174 15.7523C59.5174 15.167 59.7481 14.7388 60.2239 14.4533C60.6997 14.1678 61.2909 14.0393 62.0262 14.0393C62.8769 14.0393 63.67 14.2249 64.4053 14.6103L64.6937 16.466L66.2077 16.2804L65.9193 13.5968C65.429 13.297 64.8379 13.0544 64.1314 12.8545C63.4249 12.6547 62.6751 12.5405 61.8676 12.5405C60.8006 12.5405 59.8202 12.7974 58.9118 13.297C58.0034 13.7966 57.5564 14.6531 57.5564 15.8807C57.5564 16.78 57.8015 17.4367 58.2918 17.8506C58.782 18.2789 59.3876 18.5643 60.123 18.7356C60.8583 18.9069 61.5792 19.0497 62.3002 19.1782C63.0211 19.2923 63.6267 19.4922 64.1169 19.7491C64.6072 20.0061 64.8523 20.4486 64.8523 21.0909C64.8523 21.7476 64.5351 22.2329 63.9006 22.5469C63.2662 22.861 62.5453 23.018 61.7234 23.018C60.8006 23.018 59.9355 22.8324 59.1425 22.447L59.2146 20.9196L57.7583 20.7626L57.3978 23.3749C57.9025 23.7032 58.5657 23.9744 59.3732 24.1885C60.1806 24.4026 60.9881 24.5168 61.8099 24.5168C63.2086 24.5168 64.3765 24.2028 65.3137 23.5604C66.2509 22.9466 66.7267 22.0616 66.7267 20.9482Z" fill="#292F36"/>
<path d="M73.8784 29.7841V0.57843H85.8026V29.7699H73.8784V29.7841ZM84.5482 20.9482C84.5482 20.0346 84.3031 19.3637 83.8129 18.9212C83.3226 18.4787 82.7314 18.1789 82.0105 18.0076C81.2896 17.8363 80.5831 17.6936 79.8766 17.5794C79.1701 17.4652 78.5645 17.2796 78.0742 17.037C77.584 16.7943 77.3389 16.3661 77.3389 15.7523C77.3389 15.167 77.5695 14.7388 78.0454 14.4533C78.5212 14.1678 79.1123 14.0393 79.8477 14.0393C80.6984 14.0393 81.4915 14.2249 82.2268 14.6103L82.5152 16.466L84.0292 16.2804L83.7408 13.5968C83.2505 13.297 82.6594 13.0544 81.9529 12.8545C81.2463 12.6547 80.4966 12.5405 79.6891 12.5405C78.6221 12.5405 77.6417 12.7974 76.7333 13.297C75.8249 13.7966 75.3779 14.6531 75.3779 15.8807C75.3779 16.78 75.6231 17.4367 76.1133 17.8506C76.6035 18.2789 77.2092 18.5643 77.9445 18.7356C78.6799 18.9069 79.4007 19.0497 80.1217 19.1782C80.8426 19.2923 81.4482 19.4922 81.9384 19.7491C82.4287 20.0061 82.6738 20.4486 82.6738 21.0909C82.6738 21.7476 82.3566 22.2329 81.7222 22.5469C81.0878 22.861 80.3668 23.018 79.545 23.018C78.6222 23.018 77.757 22.8324 76.964 22.447L77.0361 20.9196L75.5798 20.7626L75.2193 23.3749C75.724 23.7032 76.3873 23.9744 77.1947 24.1885C78.0022 24.4026 78.8096 24.5168 79.6315 24.5168C81.0301 24.5168 82.198 24.2028 83.1352 23.5604C84.0724 22.9466 84.5482 22.0616 84.5482 20.9482Z" fill="#292F36"/>
<path d="M91.7 29.7841V0.57843H99.5582V29.7699H91.7V29.7841ZM92.8534 24.2742H98.7507V22.8039H96.7176V12.7832H92.8102V14.2534H94.9009V22.8039H92.8679V24.2742H92.8534ZM94.6991 7.45876V9.81406H96.6889V7.45876H94.6991Z" fill="#292F36"/>
<path d="M105.456 29.7841V0.57843H118.014V29.7699H105.456V29.7841ZM116.89 20.4058L115.318 20.0632C114.972 22.0045 113.919 22.9752 112.189 22.9752C111.036 22.9752 110.156 22.5898 109.551 21.8189C108.945 21.0481 108.642 19.9632 108.642 18.5929C108.642 17.351 108.916 16.2947 109.45 15.4097C109.983 14.5247 110.877 14.0964 112.117 14.0964C113.069 14.0964 113.905 14.3105 114.597 14.7388L115.044 16.6801L116.558 16.4945L116.111 13.7253C115.52 13.2828 114.9 12.9687 114.251 12.7974C113.602 12.6261 112.896 12.5405 112.131 12.5405C110.329 12.5405 108.959 13.1686 108.065 14.4247C107.157 15.6809 106.71 17.1083 106.71 18.6928C106.71 20.5342 107.186 21.976 108.152 22.9894C109.103 24.0172 110.387 24.5311 111.987 24.5311C113.588 24.5311 114.77 24.0886 115.52 23.2178C116.27 22.3328 116.731 21.405 116.89 20.4058Z" fill="#292F36"/>
<path d="M7.89847 45.7287C7.56684 46.3282 7.07659 46.7993 6.44217 47.1276C5.79332 47.4559 5.02912 47.6272 4.13516 47.6272H1.5542V39.5764H4.13516C5.02912 39.5764 5.80774 39.7334 6.44217 40.0617C7.07659 40.39 7.56684 40.8468 7.89847 41.4606C8.2301 42.0744 8.3887 42.7739 8.3887 43.6018C8.3887 44.4154 8.2301 45.1291 7.89847 45.7287ZM6.47099 45.8857C7.03332 45.3433 7.3073 44.5867 7.3073 43.6018C7.3073 42.6168 7.03332 41.8603 6.47099 41.3178C5.90866 40.7754 5.10121 40.5042 4.03422 40.5042H2.57796V46.6993H4.03422C5.10121 46.6993 5.90866 46.4281 6.47099 45.8857Z" fill="#292F36"/>
<path d="M13.7381 40.4186V43.1735H16.8238V43.9729H13.7381V46.785H17.1698V47.6272H12.6855V39.5764H17.1698V40.4186H13.7381Z" fill="#292F36"/>
<path d="M26.2825 46.5995C26.095 46.9278 25.8211 47.199 25.4462 47.3989C25.0713 47.5987 24.6099 47.7129 24.0475 47.7129C23.5141 47.7129 23.0238 47.613 22.6057 47.4274C22.1875 47.2276 21.8559 46.9706 21.5964 46.6281C21.3513 46.2855 21.2071 45.9 21.1638 45.4718H22.2885C22.3173 45.7002 22.3894 45.9286 22.5192 46.1427C22.6489 46.3568 22.8508 46.5424 23.0959 46.6852C23.341 46.8279 23.6438 46.8993 24.0043 46.8993C24.4657 46.8993 24.8262 46.7851 25.0713 46.5281C25.3164 46.2712 25.4462 45.9714 25.4462 45.586C25.4462 45.2577 25.3597 44.9865 25.1866 44.7866C25.0136 44.5868 24.7973 44.4155 24.5522 44.3013C24.3071 44.1871 23.9466 44.0586 23.5141 43.9159C22.995 43.7446 22.5913 43.5876 22.2741 43.4448C21.9569 43.3021 21.6973 43.0737 21.481 42.7739C21.2647 42.4742 21.1494 42.0887 21.1494 41.6034C21.1494 41.1895 21.2503 40.8183 21.4522 40.49C21.6541 40.176 21.9424 39.919 22.3317 39.7477C22.7066 39.5764 23.168 39.4908 23.6727 39.4908C24.4657 39.4908 25.1145 39.6764 25.5759 40.0618C26.0517 40.4472 26.3113 40.9325 26.3978 41.532H25.2731C25.2155 41.218 25.0425 40.9325 24.7829 40.6898C24.509 40.4472 24.1485 40.3187 23.6871 40.3187C23.2689 40.3187 22.9229 40.4329 22.6778 40.647C22.4183 40.8611 22.3029 41.1752 22.3029 41.5606C22.3029 41.8746 22.3894 42.1316 22.548 42.3171C22.7211 42.517 22.9229 42.6597 23.168 42.7739C23.4131 42.8881 23.7592 43.0023 24.1773 43.1451C24.6964 43.3164 25.1145 43.4734 25.4462 43.6304C25.7634 43.7874 26.0373 44.0158 26.2536 44.3156C26.4699 44.6153 26.5853 45.0293 26.5853 45.5432C26.5564 45.9143 26.4699 46.2712 26.2825 46.5995Z" fill="#292F36"/>
<path d="M31.9056 39.5764V47.6272H30.853V39.5764H31.9056Z" fill="#292F36"/>
<path d="M42.5467 40.1902C43.1955 40.6613 43.6281 41.2893 43.8444 42.0887H42.7342C42.5467 41.6034 42.2151 41.2037 41.7681 40.9182C41.3211 40.6184 40.7876 40.4757 40.1676 40.4757C39.6197 40.4757 39.115 40.6042 38.6825 40.8611C38.2499 41.118 37.9039 41.4749 37.6444 41.946C37.3992 42.417 37.2694 42.9737 37.2694 43.6161C37.2694 44.2727 37.3992 44.8437 37.6444 45.3148C37.8895 45.7858 38.2499 46.157 38.6969 46.4139C39.1439 46.6708 39.663 46.7993 40.2541 46.7993C40.7588 46.7993 41.2057 46.6851 41.6239 46.4853C42.042 46.2712 42.3736 45.9571 42.6476 45.5574C42.9216 45.1577 43.0658 44.6724 43.1234 44.13H39.9225V43.3591H44.003V44.3155C43.9309 44.9579 43.729 45.5289 43.3974 46.057C43.0658 46.5852 42.6188 46.9849 42.0565 47.2846C41.4941 47.5844 40.8597 47.7414 40.1388 47.7414C39.3602 47.7414 38.668 47.5701 38.0625 47.2276C37.4569 46.885 36.9955 46.3996 36.6638 45.7715C36.3322 45.1577 36.1592 44.444 36.1592 43.6446C36.1592 42.8453 36.3322 42.1315 36.6638 41.5177C36.9955 40.9039 37.4713 40.4043 38.0625 40.0617C38.6536 39.7191 39.3457 39.5336 40.1243 39.5336C41.1048 39.505 41.8979 39.7334 42.5467 40.1902Z" fill="#292F36"/>
<path d="M54.644 47.6272H53.5915L49.3667 41.2608V47.6272H48.3142V39.5764H49.3667L53.5915 45.9428V39.5764H54.644V47.6272Z" fill="#292F36"/>
<path d="M69.8125 46.5995C69.6251 46.9278 69.3511 47.199 68.9762 47.3989C68.6013 47.5987 68.14 47.7129 67.5776 47.7129C67.0441 47.7129 66.5539 47.613 66.1357 47.4274C65.7176 47.2276 65.386 46.9706 65.1264 46.6281C64.8813 46.2855 64.7371 45.9 64.6939 45.4718H65.8185C65.8473 45.7002 65.9195 45.9286 66.0492 46.1427C66.179 46.3568 66.3808 46.5424 66.6259 46.6852C66.8711 46.8279 67.1739 46.8993 67.5343 46.8993C67.9957 46.8993 68.3562 46.7851 68.6013 46.5281C68.8464 46.2712 68.9762 45.9714 68.9762 45.586C68.9762 45.2577 68.8897 44.9865 68.7167 44.7866C68.5436 44.5868 68.3274 44.4155 68.0822 44.3013C67.8371 44.1871 67.4767 44.0586 67.0441 43.9159C66.5251 43.7446 66.1213 43.5876 65.8041 43.4448C65.4868 43.3021 65.2273 43.0737 65.011 42.7739C64.7948 42.4742 64.6794 42.0887 64.6794 41.6034C64.6794 41.1895 64.7803 40.8183 64.9822 40.49C65.184 40.176 65.4725 39.919 65.8618 39.7477C66.2367 39.5764 66.6981 39.4908 67.2027 39.4908C67.9957 39.4908 68.6446 39.6764 69.106 40.0618C69.5818 40.4472 69.8414 40.9325 69.9279 41.532H68.8032C68.7455 41.218 68.5724 40.9325 68.3129 40.6898C68.0389 40.4472 67.6786 40.3187 67.2172 40.3187C66.799 40.3187 66.4529 40.4329 66.2078 40.647C65.9483 40.8611 65.8329 41.1752 65.8329 41.5606C65.8329 41.8746 65.9194 42.1316 66.078 42.3171C66.251 42.517 66.4529 42.6597 66.698 42.7739C66.9431 42.8881 67.2892 43.0023 67.7073 43.1451C68.2264 43.3164 68.6446 43.4734 68.9762 43.6304C69.2934 43.7874 69.5674 44.0158 69.7836 44.3156C69.9999 44.6153 70.1152 45.0293 70.1152 45.5432C70.0864 45.9143 69.9999 46.2712 69.8125 46.5995Z" fill="#292F36"/>
<path d="M79.3722 39.5764V40.4186H77.0796V47.6272H76.0126V40.4186H73.72V39.5764H79.3722Z" fill="#292F36"/>
<path d="M84.2744 39.5764V44.4011C84.2744 45.1862 84.4474 45.7715 84.8079 46.1569C85.1684 46.5281 85.6442 46.7279 86.2786 46.7279C86.8986 46.7279 87.3745 46.5423 87.7205 46.1569C88.0666 45.7715 88.2396 45.2005 88.2396 44.4154V39.5906H89.2922V44.4154C89.2922 45.5146 89.0182 46.3425 88.4703 46.8849C87.9224 47.4416 87.187 47.7128 86.2642 47.7128C85.3558 47.7128 84.6205 47.4416 84.0726 46.8849C83.5247 46.3282 83.2507 45.5146 83.2507 44.4154V39.5906H84.2744V39.5764Z" fill="#292F36"/>
<path d="M100.149 45.7287C99.8177 46.3282 99.3275 46.7993 98.6931 47.1276C98.0442 47.4559 97.2801 47.6272 96.3861 47.6272H93.8052V39.5764H96.3861C97.2801 39.5764 98.0586 39.7334 98.6931 40.0617C99.3275 40.39 99.8177 40.8468 100.149 41.4606C100.481 42.0744 100.64 42.7739 100.64 43.6018C100.64 44.4154 100.481 45.1291 100.149 45.7287ZM98.7364 45.8857C99.2987 45.3433 99.5727 44.5867 99.5727 43.6018C99.5727 42.6168 99.2987 41.8603 98.7364 41.3178C98.174 40.7754 97.3666 40.5042 96.2996 40.5042H94.8433V46.6993H96.2996C97.3522 46.6993 98.174 46.4281 98.7364 45.8857Z" fill="#292F36"/>
<path d="M106.003 39.5764V47.6272H104.951V39.5764H106.003Z" fill="#292F36"/>
<path d="M116.327 40.0047C116.933 40.3615 117.409 40.8469 117.755 41.4749C118.101 42.103 118.274 42.8167 118.274 43.6018C118.274 44.3869 118.101 45.1007 117.755 45.7287C117.409 46.3568 116.933 46.8422 116.327 47.199C115.722 47.5559 115.044 47.7272 114.294 47.7272C113.544 47.7272 112.852 47.5559 112.247 47.199C111.641 46.8422 111.151 46.3568 110.805 45.7287C110.459 45.1007 110.286 44.3869 110.286 43.6018C110.286 42.8167 110.459 42.103 110.805 41.4749C111.151 40.8469 111.627 40.3615 112.247 40.0047C112.867 39.6478 113.544 39.4765 114.294 39.4765C115.044 39.4765 115.722 39.6478 116.327 40.0047ZM112.78 40.8326C112.333 41.0895 111.987 41.4464 111.742 41.9317C111.497 42.4028 111.367 42.9595 111.367 43.6018C111.367 44.2299 111.497 44.7866 111.742 45.272C111.987 45.7573 112.333 46.1142 112.78 46.3711C113.227 46.628 113.717 46.7565 114.28 46.7565C114.828 46.7565 115.332 46.628 115.779 46.3711C116.226 46.1142 116.572 45.743 116.818 45.272C117.063 44.8009 117.192 44.2442 117.192 43.6161C117.192 42.9738 117.063 42.4171 116.818 41.946C116.572 41.4749 116.226 41.1038 115.779 40.8469C115.332 40.5899 114.842 40.4614 114.28 40.4614C113.732 40.4472 113.227 40.5756 112.78 40.8326Z" fill="#292F36"/>
</svg>
