<svg width="147" height="45" viewBox="0 0 147 45" fill="none" xmlns="http://www.w3.org/2000/svg">
<path d="M20.6693 8.95741L21.7507 8.72902C22.0247 8.72902 22.2554 8.78612 22.414 8.90032C22.5726 9.01451 22.6591 9.12871 22.6591 9.22863C22.6591 9.32855 22.6302 9.48557 22.587 9.67114C22.5437 9.85671 22.14 11.7695 21.3902 15.381C20.6405 18.9924 20.0925 21.6903 19.7465 23.4603C21.4191 21.205 23.38 18.4357 25.6149 15.1383C27.8498 11.8409 29.1619 9.65687 29.5368 8.572C29.6522 8.22941 29.8108 7.97247 29.9982 7.7869C30.1856 7.60133 30.3587 7.48714 30.5029 7.45859C30.6471 7.43004 30.8778 7.40149 31.1806 7.40149C31.4833 7.40149 31.8438 7.47286 32.262 7.60133C32.6801 7.72981 32.8964 7.94392 32.8964 8.25796C32.8964 8.82894 32.0312 10.4991 30.3154 13.2398C28.5996 15.9805 26.6242 18.8925 24.4038 21.9758C22.1833 25.0591 20.3377 27.5 18.8525 29.2986C18.593 29.6127 18.2614 29.784 17.8865 29.784C17.5116 29.784 17.1079 29.7126 16.6897 29.5841C16.2716 29.4556 16.0553 29.2273 16.0553 28.8847C16.0553 27.8141 17.0069 22.6467 18.9102 13.4111C17.2809 15.4952 15.3055 18.4072 12.9841 22.1328C10.5618 25.9869 9.192 28.3851 8.87479 29.2986C8.70176 29.8553 8.4999 30.1836 8.2692 30.2693C8.1106 30.3407 7.93756 30.3692 7.76454 30.3692L6.59663 30.4977C6.36593 30.4977 6.16406 30.4406 5.9622 30.3121C5.77475 30.1836 5.67383 30.0552 5.67383 29.9124C5.67383 29.527 6.22175 28.3565 7.30315 26.4152C8.38455 24.4738 9.66781 22.3612 11.1241 20.0773C12.5804 17.7934 14.0944 15.5808 15.6804 13.4253C17.2665 11.2699 18.4921 9.81389 19.3572 9.08588C19.5302 8.92886 19.7321 8.85749 19.9628 8.85749L20.6693 8.95741Z" fill="#292F36"/>
<path d="M38.0006 18.6357C38.7504 18.6357 39.1253 18.8926 39.1253 19.3922C39.1253 19.6635 39.0676 19.8633 38.9378 19.9918C38.8081 20.1202 38.5341 20.5342 38.116 21.2622C37.6978 21.9759 37.2364 22.8895 36.7318 24.0172C36.2271 25.1306 35.8955 26.087 35.7513 26.8721C35.7225 26.972 35.708 27.1005 35.708 27.2861C35.708 27.8285 35.8522 28.0854 36.155 28.0854C36.4578 28.0854 36.8039 27.9427 37.2076 27.6715C37.6113 27.386 37.9718 27.1005 38.289 26.7722C38.6062 26.4581 38.909 26.1298 39.2118 25.8015C39.5146 25.4732 39.6876 25.2734 39.7453 25.2305C39.803 25.1877 39.8895 25.1592 40.0048 25.1592C40.1923 25.1592 40.3076 25.3019 40.3509 25.5874C40.3941 25.8729 40.4085 26.1584 40.4085 26.4724C40.4085 26.7865 40.3797 26.9863 40.322 27.1005C40.0337 27.6572 39.4137 28.3281 38.4332 29.1132C37.4671 29.8983 36.5732 30.2837 35.7801 30.2837C34.9871 30.2837 34.3959 30.041 34.0355 29.57C33.675 29.0989 33.4731 28.5565 33.4731 27.9855C33.4731 27.4003 33.5741 26.9007 33.7759 26.4581C32.9541 27.5145 32.0168 28.3995 30.9643 29.1418C29.8973 29.8698 29.0466 30.2409 28.3689 30.2409C27.6912 30.2409 27.1578 30.041 26.7252 29.6414C26.1773 29.1418 25.9177 28.4566 25.9177 27.5716C25.9177 26.6865 26.1196 25.8015 26.5233 24.9022C26.927 24.0172 27.4461 23.1893 28.095 22.4613C28.7438 21.719 29.4647 21.0481 30.2433 20.4486C31.8727 19.1781 33.3866 18.55 34.7708 18.55C35.3043 18.55 35.7369 18.6357 36.0685 18.807C36.4001 18.9783 36.6164 19.2067 36.7029 19.4636C36.9336 19.1068 37.1355 18.8926 37.3085 18.7927C37.4383 18.6785 37.6834 18.6357 38.0006 18.6357ZM36.0397 20.263C34.3527 20.263 32.608 21.1908 30.8057 23.0465C30.1712 23.7174 29.5801 24.5025 29.0322 25.4304C28.4843 26.3582 28.2247 26.9863 28.2247 27.3289C28.2247 27.6715 28.3257 27.8428 28.5275 27.8428C28.8015 27.8428 29.5657 27.3003 30.8345 26.2298C32.1034 25.1592 32.9397 24.3598 33.3434 23.8459C33.8048 23.2749 34.6987 22.0759 36.0397 20.263Z" fill="#292F36"/>
<path d="M49.2184 10.8987L49.8239 11.0414C49.9105 11.0414 49.997 11.0843 50.0546 11.1699C50.1267 11.2555 50.1556 11.3412 50.1556 11.4126C50.1556 11.4839 50.0547 11.6981 49.8384 12.0406C49.6221 12.3832 49.3914 12.7686 49.103 13.1969C48.8146 13.6251 48.6704 13.8678 48.656 13.9106C49.4202 13.8535 49.9681 13.825 50.2853 13.825C50.6026 13.825 50.8188 13.8535 50.9486 13.8963C51.0639 13.9392 51.2081 14.0676 51.3523 14.2675C51.5109 14.4673 51.6407 14.6243 51.7705 14.7243C51.9002 14.8242 51.9579 14.9812 51.9579 15.181C51.9579 15.3809 51.8281 15.5665 51.583 15.6949C51.3379 15.8377 51.064 15.9233 50.7756 15.9519C48.483 16.1803 47.2286 16.2945 46.9979 16.3087C46.2049 17.5221 45.0802 19.4063 43.6527 21.9614C42.2253 24.5166 41.4611 26.1296 41.3746 26.772C41.3313 27.0717 41.3169 27.3001 41.3169 27.4857C41.3169 27.8711 41.5188 28.0567 41.9225 28.0567C42.3262 28.0567 42.7732 27.8997 43.2634 27.5999C43.7537 27.2859 44.2151 26.9575 44.6188 26.6007C45.729 25.63 46.3202 25.1304 46.3923 25.1304C46.6518 25.1304 46.7816 25.5729 46.7816 26.4437C46.7816 26.9147 46.5653 27.3429 46.1183 27.7284C45.1234 28.5706 44.2872 29.2129 43.6095 29.6411C42.9318 30.0694 42.2541 30.2835 41.562 30.2835C41.4178 30.2835 41.2737 30.2692 41.1439 30.2407C40.3509 30.0979 39.7741 29.8124 39.4136 29.3842C39.0387 28.956 38.8657 28.385 38.8657 27.6713C38.8657 26.9575 39.082 26.0725 39.5146 25.0447C39.9471 24.017 40.4806 22.9178 41.1295 21.7616C42.1964 19.8631 43.2634 18.093 44.316 16.4372L43.7537 16.5086C42.6146 16.637 41.9513 16.6941 41.7639 16.6941H41.6341C41.3457 16.6941 41.0718 16.637 40.8122 16.5228C40.5527 16.4087 40.4085 16.2659 40.4085 16.1089C40.4085 15.9376 40.4806 15.7806 40.6248 15.6236C40.769 15.4665 40.8555 15.3381 40.8843 15.2524C40.9564 15.0383 41.216 14.7956 41.6629 14.5387C42.1099 14.2817 42.4416 14.139 42.6723 14.1247C42.903 14.1105 43.1192 14.0962 43.3355 14.0819C43.5518 14.0676 43.7825 14.0676 44.042 14.0534C44.3016 14.0391 44.5034 14.0391 44.6476 14.0248L45.9741 13.9677C46.796 12.7401 47.3728 11.9407 47.6756 11.5981C47.9928 11.2413 48.1658 11.0557 48.209 11.0272C48.2523 10.9986 48.3532 10.9701 48.5118 10.9701L49.2184 10.8987Z" fill="#292F36"/>
<path d="M58.086 25.1591C58.2734 25.1591 58.3887 25.3019 58.432 25.5873C58.4753 25.8728 58.4897 26.1583 58.4897 26.4724C58.4897 26.7864 58.4608 26.9862 58.4032 27.1004C58.1148 27.6429 57.4948 28.3138 56.5287 29.0989C55.5627 29.884 54.6399 30.2837 53.7748 30.2837C53.2413 30.2837 52.751 30.1266 52.2896 29.8126C51.8427 29.4986 51.612 28.9419 51.612 28.1568C51.612 27.3717 51.8282 26.5866 52.2464 25.83C49.7952 28.8705 47.8919 30.3836 46.4933 30.3836C45.9454 30.3836 45.4984 30.1838 45.1524 29.7983C44.8063 29.4129 44.6477 29.0132 44.6477 28.585C44.6477 28.171 44.7054 27.7428 44.8207 27.3003C44.9361 26.8578 45.0659 26.4581 45.1956 26.1012C45.3254 25.7444 45.5272 25.3161 45.7868 24.8023C46.0463 24.2884 46.2482 23.9172 46.3635 23.6746C46.4789 23.4319 46.6952 23.0893 46.9835 22.6182C47.2719 22.1472 47.6324 21.5048 48.0938 20.7055C48.5552 19.9061 48.9301 19.3066 49.2328 18.9211C49.5356 18.5357 49.824 18.3359 50.1124 18.3359C50.4008 18.3359 50.6459 18.4501 50.8622 18.6785C51.0785 18.9069 51.1938 19.1067 51.1938 19.2495C51.1938 19.3922 50.8622 20.0488 50.1989 21.2193C48.2524 24.7166 47.2719 26.7436 47.2719 27.3288C47.2719 27.4716 47.3296 27.543 47.4305 27.543C47.9063 27.543 49.0887 26.5295 50.9631 24.5025C52.8375 22.4755 53.9334 21.1765 54.2361 20.6055C54.5389 20.0346 54.8129 19.5492 55.1013 19.1638C55.3752 18.7784 55.5915 18.5357 55.7357 18.4501C56.1538 18.1789 56.7018 18.0361 57.3794 18.0076C57.4948 18.0076 57.5669 18.0076 57.6246 18.0218C57.6822 18.0361 57.7543 18.1218 57.8264 18.2645C57.8985 18.4073 57.9418 18.5357 57.9418 18.6356C57.8553 18.9069 57.4659 19.6349 56.7594 20.8197C56.0673 22.0044 55.678 22.6753 55.6059 22.8181C54.438 25.2019 53.8613 26.7579 53.8613 27.4716C53.8613 27.8855 54.0199 28.0854 54.3371 28.0854C54.9138 28.014 55.6059 27.5572 56.4134 26.7293C56.7162 26.4295 57.0046 26.1155 57.2929 25.8015C57.5813 25.4874 57.7687 25.3019 57.8264 25.259C57.8985 25.1877 57.985 25.1591 58.086 25.1591Z" fill="#292F36"/>
<path d="M62.3683 21.7761C64.6898 19.1638 66.6796 17.8506 68.3089 17.8506C68.7126 17.8506 69.0442 17.9648 69.3038 18.2074C69.5633 18.4501 69.6931 18.7499 69.6931 19.1353C69.6931 19.5207 69.4191 20.1488 68.8712 21.0481C68.3233 21.9331 67.8186 22.6896 67.3572 23.3034C67.1121 23.6175 66.8382 23.7745 66.5209 23.7745C66.2182 23.7745 65.973 23.6603 65.8 23.4319C65.627 23.2035 65.5405 22.9466 65.5405 22.6468C65.5405 21.9759 65.9009 21.2051 66.6363 20.3629L66.6075 20.3343C66.2758 20.3629 65.4828 21.0052 64.1851 22.2328C62.9019 23.4747 61.806 24.5881 60.8977 25.5588C60.0037 26.5438 59.0232 27.7285 57.9562 29.1417C57.6534 29.5557 57.3939 29.7698 57.1776 29.7698C56.9613 29.7698 56.6874 29.6984 56.3413 29.57C55.9953 29.4415 55.779 29.3416 55.7069 29.2845C55.6348 29.2274 55.5916 29.1274 55.5916 28.9847C55.5916 28.8562 55.6348 28.6849 55.7069 28.5136C55.779 28.3281 55.9376 28.0711 56.1395 27.7428C56.3413 27.4145 56.673 26.8721 57.1055 26.1298C57.5381 25.3875 58.2013 24.2598 59.1097 22.761C60.0181 21.2622 60.5516 20.3486 60.739 20.0346C61.1139 19.3922 61.4167 18.9212 61.6618 18.6357C62.1088 18.079 62.8586 17.8077 63.9112 17.8077C64.1419 17.8077 64.2716 17.9505 64.2716 18.2503C64.2716 18.707 63.8391 19.5778 62.9884 20.8339L62.3683 21.7761Z" fill="#292F36"/>
<path d="M78.2721 18.8069C78.2721 19.4493 78.0126 20.0202 77.4791 20.5056C76.9456 20.9909 76.3544 21.2336 75.6767 21.2336C75.4605 21.2336 75.3163 21.1765 75.2442 21.0766C75.1721 20.9766 75.1432 20.8339 75.1432 20.6769C75.1432 20.5198 75.1577 20.3485 75.2009 20.1915C74.8405 20.3057 74.4511 20.4913 74.0186 20.734C73.586 20.9766 73.0525 21.3335 72.4181 21.8188C71.7837 22.3042 71.4665 22.6468 71.4665 22.8894C71.4665 22.9608 71.5818 23.0036 71.8125 23.0036C72.0432 23.0036 72.4037 22.918 72.8795 22.7609C73.3553 22.6039 73.7014 22.5183 73.8888 22.5183C74.0763 22.5183 74.206 22.5326 74.2637 22.5468C74.3935 22.6182 74.5232 22.7609 74.6818 22.9893C74.826 23.2177 74.8981 23.4033 74.8981 23.5318C74.8981 23.6602 74.7684 23.8315 74.5088 24.0457C74.2493 24.2598 73.9609 24.4168 73.6437 24.531C73.3121 24.6452 73.0958 24.7308 72.9949 24.7879C70.9186 25.9442 69.8804 26.7293 69.8804 27.1575C69.8804 27.9141 70.5293 28.2995 71.8414 28.2995C72.6776 28.2995 73.5284 28.0425 74.3646 27.5144C75.0856 27.0719 75.7344 26.6151 76.3112 26.144C76.8879 25.6872 77.2484 25.4017 77.407 25.2875C77.5656 25.1733 77.681 25.1305 77.753 25.1305C78.0126 25.1305 78.1423 25.416 78.1423 25.987C78.1423 26.558 78.1135 26.9291 78.0414 27.1004C77.9693 27.286 77.7819 27.5001 77.4502 27.7713C75.3451 29.47 73.3409 30.3264 71.4665 30.3264C70.4572 30.3264 69.6641 30.1837 69.0585 29.9125C67.9483 29.4129 67.4004 28.6563 67.4004 27.6286C67.4004 26.2868 68.3376 25.259 70.2265 24.5738C69.8516 24.4025 69.6065 24.2027 69.5055 23.9315C69.3902 23.6745 69.3469 23.2606 69.3469 22.6896C69.3469 22.1186 69.6209 21.5191 70.1544 20.8767C70.6879 20.2344 71.3511 19.7062 72.1297 19.3065C73.86 18.3787 75.4172 17.9219 76.7726 17.9219C77.1042 17.9219 77.4214 17.9932 77.7675 18.1503C78.1135 18.3073 78.2721 18.5214 78.2721 18.8069Z" fill="#292F36"/>
<path d="M111.925 8.87179H112.113C112.171 8.87179 112.214 8.87179 112.228 8.88607C112.243 8.90034 112.257 8.90034 112.286 8.91462C112.315 8.91462 112.329 8.92889 112.358 8.95744C112.401 9.00026 112.473 9.04309 112.56 9.08591C112.675 9.17156 112.733 9.27148 112.733 9.38568C112.733 9.49987 112.618 9.74254 112.387 10.1137C112.156 10.4848 111.565 11.3841 110.599 12.8401C108.393 16.1804 106.418 19.2922 104.673 22.1471C101.659 27.1147 100.131 29.6127 100.102 29.6412C100.073 29.6698 100.059 29.6983 100.044 29.7269C100.03 29.784 100.001 29.8125 99.9291 29.8125L99.7272 29.7697L99.3235 29.8696L99.0928 29.8268L98.8477 29.8696H98.7612L97.9393 29.9838C97.4491 29.9838 97.2039 29.8125 97.2039 29.4842C97.2039 29.3415 97.2472 29.1702 97.3337 28.9703C97.6365 28.2566 99.1793 25.6729 101.948 21.1907C100.131 21.2335 98.3286 21.2621 96.5551 21.2621L93.383 21.2478C92.8639 22.0757 92.143 23.2463 91.2346 24.7736C89.2736 28.0996 88.2355 29.7697 88.1057 29.7983C87.976 29.8268 87.875 29.8554 87.7885 29.8554C87.702 29.8554 87.6299 29.8125 87.5722 29.7126C87.5001 29.627 87.4569 29.5699 87.428 29.5699C87.3992 29.5699 87.3559 29.5841 87.2694 29.627C87.1973 29.6698 87.082 29.6841 86.9234 29.6841L86.5773 29.6698L86.4476 29.5841C86.4332 29.5841 86.4187 29.5984 86.4043 29.627C86.3899 29.6555 86.3466 29.6698 86.289 29.6698C85.8708 29.6698 85.6545 29.4985 85.6545 29.1416C85.6545 28.9132 85.7411 28.5992 85.8997 28.2138C86.0727 27.8284 86.289 27.4144 86.5629 26.9719C86.8369 26.5294 87.529 25.4588 88.668 23.7887C89.7927 22.1186 90.355 21.2764 90.355 21.2621C90.1676 21.2478 89.9513 21.2478 89.7062 21.2335C89.2015 21.2335 88.8555 21.2193 88.6392 21.1764C88.0769 21.0765 87.6876 20.6197 87.4857 19.8061C87.3704 19.4064 87.3271 19.1495 87.3415 19.021C87.3415 18.764 87.4569 18.6213 87.6876 18.6213L88.0769 18.7212C88.2787 18.7355 88.7402 18.7498 89.4899 18.7926C90.2397 18.8354 90.7732 18.8497 91.1048 18.8497L91.9411 18.8211C93.2244 16.837 94.7528 14.5816 96.5407 12.0693C95.243 13.1256 93.8011 13.6538 92.2151 13.6538C91.4653 13.6538 90.8164 13.4825 90.2829 13.1256C89.735 12.7687 89.4755 12.312 89.4755 11.7695C89.4755 11.2271 89.6774 10.7989 90.0955 10.4705C90.5137 10.1565 90.9029 9.99948 91.2778 9.99948C91.6527 9.99948 91.8402 10.0566 91.8402 10.1708C91.8402 10.2136 91.7825 10.2564 91.6816 10.2992C91.5806 10.3563 91.5229 10.3992 91.5229 10.442C91.5229 10.599 91.696 10.7418 92.042 10.856C92.3881 10.9701 92.7774 11.0415 93.2099 11.0415C93.6425 11.0415 94.1616 10.9131 94.796 10.6704C95.4304 10.4277 96.0793 10.0994 96.757 9.71399C97.7086 9.17156 98.4584 8.71477 99.0063 8.35791C99.3235 8.20089 99.6119 8.12952 99.9002 8.12952C100.189 8.12952 100.376 8.15807 100.506 8.22944C100.636 8.28654 100.722 8.35791 100.78 8.41501C100.837 8.47211 100.91 8.55775 100.967 8.65768C101.039 8.7576 101.097 8.84324 101.169 8.88607C101.227 8.94317 101.27 9.00026 101.27 9.07164C101.27 9.14301 101.227 9.24293 101.155 9.39995C101.083 9.5427 100.708 10.1422 100.03 11.1843C99.3523 12.2263 98.4728 13.5538 97.4058 15.1669C96.3388 16.7799 95.5602 17.9647 95.07 18.7355C97.7086 18.7355 100.549 18.6927 103.606 18.5928C107.326 12.783 109.287 9.74254 109.489 9.45705C109.691 9.17156 109.878 8.98599 110.051 8.90034C110.224 8.8147 110.426 8.77187 110.671 8.77187L111.925 8.87179Z" fill="#292F36"/>
<path d="M116.741 18.6071C117.044 18.6071 117.347 18.7355 117.65 19.0068C117.967 19.278 118.111 19.6777 118.111 20.2201C118.111 20.7625 117.924 21.462 117.534 22.3327C117.145 23.1892 116.626 24.0742 115.948 24.9735C115.285 25.8585 114.535 26.7007 113.742 27.4858C112.935 28.2709 112.07 28.9133 111.147 29.4129C110.21 29.9125 109.373 30.1694 108.609 30.1694C107.845 30.1694 107.239 29.9268 106.778 29.4557C106.317 28.9847 106.086 28.328 106.086 27.4858C106.086 26.6436 106.302 25.7015 106.72 24.688C107.139 23.6603 107.672 22.761 108.335 21.9759C108.999 21.1908 109.705 20.4913 110.484 19.8632C112.084 18.5785 113.497 17.9504 114.708 17.9504C115.256 17.9504 115.66 18.0789 115.934 18.3501C116.035 18.4358 116.078 18.5214 116.078 18.5785V18.6642C116.237 18.6071 116.453 18.6071 116.741 18.6071ZM115.256 20.5484H115.155C114.809 20.5484 114.636 20.3057 114.636 19.8061C113.915 20.0345 113.166 20.4485 112.373 21.0337C111.579 21.619 110.873 22.3185 110.253 23.1178C108.984 24.7166 108.35 26.0727 108.335 27.1718C108.335 27.7142 108.537 27.9854 108.941 27.9854C109.345 27.9854 109.95 27.7142 110.743 27.2003C111.536 26.6865 112.329 25.9299 113.122 24.945C113.901 23.9743 114.492 23.1178 114.881 22.4041C115.271 21.6904 115.473 21.205 115.473 20.9338C115.458 20.6769 115.386 20.5484 115.256 20.5484Z" fill="#292F36"/>
<path d="M117.794 29.841L117.073 29.8125H116.813C116.712 29.7839 116.612 29.7268 116.496 29.6412C116.381 29.5555 116.294 29.4842 116.237 29.4556C116.179 29.4271 116.15 29.3414 116.15 29.2415C116.15 29.1416 116.193 28.956 116.265 28.7133C118.183 24.5309 120.043 21.1764 121.846 18.6783C122.047 18.4071 122.365 18.193 122.797 18.0503C123.23 17.9075 123.662 17.8362 124.08 17.8362C124.326 17.8362 124.455 18.0217 124.455 18.4071C124.455 18.5213 124.412 18.6641 124.34 18.8354C124.268 19.0209 124.066 19.3064 123.749 19.7204C123.432 20.1344 123.057 20.6054 122.624 21.1193C122.192 21.6332 121.946 21.9472 121.889 22.0329C123.244 20.6482 124.455 19.6205 125.551 18.9353C126.647 18.2644 127.426 17.9218 127.916 17.9218C128.406 17.9218 128.781 18.0645 129.04 18.3358C129.3 18.607 129.43 18.9067 129.43 19.2208C129.43 19.5348 129.401 19.806 129.358 20.0059C129.314 20.22 129.228 20.4341 129.113 20.6625C128.997 20.8909 128.896 21.0907 128.81 21.2478C128.723 21.4048 128.579 21.6189 128.392 21.8758C128.19 22.1328 128.06 22.3184 127.988 22.4183C127.916 22.5182 127.757 22.7038 127.527 22.975C127.296 23.2462 127.166 23.4032 127.152 23.4318C127.426 23.1606 127.815 22.7609 128.305 22.2184C128.795 21.676 129.214 21.2335 129.56 20.8766C129.906 20.5198 130.324 20.1058 130.843 19.649C131.362 19.1922 131.838 18.8211 132.27 18.5499C133.337 17.8932 134.419 17.5507 135.515 17.5507C135.889 17.5507 136.207 17.6649 136.466 17.9075C136.726 18.1502 136.855 18.4214 136.855 18.7497C136.855 19.078 136.452 19.8631 135.659 21.0907C134.866 22.3184 134.058 23.5602 133.265 24.8021C132.472 26.044 132.068 26.8291 132.068 27.1574C132.068 27.5999 132.155 27.8711 132.314 27.9568C132.487 28.0424 132.688 28.071 132.919 28.0567C133.15 28.0424 133.496 27.8854 133.914 27.5999C134.347 27.3144 134.721 27.0289 135.053 26.7149C135.601 26.2296 136.091 25.7585 136.567 25.3017C136.668 25.2161 136.769 25.1733 136.899 25.1733C137.086 25.1733 137.201 25.316 137.245 25.6015C137.288 25.887 137.302 26.1725 137.302 26.4865C137.302 26.8006 137.274 27.0004 137.216 27.1146C136.928 27.657 136.293 28.3279 135.327 29.1273C134.347 29.9124 133.409 30.3121 132.515 30.3121C132.4 30.3121 132.328 30.3121 132.285 30.2978C131.275 30.1979 130.569 29.9267 130.18 29.4699C129.79 29.0131 129.603 28.4707 129.603 27.8569C129.603 27.2431 129.819 26.4722 130.252 25.5872C130.684 24.7022 131.146 23.8886 131.665 23.1748C132.184 22.4611 132.645 21.8045 133.078 21.2192C133.51 20.634 133.727 20.3199 133.727 20.2771C133.727 20.2343 133.683 20.2057 133.611 20.2057C133.308 20.2057 132.631 20.6911 131.564 21.676C129.761 23.3461 128.204 24.9591 126.892 26.5008C126.546 26.9148 125.724 27.9425 124.441 29.6126C124.297 29.8125 124.052 29.9124 123.734 29.9124C123.417 29.9124 123.086 29.8553 122.74 29.7268C122.393 29.5984 122.22 29.4413 122.22 29.2558C122.22 29.1559 122.999 27.7855 124.571 25.1447C126.142 22.5039 126.921 21.0622 126.921 20.8338C126.921 20.5911 126.777 20.4769 126.488 20.4769C126.2 20.4769 125.594 20.9052 124.686 21.7616C122.192 24.1169 120.259 26.4722 118.89 28.799C118.803 28.9417 118.63 29.1559 118.371 29.4413C118.111 29.7268 117.88 29.841 117.794 29.841Z" fill="#292F36"/>
<path d="M146.386 18.8069C146.386 19.4493 146.127 20.0202 145.593 20.5056C145.06 20.9909 144.468 21.2336 143.791 21.2336C143.574 21.2336 143.43 21.1765 143.358 21.0766C143.286 20.9766 143.257 20.8339 143.257 20.6769C143.257 20.5198 143.272 20.3485 143.315 20.1915C142.954 20.3057 142.565 20.4913 142.133 20.734C141.7 20.9766 141.167 21.3335 140.532 21.8188C139.898 22.3042 139.58 22.6468 139.58 22.8894C139.58 22.9608 139.696 23.0036 139.927 23.0036C140.157 23.0036 140.518 22.918 140.994 22.7609C141.469 22.6039 141.815 22.5183 142.003 22.5183C142.19 22.5183 142.32 22.5326 142.378 22.5468C142.507 22.6182 142.637 22.7609 142.796 22.9893C142.94 23.2177 143.012 23.4033 143.012 23.5318C143.012 23.6602 142.882 23.8315 142.623 24.0457C142.363 24.2598 142.075 24.4168 141.758 24.531C141.426 24.6452 141.21 24.7308 141.109 24.7879C139.033 25.9442 137.994 26.7293 137.994 27.1575C137.994 27.9141 138.643 28.2995 139.955 28.2995C140.792 28.2995 141.642 28.0425 142.479 27.5144C143.2 27.0719 143.848 26.6151 144.425 26.144C145.002 25.6872 145.362 25.4017 145.521 25.2875C145.68 25.1733 145.795 25.1305 145.867 25.1305C146.127 25.1305 146.256 25.416 146.256 25.987C146.256 26.558 146.227 26.9291 146.155 27.1004C146.083 27.286 145.896 27.5001 145.564 27.7713C143.459 29.47 141.455 30.3264 139.58 30.3264C138.571 30.3264 137.778 30.1837 137.173 29.9125C136.062 29.4129 135.514 28.6563 135.514 27.6286C135.514 26.2868 136.452 25.259 138.34 24.5738C137.966 24.4025 137.72 24.2027 137.62 23.9315C137.504 23.6745 137.461 23.2606 137.461 22.6896C137.461 22.1186 137.735 21.5191 138.268 20.8767C138.802 20.2344 139.465 19.7062 140.244 19.3065C141.974 18.3787 143.531 17.9219 144.887 17.9219C145.218 17.9219 145.535 17.9932 145.881 18.1503C146.228 18.3073 146.386 18.5214 146.386 18.8069Z" fill="#292F36"/>
<path d="M0.223633 33.7952C4.01576 35.3654 7.87996 36.5787 11.8163 37.5066C15.7238 38.4772 19.7033 39.1624 23.6829 39.5906C25.6727 39.8618 27.6769 39.8904 29.6523 40.076C31.6565 40.0902 33.6462 40.2473 35.636 40.1331L38.6207 40.0617C39.6156 40.0474 40.6105 39.919 41.6054 39.8619C42.6003 39.7762 43.5951 39.7334 44.5756 39.6049L47.5315 39.1909C51.4966 38.7627 55.3464 37.8491 59.1818 36.75C63.0604 35.6937 66.7228 34.2948 70.6014 32.8388C74.5666 31.397 78.8633 30.4549 83.2178 30.9117C85.3662 31.1829 87.529 31.8681 89.2881 33.1243C91.0616 34.3662 92.3304 36.1362 93.1379 37.9919C91.9267 36.336 90.4127 34.98 88.6681 34.1378C86.9234 33.2956 85.0057 32.953 83.1024 33.0101C79.2526 33.0672 75.4605 34.3376 71.8991 35.9364C68.28 37.7064 64.3581 39.3051 60.4074 40.6327C56.4278 41.9031 52.3185 42.9166 48.1515 43.4305C39.8607 44.5154 31.3681 44.5296 23.1782 42.8881C19.0689 42.1458 15.0605 40.9895 11.1818 39.5193C7.33205 37.9919 3.56878 36.2076 0.223633 33.7952Z" fill="#292F36"/>
<path d="M138.11 10.0281C134.894 8.67204 131.621 7.61572 128.305 6.7878C125.003 5.91705 121.658 5.30325 118.298 4.87502C116.626 4.61807 114.924 4.56098 113.252 4.36113C111.565 4.31831 109.892 4.14701 108.205 4.21839C107.369 4.23266 106.518 4.23266 105.682 4.21839C104.846 4.21839 103.995 4.30403 103.159 4.33258C102.322 4.38968 101.472 4.40396 100.636 4.4896L98.1266 4.78937C94.7671 5.06058 91.5085 5.74576 88.2498 6.58796C84.9479 7.37306 81.8191 8.48647 78.4883 9.59989C75.0711 10.7276 71.3655 11.4128 67.6455 10.8989C65.8143 10.5991 63.9687 9.95675 62.5124 8.81479C61.0273 7.6871 60.018 6.14545 59.3979 4.53242C60.4217 5.9456 61.6905 7.10184 63.1468 7.81557C64.6031 8.5293 66.2036 8.82906 67.8041 8.81479C71.0339 8.81479 74.2348 7.78702 77.2627 6.50231C80.3484 5.04631 83.7368 3.7616 87.1107 2.70529C90.5136 1.69179 94.0606 0.920968 97.6076 0.549831C104.687 -0.192445 111.925 -0.0211512 118.861 1.60615C122.336 2.33415 125.724 3.44756 128.968 4.81792C132.227 6.21682 135.37 7.84412 138.11 10.0281Z" fill="#292F36"/>
</svg>
