<svg width="150" height="39" viewBox="0 0 150 39" fill="none" xmlns="http://www.w3.org/2000/svg">
<path d="M17.8898 37.6599C16.9898 37.6599 16.0998 37.3999 15.2198 36.8799C14.3598 36.3799 13.2598 35.5999 11.9198 34.5399C10.9198 33.7399 10.0598 33.0899 9.33979 32.5899C8.63979 32.1099 7.86979 31.6999 7.02979 31.3599C6.20979 31.0199 5.36979 30.8499 4.50979 30.8499C4.20979 30.8499 3.97979 30.8599 3.81979 30.8799L8.28979 10.0899C6.94979 10.6299 5.90979 11.4599 5.16979 12.5799C4.44979 13.6799 4.08979 15.0299 4.08979 16.6299C4.08979 17.3699 4.15979 17.8899 4.29979 18.1899C4.43979 18.4699 4.50979 18.6299 4.50979 18.6699C3.42979 18.6699 2.61979 18.4499 2.07979 18.0099C1.55979 17.5499 1.29979 16.7999 1.29979 15.7599C1.29979 14.4799 1.81979 13.2399 2.85979 12.0399C3.91979 10.8199 5.26979 9.83991 6.90979 9.09991C8.54979 8.33991 10.1898 7.95991 11.8298 7.95991C12.1098 7.95991 12.5098 7.97991 13.0298 8.01991L8.40979 29.5599C8.96979 29.6999 9.53979 29.8999 10.1198 30.1599C10.7198 30.4399 11.4398 30.8099 12.2798 31.2699C13.5798 31.9699 14.6898 32.4999 15.6098 32.8599C16.5298 33.2399 17.4898 33.4299 18.4898 33.4299C19.3898 33.4299 20.2298 33.2699 21.0098 32.9499C20.8498 34.4099 20.4898 35.5599 19.9298 36.3999C19.3898 37.2399 18.7098 37.6599 17.8898 37.6599ZM16.867 30.2799C15.387 30.2799 14.217 29.8999 13.357 29.1399C12.497 28.3799 12.067 27.1799 12.067 25.5399C12.067 24.1799 12.347 22.6699 12.907 21.0099C13.467 19.3499 14.367 17.9199 15.607 16.7199C16.847 15.4999 18.407 14.8899 20.287 14.8899C22.847 14.8899 24.127 16.4899 24.127 19.6899V19.7199C24.187 19.7399 24.297 19.7499 24.457 19.7499C25.117 19.7499 25.877 19.5799 26.737 19.2399C27.597 18.8799 28.377 18.4499 29.077 17.9499L29.347 18.7599C28.767 19.3799 28.007 19.9099 27.067 20.3499C26.147 20.7699 25.137 21.0699 24.037 21.2499C23.877 23.0699 23.467 24.6599 22.807 26.0199C22.147 27.3799 21.297 28.4299 20.257 29.1699C19.217 29.9099 18.087 30.2799 16.867 30.2799ZM18.067 27.5799C18.547 27.5799 19.027 27.3099 19.507 26.7699C19.987 26.2099 20.407 25.4599 20.767 24.5199C21.127 23.5599 21.387 22.4999 21.547 21.3399C21.007 21.2199 20.737 20.7999 20.737 20.0799C20.737 19.2599 21.047 18.7199 21.667 18.4599C21.627 17.7999 21.527 17.3499 21.367 17.1099C21.207 16.8499 20.927 16.7199 20.527 16.7199C19.867 16.7199 19.227 17.1999 18.607 18.1599C17.987 19.1199 17.487 20.2699 17.107 21.6099C16.727 22.9499 16.537 24.1299 16.537 25.1499C16.537 26.1099 16.647 26.7599 16.867 27.0999C17.087 27.4199 17.487 27.5799 18.067 27.5799ZM27.7106 15.1599H32.0306L31.6406 17.0199C32.3206 16.4199 32.9306 15.9599 33.4706 15.6399C34.0306 15.3199 34.6306 15.1599 35.2706 15.1599C35.9106 15.1599 36.4106 15.3799 36.7706 15.8199C37.1506 16.2599 37.3406 16.7899 37.3406 17.4099C37.3406 17.9899 37.1506 18.4999 36.7706 18.9399C36.3906 19.3799 35.8606 19.5999 35.1806 19.5999C34.7406 19.5999 34.4406 19.4999 34.2806 19.2999C34.1406 19.0799 34.0306 18.7699 33.9506 18.3699C33.8906 18.1099 33.8306 17.9199 33.7706 17.7999C33.7106 17.6799 33.6006 17.6199 33.4406 17.6199C33.0206 17.6199 32.6606 17.7099 32.3606 17.8899C32.0806 18.0499 31.7106 18.3399 31.2506 18.7599L28.8506 30.1599H24.5306L27.7106 15.1599ZM41.2399 30.3399C39.7599 30.3399 38.6099 29.9599 37.7899 29.1999C36.9699 28.4199 36.5599 27.2099 36.5599 25.5699C36.5599 24.1899 36.8299 22.6699 37.3699 21.0099C37.9099 19.3499 38.7899 17.9199 40.0099 16.7199C41.2299 15.4999 42.7799 14.8899 44.6599 14.8899C46.8599 14.8899 47.9599 15.8499 47.9599 17.7699C47.9599 18.8899 47.6399 19.9199 46.9999 20.8599C46.3599 21.7999 45.5099 22.5599 44.4499 23.1399C43.3899 23.6999 42.2599 24.0199 41.0599 24.0999C41.0199 24.6999 40.9999 25.0999 40.9999 25.2999C40.9999 26.2799 41.1699 26.9499 41.5099 27.3099C41.8499 27.6499 42.3999 27.8199 43.1599 27.8199C44.2399 27.8199 45.1599 27.5699 45.9199 27.0699C46.6999 26.5699 47.5499 25.8099 48.4699 24.7899H49.4899C47.2699 28.4899 44.5199 30.3399 41.2399 30.3399ZM41.2999 22.6599C42.0399 22.6199 42.7399 22.3599 43.3999 21.8799C44.0799 21.3999 44.6199 20.7899 45.0199 20.0499C45.4399 19.3099 45.6499 18.5299 45.6499 17.7099C45.6499 16.8899 45.3999 16.4799 44.8999 16.4799C44.1799 16.4799 43.4699 17.1099 42.7699 18.3699C42.0899 19.6299 41.5999 21.0599 41.2999 22.6599ZM66.1935 30.3399C65.1335 30.3399 64.3635 30.0199 63.8835 29.3799C63.4035 28.7399 63.1635 27.9299 63.1635 26.9499C63.1635 26.5299 63.2135 26.0599 63.3135 25.5399C63.4135 24.9999 63.5135 24.4799 63.6135 23.9799C63.7335 23.4799 63.8135 23.1599 63.8535 23.0199C64.0135 22.3199 64.1635 21.6299 64.3035 20.9499C64.4435 20.2699 64.5135 19.7199 64.5135 19.2999C64.5135 18.2799 64.1535 17.7699 63.4335 17.7699C62.9135 17.7699 62.4535 18.0299 62.0535 18.5499C61.6535 19.0499 61.3335 19.7099 61.0935 20.5299L59.0535 30.1599H54.7335L56.9235 19.8099C56.9835 19.5699 57.0135 19.3199 57.0135 19.0599C57.0135 18.1799 56.7135 17.7399 56.1135 17.7399C55.5535 17.7399 55.0635 17.9999 54.6435 18.5199C54.2435 19.0199 53.9235 19.6899 53.6835 20.5299L51.6435 30.1599H47.3235L50.5035 15.1599H54.8235L54.4935 16.7199C55.5135 15.5799 56.7335 15.0099 58.1535 15.0099C59.9135 15.0099 60.9435 15.8699 61.2435 17.5899C62.3435 15.8899 63.7335 15.0399 65.4135 15.0399C66.4335 15.0399 67.2435 15.3199 67.8435 15.8799C68.4435 16.4399 68.7435 17.2899 68.7435 18.4299C68.7435 19.0099 68.6735 19.6599 68.5335 20.3799C68.3935 21.0799 68.1935 21.9399 67.9335 22.9599C67.7735 23.5799 67.6235 24.1899 67.4835 24.7899C67.3635 25.3699 67.3035 25.8299 67.3035 26.1699C67.3035 26.5699 67.3935 26.8799 67.5735 27.0999C67.7535 27.3199 68.0635 27.4299 68.5035 27.4299C68.9835 27.4299 69.3135 27.3699 69.4935 27.2499C69.3735 28.2699 69.0035 29.0399 68.3835 29.5599C67.7835 30.0799 67.0535 30.3399 66.1935 30.3399ZM83.1726 9.78991C81.8326 10.3299 80.7926 11.1599 80.0526 12.2799C79.3326 13.3799 78.9726 14.7299 78.9726 16.3299C78.9726 17.0699 79.0426 17.5899 79.1826 17.8899C79.3226 18.1699 79.3926 18.3299 79.3926 18.3699C78.3126 18.3699 77.5026 18.1499 76.9626 17.7099C76.4426 17.2499 76.1826 16.4999 76.1826 15.4599C76.1826 14.1799 76.7026 12.9399 77.7426 11.7399C78.8026 10.5199 80.1526 9.53991 81.7926 8.79991C83.4326 8.03991 85.0726 7.65991 86.7126 7.65991C86.9926 7.65991 87.3926 7.67991 87.9126 7.71991L83.1426 30.1599H78.8226L83.1726 9.78991ZM89.5326 14.0499H93.8526L93.3726 16.2999C94.3726 15.4399 95.5426 15.0099 96.8826 15.0099C98.0026 15.0099 98.8926 15.3799 99.5526 16.1199C100.213 16.8599 100.543 18.0699 100.543 19.7499C100.543 21.3299 100.313 22.9299 99.8526 24.5499C99.3926 26.1499 98.6126 27.5199 97.5126 28.6599C96.4126 29.7799 94.9626 30.3399 93.1626 30.3399C91.8826 30.3399 91.0326 29.9799 90.6126 29.2599L89.0526 36.5799L84.5226 37.6599L89.5326 14.0499ZM92.2326 27.7299C93.1926 27.7299 93.9826 27.2799 94.6026 26.3799C95.2426 25.4799 95.7026 24.4099 95.9826 23.1699C96.2826 21.9099 96.4326 20.7399 96.4326 19.6599C96.4326 17.9999 95.9326 17.1699 94.9326 17.1699C94.5726 17.1699 94.2026 17.2999 93.8226 17.5599C93.4626 17.8199 93.1426 18.1799 92.8626 18.6399L91.0926 27.0399C91.2526 27.4999 91.6326 27.7299 92.2326 27.7299ZM104.706 30.3399C103.746 30.3399 102.936 30.1599 102.276 29.7999C101.616 29.4199 101.126 28.9399 100.806 28.3599C100.486 27.7599 100.326 27.1399 100.326 26.4999C100.326 25.8399 100.486 25.2699 100.806 24.7899C101.106 24.2899 101.476 23.9299 101.916 23.7099C102.696 22.3099 103.376 20.8999 103.956 19.4799C104.536 18.0399 105.086 16.4899 105.606 14.8299L110.046 14.2299C110.146 16.7899 110.316 19.5599 110.556 22.5399C110.656 23.7399 110.706 24.6099 110.706 25.1499C110.706 25.6099 110.666 25.9899 110.586 26.2899C111.526 25.7499 112.246 25.2499 112.746 24.7899H114.006C112.726 26.2699 111.196 27.5199 109.416 28.5399C108.836 29.1599 108.116 29.6199 107.256 29.9199C106.416 30.1999 105.566 30.3399 104.706 30.3399ZM103.746 27.9699C104.486 27.9699 105.106 27.7499 105.606 27.3099C106.106 26.8699 106.356 26.1599 106.356 25.1799C106.356 24.5799 106.296 23.7399 106.176 22.6599C105.976 20.3799 105.846 18.8499 105.786 18.0699C105.306 19.6499 104.496 21.5399 103.356 23.7399C103.816 23.9799 104.046 24.3299 104.046 24.7899C104.046 25.1699 103.916 25.5099 103.656 25.8099C103.416 26.1099 103.106 26.2599 102.726 26.2599C102.306 26.2599 102.036 26.1299 101.916 25.8699C101.916 26.5899 102.056 27.1199 102.336 27.4599C102.636 27.7999 103.106 27.9699 103.746 27.9699ZM115.711 30.3399C114.751 30.3399 113.971 30.0399 113.371 29.4399C112.791 28.8399 112.501 27.9399 112.501 26.7399C112.501 26.2399 112.581 25.5899 112.741 24.7899L114.781 15.1599H119.101L116.941 25.3599C116.881 25.6599 116.851 25.9399 116.851 26.1999C116.851 27.0199 117.151 27.4299 117.751 27.4299C118.311 27.4299 118.791 27.1999 119.191 26.7399C119.591 26.2599 119.911 25.6099 120.151 24.7899L122.191 15.1599H126.511L124.351 25.3599C124.271 25.6599 124.231 25.9799 124.231 26.3199C124.231 26.7199 124.321 27.0099 124.501 27.1899C124.701 27.3499 125.021 27.4299 125.461 27.4299C126.021 27.4299 126.501 27.1899 126.901 26.7099C127.321 26.2299 127.651 25.5899 127.891 24.7899H129.151C128.411 26.9499 127.491 28.4199 126.391 29.1999C125.311 29.9599 124.221 30.3399 123.121 30.3399C122.261 30.3399 121.571 30.0999 121.051 29.6199C120.551 29.1399 120.251 28.4299 120.151 27.4899C119.471 28.5899 118.751 29.3399 117.991 29.7399C117.251 30.1399 116.491 30.3399 115.711 30.3399ZM145.617 30.3399C144.557 30.3399 143.787 30.0199 143.307 29.3799C142.827 28.7399 142.587 27.9299 142.587 26.9499C142.587 26.5299 142.637 26.0599 142.737 25.5399C142.837 24.9999 142.937 24.4799 143.037 23.9799C143.157 23.4799 143.237 23.1599 143.277 23.0199C143.437 22.3199 143.587 21.6299 143.727 20.9499C143.867 20.2699 143.937 19.7199 143.937 19.2999C143.937 18.2799 143.577 17.7699 142.857 17.7699C142.337 17.7699 141.877 18.0299 141.477 18.5499C141.077 19.0499 140.757 19.7099 140.517 20.5299L138.477 30.1599H134.157L136.347 19.8099C136.407 19.5699 136.437 19.3199 136.437 19.0599C136.437 18.1799 136.137 17.7399 135.537 17.7399C134.977 17.7399 134.487 17.9999 134.067 18.5199C133.667 19.0199 133.347 19.6899 133.107 20.5299L131.067 30.1599H126.747L129.927 15.1599H134.247L133.917 16.7199C134.937 15.5799 136.157 15.0099 137.577 15.0099C139.337 15.0099 140.367 15.8699 140.667 17.5899C141.767 15.8899 143.157 15.0399 144.837 15.0399C145.857 15.0399 146.667 15.3199 147.267 15.8799C147.867 16.4399 148.167 17.2899 148.167 18.4299C148.167 19.0099 148.097 19.6599 147.957 20.3799C147.817 21.0799 147.617 21.9399 147.357 22.9599C147.197 23.5799 147.047 24.1899 146.907 24.7899C146.787 25.3699 146.727 25.8299 146.727 26.1699C146.727 26.5699 146.817 26.8799 146.997 27.0999C147.177 27.3199 147.487 27.4299 147.927 27.4299C148.407 27.4299 148.737 27.3699 148.917 27.2499C148.797 28.2699 148.427 29.0399 147.807 29.5599C147.207 30.0799 146.477 30.3399 145.617 30.3399Z" fill="#292F36"/>
</svg>
