<svg width="166" height="44" viewBox="0 0 166 44" fill="none" xmlns="http://www.w3.org/2000/svg">
<path d="M35.3425 43.5479H8.25332C3.80165 43.5479 0.193848 39.9762 0.193848 35.569V8.7508C0.193848 4.34365 3.80165 0.771912 8.25332 0.771912H35.3425C39.7941 0.771912 43.4019 4.34365 43.4019 8.7508V35.569C43.4019 39.9762 39.7941 43.5479 35.3425 43.5479Z" fill="#292F36"/>
<path d="M29.5823 22.5535C30.3527 23.51 30.7441 24.6238 30.7441 25.883C30.7441 27.7355 30.1204 29.1884 28.8729 30.2175C27.6255 31.2467 25.8399 31.7794 23.5162 31.7794H13.3655V10.1674H23.2717C25.4975 10.1674 27.2097 10.6517 28.4204 11.6082C29.6312 12.5647 30.2427 13.9329 30.2427 15.7006C30.2427 17.0082 29.888 18.0858 29.1909 18.9575C28.4938 19.8293 27.5766 20.3862 26.4392 20.6526C27.7723 20.9674 28.8118 21.597 29.5823 22.5535ZM18.6365 19.0059H22.0976C23.9321 19.0059 24.8493 18.2311 24.8493 16.6813C24.8493 15.1315 23.9076 14.3566 22.0364 14.3566H18.6365V19.0059ZM25.3385 25.1566C25.3385 24.3817 25.0817 23.7763 24.568 23.3405C24.0544 22.9046 23.3206 22.6866 22.3789 22.6866H18.6488V27.5418H22.4156C24.3601 27.5297 25.3385 26.7427 25.3385 25.1566Z" fill="white"/>
<path d="M68.4364 31.7794L63.7157 23.6189H62.5172V31.7794H57.2339V10.1674H66.2473C67.9717 10.1674 69.4393 10.458 70.6256 11.0513C71.8241 11.6445 72.7169 12.4557 73.3161 13.4849C73.9154 14.514 74.2089 15.6885 74.2089 17.0203C74.2089 18.5943 73.7687 19.9261 72.9003 21.0279C72.0198 22.1297 70.7601 22.8804 69.0846 23.292L74.2701 31.7915H68.4364V31.7794ZM62.5172 20.0472H65.7825C66.8343 20.0472 67.6048 19.8172 68.094 19.3571C68.5832 18.897 68.84 18.219 68.84 17.323C68.84 16.4634 68.5832 15.7974 68.0818 15.301C67.5803 14.8167 66.8099 14.5625 65.7825 14.5625H62.5172V20.0472Z" fill="#292F36"/>
<path d="M98.106 27.8445H89.9243L88.5668 31.7916H83.0144L91.0127 10.337H97.091L105.089 31.7916H99.4758L98.106 27.8445ZM96.7486 23.8611L94.0335 15.9186L91.2818 23.8611H96.7486Z" fill="#292F36"/>
<path d="M134.233 31.7794H128.95L120.12 18.5095V31.7794H114.836V10.1674H120.12L128.95 23.5584V10.1674H134.233V31.7794Z" fill="#292F36"/>
<path d="M163.854 26.5731C162.937 28.2077 161.616 29.4911 159.904 30.4112C158.179 31.3314 156.161 31.7915 153.838 31.7915H145.595V10.1795H153.838C156.186 10.1795 158.216 10.6275 159.916 11.5234C161.628 12.4194 162.937 13.6786 163.854 15.3131C164.771 16.9476 165.224 18.8122 165.224 20.9431C165.224 23.0498 164.759 24.9265 163.854 26.5731ZM158.167 25.4835C159.304 24.4059 159.879 22.8803 159.879 20.931C159.879 18.9696 159.304 17.4562 158.167 16.3786C157.03 15.301 155.428 14.7562 153.361 14.7562H150.866V27.1059H153.361C155.428 27.1059 157.03 26.5731 158.167 25.4835Z" fill="#292F36"/>
</svg>
