<svg width="105" height="103" viewBox="0 0 105 103" fill="none" xmlns="http://www.w3.org/2000/svg">
<g style="mix-blend-mode:multiply">
<path d="M52.517 101.606C80.6591 101.606 103.473 79.0206 103.473 51.16C103.473 23.2993 80.6591 0.713745 52.517 0.713745C24.375 0.713745 1.56128 23.2993 1.56128 51.16C1.56128 79.0206 24.375 101.606 52.517 101.606Z" fill="white"/>
<path d="M52.517 102.32C24.0256 102.32 0.840332 79.3664 0.840332 51.1599C0.840332 22.9535 24.0256 0 52.517 0C81.0084 0 104.194 22.9535 104.194 51.1599C104.194 79.3664 81.0084 102.32 52.517 102.32ZM52.517 1.42745C24.8187 1.42745 2.2822 23.7386 2.2822 51.1599C2.2822 78.5813 24.8187 100.892 52.517 100.892C80.2154 100.892 102.752 78.5813 102.752 51.1599C102.752 23.7386 80.2154 1.42745 52.517 1.42745Z" fill="#292F36"/>
<path d="M59.784 5.83827C60.1301 5.86682 60.4329 5.88109 60.678 5.88109L60.6492 6.10949C60.2454 6.16658 59.8994 6.46635 59.6254 7.03733L56.1938 13.832L56.0928 13.8177L56.0063 13.8035L53.8291 6.22368C53.6849 5.72407 53.4398 5.45286 53.0938 5.41003L53.1226 5.18164C53.4398 5.23874 53.8579 5.28156 54.377 5.33866C55.0547 5.39576 55.5593 5.43858 55.891 5.43858L55.8621 5.66697C55.5593 5.6527 55.3431 5.66697 55.2133 5.7098C55.0835 5.75262 55.0114 5.86682 54.997 6.00956C54.9826 6.13803 55.0114 6.3236 55.0835 6.56627L56.684 12.3617L59.0631 7.62259C59.265 7.23717 59.3659 6.92313 59.3947 6.69474C59.4236 6.45207 59.3515 6.26651 59.1929 6.13803C59.0343 6.00956 58.7747 5.93819 58.4287 5.89537L58.4575 5.66697C58.8757 5.73835 59.3226 5.79545 59.784 5.83827Z" fill="#292F36"/>
<path d="M69.4733 8.85021C69.3291 8.85021 69.2138 8.90731 69.1273 9.02151C69.0408 9.13571 68.9398 9.32127 68.8389 9.59249L66.777 15.0168C66.6761 15.288 66.6184 15.5021 66.6184 15.6449C66.6184 15.7876 66.6617 15.9018 66.7626 15.9875C66.8635 16.0731 67.051 16.1731 67.3105 16.2872L67.224 16.5014C66.8924 16.3586 66.431 16.1731 65.8398 15.9447C65.2054 15.702 64.7296 15.545 64.4124 15.4451L64.4989 15.2309C64.7728 15.3166 64.9747 15.3594 65.1045 15.3594C65.2342 15.3594 65.364 15.3023 65.4505 15.1881C65.537 15.0739 65.6379 14.8883 65.7389 14.6171L67.8008 9.1928C67.9017 8.92159 67.9594 8.70747 67.9594 8.56472C67.9594 8.42198 67.9161 8.30778 67.8152 8.22214C67.7142 8.13649 67.5268 8.03657 67.2673 7.92237L67.3538 7.70825C67.6566 7.83672 68.118 8.02229 68.7524 8.26496C69.3436 8.49335 69.8194 8.65037 70.1654 8.75029L70.0789 8.96441C69.8194 8.87876 69.6175 8.83594 69.4733 8.85021Z" fill="#292F36"/>
<path d="M82.3061 16.4014C82.162 16.3728 82.0178 16.4157 81.888 16.5013C81.7582 16.5869 81.5996 16.7582 81.4266 17.0009L77.2452 22.6108L77.0289 22.4538L77.5912 13.4323L73.8856 18.3998C73.7126 18.6425 73.5972 18.8423 73.5396 18.9993C73.4819 19.1564 73.5107 19.2991 73.5828 19.4419C73.6549 19.5846 73.8279 19.7416 74.073 19.9415L73.9289 20.127C73.7126 19.9415 73.3954 19.6988 72.9772 19.3848C72.6023 19.1135 72.2995 18.8994 72.0688 18.771L72.213 18.5854C72.4437 18.7424 72.6312 18.8281 72.7754 18.8423C72.9195 18.8709 73.0637 18.8281 73.1935 18.7424C73.3233 18.6425 73.4819 18.4855 73.6549 18.2428L77.0577 13.6749C77.2307 13.4323 77.3461 13.2467 77.3894 13.1182C77.4326 12.9898 77.4182 12.8613 77.3461 12.7471C77.274 12.6329 77.1298 12.4902 76.8991 12.3046L77.0433 12.119C77.2307 12.2903 77.5191 12.5187 77.9084 12.7899C78.1968 13.004 78.4419 13.1753 78.6726 13.3038L78.2112 20.8693L81.2103 16.8439C81.3833 16.6012 81.5131 16.4014 81.5564 16.2444C81.5996 16.0873 81.5852 15.9446 81.5131 15.8018C81.441 15.6591 81.268 15.4878 81.0229 15.3022L81.1671 15.1167C81.3833 15.3022 81.7006 15.5449 82.1187 15.8589C82.4936 16.1302 82.7964 16.3443 83.0271 16.4728L82.8829 16.6583C82.6378 16.5156 82.4503 16.4157 82.3061 16.4014Z" fill="#292F36"/>
<path d="M87.1363 22.8392C87.5112 22.568 87.9005 22.2682 88.3186 21.8971C88.6791 22.4395 89.3135 23.3388 90.2219 24.6093C91.1303 25.8654 91.7791 26.7504 92.1684 27.2643C91.6782 27.5498 91.26 27.8068 90.8852 28.0637C90.568 28.2921 90.3084 28.4919 90.121 28.6489L89.9624 28.4348C90.4238 28.0351 90.741 27.7068 90.9284 27.4642C91.1159 27.2215 91.188 26.9646 91.1735 26.6933C91.1591 26.4221 90.9861 26.0938 90.7121 25.6941L90.3373 25.1802L84.8726 29.0344C84.613 29.2199 84.4256 29.3912 84.3391 29.5197C84.2525 29.6482 84.2237 29.8052 84.2814 29.9765C84.3246 30.1335 84.4544 30.3619 84.6419 30.6474L84.4544 30.7901C84.2381 30.4475 83.9065 29.9622 83.4739 29.377C83.0125 28.7346 82.6665 28.2778 82.4358 27.9923L82.6232 27.8496C82.8395 28.1208 83.0125 28.3064 83.1567 28.4063C83.3009 28.5062 83.4451 28.5348 83.6037 28.4919C83.7623 28.4491 83.9786 28.3349 84.2381 28.1493L89.7028 24.2952L89.3279 23.7813C89.0396 23.3816 88.78 23.139 88.5349 23.0248C88.2898 22.9106 88.0158 22.8963 87.7275 22.9962C87.4391 23.0962 87.0209 23.2817 86.4875 23.5815L86.3288 23.3674C86.5451 23.2532 86.8047 23.0819 87.1363 22.8392Z" fill="#292F36"/>
<path d="M89.9048 42.6523L89.6741 42.7237C89.5876 42.4096 89.4722 42.0099 89.2992 41.5246C89.0829 40.8965 88.9099 40.4255 88.7801 40.1114L89.0108 40.04C89.1118 40.3113 89.2271 40.5111 89.3136 40.611C89.4145 40.711 89.5443 40.7395 89.6885 40.6824C89.8183 40.6396 89.9769 40.5397 90.1643 40.3826L91.7648 39.0837L90.8564 36.4143L89.5155 36.3572C89.0829 36.3287 88.7513 36.3572 88.5206 36.4429C88.2899 36.5285 88.1457 36.657 88.088 36.8426C88.0448 37.0281 88.0736 37.2993 88.1745 37.6277L87.9438 37.699C87.8285 37.2708 87.6843 36.8426 87.5401 36.4143C87.4248 36.086 87.3238 35.8148 87.2229 35.6007L87.4536 35.5293C87.6555 35.8719 88.088 36.0575 88.7224 36.0717L96.3932 36.4143L96.4509 36.5856L90.3373 41.6245C89.9625 41.9814 89.8183 42.3097 89.9048 42.6523ZM94.9081 36.5856L91.1304 36.4286L91.9811 38.9409L94.9081 36.5856Z" fill="#292F36"/>
<path d="M90.9574 53.5724C91.1016 53.5153 91.1737 53.4439 91.1737 53.344C91.1737 53.2869 91.1592 53.2441 91.1304 53.2013C91.1016 53.1584 91.0439 53.0728 90.9574 52.9586C90.7411 52.6874 90.5825 52.4019 90.4671 52.1164C90.3518 51.8309 90.2941 51.5026 90.2941 51.1457C90.2797 50.3464 90.4383 49.6612 90.7555 49.0759C91.0871 48.4907 91.5485 48.0481 92.183 47.7341C92.803 47.4201 93.5528 47.263 94.4323 47.2488C95.3407 47.2345 96.1337 47.3772 96.8114 47.6913C97.4891 48.0053 98.0226 48.4336 98.3974 49.0045C98.7723 49.5755 98.9742 50.2179 98.9742 50.9316C98.9742 51.2456 98.9453 51.5311 98.8877 51.7738C98.83 52.0165 98.7435 52.2306 98.6426 52.4162C98.5416 52.6017 98.4119 52.8158 98.2388 53.0442C98.1667 53.1442 98.1235 53.2298 98.1235 53.2869C98.1235 53.4297 98.3686 53.5296 98.8444 53.5724V53.8436C98.3398 53.8151 97.4314 53.8151 96.1337 53.8436V53.5724C96.5518 53.501 96.8979 53.4154 97.1718 53.3297C97.4458 53.2441 97.6765 53.1156 97.8784 52.9586C98.1523 52.7302 98.383 52.4304 98.5416 52.0593C98.7002 51.6882 98.7723 51.317 98.7723 50.9173C98.7579 50.4034 98.5849 49.9609 98.2388 49.5755C97.8928 49.1901 97.4025 48.9046 96.7825 48.6905C96.1481 48.4907 95.4272 48.3907 94.5909 48.405C93.6393 48.4193 92.8751 48.5335 92.2695 48.7476C91.6639 48.9617 91.2313 49.2758 90.943 49.6897C90.6546 50.1037 90.5248 50.6318 90.5392 51.2742C90.5536 51.7453 90.6834 52.1449 90.9285 52.4875C91.0295 52.6303 91.116 52.7159 91.2169 52.7587C91.3034 52.8016 91.4332 52.8158 91.5918 52.8158L92.7309 52.8016C93.0625 52.8016 93.2932 52.7587 93.4518 52.7016C93.596 52.6445 93.7114 52.5304 93.7546 52.3591C93.8123 52.202 93.8411 51.9451 93.8411 51.6025H94.0718C94.0574 51.9879 94.043 52.5304 94.0574 53.2584C94.0718 53.8008 94.0862 54.2147 94.1151 54.4717H93.8844C93.87 54.2861 93.8267 54.1577 93.7834 54.0863C93.7402 54.0149 93.6393 53.9578 93.5095 53.9293C93.3797 53.9007 93.1634 53.8864 92.8606 53.9007L90.5248 53.9435V53.7151C90.6546 53.658 90.8132 53.6295 90.9574 53.5724Z" fill="#292F36"/>
<path d="M89.2415 65.72C88.8233 65.5915 88.3331 65.463 87.7708 65.3488C87.9582 64.8492 88.2322 64.007 88.6215 62.8079C89.0829 61.3805 89.4145 60.2956 89.6163 59.5676L89.847 59.639C89.775 59.9102 89.7461 60.1101 89.7461 60.2528C89.7605 60.3955 89.8182 60.4955 89.9336 60.5811C90.0489 60.6668 90.2508 60.7524 90.5247 60.8381L96.1048 62.5796C96.3931 62.6652 96.595 62.708 96.7392 62.708C96.8834 62.708 96.9987 62.6509 97.0852 62.5367C97.1718 62.4225 97.2583 62.237 97.3592 61.98L97.5899 62.0514C97.3304 62.7794 96.9843 63.85 96.5229 65.2774C96.1769 66.3623 95.9318 67.1474 95.8164 67.6185C95.3406 67.4186 94.908 67.2473 94.5043 67.1331C94.2159 67.0475 93.9708 66.9761 93.7978 66.9476L93.8843 66.6906C94.3889 66.7905 94.7783 66.8334 95.0378 66.8334C95.2973 66.8334 95.5136 66.7477 95.6866 66.5764C95.8597 66.4194 96.0038 66.1339 96.1336 65.7485L96.422 64.8207C96.5085 64.5494 96.5518 64.3496 96.5373 64.2211C96.5229 64.0927 96.4797 63.9785 96.3643 63.8928C96.249 63.8072 96.0615 63.7215 95.7731 63.6359L93.1201 62.8079L92.8894 63.5502C92.774 63.9214 92.8029 64.2069 92.9903 64.4067C93.1778 64.6065 93.3796 64.7493 93.6103 64.8492C93.841 64.9491 93.9852 65.0205 94.0429 65.049L93.9564 65.306C93.5959 65.1632 93.2499 65.0348 92.9038 64.9349L92.3703 64.7778C91.9954 64.6636 91.4475 64.5066 90.7554 64.3496L90.8419 64.0927C90.8996 64.1069 91.0871 64.1355 91.4043 64.2069C91.7215 64.2639 91.9954 64.2354 92.2117 64.1212C92.428 64.007 92.5722 63.7929 92.6731 63.4931L92.9038 62.7508L90.1931 61.9087C89.9047 61.823 89.7029 61.7802 89.5587 61.7802C89.4145 61.7802 89.2991 61.8373 89.227 61.9515C89.1405 62.0657 89.054 62.2512 88.9675 62.5225L88.708 63.3361C88.5638 63.8072 88.5061 64.1783 88.5638 64.4495C88.607 64.735 88.7512 64.9634 88.9963 65.1632C89.2415 65.3488 89.6163 65.5629 90.121 65.7913L90.0345 66.0483C89.8615 65.9198 89.5875 65.8342 89.2415 65.72Z" fill="#292F36"/>
<path d="M85.1322 83.2349C85.1899 83.1064 85.1755 82.978 85.1178 82.8495C85.0601 82.721 84.9159 82.564 84.6997 82.3499L80.4606 78.3387C80.2443 78.1389 80.0713 78.0104 79.9415 77.9533C79.8117 77.8962 79.6819 77.8962 79.5522 77.9533C79.4224 78.0104 79.2638 78.1389 79.0619 78.3387L78.8889 78.1817C79.1629 77.939 79.5089 77.5822 79.9559 77.1397C80.4173 76.6543 80.7634 76.2832 80.9796 76.0405L81.1527 76.1975C80.9652 76.4117 80.8499 76.583 80.7922 76.6972C80.7345 76.8256 80.7489 76.9541 80.8066 77.0826C80.8643 77.211 81.0085 77.3681 81.2247 77.5822L85.4639 81.5933C85.6801 81.7932 85.8532 81.9216 85.9829 81.9787C86.1127 82.0358 86.2425 82.0358 86.3722 81.9787C86.502 81.9216 86.6606 81.7932 86.8625 81.5933L87.0355 81.7503C86.7904 81.9645 86.4299 82.3213 85.9685 82.8067C85.5215 83.2634 85.1899 83.6346 84.9592 83.9058L84.7862 83.7488C84.9592 83.5347 85.0745 83.3634 85.1322 83.2349Z" fill="#292F36"/>
<path d="M73.1215 91.9422C73.208 91.8138 73.2224 91.6853 73.1936 91.5283C73.1647 91.3713 73.0638 91.1714 72.9052 90.9002L69.3293 84.8906L69.56 84.7479L77.721 88.7876L74.5633 83.4774C74.4047 83.2205 74.275 83.0349 74.1452 82.935C74.0154 82.8351 73.8712 82.7923 73.7126 82.8065C73.554 82.8208 73.3378 82.9065 73.0638 83.0492L72.934 82.8494C73.1936 82.7352 73.5396 82.5353 73.9866 82.2784C74.3903 82.0357 74.6931 81.8501 74.9094 81.6931L75.0247 81.893C74.794 82.0357 74.6354 82.1784 74.5633 82.3069C74.4768 82.4354 74.4624 82.5639 74.4913 82.7209C74.5201 82.8779 74.621 83.0777 74.7796 83.349L77.6922 88.2451C77.8364 88.5021 77.9662 88.6734 78.0815 88.759C78.1969 88.8447 78.3122 88.8875 78.4564 88.8589C78.5862 88.8304 78.788 88.759 79.0331 88.6305L79.1485 88.8304C78.9178 88.9446 78.6006 89.1159 78.1824 89.3585C77.8796 89.5298 77.6201 89.7011 77.4038 89.8439L70.5549 86.4608L73.1215 90.7717C73.2801 91.0287 73.4098 91.2142 73.5396 91.3142C73.655 91.4141 73.7992 91.4569 73.9722 91.4426C74.1452 91.4283 74.3615 91.3427 74.6354 91.2L74.7508 91.3998C74.4912 91.514 74.1452 91.7138 73.6982 91.9708C73.2945 92.2134 72.9917 92.399 72.7754 92.556L72.6601 92.3562C72.8764 92.1992 73.035 92.0564 73.1215 91.9422Z" fill="#292F36"/>
<path d="M65.1912 93.8123C65.2921 94.2548 65.4218 94.7401 65.5949 95.254C64.946 95.3682 63.8646 95.5966 62.3362 95.9106C60.8079 96.239 59.7409 96.4816 59.1064 96.6386C59.0344 96.0819 58.9623 95.5966 58.8613 95.1541C58.7748 94.7687 58.7027 94.4546 58.6162 94.2262L58.8757 94.1691C59.0632 94.7544 59.2362 95.1684 59.3948 95.4396C59.5534 95.7108 59.7553 95.8821 60.0148 95.9677C60.2744 96.0534 60.6493 96.0391 61.1251 95.9392L61.7451 95.8107L60.332 89.3158C60.2599 89.0018 60.1879 88.7734 60.0869 88.6449C59.986 88.5164 59.8706 88.4308 59.6976 88.4165C59.5246 88.388 59.2651 88.4165 58.919 88.4736L58.8757 88.2452C59.2795 88.1881 59.8562 88.0739 60.5772 87.9169C61.3414 87.7456 61.9181 87.6171 62.2786 87.5172L62.3218 87.7456C61.9758 87.8313 61.7451 87.9169 61.6009 88.0025C61.4567 88.0882 61.3702 88.2167 61.3413 88.3737C61.3125 88.5307 61.3269 88.7734 61.399 89.0874L62.8121 95.5823L63.4321 95.4539C63.9079 95.3539 64.2539 95.2112 64.4558 95.0256C64.6577 94.84 64.773 94.5974 64.8018 94.2976C64.8307 93.9978 64.8163 93.5411 64.7442 92.9415L65.0037 92.8844C65.047 93.1128 65.1046 93.4269 65.1912 93.8123Z" fill="#292F36"/>
<path d="M46.0573 89.8011C46.1006 89.3586 46.115 88.859 46.115 88.3022C46.6485 88.3736 47.5424 88.4593 48.8113 88.5735C50.3108 88.7019 51.4499 88.8019 52.2285 88.8447L52.2141 89.0731C51.9257 89.0588 51.7239 89.0731 51.5941 89.1159C51.4643 89.1587 51.3634 89.2301 51.3057 89.3586C51.248 89.487 51.2048 89.7012 51.1759 89.9866L50.6569 95.7678C50.628 96.0533 50.6425 96.2674 50.6713 96.4102C50.7001 96.5529 50.7866 96.6528 50.9164 96.7099C51.0462 96.767 51.248 96.8241 51.522 96.8527L51.5076 97.0811C50.7434 96.9954 49.6043 96.8812 48.1048 96.7528C46.9513 96.6528 46.1294 96.5958 45.6392 96.5672C45.7401 96.0676 45.8122 95.6108 45.841 95.1968C45.8699 94.8971 45.8843 94.6544 45.8699 94.4688L46.1438 94.4974C46.1582 95.0113 46.1871 95.3824 46.2592 95.6394C46.3168 95.8963 46.4466 96.0819 46.6485 96.2103C46.8359 96.3388 47.1531 96.4245 47.5569 96.453L48.5373 96.5386C48.8257 96.5672 49.0276 96.5529 49.1573 96.5244C49.2871 96.4958 49.388 96.4102 49.4457 96.2817C49.5034 96.1532 49.5466 95.9391 49.5755 95.6536L49.8206 92.9129L49.042 92.8415C48.6527 92.813 48.3787 92.8986 48.2201 93.127C48.0759 93.3554 47.9606 93.5838 47.9173 93.8265C47.8596 94.0692 47.8308 94.2262 47.8164 94.2975L47.5424 94.269C47.6001 93.8836 47.6434 93.5267 47.6866 93.1699L47.7299 92.6132C47.7587 92.2135 47.7876 91.671 47.8164 90.9573L48.0903 90.9859C48.0903 91.043 48.1048 91.2285 48.1048 91.5568C48.1192 91.8852 48.1913 92.1421 48.3643 92.3134C48.5229 92.499 48.768 92.5989 49.0852 92.6274L49.8638 92.6988L50.109 89.901C50.1378 89.6155 50.1234 89.4014 50.0945 89.2586C50.0657 89.1302 49.9792 89.0302 49.8494 88.9732C49.7197 88.9161 49.5178 88.8732 49.2438 88.8447L48.3787 88.7733C47.8885 88.7305 47.5136 88.759 47.2396 88.8732C46.9801 88.9731 46.7782 89.173 46.6341 89.4442C46.4899 89.7154 46.3745 90.1294 46.2592 90.6718L45.9852 90.6433C45.9852 90.4292 46.014 90.1437 46.0573 89.8011Z" fill="#292F36"/>
<path d="M34.71 84.5053C34.9263 84.4625 35.1714 84.5053 35.4309 84.6195C35.7337 84.748 35.9356 84.9335 36.0509 85.1762C36.1663 85.4331 36.1807 85.79 36.1086 86.2611L35.8923 87.4316C35.8202 87.8455 35.777 88.1596 35.7626 88.4023C35.7481 88.6306 35.8058 88.8448 35.9068 89.0303C36.0077 89.2159 36.1951 89.3586 36.4691 89.4728L37.5072 89.9011L38.5598 87.4173C38.6752 87.1461 38.7328 86.9462 38.7472 86.8035C38.7617 86.6608 38.704 86.5466 38.6031 86.4466C38.5021 86.3467 38.3291 86.2468 38.0696 86.1326L38.1561 85.9185C38.4877 86.0755 38.9347 86.2753 39.5259 86.518C40.1459 86.775 40.6217 86.9605 40.9389 87.0604L40.8524 87.2746C40.5784 87.1746 40.3766 87.1318 40.2468 87.1175C40.1026 87.1175 39.9873 87.1604 39.9007 87.2746C39.7998 87.3745 39.6989 87.5601 39.5835 87.8313L37.3198 93.1842C37.2044 93.4554 37.1468 93.6553 37.1323 93.798C37.1179 93.9408 37.1756 94.055 37.2765 94.1549C37.3775 94.2548 37.5505 94.3547 37.81 94.4832L37.7235 94.6973C37.4207 94.5546 36.9882 94.3547 36.4114 94.1121C36.123 93.9979 35.8202 93.8694 35.4742 93.7267C35.1281 93.5839 34.8974 93.4983 34.7677 93.4412C34.2053 93.1985 33.7584 92.9273 33.4267 92.599C33.0951 92.2707 32.9077 91.9281 32.8211 91.5569C32.7346 91.1858 32.7779 90.8289 32.9365 90.4721C33.0518 90.1866 33.2393 89.9296 33.4988 89.7012C33.7584 89.4728 34.09 89.3015 34.4937 89.2159C34.8974 89.1303 35.3877 89.1445 35.9212 89.273L35.7914 89.2016C35.4886 89.0161 35.2579 88.8305 35.1137 88.6306C34.9695 88.4451 34.8686 88.231 34.8398 88.0026C34.7965 87.7742 34.8109 87.4887 34.8686 87.1461L35.0705 85.9328C35.1137 85.6901 35.1426 85.5045 35.1426 85.3618C35.1426 85.219 35.1281 85.1048 35.0849 85.0192C35.0416 84.9335 34.9695 84.8622 34.8686 84.8336C34.7533 84.7765 34.6379 84.7765 34.537 84.8051C34.436 84.8336 34.2919 84.905 34.1044 85.0049L33.9891 84.8193C34.2486 84.6623 34.4937 84.5481 34.71 84.5053ZM35.4309 89.587C35.0849 89.6299 34.8109 89.7583 34.5947 89.9724C34.3784 90.1866 34.1909 90.4721 34.0323 90.8432C33.7872 91.4285 33.7295 91.9423 33.8881 92.3563C34.0467 92.7703 34.436 93.1128 35.0849 93.3841C35.3156 93.484 35.4886 93.5268 35.6328 93.5125C35.7626 93.5125 35.8779 93.4554 35.9789 93.3412C36.0798 93.227 36.1807 93.0415 36.2816 92.7845L37.4063 90.1295L36.6709 89.8297C36.1951 89.6299 35.777 89.5442 35.4309 89.587Z" fill="#292F36"/>
<path d="M23.4633 86.4466C23.5931 86.4894 23.7229 86.4609 23.8382 86.3895C23.9536 86.3181 24.1122 86.1611 24.2996 85.9327L27.9187 81.3649C28.1062 81.1365 28.2215 80.9509 28.2648 80.8225C28.308 80.694 28.2936 80.5655 28.2215 80.4513C28.1494 80.3371 28.0052 80.1801 27.789 79.9945L27.9331 79.809C28.2071 80.0516 28.582 80.3657 29.0866 80.7511C29.6201 81.165 30.0239 81.4648 30.2978 81.6504L30.1536 81.8359C29.9229 81.6647 29.7355 81.5647 29.6057 81.5362C29.4759 81.4934 29.3462 81.5076 29.2308 81.5933C29.1155 81.6646 28.9569 81.8217 28.7694 82.0501L25.1503 86.6179C24.9629 86.8463 24.8475 87.0319 24.8043 87.1603C24.761 87.2888 24.7754 87.4173 24.8475 87.5315C24.9196 87.6457 25.0638 87.8027 25.2801 87.9883L25.1359 88.1738C24.8908 87.9597 24.5015 87.6457 23.968 87.2174C23.4633 86.832 23.0596 86.5323 22.7712 86.3324L22.9154 86.1469C23.1605 86.3039 23.3336 86.4038 23.4633 86.4466Z" fill="#292F36"/>
<path d="M14.1489 76.2832C14.0912 75.6409 14.2354 74.9985 14.567 74.3847C14.9131 73.7566 15.4321 73.1999 16.1531 72.6717C16.8596 72.1721 17.5661 71.8438 18.3015 71.7154C19.0368 71.5869 19.7145 71.6297 20.3489 71.8724C20.9834 72.115 21.5168 72.529 21.935 73.1143C22.382 73.7138 22.6271 74.3419 22.6848 74.9842C22.7424 75.6266 22.5982 76.2689 22.2666 76.8827C21.9206 77.5108 21.4015 78.0675 20.6806 78.5957C19.974 79.0953 19.2675 79.4236 18.5322 79.5521C17.8112 79.6805 17.1191 79.6377 16.4847 79.3951C15.8503 79.1524 15.3168 78.7384 14.8987 78.1674C14.4517 77.5536 14.2066 76.9256 14.1489 76.2832ZM16.3117 78.8241C16.8163 78.924 17.3931 78.8812 18.0275 78.6813C18.6619 78.4815 19.2964 78.1532 19.9596 77.6678C20.6229 77.1968 21.142 76.6829 21.5024 76.1405C21.8773 75.598 22.0792 75.0556 22.108 74.5417C22.1513 74.0278 22.0215 73.571 21.7475 73.1856C21.4447 72.7859 21.0554 72.529 20.5364 72.4291C20.0317 72.3292 19.455 72.372 18.8205 72.5718C18.1861 72.7717 17.5517 73.1 16.8884 73.571C16.2252 74.0421 15.7061 74.556 15.3456 75.1127C14.9707 75.6551 14.7689 76.1833 14.7256 76.7114C14.6824 77.2253 14.8121 77.6821 15.0861 78.0675C15.3889 78.4672 15.7926 78.7242 16.3117 78.8241Z" fill="#292F36"/>
<path d="M15.259 59.0966C15.432 59.2251 15.5618 59.4392 15.6483 59.7247C15.7493 60.0245 15.7348 60.31 15.6195 60.5526C15.5041 60.8096 15.2302 61.0522 14.812 61.2949L13.7595 61.8801C13.399 62.0943 13.1251 62.2656 12.9376 62.4083C12.7502 62.5511 12.6204 62.7224 12.5483 62.9222C12.4762 63.122 12.4762 63.3504 12.5627 63.6359L12.8944 64.7065L15.4897 63.9071C15.7781 63.8215 15.9655 63.7358 16.0809 63.6502C16.1962 63.5645 16.2539 63.4504 16.2683 63.3219C16.2828 63.1934 16.2395 62.9793 16.1674 62.7081L16.3981 62.6367C16.4846 62.9793 16.6144 63.4646 16.8162 64.0642C17.0181 64.7065 17.1767 65.1776 17.2921 65.4773L17.0614 65.5487C16.9604 65.2775 16.8739 65.0919 16.7874 64.992C16.7009 64.8921 16.5855 64.8207 16.4414 64.8207C16.2972 64.8207 16.0809 64.8493 15.8069 64.9492L10.2125 66.6621C9.9241 66.7478 9.73665 66.8334 9.6213 66.9191C9.50596 67.0047 9.44828 67.1189 9.43386 67.2474C9.41944 67.3901 9.4627 67.59 9.53479 67.8612L9.30409 67.9326C9.232 67.6185 9.10223 67.1617 8.91479 66.5622C8.82827 66.2767 8.71293 65.9484 8.59758 65.6058C8.48223 65.2632 8.39571 65.0205 8.35246 64.8921C8.16501 64.3068 8.10734 63.7929 8.1506 63.3362C8.19385 62.8794 8.33804 62.5082 8.56874 62.2085C8.79944 61.9087 9.10223 61.7089 9.47712 61.5947C9.76549 61.509 10.0827 61.4805 10.4288 61.5233C10.7748 61.5661 11.1064 61.7089 11.4525 61.9658C11.7985 62.2227 12.0869 62.5939 12.332 63.0935L12.3176 62.9507C12.2743 62.5939 12.2599 62.3084 12.3176 62.0657C12.3753 61.8231 12.4762 61.6232 12.6204 61.4519C12.779 61.2806 13.0097 61.0951 13.3125 60.9238L14.3795 60.2957C14.5958 60.1815 14.7688 60.0673 14.8697 59.9816C14.9707 59.896 15.0572 59.8103 15.1004 59.7247C15.1437 59.639 15.1437 59.5391 15.1148 59.4392C15.0716 59.3107 15.0139 59.2251 14.9274 59.168C14.8409 59.1109 14.6967 59.0395 14.4948 58.9681L14.5669 58.754C14.8553 58.854 15.1004 58.9681 15.259 59.0966ZM11.813 62.9222C11.5678 62.6938 11.2795 62.5653 10.9767 62.5368C10.6739 62.5082 10.3278 62.5511 9.93852 62.6795C9.31851 62.8651 8.90037 63.1649 8.66967 63.5503C8.43897 63.9357 8.43897 64.4638 8.64083 65.1062C8.71292 65.3346 8.79944 65.5059 8.88595 65.6058C8.97246 65.7057 9.10223 65.7628 9.24642 65.7628C9.3906 65.7628 9.60689 65.72 9.86642 65.6486L12.6348 64.7922L12.4041 64.0356C12.2599 63.5217 12.0581 63.1506 11.813 62.9222Z" fill="#292F36"/>
<path d="M14.1488 45.5501C14.6967 45.3074 15.0283 44.8506 15.1725 44.1655C15.2158 43.9085 15.2158 43.6516 15.1437 43.4089C15.0716 43.1662 14.9418 42.9521 14.74 42.7666C14.5381 42.581 14.2641 42.4525 13.9037 42.3954C13.6009 42.3383 13.3269 42.3669 13.0674 42.4668C12.8078 42.5667 12.5483 42.7237 12.3032 42.9379C12.0581 43.152 11.7697 43.4375 11.4525 43.7943C11.092 44.194 10.7748 44.5223 10.5009 44.7507C10.2269 44.9934 9.9241 45.1647 9.59247 45.2932C9.26084 45.4216 8.88595 45.4359 8.46781 45.3645C8.03525 45.2789 7.67478 45.1219 7.41524 44.8649C7.15571 44.608 6.96826 44.3082 6.88175 43.9513C6.79524 43.5945 6.79524 43.2233 6.86733 42.8237C6.91059 42.581 6.96826 42.3954 7.04036 42.2241C7.11245 42.0528 7.18454 41.9244 7.27106 41.8244C7.35757 41.7245 7.44408 41.6103 7.55943 41.4961C7.70362 41.3391 7.77571 41.2249 7.80455 41.1393C7.81897 41.0679 7.79013 41.0108 7.71804 40.9537C7.64594 40.8966 7.51618 40.8538 7.34315 40.7967L7.38641 40.5397C7.83339 40.6539 8.612 40.8252 9.75108 41.0393L9.70782 41.2963C9.3041 41.2535 8.92921 41.2677 8.55432 41.3534C8.19385 41.4248 7.87664 41.5818 7.61711 41.8244C7.35757 42.0528 7.18454 42.3811 7.11245 42.7808C7.05478 43.0521 7.06919 43.2947 7.14129 43.5374C7.21338 43.7801 7.34315 43.9656 7.51618 44.1226C7.70362 44.2797 7.9199 44.3796 8.17944 44.4367C8.59758 44.5081 8.95805 44.451 9.26084 44.2511C9.56363 44.0513 9.85201 43.7943 10.126 43.4946C10.3999 43.1948 10.5729 42.995 10.6739 42.895C11.0776 42.4668 11.4092 42.1385 11.6832 41.8958C11.9571 41.6531 12.2599 41.4819 12.5916 41.3677C12.9232 41.2535 13.2837 41.2392 13.673 41.3106C14.1488 41.3962 14.5381 41.5818 14.8265 41.853C15.1148 42.1385 15.3023 42.4668 15.4032 42.8665C15.5041 43.2662 15.5041 43.6944 15.4176 44.1512C15.3455 44.5223 15.259 44.8078 15.1293 45.0362C15.0139 45.2646 14.8553 45.4644 14.6823 45.65C14.5381 45.807 14.466 45.9212 14.4372 46.0069C14.4227 46.0783 14.4516 46.1354 14.5237 46.1925C14.5958 46.2495 14.7255 46.3066 14.8986 46.3495L14.8553 46.6064C14.4372 46.4922 13.5144 46.3066 12.0869 46.0497L12.1302 45.7928C12.9376 45.8641 13.6009 45.7928 14.1488 45.5501Z" fill="#292F36"/>
<path d="M11.2939 33.5165C10.8901 33.3024 10.4287 33.1026 9.90967 32.9027C10.2269 32.346 10.7604 31.3754 11.4813 29.9907C12.2022 28.6204 12.7069 27.6497 12.9809 27.0645C13.4567 27.3642 13.8892 27.6212 14.2785 27.821C14.6246 28.0066 14.9274 28.135 15.1581 28.235L15.0283 28.4776C14.4516 28.2492 14.019 28.1065 13.7162 28.0637C13.4134 28.0066 13.1395 28.0637 12.9088 28.2064C12.6781 28.3492 12.4474 28.6347 12.2311 29.0629L11.9427 29.6339L17.8976 32.7029C18.186 32.8599 18.4167 32.9313 18.5753 32.9456C18.7339 32.9598 18.8781 32.917 19.0079 32.8028C19.1377 32.6886 19.2818 32.4745 19.4549 32.1747L19.6711 32.2889C19.4549 32.6458 19.1809 33.1454 18.8349 33.802C18.4744 34.4872 18.2149 35.0154 18.0562 35.3437L17.84 35.2295C17.9842 34.9154 18.0851 34.6728 18.0995 34.5158C18.1283 34.3445 18.0851 34.2017 17.9697 34.0733C17.8544 33.9448 17.6669 33.8163 17.3786 33.6593L11.4236 30.576L11.1208 31.1327C10.8901 31.5609 10.7892 31.9035 10.8036 32.1747C10.818 32.446 10.9334 32.6886 11.1497 32.9027C11.366 33.1169 11.7264 33.4023 12.2455 33.7307L12.1157 33.9733C11.9283 33.8591 11.6399 33.7021 11.2939 33.5165Z" fill="#292F36"/>
<path d="M21.4736 17.1153C21.7187 16.8726 21.9205 16.6442 22.0647 16.4729L22.2377 16.6442C22.1512 16.7727 22.108 16.9582 22.1224 17.1724C22.1368 17.3865 22.1945 17.6862 22.3098 18.0431L23.6219 21.9115L25.1503 23.4103C25.3666 23.6102 25.5252 23.7529 25.655 23.81C25.7847 23.8671 25.9145 23.8671 26.0443 23.81C26.1741 23.7529 26.3327 23.6244 26.5489 23.4389L26.722 23.6102C26.448 23.8528 26.0875 24.1954 25.6406 24.6379C25.1647 25.109 24.8187 25.4801 24.6024 25.7228L24.4294 25.5515C24.6168 25.3374 24.7466 25.1804 24.8043 25.0519C24.862 24.9234 24.862 24.795 24.7899 24.6665C24.7322 24.538 24.588 24.3667 24.3861 24.1669L23.1173 22.925L18.3014 21.5261C18.0131 21.4404 17.7968 21.4119 17.6526 21.4262C17.5084 21.4404 17.4075 21.4833 17.3354 21.5546L17.1624 21.3833C17.3931 21.1835 17.6526 20.9551 17.9121 20.6839C18.4456 20.1415 18.8349 19.756 19.0512 19.4991L19.2242 19.6704C18.8349 20.0558 18.7484 20.3556 18.9647 20.5697C19.0512 20.6553 19.1666 20.7124 19.3396 20.7695L23.3912 22.0114L22.3243 18.8567C22.1657 18.4 22.007 18.0859 21.834 17.9289C21.6754 17.7719 21.5024 17.7291 21.3149 17.7862C21.1275 17.8433 20.9112 17.986 20.6517 18.2287L20.4787 18.0574C20.8247 17.7433 21.1419 17.4293 21.4736 17.1153Z" fill="#292F36"/>
<path d="M30.1968 11.3626C30.1103 11.4625 30.0671 11.591 30.0959 11.7337C30.1247 11.8765 30.1968 12.0763 30.341 12.3333L33.1238 17.4436C33.268 17.7005 33.3834 17.8718 33.4987 17.9717C33.5996 18.0716 33.7294 18.1002 33.8592 18.0859C33.989 18.0716 34.1908 17.986 34.4359 17.8575L35.2001 17.4436C35.6327 17.2152 35.9355 16.9725 36.0941 16.7298C36.2527 16.4872 36.3104 16.2159 36.2671 15.8876C36.2239 15.5593 36.0941 15.1454 35.8634 14.6029L36.1085 14.4745C36.2094 14.7028 36.3536 14.9883 36.5411 15.3309C36.7574 15.7163 37.0169 16.1446 37.3341 16.6156C36.8583 16.844 36.0508 17.258 34.9406 17.8575C33.6141 18.5712 32.6048 19.1137 31.9415 19.4991L31.8261 19.2992C32.0713 19.1565 32.2443 19.028 32.3308 18.9281C32.4173 18.8282 32.4606 18.6997 32.4317 18.557C32.4029 18.4142 32.3308 18.2144 32.1866 17.9574L29.375 12.8472C29.2308 12.5902 29.1154 12.4189 29.0001 12.319C28.8991 12.2191 28.7694 12.1905 28.6396 12.2048C28.4954 12.2191 28.308 12.2905 28.0484 12.4189L27.9475 12.2048C28.2503 12.0763 28.6973 11.8479 29.2885 11.5196C29.8508 11.2199 30.2833 10.9772 30.5861 10.7916L30.7015 10.9915C30.4564 11.1342 30.2978 11.2627 30.1968 11.3626Z" fill="#292F36"/>
<path d="M47.7587 12.2761C47.8452 12.7043 47.975 13.1897 48.1336 13.7321C47.6001 13.8178 46.7206 13.9748 45.4806 14.2174C43.9954 14.5029 42.8852 14.7313 42.121 14.9026L42.0777 14.6742C42.3517 14.6029 42.5536 14.5458 42.6689 14.4601C42.7843 14.3887 42.8564 14.2745 42.8708 14.1461C42.8852 14.0033 42.8708 13.7892 42.8131 13.5037L41.6884 7.80817C41.6308 7.52268 41.5731 7.32284 41.4866 7.19437C41.4001 7.0659 41.3136 6.99452 41.1694 6.98025C41.0396 6.9517 40.8233 6.96597 40.5494 7.0088L40.5061 6.78041C41.2703 6.65194 42.395 6.45209 43.8657 6.1666C45.0047 5.93821 45.8122 5.78119 46.2736 5.66699C46.3168 6.18088 46.3889 6.63766 46.461 7.03735C46.5187 7.33711 46.5764 7.56551 46.6341 7.7368L46.3745 7.7939C46.2159 7.30856 46.0717 6.9517 45.942 6.72331C45.8122 6.49492 45.6247 6.35217 45.4085 6.2808C45.1778 6.20942 44.875 6.20942 44.4568 6.29507L43.4908 6.48064C43.2168 6.53774 43.015 6.59484 42.8996 6.66621C42.7843 6.73758 42.7122 6.8375 42.6833 6.98025C42.6689 7.12299 42.6833 7.33711 42.741 7.6226L43.2745 10.3348L44.0387 10.1777C44.428 10.1064 44.6587 9.93508 44.7452 9.67814C44.8317 9.4212 44.8606 9.17853 44.8461 8.93586C44.8317 8.69319 44.8173 8.53617 44.8173 8.4648L45.0768 8.4077C45.1201 8.79312 45.1778 9.14998 45.2499 9.49257L45.3652 10.035C45.4373 10.4204 45.5671 10.9628 45.7545 11.648L45.495 11.7051C45.4806 11.648 45.4229 11.4767 45.322 11.1627C45.221 10.8486 45.0768 10.6345 44.8606 10.5061C44.6443 10.3776 44.3992 10.349 44.0819 10.4061L43.3178 10.5489L43.8657 13.3039C43.9233 13.5894 43.981 13.7892 44.0531 13.9177C44.1252 14.0319 44.2261 14.1032 44.3703 14.1318C44.5001 14.1461 44.7164 14.1318 44.9903 14.0747L45.841 13.9034C46.3168 13.8035 46.6773 13.675 46.908 13.5037C47.1387 13.3324 47.2685 13.0898 47.3262 12.79C47.3838 12.4902 47.3838 12.062 47.3406 11.5053L47.6001 11.4482C47.6434 11.6623 47.6866 11.9335 47.7587 12.2761Z" fill="#292F36"/>
<path d="M38.0407 66.7906C37.3775 65.9056 36.8007 64.9349 36.2961 63.8643C35.7914 62.7937 35.3877 61.7088 35.0849 60.5954C34.4216 55.6993 34.4072 50.9458 35.0272 46.3352C35.6472 41.7245 36.6565 37.1852 38.0407 32.703C38.2714 32.2034 38.7761 31.9607 39.5547 31.9607C40.3333 31.9607 41.0975 32.132 41.8761 32.4746C42.6547 32.8172 43.2892 33.274 43.7938 33.8449C44.2985 34.4159 44.4138 35.0155 44.1399 35.6293C43.7073 36.5428 43.2892 37.7847 42.871 39.3264C42.4529 40.8823 42.0347 42.5952 41.6598 44.4652C41.2705 46.3352 40.9389 48.3051 40.6505 50.3463C40.3622 52.3876 40.1459 54.3575 40.0161 56.2274C39.8863 58.0974 39.8575 59.7961 39.9296 61.3092C40.0017 62.8223 40.2324 64.0213 40.6217 64.8921C42.4385 62.4797 44.0966 59.9816 45.6106 57.3979C47.1245 54.8142 48.5376 52.202 49.8641 49.5327C51.1906 46.8776 52.4595 44.194 53.6562 41.4675C54.853 38.7554 56.0353 36.0718 57.1888 33.431C57.7656 32.0892 58.3423 30.676 58.9046 29.1914C59.467 27.6926 60.2023 26.4222 61.1395 25.3516C61.5288 25.009 61.8316 24.8948 62.0335 25.009C62.2498 25.1232 62.394 25.3373 62.4661 25.6656C62.5382 25.994 62.5814 26.3365 62.5814 26.6934C62.5814 27.0503 62.5814 27.3358 62.5814 27.5213C62.3075 29.2771 62.0768 31.0186 61.8893 32.7458C61.7019 34.473 61.2837 36.1289 60.6781 37.7419C59.6688 40.2685 58.6451 42.7665 57.5781 45.2646C56.5111 47.7483 55.372 50.2036 54.1609 52.616C52.9497 55.0284 51.6232 57.3694 50.2246 59.639C48.8115 61.923 47.2831 64.0927 45.6106 66.1482C44.2985 67.7898 42.9864 68.6605 41.7031 68.7605C40.3622 68.8747 39.1654 68.2038 38.0407 66.7906Z" fill="#292F36" stroke="white" stroke-miterlimit="10"/>
<path d="M61.9181 60.3099C61.1395 59.2393 60.3753 58.1544 59.6255 57.041C58.8758 55.9276 58.5009 54.7143 58.5009 53.3725C58.5009 51.8879 58.9334 50.4747 59.7986 49.1472C60.6637 47.834 61.6586 46.7634 62.7832 45.964C63.2446 45.6642 63.7205 45.4073 64.1963 45.2217C64.6721 45.0361 65.1912 45.0504 65.7391 45.2788C65.9698 45.393 66.2149 45.4787 66.46 45.5358C66.7051 45.5929 66.9358 45.6642 67.1233 45.7356C67.3107 45.807 67.527 45.9212 67.7577 46.0782C67.9884 46.2352 68.1038 46.4351 68.1038 46.7063C68.1038 47.7769 68.1326 48.6476 68.1903 49.3185C68.2479 49.9894 68.3344 50.5604 68.4498 51.0457C68.5651 51.5311 68.6805 51.945 68.7959 52.3019C68.9112 52.673 69.0265 53.0584 69.1419 53.4724C69.214 53.8578 69.1996 54.1861 69.0842 54.4431C68.9689 54.7143 68.6805 54.7428 68.2191 54.5573C67.3684 54.2575 66.734 53.6437 66.3302 52.7158C65.9265 51.788 65.6237 50.9601 65.4363 50.1893C65.393 50.0322 65.3065 49.7753 65.1479 49.3899C64.9893 49.0045 64.9028 48.7333 64.8595 48.5905C64.5567 48.5191 64.1819 48.6191 63.7637 48.9045C63.3456 49.19 62.9563 49.5897 62.6391 50.0751C62.3074 50.5747 62.0911 51.1456 62.0046 51.8023C61.9037 52.4589 62.0335 53.1013 62.3795 53.7579C62.5381 53.9863 62.7544 54.2718 63.0428 54.5858C63.3312 54.9141 63.6195 55.2424 63.9079 55.585C64.1963 55.9276 64.4847 56.2702 64.773 56.5842C65.0614 56.8983 65.3065 57.1695 65.494 57.3551C65.7247 57.5835 65.8833 57.7119 65.9554 57.7262C66.0275 57.7405 66.2293 57.6977 66.5321 57.5835C66.9214 57.3979 67.5126 57.141 68.3056 56.8412C69.0986 56.5414 69.9349 56.2274 70.8001 55.9276C71.6652 55.6279 72.5015 55.3709 73.2945 55.1568C74.0875 54.9427 74.6931 54.8427 75.1257 54.8427C75.3996 54.8427 75.5871 54.9427 75.7024 55.1282C75.8178 55.2424 75.8034 55.3995 75.6447 55.585C75.4861 55.7706 75.2843 55.9704 75.0392 56.156C74.794 56.3416 74.5201 56.5129 74.2605 56.6699C73.9866 56.8269 73.8136 56.9126 73.7415 56.9554C73.0782 57.3408 72.2563 57.769 71.247 58.2544C70.2377 58.7254 69.3726 59.1965 68.6372 59.6533C68.5652 59.7246 68.421 59.8103 68.2047 59.8817C67.9884 59.953 67.8298 60.0387 67.7144 60.1101C68.1758 61.1378 68.5075 62.0371 68.6949 62.7794C68.8824 63.5217 68.9545 64.2354 68.8968 64.9348C68.8391 65.62 68.6949 66.3195 68.4642 67.0332C68.2335 67.7469 67.9163 68.5606 67.5414 69.4741C66.9935 70.3592 66.4456 71.2014 65.8833 72.0007C65.3209 72.8001 64.7009 73.5281 63.9944 74.1847C63.3023 74.8414 62.5381 75.3553 61.7307 75.7264C60.9232 76.1118 60.0293 76.2974 59.0632 76.2974C58.5153 76.2974 57.9962 76.226 57.4916 76.0975C56.9869 75.9691 56.5688 75.6836 56.2227 75.2696C55.3288 74.3132 54.8385 73.2712 54.7232 72.1435C54.6078 71.0158 54.7088 69.9024 55.0116 68.789C55.2422 68.1038 55.5306 67.4757 55.8767 66.8905C56.7274 65.4345 57.6646 64.2068 58.6883 63.1934C59.7265 62.1941 60.7935 61.2235 61.9181 60.3099ZM63.8935 62.8936C63.4609 63.3218 62.8842 63.9214 62.1488 64.7065C61.4135 65.4916 60.7358 66.348 60.0869 67.2616C59.4525 68.1752 58.9334 69.0887 58.5297 69.988C58.126 70.8873 58.0251 71.6582 58.2125 72.3148C58.9911 71.9722 59.7841 71.4012 60.5916 70.6161C61.399 69.831 62.12 68.9745 62.74 68.0324C63.36 67.0903 63.7926 66.1625 64.0377 65.2489C64.2828 64.321 64.2395 63.5359 63.8935 62.8936Z" fill="#292F36" stroke="white" stroke-miterlimit="10"/>
<path d="M52.5171 83.5488C34.4793 83.5488 19.801 69.0174 19.801 51.1599C19.801 33.3025 34.4793 18.771 52.5171 18.771C70.5549 18.771 85.2332 33.3025 85.2332 51.1599C85.2332 69.0174 70.5549 83.5488 52.5171 83.5488ZM52.5171 20.1984C35.2723 20.1984 21.2429 34.0876 21.2429 51.1599C21.2429 68.2323 35.2723 82.1214 52.5171 82.1214C69.7619 82.1214 83.7913 68.2323 83.7913 51.1599C83.7913 34.0876 69.7619 20.1984 52.5171 20.1984Z" fill="#292F36"/>
</g>
</svg>
