<svg width="1400" height="648" viewBox="0 0 1400 648" fill="none" xmlns="http://www.w3.org/2000/svg">
<rect width="1400" height="648" rx="18" fill="#F0F0F0"/>
<circle cx="27.5" cy="37.5" r="6.5" fill="#ED6C72"/>
<circle cx="52.5" cy="37.5" r="6.5" fill="#F2B737"/>
<circle cx="77.5" cy="37.5" r="6.5" fill="#77C986"/>
<path d="M114 31L108 37.5L114 44" stroke="#BABABA" stroke-width="3" stroke-linecap="round"/>
<path d="M133 44L139 37.5L133 31" stroke="#BABABA" stroke-width="3" stroke-linecap="round"/>
<line x1="1341" y1="32" x2="1360" y2="32" stroke="#B6B6B6" stroke-width="2" stroke-linecap="round"/>
<line x1="1341" y1="39" x2="1360" y2="39" stroke="#B6B6B6" stroke-width="2" stroke-linecap="round"/>
<line x1="1341" y1="46" x2="1360" y2="46" stroke="#B6B6B6" stroke-width="2" stroke-linecap="round"/>
<rect x="156" y="22" width="1153" height="31" rx="15.5" fill="white"/>
<path d="M176.785 43.5947L173.612 40.421C174.376 39.4038 174.788 38.1657 174.787 36.8934C174.787 33.6438 172.143 31 168.893 31C165.644 31 163 33.6438 163 36.8934C163 40.1431 165.644 42.7869 168.893 42.7869C170.166 42.7883 171.404 42.3758 172.421 41.6117L175.595 44.7854C175.755 44.929 175.965 45.0057 176.18 44.9997C176.396 44.9936 176.601 44.9054 176.753 44.753C176.905 44.6006 176.994 44.3957 177 44.1803C177.006 43.9649 176.929 43.7554 176.785 43.5947ZM164.684 36.8934C164.684 36.0609 164.931 35.247 165.393 34.5547C165.856 33.8624 166.513 33.3229 167.282 33.0043C168.052 32.6857 168.898 32.6023 169.715 32.7647C170.531 32.9272 171.281 33.3281 171.87 33.9168C172.459 34.5055 172.86 35.2556 173.022 36.0722C173.185 36.8888 173.101 37.7352 172.783 38.5044C172.464 39.2736 171.924 39.931 171.232 40.3936C170.54 40.8562 169.726 41.103 168.893 41.103C167.777 41.1017 166.707 40.6578 165.918 39.8686C165.129 39.0794 164.685 38.0095 164.684 36.8934Z" fill="#C5C5C5"/>
</svg>
