<svg width="46" height="44" viewBox="0 0 46 44" fill="none" xmlns="http://www.w3.org/2000/svg">
<path d="M0.0866699 9.99999C0.0866699 4.47715 4.56382 0 10.0867 0H35.3562C40.8791 0 45.3562 4.47715 45.3562 10V33.2512C45.3562 38.774 40.8791 43.2512 35.3562 43.2512H10.0867C4.56383 43.2512 0.0866699 38.774 0.0866699 33.2512V9.99999Z" fill="#FFD772"/>
<rect x="12.0867" y="14" width="21" height="15" rx="3" fill="#C59419"/>
<path d="M20.0065 22.1884L17.4159 25.3684C16.8837 26.0217 17.3485 27 18.1912 27H30.0867C30.639 27 31.0867 26.5523 31.0867 26V25.2857V23.3854C31.0867 23.1373 30.9945 22.8982 30.8281 22.7143L28.2521 19.8685C27.8395 19.4126 27.1171 19.4336 26.7316 19.9127L24.0624 23.2302C23.677 23.7092 22.9545 23.7302 22.5419 23.2744L21.5232 22.1489C21.1122 21.6948 20.3933 21.7136 20.0065 22.1884Z" fill="#FFD772"/>
<circle cx="18.0867" cy="18" r="2" fill="#FFD772"/>
</svg>
