<svg width="46" height="44" viewBox="0 0 46 44" fill="none" xmlns="http://www.w3.org/2000/svg">
<path d="M0.151855 9.99999C0.151855 4.47715 4.62901 0 10.1519 0H35.4214C40.9443 0 45.4214 4.47715 45.4214 10V33.2512C45.4214 38.774 40.9443 43.2512 35.4214 43.2512H10.1519C4.62902 43.2512 0.151855 38.774 0.151855 33.2512V9.99999Z" fill="#F68DFF"/>
<path d="M26.1426 10.0186C26.2942 10.0479 26.4367 10.1114 26.5591 10.204C26.6819 10.2956 26.7813 10.4141 26.8495 10.5499C26.9177 10.6858 26.9527 10.8353 26.9519 10.9868V14.2837L18.7713 16.2529L18.7632 16.2552C18.4775 16.3258 18.2931 16.5504 18.2931 16.8271V24.8716C18.2908 25.2506 18.1677 25.6194 17.9411 25.9262C17.7145 26.2331 17.3957 26.4626 17.0295 26.5826L16.1853 26.8839L16.1706 26.8888C15.9495 26.9621 15.7178 26.9996 15.4845 27C15.0385 26.9993 14.6041 26.8604 14.2432 26.6031C13.963 26.4064 13.7352 26.1464 13.5789 25.845C13.4226 25.5436 13.3425 25.2098 13.3453 24.8716C13.3453 24.0402 13.8432 23.3393 14.612 23.087L16.6221 22.404L16.6267 22.4021C16.8876 22.3159 17.0562 22.0951 17.0562 21.8393V13.2635C17.0535 12.9918 17.1428 12.7269 17.3102 12.5105C17.4776 12.294 17.7135 12.1383 17.9808 12.0679L25.6855 10.0347C25.8346 9.99473 25.991 9.9892 26.1426 10.0186Z" fill="#C038CC"/>
<path d="M31.5957 16.0186C31.7473 16.0479 31.8899 16.1114 32.0123 16.204C32.1351 16.2956 32.2345 16.4141 32.3026 16.5499C32.3708 16.6858 32.4058 16.8353 32.405 16.9868V20.2837L24.2244 22.2529L24.2163 22.2552C23.9306 22.3258 23.7463 22.5504 23.7463 22.8271V30.8716C23.7439 31.2506 23.6208 31.6194 23.3942 31.9262C23.1676 32.2331 22.8488 32.4626 22.4826 32.5826L21.6384 32.8839L21.6237 32.8888C21.4026 32.9621 21.1709 32.9996 20.9376 33C20.4916 32.9993 20.0572 32.8604 19.6964 32.6031C19.4162 32.4064 19.1883 32.1464 19.032 31.845C18.8757 31.5436 18.7956 31.2098 18.7984 30.8716C18.7984 30.0402 19.2963 29.3393 20.0651 29.087L22.0752 28.404L22.0798 28.4021C22.3408 28.3159 22.5093 28.0951 22.5093 27.8393V19.2635C22.5066 18.9918 22.5959 18.7269 22.7633 18.5105C22.9307 18.294 23.1666 18.1383 23.4339 18.0679L31.1387 16.0347C31.2877 15.9947 31.4441 15.9892 31.5957 16.0186Z" fill="#C038CC"/>
</svg>
