<svg width="44" height="44" viewBox="0 0 44 44" fill="none" xmlns="http://www.w3.org/2000/svg">
<path d="M0.621094 10.6208C0.621094 5.098 5.09825 0.62085 10.6211 0.62085H33.8723C39.3951 0.62085 43.8723 5.098 43.8723 10.6209V33.872C43.8723 39.3949 39.3951 43.872 33.8723 43.872H10.6211C5.09824 43.872 0.621094 39.3949 0.621094 33.872V10.6208Z" fill="#001E36"/>
<path d="M14.1787 21.3359H15.3242C16.3949 21.3359 17.196 21.1263 17.7275 20.707C18.2591 20.2803 18.5249 19.6626 18.5249 18.854C18.5249 18.0379 18.3003 17.4352 17.8511 17.0459C17.4093 16.6566 16.7131 16.4619 15.7622 16.4619H14.1787V21.3359ZM22.04 18.7305C22.04 20.4974 21.486 21.8488 20.3779 22.7847C19.2773 23.7205 17.7088 24.1885 15.6724 24.1885H14.1787V30.0283H10.6973V13.6094H15.9419C17.9334 13.6094 19.4458 14.0399 20.479 14.9009C21.5197 15.7544 22.04 17.0309 22.04 18.7305ZM33.6299 26.2998C33.6299 27.5876 33.1807 28.5684 32.2822 29.2422C31.3913 29.916 30.0549 30.2529 28.2729 30.2529C27.3595 30.2529 26.5809 30.1893 25.937 30.062C25.2931 29.9422 24.6904 29.7625 24.1289 29.5229V26.6929C24.7653 26.9924 25.4803 27.2432 26.2739 27.4453C27.075 27.6475 27.7788 27.7485 28.3853 27.7485C29.6281 27.7485 30.2495 27.3892 30.2495 26.6704C30.2495 26.4009 30.1672 26.1838 30.0024 26.019C29.8377 25.8468 29.5532 25.6559 29.1489 25.4463C28.7446 25.2292 28.2056 24.9784 27.5317 24.6938C26.5659 24.2896 25.8547 23.9152 25.3979 23.5708C24.9487 23.2264 24.6193 22.8333 24.4097 22.3916C24.2075 21.9424 24.1064 21.3921 24.1064 20.7407C24.1064 19.6252 24.5369 18.7642 25.3979 18.1577C26.2664 17.5438 27.4943 17.2368 29.0815 17.2368C30.5939 17.2368 32.0651 17.5662 33.4951 18.2251L32.4619 20.6958C31.833 20.4263 31.2453 20.2054 30.6987 20.0332C30.1522 19.861 29.5944 19.7749 29.0254 19.7749C28.0146 19.7749 27.5093 20.0482 27.5093 20.5947C27.5093 20.9017 27.6702 21.1675 27.9922 21.3921C28.3216 21.6167 29.0366 21.9499 30.1372 22.3916C31.118 22.7884 31.8368 23.159 32.2935 23.5034C32.7502 23.8478 33.0871 24.2446 33.3042 24.6938C33.5213 25.1431 33.6299 25.6784 33.6299 26.2998Z" fill="#30A8FF"/>
</svg>
