<svg width="47" height="44" viewBox="0 0 47 44" fill="none" xmlns="http://www.w3.org/2000/svg">
<path d="M0.996094 9.99999C0.996094 4.47715 5.47325 0 10.9961 0H36.2657C41.7885 0 46.2657 4.47715 46.2657 10V33.2512C46.2657 38.774 41.7885 43.2512 36.2657 43.2512H10.9961C5.47325 43.2512 0.996094 38.774 0.996094 33.2512V9.99999Z" fill="#88A2FF"/>
<rect x="10.7161" y="14" width="17" height="14" rx="2" fill="#365BDD"/>
<path d="M29.7141 22.2857C29.2055 21.8853 29.2055 21.1147 29.7141 20.7143L35.3475 16.2791C36.0035 15.7627 36.9661 16.2299 36.9661 17.0648L36.9661 25.9352C36.9661 26.7701 36.0035 27.2373 35.3475 26.7209L29.7141 22.2857Z" fill="#365BDD"/>
</svg>
