<svg width="44" height="44" viewBox="0 0 44 44" fill="none" xmlns="http://www.w3.org/2000/svg">
<path d="M0.606689 10.6208C0.606689 5.098 5.08384 0.62085 10.6067 0.62085H33.8579C39.3807 0.62085 43.8579 5.098 43.8579 10.6209V33.872C43.8579 39.3949 39.3807 43.872 33.8579 43.872H10.6067C5.08384 43.872 0.606689 39.3949 0.606689 33.872V10.6208Z" fill="#470137"/>
<path d="M22.3257 30H18.8687L15.5483 24.5996L12.228 30H8.98584L13.7222 22.6367L9.28857 15.7227H12.6284L15.7046 20.8594L18.7222 15.7227H21.9839L17.5015 22.8027L22.3257 30ZM27.3452 30.1953C26.0627 30.1953 25.0535 29.6973 24.3179 28.7012C23.5887 27.7051 23.2241 26.3249 23.2241 24.5605C23.2241 22.7702 23.5952 21.377 24.3374 20.3809C25.0861 19.3783 26.1147 18.877 27.4233 18.877C28.797 18.877 29.8452 19.4108 30.5679 20.4785H30.6655C30.5158 19.6647 30.4409 18.9388 30.4409 18.3008V14.8047H33.4292V30H31.144L30.5679 28.584H30.4409C29.7638 29.6582 28.7319 30.1953 27.3452 30.1953ZM28.3901 27.8223C29.1519 27.8223 29.7085 27.6009 30.0601 27.1582C30.4181 26.7155 30.6134 25.9635 30.646 24.9023V24.5801C30.646 23.4082 30.4637 22.5684 30.0991 22.0605C29.741 21.5527 29.1551 21.2988 28.3413 21.2988C27.6772 21.2988 27.1597 21.582 26.7886 22.1484C26.424 22.7083 26.2417 23.5254 26.2417 24.5996C26.2417 25.6738 26.4272 26.4811 26.7983 27.0215C27.1694 27.5553 27.7 27.8223 28.3901 27.8223Z" fill="#FF61F6"/>
</svg>
