<svg width="46" height="44" viewBox="0 0 46 44" fill="none" xmlns="http://www.w3.org/2000/svg">
<path d="M0.307617 9.99999C0.307617 4.47715 4.78477 0 10.3076 0H35.5772C41.1 0 45.5772 4.47715 45.5772 10V33.2512C45.5772 38.774 41.1 43.2512 35.5772 43.2512H10.3076C4.78478 43.2512 0.307617 38.774 0.307617 33.2512V9.99999Z" fill="#AEEA7F"/>
<path d="M15.8262 21.3877H19.791V26.5693C19.1484 26.779 18.5423 26.9248 17.9727 27.0068C17.4076 27.0934 16.8288 27.1367 16.2363 27.1367C14.7279 27.1367 13.5749 26.6947 12.7773 25.8105C11.9844 24.9219 11.5879 23.6481 11.5879 21.9893C11.5879 20.376 12.0482 19.1182 12.9688 18.2158C13.8939 17.3135 15.1745 16.8623 16.8105 16.8623C17.8359 16.8623 18.8249 17.0674 19.7773 17.4775L19.0732 19.1729C18.3441 18.8083 17.5853 18.626 16.7969 18.626C15.8809 18.626 15.1471 18.9336 14.5957 19.5488C14.0443 20.1641 13.7686 20.9912 13.7686 22.0303C13.7686 23.1149 13.9896 23.9443 14.4316 24.5186C14.8783 25.0882 15.5254 25.373 16.373 25.373C16.8151 25.373 17.264 25.3275 17.7197 25.2363V23.1514H15.8262V21.3877ZM22.1768 27V17.0059H24.2959V27H22.1768ZM28.8965 27H26.8115V17.0059H32.54V18.7422H28.8965V21.3193H32.2871V23.0488H28.8965V27Z" fill="#577E39"/>
</svg>
