<svg width="249" height="387" viewBox="0 0 249 387" fill="none" xmlns="http://www.w3.org/2000/svg">
<rect x="0.5" y="0.5" width="248" height="386" rx="27.5" fill="white"/>
<g opacity="0.4">
<path d="M91.368 34.4V47H93.996V34.4H91.368ZM95.652 47C96.972 47 98.124 46.742 99.108 46.226C100.104 45.71 100.878 44.984 101.43 44.048C101.982 43.1 102.258 41.984 102.258 40.7C102.258 39.416 101.982 38.306 101.43 37.37C100.878 36.422 100.104 35.69 99.108 35.174C98.124 34.658 96.972 34.4 95.652 34.4H93.024V36.74H95.562C96.114 36.74 96.636 36.818 97.128 36.974C97.62 37.118 98.052 37.352 98.424 37.676C98.796 38 99.084 38.414 99.288 38.918C99.504 39.41 99.612 40.004 99.612 40.7C99.612 41.396 99.504 41.996 99.288 42.5C99.084 42.992 98.796 43.4 98.424 43.724C98.052 44.048 97.62 44.288 97.128 44.444C96.636 44.588 96.114 44.66 95.562 44.66H93.024V47H95.652ZM105.693 44.426C105.693 44.186 105.747 43.988 105.855 43.832C105.963 43.664 106.131 43.538 106.359 43.454C106.587 43.358 106.881 43.31 107.241 43.31C107.685 43.31 108.105 43.37 108.501 43.49C108.909 43.61 109.275 43.79 109.599 44.03V42.95C109.479 42.806 109.281 42.656 109.005 42.5C108.729 42.344 108.387 42.212 107.979 42.104C107.583 41.996 107.121 41.942 106.593 41.942C105.561 41.942 104.763 42.176 104.199 42.644C103.635 43.112 103.353 43.748 103.353 44.552C103.353 45.116 103.485 45.596 103.749 45.992C104.025 46.376 104.385 46.67 104.829 46.874C105.273 47.078 105.753 47.18 106.269 47.18C106.773 47.18 107.253 47.09 107.709 46.91C108.177 46.73 108.555 46.46 108.843 46.1C109.143 45.74 109.293 45.296 109.293 44.768L109.005 43.688C109.005 44.084 108.915 44.426 108.735 44.714C108.555 44.99 108.321 45.206 108.033 45.362C107.745 45.506 107.421 45.578 107.061 45.578C106.809 45.578 106.575 45.536 106.359 45.452C106.155 45.356 105.993 45.224 105.873 45.056C105.753 44.876 105.693 44.666 105.693 44.426ZM104.793 41.06C104.913 40.976 105.099 40.874 105.351 40.754C105.603 40.634 105.903 40.532 106.251 40.448C106.599 40.364 106.965 40.322 107.349 40.322C107.601 40.322 107.829 40.346 108.033 40.394C108.237 40.442 108.411 40.52 108.555 40.628C108.711 40.736 108.825 40.874 108.897 41.042C108.969 41.198 109.005 41.39 109.005 41.618V47H111.255V41.132C111.255 40.568 111.099 40.094 110.787 39.71C110.475 39.314 110.043 39.014 109.491 38.81C108.939 38.606 108.309 38.504 107.601 38.504C106.833 38.504 106.137 38.612 105.513 38.828C104.889 39.032 104.361 39.248 103.929 39.476L104.793 41.06ZM113.837 44.138L112.703 45.596C113.015 45.896 113.363 46.178 113.747 46.442C114.143 46.694 114.581 46.898 115.061 47.054C115.553 47.21 116.093 47.288 116.681 47.288C117.629 47.288 118.373 47.06 118.913 46.604C119.453 46.136 119.723 45.488 119.723 44.66C119.723 44.156 119.609 43.748 119.381 43.436C119.153 43.124 118.847 42.866 118.463 42.662C118.091 42.446 117.683 42.254 117.239 42.086C116.879 41.93 116.555 41.798 116.267 41.69C115.991 41.582 115.775 41.462 115.619 41.33C115.475 41.186 115.403 41.024 115.403 40.844C115.403 40.64 115.475 40.49 115.619 40.394C115.775 40.286 115.985 40.232 116.249 40.232C116.645 40.232 117.047 40.334 117.455 40.538C117.875 40.742 118.235 41.006 118.535 41.33L119.561 39.89C119.297 39.626 118.991 39.398 118.643 39.206C118.295 39.002 117.917 38.84 117.509 38.72C117.101 38.6 116.663 38.54 116.195 38.54C115.643 38.54 115.139 38.63 114.683 38.81C114.239 38.978 113.885 39.236 113.621 39.584C113.357 39.92 113.225 40.334 113.225 40.826C113.225 41.342 113.339 41.768 113.567 42.104C113.807 42.428 114.107 42.692 114.467 42.896C114.827 43.088 115.199 43.256 115.583 43.4C115.991 43.532 116.327 43.658 116.591 43.778C116.855 43.898 117.053 44.036 117.185 44.192C117.329 44.336 117.401 44.516 117.401 44.732C117.401 44.972 117.317 45.164 117.149 45.308C116.981 45.44 116.741 45.506 116.429 45.506C116.189 45.506 115.931 45.458 115.655 45.362C115.391 45.266 115.109 45.122 114.809 44.93C114.509 44.726 114.185 44.462 113.837 44.138ZM123.674 32.96H121.334V47H123.674V32.96ZM126.68 41.96V47H129.02V41.618C129.02 40.934 128.918 40.358 128.714 39.89C128.51 39.41 128.198 39.05 127.778 38.81C127.358 38.57 126.824 38.45 126.176 38.45C125.528 38.45 124.982 38.606 124.538 38.918C124.094 39.23 123.758 39.65 123.53 40.178C123.314 40.706 123.206 41.3 123.206 41.96H123.674C123.674 41.612 123.74 41.312 123.872 41.06C124.004 40.808 124.196 40.616 124.448 40.484C124.7 40.34 124.988 40.268 125.312 40.268C125.804 40.268 126.152 40.412 126.356 40.7C126.572 40.988 126.68 41.408 126.68 41.96ZM133.604 32.96H131.264V47H133.604V32.96ZM140.408 42.86C140.408 41.936 140.222 41.156 139.85 40.52C139.478 39.872 138.986 39.38 138.374 39.044C137.774 38.708 137.126 38.54 136.43 38.54C135.746 38.54 135.134 38.714 134.594 39.062C134.066 39.41 133.646 39.908 133.334 40.556C133.022 41.192 132.866 41.96 132.866 42.86C132.866 43.748 133.022 44.516 133.334 45.164C133.646 45.812 134.066 46.31 134.594 46.658C135.134 47.006 135.746 47.18 136.43 47.18C137.126 47.18 137.774 47.012 138.374 46.676C138.986 46.34 139.478 45.848 139.85 45.2C140.222 44.552 140.408 43.772 140.408 42.86ZM137.996 42.86C137.996 43.352 137.894 43.778 137.69 44.138C137.486 44.498 137.21 44.774 136.862 44.966C136.526 45.158 136.154 45.254 135.746 45.254C135.398 45.254 135.056 45.164 134.72 44.984C134.396 44.792 134.126 44.516 133.91 44.156C133.706 43.796 133.604 43.364 133.604 42.86C133.604 42.356 133.706 41.924 133.91 41.564C134.126 41.204 134.396 40.934 134.72 40.754C135.056 40.562 135.398 40.466 135.746 40.466C136.154 40.466 136.526 40.562 136.862 40.754C137.21 40.946 137.486 41.222 137.69 41.582C137.894 41.942 137.996 42.368 137.996 42.86ZM141.588 42.86C141.588 43.712 141.786 44.468 142.182 45.128C142.59 45.776 143.136 46.28 143.82 46.64C144.516 47 145.302 47.18 146.178 47.18C147.054 47.18 147.834 47 148.518 46.64C149.214 46.28 149.76 45.776 150.156 45.128C150.564 44.468 150.768 43.712 150.768 42.86C150.768 41.996 150.564 41.24 150.156 40.592C149.76 39.944 149.214 39.44 148.518 39.08C147.834 38.72 147.054 38.54 146.178 38.54C145.302 38.54 144.516 38.72 143.82 39.08C143.136 39.44 142.59 39.944 142.182 40.592C141.786 41.24 141.588 41.996 141.588 42.86ZM143.964 42.86C143.964 42.392 144.06 41.978 144.252 41.618C144.456 41.258 144.726 40.982 145.062 40.79C145.398 40.598 145.77 40.502 146.178 40.502C146.586 40.502 146.958 40.598 147.294 40.79C147.63 40.982 147.894 41.258 148.086 41.618C148.29 41.978 148.392 42.392 148.392 42.86C148.392 43.328 148.29 43.742 148.086 44.102C147.894 44.45 147.63 44.726 147.294 44.93C146.958 45.122 146.586 45.218 146.178 45.218C145.77 45.218 145.398 45.122 145.062 44.93C144.726 44.726 144.456 44.45 144.252 44.102C144.06 43.742 143.964 43.328 143.964 42.86ZM154.173 44.426C154.173 44.186 154.227 43.988 154.335 43.832C154.443 43.664 154.611 43.538 154.839 43.454C155.067 43.358 155.361 43.31 155.721 43.31C156.165 43.31 156.585 43.37 156.981 43.49C157.389 43.61 157.755 43.79 158.079 44.03V42.95C157.959 42.806 157.761 42.656 157.485 42.5C157.209 42.344 156.867 42.212 156.459 42.104C156.063 41.996 155.601 41.942 155.073 41.942C154.041 41.942 153.243 42.176 152.679 42.644C152.115 43.112 151.833 43.748 151.833 44.552C151.833 45.116 151.965 45.596 152.229 45.992C152.505 46.376 152.865 46.67 153.309 46.874C153.753 47.078 154.233 47.18 154.749 47.18C155.253 47.18 155.733 47.09 156.189 46.91C156.657 46.73 157.035 46.46 157.323 46.1C157.623 45.74 157.773 45.296 157.773 44.768L157.485 43.688C157.485 44.084 157.395 44.426 157.215 44.714C157.035 44.99 156.801 45.206 156.513 45.362C156.225 45.506 155.901 45.578 155.541 45.578C155.289 45.578 155.055 45.536 154.839 45.452C154.635 45.356 154.473 45.224 154.353 45.056C154.233 44.876 154.173 44.666 154.173 44.426ZM153.273 41.06C153.393 40.976 153.579 40.874 153.831 40.754C154.083 40.634 154.383 40.532 154.731 40.448C155.079 40.364 155.445 40.322 155.829 40.322C156.081 40.322 156.309 40.346 156.513 40.394C156.717 40.442 156.891 40.52 157.035 40.628C157.191 40.736 157.305 40.874 157.377 41.042C157.449 41.198 157.485 41.39 157.485 41.618V47H159.735V41.132C159.735 40.568 159.579 40.094 159.267 39.71C158.955 39.314 158.523 39.014 157.971 38.81C157.419 38.606 156.789 38.504 156.081 38.504C155.313 38.504 154.617 38.612 153.993 38.828C153.369 39.032 152.841 39.248 152.409 39.476L153.273 41.06ZM164.19 38.72H161.904V47H164.19V38.72ZM166.62 41.15L167.682 39.17C167.514 38.954 167.292 38.792 167.016 38.684C166.752 38.576 166.47 38.522 166.17 38.522C165.738 38.522 165.318 38.678 164.91 38.99C164.502 39.29 164.172 39.698 163.92 40.214C163.668 40.718 163.542 41.3 163.542 41.96L164.19 42.608C164.19 42.212 164.238 41.876 164.334 41.6C164.442 41.312 164.598 41.09 164.802 40.934C165.006 40.778 165.252 40.7 165.54 40.7C165.78 40.7 165.978 40.742 166.134 40.826C166.302 40.898 166.464 41.006 166.62 41.15ZM175.164 32.96V47H177.504V32.96H175.164ZM168.36 42.86C168.36 43.772 168.546 44.552 168.918 45.2C169.29 45.848 169.782 46.34 170.394 46.676C171.006 47.012 171.654 47.18 172.338 47.18C173.034 47.18 173.646 47.006 174.174 46.658C174.714 46.31 175.134 45.812 175.434 45.164C175.746 44.516 175.902 43.748 175.902 42.86C175.902 41.96 175.746 41.192 175.434 40.556C175.134 39.908 174.714 39.41 174.174 39.062C173.646 38.714 173.034 38.54 172.338 38.54C171.654 38.54 171.006 38.708 170.394 39.044C169.782 39.38 169.29 39.872 168.918 40.52C168.546 41.156 168.36 41.936 168.36 42.86ZM170.772 42.86C170.772 42.368 170.874 41.942 171.078 41.582C171.282 41.222 171.558 40.946 171.906 40.754C172.254 40.562 172.626 40.466 173.022 40.466C173.37 40.466 173.706 40.562 174.03 40.754C174.366 40.934 174.636 41.204 174.84 41.564C175.056 41.924 175.164 42.356 175.164 42.86C175.164 43.364 175.056 43.796 174.84 44.156C174.636 44.516 174.366 44.792 174.03 44.984C173.706 45.164 173.37 45.254 173.022 45.254C172.626 45.254 172.254 45.158 171.906 44.966C171.558 44.774 171.282 44.498 171.078 44.138C170.874 43.778 170.772 43.352 170.772 42.86Z" fill="#3C5681"/>
<path d="M59 32H52V39H59V32Z" stroke="#016EFE" stroke-width="2" stroke-linecap="round" stroke-linejoin="round"/>
<path d="M66.5 30.5503L61.5503 35.5L66.5 40.4497L71.4498 35.5L66.5 30.5503Z" stroke="#016EFE" stroke-width="2" stroke-linecap="round" stroke-linejoin="round"/>
<path d="M70 43H63V50H70V43Z" stroke="#016EFE" stroke-width="2" stroke-linecap="round" stroke-linejoin="round"/>
<path d="M59 43H52V50H59V43Z" stroke="#016EFE" stroke-width="2" stroke-linecap="round" stroke-linejoin="round"/>
</g>
<g opacity="0.4">
<path d="M92.916 104.76H99.576L99.18 102.96H93.33L92.916 104.76ZM96.21 98.964L98.226 103.644L98.262 104.166L99.972 108H102.384L96.21 94.698L90.054 108H92.448L94.194 104.058L94.23 103.59L96.21 98.964ZM105.56 111.96V99.72H103.598V111.96H105.56ZM112.418 103.86C112.418 102.924 112.232 102.138 111.86 101.502C111.488 100.854 110.996 100.356 110.384 100.008C109.772 99.66 109.106 99.486 108.386 99.486C107.69 99.486 107.078 99.666 106.55 100.026C106.034 100.386 105.632 100.89 105.344 101.538C105.056 102.186 104.912 102.96 104.912 103.86C104.912 104.748 105.056 105.522 105.344 106.182C105.632 106.83 106.034 107.334 106.55 107.694C107.078 108.042 107.69 108.216 108.386 108.216C109.106 108.216 109.772 108.048 110.384 107.712C110.996 107.364 111.488 106.866 111.86 106.218C112.232 105.558 112.418 104.772 112.418 103.86ZM110.402 103.86C110.402 104.412 110.288 104.88 110.06 105.264C109.832 105.648 109.532 105.942 109.16 106.146C108.788 106.35 108.374 106.452 107.918 106.452C107.534 106.452 107.162 106.356 106.802 106.164C106.442 105.96 106.142 105.666 105.902 105.282C105.674 104.898 105.56 104.424 105.56 103.86C105.56 103.296 105.674 102.822 105.902 102.438C106.142 102.054 106.442 101.766 106.802 101.574C107.162 101.37 107.534 101.268 107.918 101.268C108.374 101.268 108.788 101.37 109.16 101.574C109.532 101.766 109.832 102.06 110.06 102.456C110.288 102.84 110.402 103.308 110.402 103.86ZM116.159 111.96V99.72H114.197V111.96H116.159ZM123.017 103.86C123.017 102.924 122.831 102.138 122.459 101.502C122.087 100.854 121.595 100.356 120.983 100.008C120.371 99.66 119.705 99.486 118.985 99.486C118.289 99.486 117.677 99.666 117.149 100.026C116.633 100.386 116.231 100.89 115.943 101.538C115.655 102.186 115.511 102.96 115.511 103.86C115.511 104.748 115.655 105.522 115.943 106.182C116.231 106.83 116.633 107.334 117.149 107.694C117.677 108.042 118.289 108.216 118.985 108.216C119.705 108.216 120.371 108.048 120.983 107.712C121.595 107.364 122.087 106.866 122.459 106.218C122.831 105.558 123.017 104.772 123.017 103.86ZM121.001 103.86C121.001 104.412 120.887 104.88 120.659 105.264C120.431 105.648 120.131 105.942 119.759 106.146C119.387 106.35 118.973 106.452 118.517 106.452C118.133 106.452 117.761 106.356 117.401 106.164C117.041 105.96 116.741 105.666 116.501 105.282C116.273 104.898 116.159 104.424 116.159 103.86C116.159 103.296 116.273 102.822 116.501 102.438C116.741 102.054 117.041 101.766 117.401 101.574C117.761 101.37 118.133 101.268 118.517 101.268C118.973 101.268 119.387 101.37 119.759 101.574C120.131 101.766 120.431 102.06 120.659 102.456C120.887 102.84 121.001 103.308 121.001 103.86ZM124.239 103.86C124.239 104.7 124.431 105.45 124.815 106.11C125.211 106.758 125.745 107.268 126.417 107.64C127.101 108 127.863 108.18 128.703 108.18C129.555 108.18 130.317 108 130.989 107.64C131.661 107.268 132.189 106.758 132.573 106.11C132.969 105.45 133.167 104.7 133.167 103.86C133.167 103.008 132.969 102.258 132.573 101.61C132.189 100.962 131.661 100.458 130.989 100.098C130.317 99.726 129.555 99.54 128.703 99.54C127.863 99.54 127.101 99.726 126.417 100.098C125.745 100.458 125.211 100.962 124.815 101.61C124.431 102.258 124.239 103.008 124.239 103.86ZM126.237 103.86C126.237 103.344 126.345 102.888 126.561 102.492C126.777 102.096 127.071 101.79 127.443 101.574C127.815 101.358 128.235 101.25 128.703 101.25C129.171 101.25 129.591 101.358 129.963 101.574C130.335 101.79 130.629 102.096 130.845 102.492C131.061 102.888 131.169 103.344 131.169 103.86C131.169 104.376 131.061 104.832 130.845 105.228C130.629 105.612 130.335 105.918 129.963 106.146C129.591 106.362 129.171 106.47 128.703 106.47C128.235 106.47 127.815 106.362 127.443 106.146C127.071 105.918 126.777 105.612 126.561 105.228C126.345 104.832 126.237 104.376 126.237 103.86ZM134.957 96.426C134.957 96.75 135.077 97.032 135.317 97.272C135.569 97.5 135.857 97.614 136.181 97.614C136.529 97.614 136.823 97.5 137.063 97.272C137.303 97.032 137.423 96.75 137.423 96.426C137.423 96.09 137.303 95.808 137.063 95.58C136.823 95.352 136.529 95.238 136.181 95.238C135.857 95.238 135.569 95.352 135.317 95.58C135.077 95.808 134.957 96.09 134.957 96.426ZM135.227 99.72V108H137.153V99.72H135.227ZM145.156 102.96V108H147.154V102.726C147.154 101.742 146.908 100.968 146.416 100.404C145.924 99.828 145.21 99.54 144.274 99.54C143.71 99.54 143.218 99.66 142.798 99.9C142.39 100.14 142.054 100.506 141.79 100.998V99.72H139.828V108H141.79V102.96C141.79 102.588 141.862 102.264 142.006 101.988C142.162 101.7 142.378 101.484 142.654 101.34C142.93 101.184 143.254 101.106 143.626 101.106C144.142 101.106 144.526 101.262 144.778 101.574C145.03 101.886 145.156 102.348 145.156 102.96ZM148.485 99.72V101.43H153.183V99.72H148.485ZM149.889 96.84V108H151.797V96.84H149.889ZM166.385 102.726C166.385 102.054 166.283 101.478 166.079 100.998C165.887 100.518 165.599 100.158 165.215 99.918C164.831 99.666 164.339 99.54 163.739 99.54C163.187 99.54 162.689 99.666 162.245 99.918C161.813 100.158 161.447 100.524 161.147 101.016C160.967 100.536 160.673 100.17 160.265 99.918C159.869 99.666 159.371 99.54 158.771 99.54C158.231 99.54 157.769 99.66 157.385 99.9C157.001 100.128 156.683 100.47 156.431 100.926V99.72H154.523V108H156.431V102.96C156.431 102.564 156.497 102.228 156.629 101.952C156.773 101.676 156.965 101.466 157.205 101.322C157.457 101.178 157.745 101.106 158.069 101.106C158.549 101.106 158.897 101.262 159.113 101.574C159.341 101.874 159.455 102.336 159.455 102.96V108H161.399V102.96C161.399 102.564 161.465 102.228 161.597 101.952C161.741 101.676 161.933 101.466 162.173 101.322C162.425 101.178 162.719 101.106 163.055 101.106C163.523 101.106 163.865 101.262 164.081 101.574C164.309 101.874 164.423 102.336 164.423 102.96V108H166.385V102.726ZM172.449 108.18C173.409 108.18 174.231 107.994 174.915 107.622C175.599 107.238 176.163 106.674 176.607 105.93L174.915 105.264C174.663 105.708 174.339 106.038 173.943 106.254C173.547 106.47 173.079 106.578 172.539 106.578C172.035 106.578 171.609 106.47 171.261 106.254C170.913 106.038 170.643 105.72 170.451 105.3C170.271 104.88 170.187 104.376 170.199 103.788C170.199 103.188 170.289 102.684 170.469 102.276C170.661 101.868 170.925 101.556 171.261 101.34C171.609 101.124 172.029 101.016 172.521 101.016C172.929 101.016 173.283 101.106 173.583 101.286C173.895 101.466 174.135 101.718 174.303 102.042C174.483 102.366 174.573 102.75 174.573 103.194C174.573 103.278 174.549 103.38 174.501 103.5C174.465 103.62 174.429 103.716 174.393 103.788L174.987 102.96H169.389V104.31H176.661C176.661 104.262 176.661 104.184 176.661 104.076C176.673 103.968 176.679 103.866 176.679 103.77C176.679 102.882 176.517 102.126 176.193 101.502C175.869 100.866 175.395 100.38 174.771 100.044C174.159 99.708 173.415 99.54 172.539 99.54C171.663 99.54 170.901 99.72 170.253 100.08C169.605 100.428 169.101 100.926 168.741 101.574C168.393 102.222 168.219 102.984 168.219 103.86C168.219 104.724 168.393 105.48 168.741 106.128C169.089 106.776 169.581 107.28 170.217 107.64C170.865 108 171.609 108.18 172.449 108.18ZM183.881 102.96V108H185.879V102.726C185.879 101.742 185.633 100.968 185.141 100.404C184.649 99.828 183.935 99.54 182.999 99.54C182.435 99.54 181.943 99.66 181.523 99.9C181.115 100.14 180.779 100.506 180.515 100.998V99.72H178.553V108H180.515V102.96C180.515 102.588 180.587 102.264 180.731 101.988C180.887 101.7 181.103 101.484 181.379 101.34C181.655 101.184 181.979 101.106 182.351 101.106C182.867 101.106 183.251 101.262 183.503 101.574C183.755 101.886 183.881 102.348 183.881 102.96ZM187.209 99.72V101.43H191.907V99.72H187.209ZM188.613 96.84V108H190.521V96.84H188.613ZM193.626 105.264L192.492 106.416C192.732 106.728 193.032 107.028 193.392 107.316C193.752 107.592 194.166 107.82 194.634 108C195.102 108.168 195.624 108.252 196.2 108.252C197.1 108.252 197.814 108.018 198.342 107.55C198.882 107.07 199.152 106.44 199.152 105.66C199.152 105.156 199.038 104.748 198.81 104.436C198.582 104.124 198.276 103.86 197.892 103.644C197.508 103.428 197.082 103.23 196.614 103.05C196.278 102.918 195.972 102.792 195.696 102.672C195.432 102.552 195.216 102.42 195.048 102.276C194.892 102.12 194.814 101.946 194.814 101.754C194.814 101.526 194.904 101.352 195.084 101.232C195.264 101.112 195.498 101.052 195.786 101.052C196.194 101.052 196.59 101.154 196.974 101.358C197.358 101.562 197.682 101.826 197.946 102.15L199.026 100.998C198.798 100.722 198.522 100.476 198.198 100.26C197.874 100.044 197.508 99.87 197.1 99.738C196.704 99.606 196.278 99.54 195.822 99.54C195.318 99.54 194.844 99.624 194.4 99.792C193.968 99.948 193.62 100.194 193.356 100.53C193.104 100.866 192.978 101.286 192.978 101.79C192.978 102.282 193.092 102.69 193.32 103.014C193.56 103.338 193.86 103.602 194.22 103.806C194.592 103.998 194.964 104.166 195.336 104.31C195.708 104.442 196.032 104.574 196.308 104.706C196.584 104.826 196.8 104.976 196.956 105.156C197.112 105.324 197.19 105.528 197.19 105.768C197.19 106.044 197.088 106.26 196.884 106.416C196.692 106.572 196.422 106.65 196.074 106.65C195.798 106.65 195.522 106.596 195.246 106.488C194.97 106.38 194.7 106.224 194.436 106.02C194.172 105.816 193.902 105.564 193.626 105.264Z" fill="#3C5681"/>
<path d="M65 94H67C67.5304 94 68.0391 94.2107 68.4142 94.5858C68.7893 94.9609 69 95.4696 69 96V110C69 110.53 68.7893 111.039 68.4142 111.414C68.0391 111.789 67.5304 112 67 112H55C54.4696 112 53.9609 111.789 53.5858 111.414C53.2107 111.039 53 110.53 53 110V96C53 95.4696 53.2107 94.9609 53.5858 94.5858C53.9609 94.2107 54.4696 94 55 94H57" stroke="#005FFF" stroke-width="2" stroke-linecap="round" stroke-linejoin="round"/>
<path d="M64 92H58C57.4477 92 57 92.4477 57 93V95C57 95.5523 57.4477 96 58 96H64C64.5523 96 65 95.5523 65 95V93C65 92.4477 64.5523 92 64 92Z" stroke="#005FFF" stroke-width="2" stroke-linecap="round" stroke-linejoin="round"/>
</g>
<g opacity="0.4">
<path d="M91.404 156.4V169H93.582V156.4H91.404ZM95.472 169C96.756 169 97.884 168.742 98.856 168.226C99.828 167.698 100.584 166.966 101.124 166.03C101.676 165.082 101.952 163.972 101.952 162.7C101.952 161.428 101.676 160.324 101.124 159.388C100.584 158.44 99.828 157.708 98.856 157.192C97.884 156.664 96.756 156.4 95.472 156.4H92.718V158.398H95.418C96.042 158.398 96.618 158.488 97.146 158.668C97.674 158.848 98.13 159.118 98.514 159.478C98.91 159.838 99.216 160.288 99.432 160.828C99.66 161.368 99.774 161.992 99.774 162.7C99.774 163.408 99.66 164.032 99.432 164.572C99.216 165.112 98.91 165.562 98.514 165.922C98.13 166.27 97.674 166.54 97.146 166.732C96.618 166.912 96.042 167.002 95.418 167.002H92.718V169H95.472ZM103.233 164.86C103.233 165.7 103.425 166.45 103.809 167.11C104.205 167.758 104.739 168.268 105.411 168.64C106.095 169 106.857 169.18 107.697 169.18C108.549 169.18 109.311 169 109.983 168.64C110.655 168.268 111.183 167.758 111.567 167.11C111.963 166.45 112.161 165.7 112.161 164.86C112.161 164.008 111.963 163.258 111.567 162.61C111.183 161.962 110.655 161.458 109.983 161.098C109.311 160.726 108.549 160.54 107.697 160.54C106.857 160.54 106.095 160.726 105.411 161.098C104.739 161.458 104.205 161.962 103.809 162.61C103.425 163.258 103.233 164.008 103.233 164.86ZM105.231 164.86C105.231 164.344 105.339 163.888 105.555 163.492C105.771 163.096 106.065 162.79 106.437 162.574C106.809 162.358 107.229 162.25 107.697 162.25C108.165 162.25 108.585 162.358 108.957 162.574C109.329 162.79 109.623 163.096 109.839 163.492C110.055 163.888 110.163 164.344 110.163 164.86C110.163 165.376 110.055 165.832 109.839 166.228C109.623 166.612 109.329 166.918 108.957 167.146C108.585 167.362 108.165 167.47 107.697 167.47C107.229 167.47 106.809 167.362 106.437 167.146C106.065 166.918 105.771 166.612 105.555 166.228C105.339 165.832 105.231 165.376 105.231 164.86ZM115.319 164.86C115.319 164.344 115.433 163.888 115.661 163.492C115.889 163.096 116.195 162.784 116.579 162.556C116.975 162.328 117.413 162.214 117.893 162.214C118.277 162.214 118.649 162.274 119.009 162.394C119.369 162.514 119.687 162.682 119.963 162.898C120.251 163.102 120.461 163.342 120.593 163.618V161.458C120.305 161.182 119.915 160.96 119.423 160.792C118.931 160.624 118.391 160.54 117.803 160.54C116.963 160.54 116.201 160.726 115.517 161.098C114.845 161.458 114.311 161.962 113.915 162.61C113.519 163.258 113.321 164.008 113.321 164.86C113.321 165.7 113.519 166.45 113.915 167.11C114.311 167.758 114.845 168.268 115.517 168.64C116.201 169 116.963 169.18 117.803 169.18C118.391 169.18 118.931 169.096 119.423 168.928C119.915 168.76 120.305 168.532 120.593 168.244V166.102C120.461 166.366 120.257 166.606 119.981 166.822C119.705 167.026 119.387 167.194 119.027 167.326C118.679 167.446 118.301 167.506 117.893 167.506C117.413 167.506 116.975 167.392 116.579 167.164C116.195 166.936 115.889 166.624 115.661 166.228C115.433 165.832 115.319 165.376 115.319 164.86ZM121.59 160.72V162.43H126.288V160.72H121.59ZM122.994 157.84V169H124.902V157.84H122.994ZM126.999 164.86C126.999 165.7 127.191 166.45 127.575 167.11C127.971 167.758 128.505 168.268 129.177 168.64C129.861 169 130.623 169.18 131.463 169.18C132.315 169.18 133.077 169 133.749 168.64C134.421 168.268 134.949 167.758 135.333 167.11C135.729 166.45 135.927 165.7 135.927 164.86C135.927 164.008 135.729 163.258 135.333 162.61C134.949 161.962 134.421 161.458 133.749 161.098C133.077 160.726 132.315 160.54 131.463 160.54C130.623 160.54 129.861 160.726 129.177 161.098C128.505 161.458 127.971 161.962 127.575 162.61C127.191 163.258 126.999 164.008 126.999 164.86ZM128.997 164.86C128.997 164.344 129.105 163.888 129.321 163.492C129.537 163.096 129.831 162.79 130.203 162.574C130.575 162.358 130.995 162.25 131.463 162.25C131.931 162.25 132.351 162.358 132.723 162.574C133.095 162.79 133.389 163.096 133.605 163.492C133.821 163.888 133.929 164.344 133.929 164.86C133.929 165.376 133.821 165.832 133.605 166.228C133.389 166.612 133.095 166.918 132.723 167.146C132.351 167.362 131.931 167.47 131.463 167.47C130.995 167.47 130.575 167.362 130.203 167.146C129.831 166.918 129.537 166.612 129.321 166.228C129.105 165.832 128.997 165.376 128.997 164.86ZM139.715 160.72H137.789V169H139.715V160.72ZM142.181 162.79L143.135 161.152C142.943 160.924 142.715 160.762 142.451 160.666C142.187 160.57 141.905 160.522 141.605 160.522C141.185 160.522 140.777 160.678 140.381 160.99C139.997 161.29 139.679 161.698 139.427 162.214C139.187 162.718 139.067 163.3 139.067 163.96L139.715 164.338C139.715 163.942 139.757 163.6 139.841 163.312C139.937 163.012 140.087 162.778 140.291 162.61C140.495 162.442 140.759 162.358 141.083 162.358C141.323 162.358 141.521 162.394 141.677 162.466C141.845 162.538 142.013 162.646 142.181 162.79ZM144.847 166.264L143.713 167.416C143.953 167.728 144.253 168.028 144.613 168.316C144.973 168.592 145.387 168.82 145.855 169C146.323 169.168 146.845 169.252 147.421 169.252C148.321 169.252 149.035 169.018 149.563 168.55C150.103 168.07 150.373 167.44 150.373 166.66C150.373 166.156 150.259 165.748 150.031 165.436C149.803 165.124 149.497 164.86 149.113 164.644C148.729 164.428 148.303 164.23 147.835 164.05C147.499 163.918 147.193 163.792 146.917 163.672C146.653 163.552 146.437 163.42 146.269 163.276C146.113 163.12 146.035 162.946 146.035 162.754C146.035 162.526 146.125 162.352 146.305 162.232C146.485 162.112 146.719 162.052 147.007 162.052C147.415 162.052 147.811 162.154 148.195 162.358C148.579 162.562 148.903 162.826 149.167 163.15L150.247 161.998C150.019 161.722 149.743 161.476 149.419 161.26C149.095 161.044 148.729 160.87 148.321 160.738C147.925 160.606 147.499 160.54 147.043 160.54C146.539 160.54 146.065 160.624 145.621 160.792C145.189 160.948 144.841 161.194 144.577 161.53C144.325 161.866 144.199 162.286 144.199 162.79C144.199 163.282 144.313 163.69 144.541 164.014C144.781 164.338 145.081 164.602 145.441 164.806C145.813 164.998 146.185 165.166 146.557 165.31C146.929 165.442 147.253 165.574 147.529 165.706C147.805 165.826 148.021 165.976 148.177 166.156C148.333 166.324 148.411 166.528 148.411 166.768C148.411 167.044 148.309 167.26 148.105 167.416C147.913 167.572 147.643 167.65 147.295 167.65C147.019 167.65 146.743 167.596 146.467 167.488C146.191 167.38 145.921 167.224 145.657 167.02C145.393 166.816 145.123 166.564 144.847 166.264Z" fill="#3C5681"/>
<g clip-path="url(#clip0_1_2423)">
<path d="M64.5832 170.25V168.417C64.5832 167.444 64.1969 166.512 63.5092 165.824C62.8216 165.136 61.889 164.75 60.9165 164.75H53.5832C52.6107 164.75 51.6781 165.136 50.9904 165.824C50.3028 166.512 49.9165 167.444 49.9165 168.417V170.25" stroke="#005FFF" stroke-width="2" stroke-linecap="round" stroke-linejoin="round"/>
<path d="M57.2502 161.083C59.2752 161.083 60.9168 159.442 60.9168 157.417C60.9168 155.392 59.2752 153.75 57.2502 153.75C55.2251 153.75 53.5835 155.392 53.5835 157.417C53.5835 159.442 55.2251 161.083 57.2502 161.083Z" stroke="#005FFF" stroke-width="2" stroke-linecap="round" stroke-linejoin="round"/>
<path d="M70.0835 170.25V168.417C70.0829 167.604 69.8125 166.815 69.3147 166.173C68.817 165.531 68.1201 165.072 67.3335 164.869" stroke="#005FFF" stroke-width="2" stroke-linecap="round" stroke-linejoin="round"/>
<path d="M63.6665 153.869C64.4552 154.071 65.1543 154.53 65.6535 155.173C66.1527 155.816 66.4237 156.607 66.4237 157.421C66.4237 158.235 66.1527 159.026 65.6535 159.67C65.1543 160.313 64.4552 160.771 63.6665 160.973" stroke="#005FFF" stroke-width="2" stroke-linecap="round" stroke-linejoin="round"/>
</g>
</g>
<path d="M94.232 225.932L92.648 227.048C92.924 227.624 93.296 228.158 93.764 228.65C94.244 229.142 94.796 229.538 95.42 229.838C96.056 230.126 96.74 230.27 97.472 230.27C98.012 230.27 98.528 230.18 99.02 230C99.524 229.832 99.974 229.592 100.37 229.28C100.766 228.956 101.078 228.56 101.306 228.092C101.546 227.624 101.666 227.096 101.666 226.508C101.666 225.956 101.57 225.476 101.378 225.068C101.186 224.648 100.934 224.288 100.622 223.988C100.322 223.688 99.98 223.436 99.596 223.232C99.224 223.028 98.846 222.86 98.462 222.728C97.79 222.488 97.244 222.254 96.824 222.026C96.404 221.798 96.092 221.558 95.888 221.306C95.696 221.042 95.6 220.748 95.6 220.424C95.6 220.064 95.738 219.752 96.014 219.488C96.29 219.212 96.722 219.074 97.31 219.074C97.73 219.074 98.096 219.158 98.408 219.326C98.732 219.482 99.014 219.698 99.254 219.974C99.494 220.238 99.698 220.526 99.866 220.838L101.576 219.866C101.372 219.422 101.078 218.996 100.694 218.588C100.31 218.18 99.842 217.844 99.29 217.58C98.738 217.304 98.09 217.166 97.346 217.166C96.59 217.166 95.912 217.31 95.312 217.598C94.724 217.886 94.256 218.288 93.908 218.804C93.56 219.308 93.386 219.896 93.386 220.568C93.386 221.156 93.5 221.66 93.728 222.08C93.956 222.488 94.244 222.836 94.592 223.124C94.94 223.4 95.306 223.634 95.69 223.826C96.074 224.006 96.422 224.15 96.734 224.258C97.262 224.45 97.73 224.648 98.138 224.852C98.546 225.044 98.858 225.284 99.074 225.572C99.302 225.848 99.416 226.214 99.416 226.67C99.416 227.174 99.236 227.582 98.876 227.894C98.516 228.206 98.048 228.362 97.472 228.362C97.004 228.362 96.572 228.26 96.176 228.056C95.792 227.852 95.438 227.57 95.114 227.21C94.802 226.85 94.508 226.424 94.232 225.932ZM104.962 225.86C104.962 225.344 105.076 224.888 105.304 224.492C105.532 224.096 105.838 223.784 106.222 223.556C106.618 223.328 107.056 223.214 107.536 223.214C107.92 223.214 108.292 223.274 108.652 223.394C109.012 223.514 109.33 223.682 109.606 223.898C109.894 224.102 110.104 224.342 110.236 224.618V222.458C109.948 222.182 109.558 221.96 109.066 221.792C108.574 221.624 108.034 221.54 107.446 221.54C106.606 221.54 105.844 221.726 105.16 222.098C104.488 222.458 103.954 222.962 103.558 223.61C103.162 224.258 102.964 225.008 102.964 225.86C102.964 226.7 103.162 227.45 103.558 228.11C103.954 228.758 104.488 229.268 105.16 229.64C105.844 230 106.606 230.18 107.446 230.18C108.034 230.18 108.574 230.096 109.066 229.928C109.558 229.76 109.948 229.532 110.236 229.244V227.102C110.104 227.366 109.9 227.606 109.624 227.822C109.348 228.026 109.03 228.194 108.67 228.326C108.322 228.446 107.944 228.506 107.536 228.506C107.056 228.506 106.618 228.392 106.222 228.164C105.838 227.936 105.532 227.624 105.304 227.228C105.076 226.832 104.962 226.376 104.962 225.86ZM114.347 215.96H112.385V230H114.347V215.96ZM117.713 224.96V230H119.675V224.69C119.675 223.982 119.567 223.394 119.351 222.926C119.135 222.446 118.817 222.086 118.397 221.846C117.977 221.606 117.455 221.486 116.831 221.486C116.207 221.486 115.673 221.642 115.229 221.954C114.797 222.254 114.461 222.668 114.221 223.196C113.993 223.712 113.879 224.3 113.879 224.96H114.347C114.347 224.588 114.419 224.264 114.563 223.988C114.719 223.712 114.935 223.496 115.211 223.34C115.487 223.184 115.811 223.106 116.183 223.106C116.711 223.106 117.095 223.262 117.335 223.574C117.587 223.886 117.713 224.348 117.713 224.96ZM125.758 230.18C126.718 230.18 127.54 229.994 128.224 229.622C128.908 229.238 129.472 228.674 129.916 227.93L128.224 227.264C127.972 227.708 127.648 228.038 127.252 228.254C126.856 228.47 126.388 228.578 125.848 228.578C125.344 228.578 124.918 228.47 124.57 228.254C124.222 228.038 123.952 227.72 123.76 227.3C123.58 226.88 123.496 226.376 123.508 225.788C123.508 225.188 123.598 224.684 123.778 224.276C123.97 223.868 124.234 223.556 124.57 223.34C124.918 223.124 125.338 223.016 125.83 223.016C126.238 223.016 126.592 223.106 126.892 223.286C127.204 223.466 127.444 223.718 127.612 224.042C127.792 224.366 127.882 224.75 127.882 225.194C127.882 225.278 127.858 225.38 127.81 225.5C127.774 225.62 127.738 225.716 127.702 225.788L128.296 224.96H122.698V226.31H129.97C129.97 226.262 129.97 226.184 129.97 226.076C129.982 225.968 129.988 225.866 129.988 225.77C129.988 224.882 129.826 224.126 129.502 223.502C129.178 222.866 128.704 222.38 128.08 222.044C127.468 221.708 126.724 221.54 125.848 221.54C124.972 221.54 124.21 221.72 123.562 222.08C122.914 222.428 122.41 222.926 122.05 223.574C121.702 224.222 121.528 224.984 121.528 225.86C121.528 226.724 121.702 227.48 122.05 228.128C122.398 228.776 122.89 229.28 123.526 229.64C124.174 230 124.918 230.18 125.758 230.18ZM138.089 215.96V230H140.051V215.96H138.089ZM131.231 225.86C131.231 226.76 131.417 227.534 131.789 228.182C132.161 228.83 132.653 229.328 133.265 229.676C133.889 230.012 134.555 230.18 135.263 230.18C135.959 230.18 136.565 230.006 137.081 229.658C137.609 229.31 138.023 228.812 138.323 228.164C138.635 227.516 138.791 226.748 138.791 225.86C138.791 224.96 138.635 224.192 138.323 223.556C138.023 222.908 137.609 222.41 137.081 222.062C136.565 221.714 135.959 221.54 135.263 221.54C134.555 221.54 133.889 221.714 133.265 222.062C132.653 222.398 132.161 222.89 131.789 223.538C131.417 224.174 131.231 224.948 131.231 225.86ZM133.247 225.86C133.247 225.308 133.361 224.834 133.589 224.438C133.817 224.042 134.117 223.742 134.489 223.538C134.873 223.334 135.287 223.232 135.731 223.232C136.115 223.232 136.487 223.334 136.847 223.538C137.207 223.742 137.501 224.042 137.729 224.438C137.969 224.822 138.089 225.296 138.089 225.86C138.089 226.424 137.969 226.904 137.729 227.3C137.501 227.684 137.207 227.978 136.847 228.182C136.487 228.386 136.115 228.488 135.731 228.488C135.287 228.488 134.873 228.386 134.489 228.182C134.117 227.978 133.817 227.678 133.589 227.282C133.361 226.886 133.247 226.412 133.247 225.86ZM144.459 226.76V221.72H142.461V226.976C142.461 227.96 142.707 228.74 143.199 229.316C143.703 229.892 144.417 230.18 145.341 230.18C145.917 230.18 146.409 230.06 146.817 229.82C147.237 229.568 147.579 229.202 147.843 228.722V230H149.787V221.72H147.843V226.76C147.843 227.132 147.765 227.456 147.609 227.732C147.453 228.008 147.237 228.224 146.961 228.38C146.685 228.536 146.367 228.614 146.007 228.614C145.479 228.614 145.089 228.452 144.837 228.128C144.585 227.804 144.459 227.348 144.459 226.76ZM152.269 215.96V230H154.231V215.96H152.269ZM160.299 230.18C161.259 230.18 162.081 229.994 162.765 229.622C163.449 229.238 164.013 228.674 164.457 227.93L162.765 227.264C162.513 227.708 162.189 228.038 161.793 228.254C161.397 228.47 160.929 228.578 160.389 228.578C159.885 228.578 159.459 228.47 159.111 228.254C158.763 228.038 158.493 227.72 158.301 227.3C158.121 226.88 158.037 226.376 158.049 225.788C158.049 225.188 158.139 224.684 158.319 224.276C158.511 223.868 158.775 223.556 159.111 223.34C159.459 223.124 159.879 223.016 160.371 223.016C160.779 223.016 161.133 223.106 161.433 223.286C161.745 223.466 161.985 223.718 162.153 224.042C162.333 224.366 162.423 224.75 162.423 225.194C162.423 225.278 162.399 225.38 162.351 225.5C162.315 225.62 162.279 225.716 162.243 225.788L162.837 224.96H157.239V226.31H164.511C164.511 226.262 164.511 226.184 164.511 226.076C164.523 225.968 164.529 225.866 164.529 225.77C164.529 224.882 164.367 224.126 164.043 223.502C163.719 222.866 163.245 222.38 162.621 222.044C162.009 221.708 161.265 221.54 160.389 221.54C159.513 221.54 158.751 221.72 158.103 222.08C157.455 222.428 156.951 222.926 156.591 223.574C156.243 224.222 156.069 224.984 156.069 225.86C156.069 226.724 156.243 227.48 156.591 228.128C156.939 228.776 157.431 229.28 158.067 229.64C158.715 230 159.459 230.18 160.299 230.18Z" fill="#141414"/>
<path d="M67.2083 214.833H53.7917C52.7331 214.833 51.875 215.691 51.875 216.75V230.167C51.875 231.225 52.7331 232.083 53.7917 232.083H67.2083C68.2669 232.083 69.125 231.225 69.125 230.167V216.75C69.125 215.691 68.2669 214.833 67.2083 214.833Z" stroke="#005FFF" stroke-width="2" stroke-linecap="round" stroke-linejoin="round"/>
<path d="M64.3335 212.917V216.75" stroke="#005FFF" stroke-width="2" stroke-linecap="round" stroke-linejoin="round"/>
<path d="M56.6665 212.917V216.75" stroke="#005FFF" stroke-width="2" stroke-linecap="round" stroke-linejoin="round"/>
<path d="M51.875 220.583H69.125" stroke="#005FFF" stroke-width="2" stroke-linecap="round" stroke-linejoin="round"/>
<g opacity="0.4">
<path d="M91.404 278.4V291H93.582V278.4H91.404ZM95.472 291C96.756 291 97.884 290.742 98.856 290.226C99.828 289.698 100.584 288.966 101.124 288.03C101.676 287.082 101.952 285.972 101.952 284.7C101.952 283.428 101.676 282.324 101.124 281.388C100.584 280.44 99.828 279.708 98.856 279.192C97.884 278.664 96.756 278.4 95.472 278.4H92.718V280.398H95.418C96.042 280.398 96.618 280.488 97.146 280.668C97.674 280.848 98.13 281.118 98.514 281.478C98.91 281.838 99.216 282.288 99.432 282.828C99.66 283.368 99.774 283.992 99.774 284.7C99.774 285.408 99.66 286.032 99.432 286.572C99.216 287.112 98.91 287.562 98.514 287.922C98.13 288.27 97.674 288.54 97.146 288.732C96.618 288.912 96.042 289.002 95.418 289.002H92.718V291H95.472ZM107.463 291.18C108.423 291.18 109.245 290.994 109.929 290.622C110.613 290.238 111.177 289.674 111.621 288.93L109.929 288.264C109.677 288.708 109.353 289.038 108.957 289.254C108.561 289.47 108.093 289.578 107.553 289.578C107.049 289.578 106.623 289.47 106.275 289.254C105.927 289.038 105.657 288.72 105.465 288.3C105.285 287.88 105.201 287.376 105.213 286.788C105.213 286.188 105.303 285.684 105.483 285.276C105.675 284.868 105.939 284.556 106.275 284.34C106.623 284.124 107.043 284.016 107.535 284.016C107.943 284.016 108.297 284.106 108.597 284.286C108.909 284.466 109.149 284.718 109.317 285.042C109.497 285.366 109.587 285.75 109.587 286.194C109.587 286.278 109.563 286.38 109.515 286.5C109.479 286.62 109.443 286.716 109.407 286.788L110.001 285.96H104.403V287.31H111.675C111.675 287.262 111.675 287.184 111.675 287.076C111.687 286.968 111.693 286.866 111.693 286.77C111.693 285.882 111.531 285.126 111.207 284.502C110.883 283.866 110.409 283.38 109.785 283.044C109.173 282.708 108.429 282.54 107.553 282.54C106.677 282.54 105.915 282.72 105.267 283.08C104.619 283.428 104.115 283.926 103.755 284.574C103.407 285.222 103.233 285.984 103.233 286.86C103.233 287.724 103.407 288.48 103.755 289.128C104.103 289.776 104.595 290.28 105.231 290.64C105.879 291 106.623 291.18 107.463 291.18ZM115.456 294.96V282.72H113.494V294.96H115.456ZM122.314 286.86C122.314 285.924 122.128 285.138 121.756 284.502C121.384 283.854 120.892 283.356 120.28 283.008C119.668 282.66 119.002 282.486 118.282 282.486C117.586 282.486 116.974 282.666 116.446 283.026C115.93 283.386 115.528 283.89 115.24 284.538C114.952 285.186 114.808 285.96 114.808 286.86C114.808 287.748 114.952 288.522 115.24 289.182C115.528 289.83 115.93 290.334 116.446 290.694C116.974 291.042 117.586 291.216 118.282 291.216C119.002 291.216 119.668 291.048 120.28 290.712C120.892 290.364 121.384 289.866 121.756 289.218C122.128 288.558 122.314 287.772 122.314 286.86ZM120.298 286.86C120.298 287.412 120.184 287.88 119.956 288.264C119.728 288.648 119.428 288.942 119.056 289.146C118.684 289.35 118.27 289.452 117.814 289.452C117.43 289.452 117.058 289.356 116.698 289.164C116.338 288.96 116.038 288.666 115.798 288.282C115.57 287.898 115.456 287.424 115.456 286.86C115.456 286.296 115.57 285.822 115.798 285.438C116.038 285.054 116.338 284.766 116.698 284.574C117.058 284.37 117.43 284.268 117.814 284.268C118.27 284.268 118.684 284.37 119.056 284.574C119.428 284.766 119.728 285.06 119.956 285.456C120.184 285.84 120.298 286.308 120.298 286.86ZM125.39 288.426C125.39 288.162 125.45 287.94 125.57 287.76C125.702 287.58 125.894 287.442 126.146 287.346C126.398 287.238 126.728 287.184 127.136 287.184C127.604 287.184 128.048 287.244 128.468 287.364C128.888 287.484 129.284 287.676 129.656 287.94V286.95C129.548 286.818 129.362 286.674 129.098 286.518C128.834 286.35 128.498 286.206 128.09 286.086C127.694 285.966 127.22 285.906 126.668 285.906C125.636 285.906 124.838 286.146 124.274 286.626C123.71 287.094 123.428 287.73 123.428 288.534C123.428 289.098 123.56 289.578 123.824 289.974C124.088 290.37 124.442 290.67 124.886 290.874C125.33 291.078 125.81 291.18 126.326 291.18C126.806 291.18 127.274 291.096 127.73 290.928C128.198 290.748 128.582 290.478 128.882 290.118C129.194 289.758 129.35 289.314 129.35 288.786L129.062 287.706C129.062 288.126 128.966 288.486 128.774 288.786C128.582 289.086 128.324 289.32 128 289.488C127.688 289.644 127.334 289.722 126.938 289.722C126.638 289.722 126.368 289.674 126.128 289.578C125.9 289.482 125.72 289.338 125.588 289.146C125.456 288.942 125.39 288.702 125.39 288.426ZM124.778 284.88C124.91 284.796 125.096 284.694 125.336 284.574C125.576 284.442 125.864 284.334 126.2 284.25C126.548 284.154 126.914 284.106 127.298 284.106C127.55 284.106 127.784 284.13 128 284.178C128.216 284.226 128.402 284.304 128.558 284.412C128.726 284.52 128.852 284.658 128.936 284.826C129.02 284.994 129.062 285.21 129.062 285.474V291H130.97V285.096C130.97 284.544 130.82 284.076 130.52 283.692C130.232 283.308 129.824 283.02 129.296 282.828C128.768 282.624 128.168 282.522 127.496 282.522C126.716 282.522 126.032 282.63 125.444 282.846C124.856 283.062 124.37 283.284 123.986 283.512L124.778 284.88ZM135.162 282.72H133.236V291H135.162V282.72ZM137.628 284.79L138.582 283.152C138.39 282.924 138.162 282.762 137.898 282.666C137.634 282.57 137.352 282.522 137.052 282.522C136.632 282.522 136.224 282.678 135.828 282.99C135.444 283.29 135.126 283.698 134.874 284.214C134.634 284.718 134.514 285.3 134.514 285.96L135.162 286.338C135.162 285.942 135.204 285.6 135.288 285.312C135.384 285.012 135.534 284.778 135.738 284.61C135.942 284.442 136.206 284.358 136.53 284.358C136.77 284.358 136.968 284.394 137.124 284.466C137.292 284.538 137.46 284.646 137.628 284.79ZM138.764 282.72V284.43H143.462V282.72H138.764ZM140.168 279.84V291H142.076V279.84H140.168ZM156.665 285.726C156.665 285.054 156.563 284.478 156.359 283.998C156.167 283.518 155.879 283.158 155.495 282.918C155.111 282.666 154.619 282.54 154.019 282.54C153.467 282.54 152.969 282.666 152.525 282.918C152.093 283.158 151.727 283.524 151.427 284.016C151.247 283.536 150.953 283.17 150.545 282.918C150.149 282.666 149.651 282.54 149.051 282.54C148.511 282.54 148.049 282.66 147.665 282.9C147.281 283.128 146.963 283.47 146.711 283.926V282.72H144.803V291H146.711V285.96C146.711 285.564 146.777 285.228 146.909 284.952C147.053 284.676 147.245 284.466 147.485 284.322C147.737 284.178 148.025 284.106 148.349 284.106C148.829 284.106 149.177 284.262 149.393 284.574C149.621 284.874 149.735 285.336 149.735 285.96V291H151.679V285.96C151.679 285.564 151.745 285.228 151.877 284.952C152.021 284.676 152.213 284.466 152.453 284.322C152.705 284.178 152.999 284.106 153.335 284.106C153.803 284.106 154.145 284.262 154.361 284.574C154.589 284.874 154.703 285.336 154.703 285.96V291H156.665V285.726ZM162.729 291.18C163.689 291.18 164.511 290.994 165.195 290.622C165.879 290.238 166.443 289.674 166.887 288.93L165.195 288.264C164.943 288.708 164.619 289.038 164.223 289.254C163.827 289.47 163.359 289.578 162.819 289.578C162.315 289.578 161.889 289.47 161.541 289.254C161.193 289.038 160.923 288.72 160.731 288.3C160.551 287.88 160.467 287.376 160.479 286.788C160.479 286.188 160.569 285.684 160.749 285.276C160.941 284.868 161.205 284.556 161.541 284.34C161.889 284.124 162.309 284.016 162.801 284.016C163.209 284.016 163.563 284.106 163.863 284.286C164.175 284.466 164.415 284.718 164.583 285.042C164.763 285.366 164.853 285.75 164.853 286.194C164.853 286.278 164.829 286.38 164.781 286.5C164.745 286.62 164.709 286.716 164.673 286.788L165.267 285.96H159.669V287.31H166.941C166.941 287.262 166.941 287.184 166.941 287.076C166.953 286.968 166.959 286.866 166.959 286.77C166.959 285.882 166.797 285.126 166.473 284.502C166.149 283.866 165.675 283.38 165.051 283.044C164.439 282.708 163.695 282.54 162.819 282.54C161.943 282.54 161.181 282.72 160.533 283.08C159.885 283.428 159.381 283.926 159.021 284.574C158.673 285.222 158.499 285.984 158.499 286.86C158.499 287.724 158.673 288.48 159.021 289.128C159.369 289.776 159.861 290.28 160.497 290.64C161.145 291 161.889 291.18 162.729 291.18ZM174.16 285.96V291H176.158V285.726C176.158 284.742 175.912 283.968 175.42 283.404C174.928 282.828 174.214 282.54 173.278 282.54C172.714 282.54 172.222 282.66 171.802 282.9C171.394 283.14 171.058 283.506 170.794 283.998V282.72H168.832V291H170.794V285.96C170.794 285.588 170.866 285.264 171.01 284.988C171.166 284.7 171.382 284.484 171.658 284.34C171.934 284.184 172.258 284.106 172.63 284.106C173.146 284.106 173.53 284.262 173.782 284.574C174.034 284.886 174.16 285.348 174.16 285.96ZM177.488 282.72V284.43H182.186V282.72H177.488ZM178.892 279.84V291H180.8V279.84H178.892ZM183.905 288.264L182.771 289.416C183.011 289.728 183.311 290.028 183.671 290.316C184.031 290.592 184.445 290.82 184.913 291C185.381 291.168 185.903 291.252 186.479 291.252C187.379 291.252 188.093 291.018 188.621 290.55C189.161 290.07 189.431 289.44 189.431 288.66C189.431 288.156 189.317 287.748 189.089 287.436C188.861 287.124 188.555 286.86 188.171 286.644C187.787 286.428 187.361 286.23 186.893 286.05C186.557 285.918 186.251 285.792 185.975 285.672C185.711 285.552 185.495 285.42 185.327 285.276C185.171 285.12 185.093 284.946 185.093 284.754C185.093 284.526 185.183 284.352 185.363 284.232C185.543 284.112 185.777 284.052 186.065 284.052C186.473 284.052 186.869 284.154 187.253 284.358C187.637 284.562 187.961 284.826 188.225 285.15L189.305 283.998C189.077 283.722 188.801 283.476 188.477 283.26C188.153 283.044 187.787 282.87 187.379 282.738C186.983 282.606 186.557 282.54 186.101 282.54C185.597 282.54 185.123 282.624 184.679 282.792C184.247 282.948 183.899 283.194 183.635 283.53C183.383 283.866 183.257 284.286 183.257 284.79C183.257 285.282 183.371 285.69 183.599 286.014C183.839 286.338 184.139 286.602 184.499 286.806C184.871 286.998 185.243 287.166 185.615 287.31C185.987 287.442 186.311 287.574 186.587 287.706C186.863 287.826 187.079 287.976 187.235 288.156C187.391 288.324 187.469 288.528 187.469 288.768C187.469 289.044 187.367 289.26 187.163 289.416C186.971 289.572 186.701 289.65 186.353 289.65C186.077 289.65 185.801 289.596 185.525 289.488C185.249 289.38 184.979 289.224 184.715 289.02C184.451 288.816 184.181 288.564 183.905 288.264Z" fill="#3C5681"/>
<g clip-path="url(#clip1_1_2423)">
<path d="M62.796 278.583C63.6913 278.758 64.5142 279.196 65.1592 279.841C65.8042 280.486 66.2421 281.309 66.4168 282.204L62.796 278.583ZM62.796 274.917C64.6561 275.123 66.3908 275.956 67.715 277.279C69.0393 278.602 69.8745 280.335 70.0835 282.195L62.796 274.917ZM69.1668 289.51V292.26C69.1678 292.515 69.1156 292.768 69.0133 293.002C68.911 293.236 68.761 293.446 68.5729 293.618C68.3848 293.791 68.1627 293.922 67.9208 294.004C67.679 294.086 67.4227 294.116 67.1685 294.093C64.3477 293.787 61.6382 292.823 59.2576 291.279C57.0428 289.872 55.165 287.994 53.7576 285.779C52.2085 283.388 51.2444 280.665 50.9435 277.832C50.9206 277.578 50.9507 277.323 51.0319 277.082C51.1132 276.84 51.2437 276.619 51.4153 276.431C51.5869 276.243 51.7958 276.093 52.0286 275.99C52.2614 275.887 52.5131 275.834 52.7676 275.833H55.5176C55.9625 275.829 56.3938 275.987 56.7311 276.277C57.0684 276.567 57.2887 276.97 57.351 277.41C57.467 278.29 57.6823 279.154 57.9926 279.986C58.116 280.314 58.1427 280.671 58.0696 281.013C57.9964 281.356 57.8266 281.671 57.5801 281.92L56.416 283.084C57.7209 285.379 59.6211 287.279 61.916 288.584L63.0801 287.42C63.3294 287.174 63.644 287.004 63.9868 286.931C64.3296 286.858 64.6862 286.884 65.0143 287.008C65.846 287.318 66.7101 287.533 67.5901 287.649C68.0354 287.712 68.4421 287.936 68.7328 288.279C69.0235 288.623 69.178 289.061 69.1668 289.51Z" stroke="#005FFF" stroke-width="2" stroke-linecap="round" stroke-linejoin="round"/>
</g>
</g>
<g opacity="0.4">
<path d="M92.404 339.4V352H94.528V339.4H92.404ZM93.664 341.272H96.202C96.934 341.272 97.522 341.446 97.966 341.794C98.41 342.13 98.632 342.634 98.632 343.306C98.632 343.978 98.41 344.488 97.966 344.836C97.522 345.184 96.934 345.358 96.202 345.358H93.664V347.23H96.202C97.126 347.23 97.924 347.074 98.596 346.762C99.268 346.438 99.79 345.982 100.162 345.394C100.546 344.806 100.738 344.11 100.738 343.306C100.738 342.502 100.546 341.812 100.162 341.236C99.79 340.648 99.268 340.198 98.596 339.886C97.924 339.562 97.126 339.4 96.202 339.4H93.664V341.272ZM103.327 349.426C103.327 349.162 103.387 348.94 103.507 348.76C103.639 348.58 103.831 348.442 104.083 348.346C104.335 348.238 104.665 348.184 105.073 348.184C105.541 348.184 105.985 348.244 106.405 348.364C106.825 348.484 107.221 348.676 107.593 348.94V347.95C107.485 347.818 107.299 347.674 107.035 347.518C106.771 347.35 106.435 347.206 106.027 347.086C105.631 346.966 105.157 346.906 104.605 346.906C103.573 346.906 102.775 347.146 102.211 347.626C101.647 348.094 101.365 348.73 101.365 349.534C101.365 350.098 101.497 350.578 101.761 350.974C102.025 351.37 102.379 351.67 102.823 351.874C103.267 352.078 103.747 352.18 104.263 352.18C104.743 352.18 105.211 352.096 105.667 351.928C106.135 351.748 106.519 351.478 106.819 351.118C107.131 350.758 107.287 350.314 107.287 349.786L106.999 348.706C106.999 349.126 106.903 349.486 106.711 349.786C106.519 350.086 106.261 350.32 105.937 350.488C105.625 350.644 105.271 350.722 104.875 350.722C104.575 350.722 104.305 350.674 104.065 350.578C103.837 350.482 103.657 350.338 103.525 350.146C103.393 349.942 103.327 349.702 103.327 349.426ZM102.715 345.88C102.847 345.796 103.033 345.694 103.273 345.574C103.513 345.442 103.801 345.334 104.137 345.25C104.485 345.154 104.851 345.106 105.235 345.106C105.487 345.106 105.721 345.13 105.937 345.178C106.153 345.226 106.339 345.304 106.495 345.412C106.663 345.52 106.789 345.658 106.873 345.826C106.957 345.994 106.999 346.21 106.999 346.474V352H108.907V346.096C108.907 345.544 108.757 345.076 108.457 344.692C108.169 344.308 107.761 344.02 107.233 343.828C106.705 343.624 106.105 343.522 105.433 343.522C104.653 343.522 103.969 343.63 103.381 343.846C102.793 344.062 102.307 344.284 101.923 344.512L102.715 345.88ZM112.47 347.86C112.47 347.344 112.584 346.888 112.812 346.492C113.04 346.096 113.346 345.784 113.73 345.556C114.126 345.328 114.564 345.214 115.044 345.214C115.428 345.214 115.8 345.274 116.16 345.394C116.52 345.514 116.838 345.682 117.114 345.898C117.402 346.102 117.612 346.342 117.744 346.618V344.458C117.456 344.182 117.066 343.96 116.574 343.792C116.082 343.624 115.542 343.54 114.954 343.54C114.114 343.54 113.352 343.726 112.668 344.098C111.996 344.458 111.462 344.962 111.066 345.61C110.67 346.258 110.472 347.008 110.472 347.86C110.472 348.7 110.67 349.45 111.066 350.11C111.462 350.758 111.996 351.268 112.668 351.64C113.352 352 114.114 352.18 114.954 352.18C115.542 352.18 116.082 352.096 116.574 351.928C117.066 351.76 117.456 351.532 117.744 351.244V349.102C117.612 349.366 117.408 349.606 117.132 349.822C116.856 350.026 116.538 350.194 116.178 350.326C115.83 350.446 115.452 350.506 115.044 350.506C114.564 350.506 114.126 350.392 113.73 350.164C113.346 349.936 113.04 349.624 112.812 349.228C112.584 348.832 112.47 348.376 112.47 347.86ZM119.82 337.96V352H121.728V337.96H119.82ZM124.77 343.72L121.206 347.14L125.148 352H127.524L123.582 347.14L127.164 343.72H124.77ZM130.029 349.426C130.029 349.162 130.089 348.94 130.208 348.76C130.341 348.58 130.533 348.442 130.785 348.346C131.037 348.238 131.367 348.184 131.775 348.184C132.243 348.184 132.687 348.244 133.107 348.364C133.527 348.484 133.923 348.676 134.295 348.94V347.95C134.187 347.818 134.001 347.674 133.737 347.518C133.473 347.35 133.137 347.206 132.729 347.086C132.333 346.966 131.859 346.906 131.307 346.906C130.275 346.906 129.477 347.146 128.913 347.626C128.349 348.094 128.067 348.73 128.067 349.534C128.067 350.098 128.199 350.578 128.463 350.974C128.727 351.37 129.081 351.67 129.525 351.874C129.969 352.078 130.449 352.18 130.965 352.18C131.445 352.18 131.913 352.096 132.369 351.928C132.837 351.748 133.221 351.478 133.521 351.118C133.833 350.758 133.989 350.314 133.989 349.786L133.701 348.706C133.701 349.126 133.605 349.486 133.413 349.786C133.221 350.086 132.963 350.32 132.639 350.488C132.327 350.644 131.973 350.722 131.577 350.722C131.277 350.722 131.007 350.674 130.767 350.578C130.539 350.482 130.359 350.338 130.227 350.146C130.095 349.942 130.029 349.702 130.029 349.426ZM129.417 345.88C129.549 345.796 129.735 345.694 129.975 345.574C130.215 345.442 130.503 345.334 130.839 345.25C131.187 345.154 131.553 345.106 131.937 345.106C132.189 345.106 132.423 345.13 132.639 345.178C132.855 345.226 133.041 345.304 133.197 345.412C133.365 345.52 133.491 345.658 133.575 345.826C133.659 345.994 133.701 346.21 133.701 346.474V352H135.609V346.096C135.609 345.544 135.459 345.076 135.159 344.692C134.871 344.308 134.463 344.02 133.935 343.828C133.407 343.624 132.807 343.522 132.135 343.522C131.355 343.522 130.671 343.63 130.083 343.846C129.495 344.062 129.009 344.284 128.625 344.512L129.417 345.88ZM137.407 352.558C137.431 353.278 137.617 353.914 137.965 354.466C138.313 355.018 138.805 355.444 139.441 355.744C140.077 356.056 140.839 356.212 141.727 356.212C142.483 356.212 143.185 356.05 143.833 355.726C144.481 355.414 145.003 354.934 145.399 354.286C145.807 353.638 146.011 352.816 146.011 351.82V343.72H144.103V351.82C144.103 352.444 143.983 352.954 143.743 353.35C143.515 353.746 143.215 354.04 142.843 354.232C142.471 354.424 142.087 354.52 141.691 354.52C141.223 354.52 140.815 354.43 140.467 354.25C140.119 354.082 139.849 353.848 139.657 353.548C139.465 353.26 139.363 352.93 139.351 352.558H137.407ZM137.245 347.806C137.245 348.718 137.431 349.492 137.803 350.128C138.175 350.764 138.667 351.25 139.279 351.586C139.903 351.922 140.569 352.09 141.277 352.09C141.973 352.09 142.579 351.922 143.095 351.586C143.623 351.238 144.037 350.746 144.337 350.11C144.649 349.462 144.805 348.694 144.805 347.806C144.805 346.906 144.649 346.144 144.337 345.52C144.037 344.884 143.623 344.398 143.095 344.062C142.579 343.714 141.973 343.54 141.277 343.54C140.569 343.54 139.903 343.708 139.279 344.044C138.667 344.38 138.175 344.866 137.803 345.502C137.431 346.126 137.245 346.894 137.245 347.806ZM139.261 347.806C139.261 347.254 139.375 346.786 139.603 346.402C139.831 346.018 140.131 345.73 140.503 345.538C140.887 345.334 141.301 345.232 141.745 345.232C142.033 345.232 142.315 345.286 142.591 345.394C142.867 345.502 143.119 345.67 143.347 345.898C143.575 346.114 143.755 346.384 143.887 346.708C144.031 347.02 144.103 347.386 144.103 347.806C144.103 348.37 143.983 348.844 143.743 349.228C143.515 349.612 143.221 349.906 142.861 350.11C142.501 350.302 142.129 350.398 141.745 350.398C141.301 350.398 140.887 350.302 140.503 350.11C140.131 349.906 139.831 349.612 139.603 349.228C139.375 348.832 139.261 348.358 139.261 347.806ZM152.022 352.18C152.982 352.18 153.804 351.994 154.488 351.622C155.172 351.238 155.736 350.674 156.18 349.93L154.488 349.264C154.236 349.708 153.912 350.038 153.516 350.254C153.12 350.47 152.652 350.578 152.112 350.578C151.608 350.578 151.182 350.47 150.834 350.254C150.486 350.038 150.216 349.72 150.024 349.3C149.844 348.88 149.76 348.376 149.772 347.788C149.772 347.188 149.862 346.684 150.042 346.276C150.234 345.868 150.498 345.556 150.834 345.34C151.182 345.124 151.602 345.016 152.094 345.016C152.502 345.016 152.856 345.106 153.156 345.286C153.468 345.466 153.708 345.718 153.876 346.042C154.056 346.366 154.146 346.75 154.146 347.194C154.146 347.278 154.122 347.38 154.074 347.5C154.038 347.62 154.002 347.716 153.966 347.788L154.56 346.96H148.962V348.31H156.234C156.234 348.262 156.234 348.184 156.234 348.076C156.246 347.968 156.252 347.866 156.252 347.77C156.252 346.882 156.09 346.126 155.766 345.502C155.442 344.866 154.968 344.38 154.344 344.044C153.732 343.708 152.988 343.54 152.112 343.54C151.236 343.54 150.474 343.72 149.826 344.08C149.178 344.428 148.674 344.926 148.314 345.574C147.966 346.222 147.792 346.984 147.792 347.86C147.792 348.724 147.966 349.48 148.314 350.128C148.662 350.776 149.154 351.28 149.79 351.64C150.438 352 151.182 352.18 152.022 352.18ZM158.503 349.264L157.369 350.416C157.609 350.728 157.909 351.028 158.269 351.316C158.629 351.592 159.043 351.82 159.511 352C159.979 352.168 160.501 352.252 161.077 352.252C161.977 352.252 162.691 352.018 163.219 351.55C163.759 351.07 164.029 350.44 164.029 349.66C164.029 349.156 163.915 348.748 163.687 348.436C163.459 348.124 163.153 347.86 162.769 347.644C162.385 347.428 161.959 347.23 161.491 347.05C161.155 346.918 160.849 346.792 160.573 346.672C160.309 346.552 160.093 346.42 159.925 346.276C159.769 346.12 159.691 345.946 159.691 345.754C159.691 345.526 159.781 345.352 159.961 345.232C160.141 345.112 160.375 345.052 160.663 345.052C161.071 345.052 161.467 345.154 161.851 345.358C162.235 345.562 162.559 345.826 162.823 346.15L163.903 344.998C163.675 344.722 163.399 344.476 163.075 344.26C162.751 344.044 162.385 343.87 161.977 343.738C161.581 343.606 161.155 343.54 160.699 343.54C160.195 343.54 159.721 343.624 159.277 343.792C158.845 343.948 158.497 344.194 158.233 344.53C157.981 344.866 157.855 345.286 157.855 345.79C157.855 346.282 157.969 346.69 158.197 347.014C158.437 347.338 158.737 347.602 159.097 347.806C159.469 347.998 159.841 348.166 160.213 348.31C160.585 348.442 160.909 348.574 161.185 348.706C161.461 348.826 161.677 348.976 161.833 349.156C161.989 349.324 162.067 349.528 162.067 349.768C162.067 350.044 161.965 350.26 161.761 350.416C161.569 350.572 161.299 350.65 160.951 350.65C160.675 350.65 160.399 350.596 160.123 350.488C159.847 350.38 159.577 350.224 159.313 350.02C159.049 349.816 158.779 349.564 158.503 349.264Z" fill="#3C5681"/>
<path d="M68 354L61 349L54 354V338C54 337.47 54.2107 336.961 54.5858 336.586C54.9609 336.211 55.4696 336 56 336H66C66.5304 336 67.0391 336.211 67.4142 336.586C67.7893 336.961 68 337.47 68 338V354Z" stroke="#005FFF" stroke-width="2" stroke-linecap="round" stroke-linejoin="round"/>
</g>
<rect x="0.5" y="0.5" width="248" height="386" rx="27.5" stroke="#D9D9D9"/>
<defs>
<clipPath id="clip0_1_2423">
<rect width="22" height="22" fill="white" transform="translate(49 151)"/>
</clipPath>
<clipPath id="clip1_1_2423">
<rect width="22" height="22" fill="white" transform="translate(49 274)"/>
</clipPath>
</defs>
</svg>
