<svg width="16" height="17" viewBox="0 0 16 17" fill="none" xmlns="http://www.w3.org/2000/svg">
<path d="M11.0414 0.166658C11.3952 0.165827 11.6749 0.44069 11.6757 0.807173L11.6766 1.43186C13.9721 1.61177 15.4885 3.17599 15.4909 5.57479L15.5 12.5963C15.5033 15.2116 13.8602 16.8208 11.2265 16.825L4.79324 16.8333C2.176 16.8366 0.512353 15.1891 0.509062 12.5663L0.500006 5.62726C0.49672 3.21264 1.95961 1.65258 4.25515 1.44186L4.25433 0.817168C4.2535 0.450685 4.52502 0.174989 4.88704 0.174989C5.24906 0.174157 5.52057 0.449019 5.5214 0.815502L5.52222 1.39854L10.4095 1.39188L10.4087 0.808839C10.4078 0.442356 10.6794 0.167493 11.0414 0.166658ZM11.3771 11.9932H11.3688C10.9904 12.0024 10.6868 12.3197 10.695 12.7029C10.6958 13.086 11.0011 13.4017 11.3795 13.41C11.7654 13.4092 12.0781 13.0919 12.0773 12.7004C12.0773 12.3089 11.7638 11.9932 11.3771 11.9932ZM4.59742 11.9941C4.21895 12.0107 3.92275 12.3281 3.92357 12.7112C3.94085 13.0944 4.2535 13.3942 4.63198 13.3767C5.00305 13.3601 5.29843 13.0427 5.28115 12.6596C5.27292 12.2848 4.96767 11.9932 4.59742 11.9941ZM7.98725 11.9899C7.60877 12.0074 7.3134 12.3239 7.3134 12.707C7.33068 13.0902 7.64333 13.3892 8.02181 13.3725C8.39205 13.3551 8.68825 13.0385 8.67097 12.6546C8.66275 12.2806 8.3575 11.9891 7.98725 11.9899ZM4.59331 8.99557C4.21483 9.01223 3.91946 9.32957 3.92028 9.71271C3.93674 10.0959 4.25021 10.3957 4.62869 10.3782C4.99894 10.3616 5.29431 10.0442 5.27703 9.66107C5.26881 9.28626 4.96438 8.99474 4.59331 8.99557ZM7.98396 8.96642C7.60548 8.98308 7.30928 9.30042 7.3101 9.68356C7.32656 10.0667 7.64004 10.3657 8.01851 10.3491C8.38876 10.3316 8.68414 10.0151 8.66768 9.63192C8.65863 9.25711 8.35421 8.96559 7.98396 8.96642ZM11.3738 8.97058C10.9953 8.97891 10.6991 9.28709 10.6999 9.67023V9.6794C10.7082 10.0625 11.0208 10.3532 11.4001 10.3449C11.7704 10.3357 12.0657 10.0184 12.0575 9.63525C12.0402 9.26877 11.7432 8.96975 11.3738 8.97058ZM10.4111 2.67457L5.52387 2.68123L5.52469 3.35506C5.52469 3.71405 5.254 3.99724 4.89197 3.99724C4.52995 3.99808 4.25762 3.71572 4.25762 3.35673L4.25679 2.71538C2.65239 2.87614 1.76461 3.819 1.76708 5.62559L1.7679 5.88463L14.2247 5.86797V5.57645C14.1893 3.78568 13.2908 2.84615 11.6782 2.70622L11.679 3.34757C11.679 3.70572 11.4001 3.98975 11.0463 3.98975C10.6843 3.99058 10.412 3.70739 10.412 3.34923L10.4111 2.67457Z" fill="#131313" fill-opacity="0.65"/>
</svg>
