<svg width="80" height="80" viewBox="0 0 80 80" fill="none" xmlns="http://www.w3.org/2000/svg">
<path d="M23.6084 27.4983V52.5021H56.3915V27.4983H23.6084V27.4983ZM30.891 31.4047H49.1063C46.0695 33.8292 43.0328 36.2539 39.9963 38.6786C36.9613 36.2539 33.9262 33.8293 30.891 31.4048V31.4047ZM52.49 33.7045V48.5957H27.5098V33.7056C31.672 37.0319 35.8341 40.3585 39.9963 43.6844C44.1608 40.3581 48.3254 37.0311 52.49 33.7045ZM40 3.86719L39.9879 3.86727L39.5632 3.86996L39.5511 3.87004L39.539 3.87027L39.115 3.87809L39.1029 3.87836L39.0907 3.87875L38.6673 3.89187L38.6552 3.89227L38.6431 3.89277L38.2204 3.91113L38.2084 3.91164L38.1963 3.9123L37.7742 3.9359L37.7622 3.9366L37.7501 3.93734L37.3288 3.96609L37.3168 3.96695L37.3048 3.96785L36.8843 4.00184L36.8724 4.00281L36.8603 4.00387L36.4407 4.04293L36.4287 4.0441L36.4168 4.04527L35.998 4.08949L35.9861 4.09078L35.9741 4.09215L35.5564 4.14145L35.5444 4.14289L35.5325 4.14441L35.1157 4.19879L35.1038 4.20039L35.0919 4.20207L34.6762 4.26152L34.6643 4.2632L34.6524 4.26512L34.2377 4.32957L34.2258 4.33148L34.214 4.33344L33.8004 4.40297L33.7887 4.40492L33.7768 4.40707L33.3644 4.48168L33.3527 4.48383L33.3409 4.48613L32.9296 4.5657L32.9179 4.56801L32.9061 4.57035L32.4961 4.65496L32.4844 4.6573L32.4727 4.65992L32.064 4.74941L32.0523 4.75203L32.0407 4.75469L31.6333 4.84922L31.6218 4.85188L31.6102 4.85473L31.2041 4.95418L31.1925 4.95703L31.1809 4.96L30.7968 5.05902L30.4543 5.18238L30.1406 5.36715L29.8667 5.60699L29.642 5.89344L29.4744 6.21664L29.3697 6.56531L29.3315 6.9273L29.3612 7.2902L29.4577 7.64121L29.6176 7.96828L29.8355 8.25992L30.1036 8.50605L30.4129 8.69816L30.7525 8.82953L31.1104 8.8957L31.4745 8.89414L31.7722 8.84152L32.1457 8.74523L32.5259 8.65215L32.9116 8.56258L33.2985 8.47789L33.6869 8.39789L34.0692 8.32387L34.4608 8.25301L34.8452 8.18836L35.2436 8.12633L35.6309 8.07094L36.0254 8.01953L36.4197 7.97301L36.8157 7.93121L37.2125 7.89426L37.6093 7.8623L38.0074 7.8352L38.4058 7.81301L38.8053 7.7957L39.1987 7.78348L39.5991 7.77605L40 7.77355L40.4008 7.77609L40.8012 7.78352L41.1946 7.7957L41.5941 7.81301L41.9925 7.8352L42.3906 7.8623L42.7874 7.89426L43.1842 7.93117L43.5802 7.97297L43.9746 8.01953L44.369 8.07094L44.7564 8.12633L45.1547 8.18836L45.5391 8.25301L45.9307 8.32387L46.313 8.39789L46.7014 8.47789L47.0488 8.55398L47.4101 8.59844L47.7734 8.575L48.126 8.48461L48.4558 8.33031L48.7512 8.1175L49.0019 7.85359L49.1993 7.54766L49.3365 7.21055L49.4088 6.85367L49.4136 6.48961L49.3507 6.13102L49.2224 5.79039L49.0331 5.47941L48.7893 5.20902L48.4996 4.98844L48.1741 4.82555L47.8847 4.7382L47.5272 4.65992L47.5155 4.65734L47.5038 4.655L47.0938 4.57035L47.0821 4.56801L47.0704 4.5657L46.659 4.48613L46.6473 4.48383L46.6356 4.48172L46.2231 4.40711L46.2113 4.40496L46.1995 4.40297L45.7859 4.33344L45.7741 4.33148L45.7622 4.32957L45.3475 4.26512L45.3357 4.2632L45.3237 4.26152L44.908 4.20207L44.8961 4.20039L44.8842 4.19883L44.4674 4.14441L44.4555 4.14285L44.4436 4.14145L44.0257 4.09215L44.0139 4.09078L44.0019 4.08949L43.5832 4.04531L43.5712 4.0441L43.5592 4.04293L43.1396 4.00387L43.1275 4.00281L43.1156 4.00184L42.6951 3.96785L42.683 3.96695L42.6711 3.96609L42.2498 3.93734L42.2377 3.93656L42.2257 3.9359L41.8037 3.91234L41.7916 3.91164L41.7795 3.91109L41.3568 3.89277L41.3447 3.89227L41.3326 3.89187L40.9092 3.87875L40.8971 3.87836L40.885 3.87812L40.4609 3.87027L40.4488 3.87004L40.4367 3.86996L40.0121 3.86727L40 3.86719ZM60.3599 10.4961L59.9959 10.5041L59.6398 10.5797L59.3038 10.72L58.9998 10.9202L58.7382 11.1733L58.5281 11.4707L58.3768 11.8018L58.2896 12.1552L58.2695 12.5188L58.3173 12.8796L58.4311 13.2255L58.6072 13.5441L58.8394 13.8246L59.0689 14.0212L59.1718 14.0964L59.4913 14.3359L59.8 14.5734L60.1168 14.8234L60.424 15.0719L60.7283 15.3243L61.0328 15.5833L61.3348 15.8469L61.6268 16.1081L61.9257 16.382L62.2152 16.6541L62.5014 16.9298L62.7876 17.2125L63.0673 17.4957L63.3461 17.785L63.6208 18.0773L63.8862 18.3668L64.1533 18.6654L64.4166 18.9672L64.6727 19.2681L64.9282 19.5761L65.1768 19.8834L65.4213 20.1932L65.6671 20.5128L65.9037 20.8284L66.1362 21.1466L66.3646 21.4673L66.5891 21.7908L66.8121 22.1209L67.0284 22.4496L67.2404 22.7804L67.4509 23.118L67.6572 23.4582L67.8551 23.7937L68.0505 24.1344L68.2414 24.4768L68.4307 24.8264L68.612 25.1708L68.7902 25.52L68.8812 25.7036L69.0724 26.0134L69.3178 26.2823L69.6089 26.5009L69.9355 26.6619L70.2862 26.7593L70.649 26.79L71.0112 26.7528L71.3601 26.6491L71.6838 26.4824L71.9708 26.2585L72.2113 25.9853L72.397 25.6721L72.5213 25.3299L72.58 24.9706L72.571 24.6066L72.4945 24.2507L72.3818 23.9702L72.2873 23.7793L72.2819 23.7686L72.2765 23.758L72.0869 23.3864L72.0815 23.3759L72.0759 23.3653L71.8817 22.9961L71.8762 22.9855L71.8705 22.975L71.6717 22.608L71.666 22.5975L71.6602 22.5871L71.457 22.2225L71.4511 22.2121L71.4452 22.2017L71.2374 21.8394L71.2314 21.8291L71.2253 21.8188L71.0131 21.4589L71.007 21.4487L71.0008 21.4384L70.784 21.0811L70.7778 21.0709L70.7715 21.0607L70.5503 20.7059L70.5439 20.6957L70.5375 20.6857L70.3118 20.3333L70.3054 20.3233L70.2987 20.3133L70.0686 19.9636L70.0621 19.9536L70.0554 19.9436L69.8209 19.5966L69.8142 19.5866L69.8073 19.5768L69.5684 19.2324L69.5616 19.2226L69.5546 19.2128L69.3114 18.8713L69.3044 18.8614L69.2973 18.8518L69.0497 18.5129L69.0427 18.5032L69.0355 18.4936L68.7835 18.1576L68.7763 18.148L68.7689 18.1384L68.5127 17.8052L68.5054 17.7957L68.4979 17.7863L68.2374 17.456L68.23 17.4466L68.2224 17.4372L67.9575 17.1099L67.95 17.1005L67.9422 17.0913L67.6732 16.767L67.6654 16.7577L67.6577 16.7485L67.3843 16.4272L67.3765 16.418L67.3686 16.4089L67.091 16.0907L67.0831 16.0816L67.0751 16.0727L66.7932 15.7575L66.7852 15.7486L66.7771 15.7397L66.4911 15.4278L66.4829 15.4189L66.4746 15.41L66.1845 15.1013L66.1763 15.0925L66.1679 15.0838L65.8736 14.7784L65.8652 14.7697L65.8567 14.7611L65.5583 14.4589L65.5497 14.4503L65.5411 14.4418L65.239 14.1434L65.2304 14.1348L65.2217 14.1264L64.9162 13.8322L64.9075 13.8238L64.8987 13.8155L64.59 13.5254L64.5812 13.5171L64.5723 13.5089L64.2604 13.223L64.2514 13.2148L64.2425 13.2067L63.9273 12.925L63.9184 12.917L63.9093 12.909L63.5911 12.6314L63.582 12.6235L63.5728 12.6157L63.2515 12.3424L63.2424 12.3345L63.2331 12.3268L62.9087 12.0577L62.8995 12.0501L62.8902 12.0425L62.5628 11.7776L62.5534 11.7701L62.544 11.7626L62.2137 11.5021L62.2043 11.4946L62.1948 11.4873L61.8616 11.231L61.8521 11.2237L61.8425 11.2165L61.5064 10.9646L61.4968 10.9573L61.4872 10.9503L61.3736 10.8673L61.0609 10.6809L60.719 10.5557L60.3599 10.4961V10.4961ZM18.8487 11.2729L18.485 11.2899L18.1307 11.3739L17.7983 11.5223L17.5473 11.6905L17.4559 11.7626L17.4465 11.7701L17.4371 11.7776L17.1098 12.0425L17.1004 12.0501L17.0912 12.0577L16.7668 12.3268L16.7575 12.3345L16.7484 12.3423L16.4271 12.6156L16.418 12.6235L16.4088 12.6314L16.0907 12.909L16.0815 12.9169L16.0726 12.9249L15.7575 13.2067L15.7485 13.2148L15.7395 13.2229L15.4277 13.5089L15.4187 13.5171L15.41 13.5254L15.1012 13.8154L15.0924 13.8237L15.0837 13.8321L14.7783 14.1264L14.7696 14.1348L14.7609 14.1433L14.4588 14.4418L14.4502 14.4503L14.4416 14.4589L14.1432 14.761L14.1347 14.7696L14.1263 14.7783L13.8321 15.0837L13.8237 15.0925L13.8154 15.1013L13.5253 15.41L13.517 15.4188L13.5088 15.4277L13.2229 15.7396L13.2146 15.7485L13.2067 15.7575L12.9248 16.0726L12.9168 16.0816L12.9089 16.0907L12.6313 16.4089L12.6234 16.418L12.6156 16.4272L12.3423 16.7485L12.3345 16.7576L12.3268 16.767L12.0577 17.0913L12.05 17.1005L12.0424 17.1099L11.7775 17.4372L11.77 17.4466L11.7625 17.4559L11.502 17.7862L11.4946 17.7957L11.4872 17.8052L11.231 18.1384L11.2236 18.1479L11.2164 18.1575L10.9645 18.4936L10.9573 18.5032L10.9502 18.5129L10.7025 18.8518L10.6955 18.8614L10.6885 18.8712L10.4453 19.2128L10.4384 19.2225L10.4315 19.2324L10.1926 19.5768L10.1857 19.5866L10.179 19.5965L9.94457 19.9436L9.93785 19.9535L9.93129 19.9635L9.70121 20.3132L9.69457 20.3232L9.68816 20.3333L9.46246 20.6856L9.45598 20.6957L9.44965 20.7059L9.2284 21.0607L9.22215 21.0708L9.2159 21.0811L8.9991 21.4384L8.99297 21.4486L8.98684 21.4589L8.77461 21.8188L8.76852 21.829L8.76254 21.8393L8.55473 22.2016L8.54887 22.212L8.54301 22.2224L8.33973 22.5871L8.33395 22.5975L8.3282 22.608L8.12945 22.975L8.12375 22.9854L8.11828 22.996L7.92398 23.3653L7.91844 23.3758L7.91301 23.3864L7.72344 23.758L7.71801 23.7686L7.71266 23.7793L7.52766 24.153L7.52231 24.1637L7.51723 24.1745L7.33668 24.5504L7.3316 24.5611L7.32652 24.5719L7.1507 24.9499L7.14574 24.9607L7.14078 24.9716L7.03922 25.1972L6.92125 25.5416L6.8693 25.9019L6.8852 26.2657L6.9682 26.6201L7.11559 26.953L7.32223 27.2528L7.58082 27.509L7.88258 27.7127L8.21684 27.8569L8.57203 27.9366L8.9359 27.9489L9.29566 27.8936L9.63902 27.7724L9.95387 27.5896L10.2293 27.3516L10.4557 27.0665L10.6009 26.8013L10.6975 26.5866L10.8651 26.2266L11.0346 25.8735L11.2098 25.5198L11.388 25.1708L11.5692 24.8263L11.7585 24.4767L11.9494 24.1343L12.1448 23.7937L12.3427 23.4582L12.549 23.118L12.7595 22.7804L12.9715 22.4496L13.1877 22.1209L13.4108 21.7907L13.6354 21.4673L13.8637 21.1465L14.0962 20.8284L14.3329 20.5127L14.5786 20.1932L14.8231 19.8833L15.0718 19.5761L15.3272 19.2681L15.5833 18.9672L15.8466 18.6654L16.1137 18.3668L16.3791 18.0773L16.6539 17.7849L16.9327 17.4956L17.2123 17.2124L17.4985 16.9298L17.7848 16.654L18.0742 16.382L18.373 16.108L18.6651 15.8468L18.9672 15.5833L19.2716 15.3243L19.5759 15.0718L19.8833 14.8231L19.9667 14.7573L20.2302 14.5062L20.4426 14.2105L20.5964 13.8805L20.6863 13.5277L20.7092 13.1644L20.6643 12.8032L20.553 12.4565L20.3794 12.1365L20.1493 11.8543L19.871 11.6197L19.5539 11.4408L19.2092 11.3239L18.8487 11.2729ZM40 11.289L39.9879 11.2891L39.6554 11.2912L39.6433 11.2912L39.6312 11.2915L39.2992 11.2977L39.2872 11.2979L39.275 11.2983L38.9435 11.3086L38.9314 11.309L38.9193 11.3095L38.5885 11.3239L38.5763 11.3244L38.5643 11.325L38.2339 11.3435L38.2218 11.3441L38.2098 11.345L37.88 11.3675L37.868 11.3683L37.8559 11.3693L37.5268 11.3958L37.5148 11.3968L37.5028 11.3979L37.1743 11.4284L37.1623 11.4296L37.1503 11.4308L37.0377 11.4427L36.6808 11.5145L36.3434 11.6512L36.0373 11.8483L35.773 12.0987L35.5598 12.3937L35.405 12.7233L35.3141 13.0758L35.2903 13.4391L35.3342 13.8005L35.4445 14.1474L35.6172 14.4679L35.8464 14.7507L36.1241 14.9862L36.4406 15.1659L36.7851 15.2838L37.1454 15.3358L37.4476 15.3274L37.5489 15.3168L37.855 15.2882L38.1545 15.264L38.4613 15.2432L38.7681 15.226L39.0757 15.2125L39.3832 15.203L39.6914 15.1973L40 15.1954L40.3086 15.1973L40.6168 15.203L40.9243 15.2125L41.2318 15.226L41.5387 15.2432L41.8454 15.2641L42.1449 15.2882L42.4506 15.3167L42.755 15.3488L43.0593 15.3848L43.3632 15.4243L43.6603 15.4668L43.9628 15.5139L44.2645 15.5646L44.564 15.6188L44.8641 15.6769L45.1576 15.7374L45.4558 15.8028L45.7544 15.872L46.045 15.9431L46.3406 16.0195L46.6295 16.0977L46.9209 16.1804L47.2145 16.2678L47.5 16.3564L47.7898 16.4503L48.0745 16.5464L48.3618 16.6473L48.6497 16.7524L48.9344 16.8604L49.2069 16.9674L49.4909 17.083L49.7689 17.2001L49.7821 17.2057L49.7825 17.2046L50.1148 17.3137L50.4757 17.3614L50.8392 17.3411L51.1926 17.2537L51.5237 17.1023L51.8209 16.892L52.074 16.6302L52.274 16.3261L52.4141 15.9902L52.4895 15.6339L52.4974 15.27L52.4376 14.9109L52.3122 14.5691L52.1256 14.2565L51.8843 13.984L51.5965 13.761L51.3295 13.6191L51.3208 13.6153L51.3098 13.6105L51.2989 13.6059L50.9981 13.4791L50.9872 13.4746L50.9761 13.4701L50.6739 13.347L50.6629 13.3426L50.6518 13.3382L50.3481 13.2188L50.337 13.2145L50.3259 13.2103L50.0207 13.0946L50.0096 13.0904L49.9984 13.0863L49.6917 12.9744L49.6806 12.9704L49.6693 12.9664L49.3614 12.8582L49.3501 12.8543L49.3388 12.8504L49.0295 12.746L49.0182 12.7421L49.0069 12.7385L48.6962 12.6378L48.6849 12.6341L48.6736 12.6306L48.3616 12.5336L48.3502 12.5301L48.3388 12.5267L48.0255 12.4336L48.0141 12.4302L48.0027 12.427L47.6883 12.3377L47.6768 12.3344L47.6653 12.3313L47.3497 12.2457L47.3382 12.2427L47.3266 12.2396L47.0098 12.158L46.9983 12.155L46.9868 12.1522L46.6689 12.0744L46.6573 12.0714L46.6456 12.0688L46.3267 11.9948L46.3151 11.9921L46.3034 11.9895L45.9835 11.9195L45.9718 11.9169L45.9601 11.9145L45.6391 11.8483L45.6274 11.8459L45.6157 11.8436L45.2937 11.7813L45.282 11.779L45.2701 11.7769L44.9473 11.7185L44.9355 11.7164L44.9237 11.7144L44.5999 11.6599L44.588 11.658L44.5762 11.6561L44.2515 11.6056L44.2397 11.6037L44.2278 11.602L43.9023 11.5555L43.8904 11.5538L43.8785 11.5522L43.5522 11.5096L43.5403 11.5081L43.5284 11.5066L43.2013 11.4681L43.1894 11.4667L43.1774 11.4655L42.8497 11.4308L42.8377 11.4296L42.8257 11.4284L42.4971 11.3979L42.4852 11.3968L42.4731 11.3958L42.144 11.3692L42.1319 11.3682L42.12 11.3675L41.7901 11.345L41.7781 11.3441L41.766 11.3434L41.4357 11.325L41.4236 11.3244L41.4115 11.3238L41.0806 11.3095L41.0685 11.309L41.0564 11.3086L40.7249 11.2983L40.7128 11.2979L40.7007 11.2977L40.3688 11.2915L40.3567 11.2912L40.3445 11.2912L40.0121 11.2891L40 11.289H40ZM27.6211 14.3722L27.2575 14.3901L26.9036 14.4752L26.6259 14.5948L26.4908 14.6658L26.4803 14.6714L26.4698 14.677L26.1825 14.8327L26.172 14.8383L26.1616 14.8441L25.8761 15.0033L25.8657 15.0091L25.8554 15.015L25.5717 15.1777L25.5614 15.1837L25.5511 15.1897L25.2695 15.3559L25.2591 15.362L25.2489 15.3682L24.9691 15.5379L24.9589 15.5441L24.9488 15.5504L24.671 15.7236L24.6609 15.73L24.6508 15.7364L24.375 15.913L24.3649 15.9195L24.3549 15.9261L24.0812 16.1062L24.0712 16.1128L24.0613 16.1195L23.7895 16.3031L23.7796 16.3098L23.7697 16.3166L23.5002 16.5036L23.4904 16.5105L23.4806 16.5175L23.2131 16.7079L23.2033 16.7148L23.1936 16.7219L22.9284 16.9158L22.9187 16.9229L22.9091 16.93L22.646 17.1273L22.6364 17.1345L22.6268 17.1418L22.366 17.3424L22.3565 17.3497L22.3471 17.3572L22.0885 17.5611L22.0791 17.5686L22.0697 17.5762L21.8135 17.7836L21.8041 17.7911L21.7948 17.7988L21.5409 18.0095L21.5316 18.0171L21.5225 18.025L21.2709 18.2389L21.2618 18.2468L21.2527 18.2546L21.0036 18.472L20.9945 18.4799L20.9855 18.488L20.7389 18.7086L20.7299 18.7166L20.7209 18.7248L20.4767 18.9486L20.4679 18.9568L20.459 18.965L20.2174 19.1921L20.2086 19.2005L20.1998 19.2089L19.9608 19.4393L19.952 19.4477L19.9434 19.4561L19.7068 19.6897L19.6982 19.6983L19.6898 19.7069L19.4562 19.9434L19.4476 19.952L19.4392 19.9607L19.2088 20.1998L19.2004 20.2086L19.1922 20.2174L18.965 20.4591L18.9567 20.4679L18.9486 20.4768L18.7247 20.721L18.7165 20.7299L18.7084 20.7389L18.4879 20.9855L18.4799 20.9945L18.472 21.0036L18.2546 21.2528L18.2467 21.2619L18.2389 21.271L18.0249 21.5226L18.0171 21.5317L18.0094 21.541L17.7987 21.7949L17.791 21.8042L17.7835 21.8136L17.5762 22.0697L17.5686 22.0791L17.5611 22.0886L17.3571 22.3471L17.3497 22.3565L17.3424 22.3661L17.1418 22.6269L17.1345 22.6364L17.1273 22.6461L16.93 22.9091L16.9228 22.9187L16.9157 22.9284L16.7218 23.1937L16.7148 23.2034L16.7078 23.2132L16.5174 23.4806L16.5104 23.4904L16.5036 23.5002L16.3166 23.7698L16.3098 23.7796L16.303 23.7896L16.1195 24.0612L16.1128 24.0712L16.1061 24.0812L15.9532 24.3137L15.7823 24.6352L15.674 24.9827L15.6321 25.3445L15.6581 25.7075L15.7509 26.0595L15.9076 26.3882L16.1224 26.682L16.3881 26.931L16.6954 27.1262L17.0335 27.2611L17.3909 27.3308L17.7548 27.333L18.113 27.2677L18.4528 27.137L18.7625 26.9455L19.0311 26.6998L19.2163 26.4609L19.3627 26.2386L19.5321 25.9879L19.7075 25.735L19.8802 25.4925L20.0619 25.2436L20.2436 25.0014L20.4316 24.757L20.6189 24.5194L20.8129 24.2796L21.007 24.0457L21.2066 23.811L21.4071 23.5812L21.6125 23.3514L21.8216 23.1234L22.0305 22.9011L22.2427 22.6809L22.4575 22.4634L22.678 22.2455L22.9011 22.0306L23.1234 21.8216L23.3511 21.6129L23.5816 21.4068L23.8105 21.2071L24.0457 21.0071L24.2796 20.8129L24.5186 20.6195L24.7577 20.4309L24.9983 20.2459L25.2439 20.0618L25.4885 19.883L25.735 19.7075L25.9838 19.5349L26.2385 19.3627L26.491 19.1966L26.7457 19.0335L27.002 18.8736L27.2618 18.7159L27.5218 18.5625L27.788 18.4096L28.0513 18.2628L28.3211 18.1168L28.4442 18.052L28.7492 17.8533L29.012 17.6014L29.2235 17.3051L29.3764 16.9746L29.4653 16.6217L29.487 16.2583L29.441 15.8971L29.3289 15.5508L29.1543 15.2313L28.9234 14.9498L28.6445 14.7159L28.3268 14.538L27.9818 14.422L27.6211 14.3722ZM59.0312 19.1514L58.6676 19.1691L58.3136 19.2538L57.9814 19.4028L57.6827 19.6109L57.4277 19.8708L57.2255 20.1736L57.0829 20.5085L57.005 20.8641L56.9944 21.228L57.0515 21.5876L57.1744 21.9303L57.3587 22.2441L57.5539 22.475L57.7572 22.6809L57.9694 22.9011L58.1784 23.1234L58.3874 23.3514L58.5928 23.5812L58.7933 23.811L58.993 24.0458L59.1871 24.2796L59.3811 24.5194L59.5684 24.757L59.7564 25.0013L59.938 25.2436L60.1197 25.4925L60.2925 25.7351L60.4678 25.9878L60.6373 26.2385L60.8062 26.4953L60.9691 26.7497L61.129 27.0062L61.2856 27.2644L61.4414 27.5287L61.5916 27.7904L61.7397 28.0559L61.8832 28.3212L62.0222 28.5855L62.1617 28.8587L62.2942 29.1262L62.427 29.4027L62.5539 29.6758L62.6766 29.9479L62.799 30.2289L62.9158 30.5061L63.0306 30.788L63.1398 31.0659L63.2483 31.3523L63.3527 31.6382L63.4516 31.9199L63.5491 32.2086L63.6437 32.5002L63.7323 32.7852L63.8192 33.0776L63.8681 33.25L63.9998 33.5894L64.1922 33.8984L64.4386 34.1664L64.7305 34.384L65.0577 34.5437L65.4087 34.6398L65.7716 34.6691L66.1337 34.6306L66.4822 34.5257L66.8052 34.3577L67.0915 34.1328L67.3311 33.8586L67.5155 33.5448L67.6386 33.2022L67.6959 32.8427L67.6855 32.4788L67.6257 32.1824L67.573 31.9973L67.5698 31.9858L67.5664 31.9745L67.4732 31.6612L67.4699 31.6498L67.4663 31.6385L67.3694 31.3265L67.3659 31.3152L67.3622 31.3037L67.2615 30.9931L67.2578 30.9818L67.2539 30.9705L67.1495 30.6611L67.1457 30.6498L67.1417 30.6386L67.0335 30.3306L67.0296 30.3194L67.0255 30.3082L66.9136 30.0016L66.9095 29.9904L66.9053 29.9793L66.7896 29.6741L66.7854 29.663L66.7811 29.6519L66.6616 29.3482L66.6573 29.3371L66.6528 29.3261L66.5298 29.0239L66.5253 29.0128L66.5206 29.0018L66.3939 28.7011L66.3894 28.6902L66.3846 28.6792L66.2543 28.3801L66.2495 28.3692L66.2446 28.3582L66.1105 28.0607L66.1056 28.0499L66.1007 28.0391L65.963 27.7431L65.9579 27.7323L65.9528 27.7216L65.8115 27.4273L65.8064 27.4166L65.8011 27.4059L65.6562 27.1133L65.6509 27.1026L65.6455 27.092L65.497 26.8012L65.4916 26.7905L65.4861 26.78L65.334 26.4909L65.3285 26.4804L65.3228 26.4698L65.1672 26.1825L65.1615 26.1721L65.1557 26.1616L64.9965 25.8762L64.9907 25.8657L64.9848 25.8554L64.8222 25.5718L64.8162 25.5614L64.8102 25.5512L64.6439 25.2695L64.6378 25.2591L64.6316 25.249L64.462 24.9692L64.4558 24.959L64.4495 24.9488L64.2763 24.6711L64.2699 24.6609L64.2634 24.6509L64.0867 24.3751L64.0803 24.365L64.0737 24.355L63.8936 24.0811L63.887 24.0712L63.8803 24.0612L63.6967 23.7896L63.69 23.7796L63.6832 23.7698L63.4961 23.5002L63.4893 23.4904L63.4824 23.4806L63.292 23.2132L63.285 23.2034L63.2779 23.1937L63.0841 22.9284L63.077 22.9187L63.0698 22.9091L62.8725 22.6461L62.8654 22.6364L62.858 22.6269L62.6574 22.3661L62.65 22.3565L62.6426 22.3471L62.4386 22.0886L62.4312 22.0791L62.4236 22.0698L62.2163 21.8135L62.2088 21.8041L62.2011 21.7949L61.9904 21.541L61.9827 21.5317L61.9748 21.5226L61.7609 21.271L61.7531 21.2619L61.7451 21.2528L61.5279 21.0036L61.5199 20.9945L61.5119 20.9855L61.2913 20.7389L61.2832 20.7299L61.275 20.721L61.0512 20.4768L61.043 20.4679L61.0348 20.4591L60.8076 20.2174L60.7994 20.2086L60.791 20.1998L60.5606 19.9608L60.5522 19.9521L60.5436 19.9434L60.3329 19.7301L60.0541 19.4961L59.7367 19.3178L59.3917 19.2016L59.0311 19.1514H59.0312ZM13.9162 32.8332L13.5522 32.8374L13.1953 32.909L12.8579 33.0456L12.5516 33.2425L12.2873 33.4927L12.0739 33.7878L11.9191 34.1172L11.8388 34.4086L11.7812 34.7064L11.7789 34.7181L11.7768 34.7298L11.7184 35.0527L11.7163 35.0645L11.7143 35.0764L11.6598 35.4002L11.6579 35.412L11.656 35.4238L11.6055 35.7484L11.6037 35.7603L11.6019 35.7723L11.5554 36.0977L11.5537 36.1096L11.5521 36.1215L11.5096 36.4479L11.508 36.4597L11.5066 36.4716L11.468 36.7987L11.4666 36.8107L11.4654 36.8227L11.4308 37.1504L11.4295 37.1624L11.4283 37.1744L11.3978 37.5029L11.3966 37.5149L11.3957 37.5269L11.3691 37.8561L11.3682 37.868L11.3674 37.8801L11.3449 38.2099L11.344 38.222L11.3433 38.234L11.325 38.5644L11.3243 38.5764L11.3237 38.5885L11.3094 38.9195L11.3089 38.9315L11.3085 38.9436L11.2982 39.2752L11.2978 39.2872L11.2975 39.2993L11.2914 39.6313L11.2912 39.6434L11.2911 39.6555L11.2889 39.9879V40.0122L11.2911 40.3446L11.2912 40.3568L11.2914 40.3688L11.2975 40.7009L11.2978 40.7129L11.2982 40.725L11.3085 41.0564L11.3089 41.0686L11.3094 41.0807L11.3237 41.4116L11.3243 41.4237L11.325 41.4357L11.3433 41.7661L11.344 41.7782L11.3449 41.7902L11.3674 42.12L11.3682 42.132L11.3691 42.1441L11.3957 42.4732L11.3967 42.4852L11.3978 42.4973L11.4283 42.8257L11.4295 42.8377L11.4308 42.8496L11.4654 43.1775L11.4665 43.1895L11.468 43.2014L11.5066 43.5284L11.508 43.5404L11.5096 43.5523L11.5521 43.8786L11.5537 43.8905L11.5554 43.9025L11.6019 44.2279L11.6037 44.2398L11.6055 44.2516L11.656 44.5762L11.6578 44.5882L11.6598 44.6L11.7143 44.9237L11.7163 44.9355L11.7184 44.9474L11.7768 45.2702L11.7789 45.282L11.7812 45.2938L11.8435 45.6157L11.8457 45.6274L11.8482 45.6392L11.9144 45.9602L11.9168 45.9718L11.9194 45.9836L11.9895 46.3035L11.992 46.3152L11.9947 46.3268L12.0687 46.6457L12.0714 46.6574L12.0743 46.669L12.1521 46.9868L12.1549 46.9984L12.1579 47.01L12.2396 47.3268L12.2425 47.3383L12.2457 47.3498L12.3311 47.6654L12.3343 47.6769L12.3375 47.6884L12.4269 48.0028L12.4302 48.0142L12.4335 48.0257L12.5267 48.3389L12.53 48.3503L12.5336 48.3616L12.6305 48.6736L12.634 48.685L12.6377 48.6963L12.6775 48.8191L12.8215 49.1534L13.0251 49.4553L13.2812 49.7141L13.5808 49.9208L13.9136 50.0684L14.268 50.1516L14.6318 50.1677L14.9921 50.1159L15.3366 49.9982L15.6533 49.8186L15.931 49.5833L16.1604 49.3005L16.3333 48.9802L16.4437 48.6333L16.4878 48.2719L16.4641 47.9086L16.3935 47.6147L16.3562 47.4998L16.2677 47.2149L16.1808 46.9225L16.0987 46.6333L16.0189 46.339L15.9446 46.0509L15.8702 45.7474L15.8027 45.4559L15.7373 45.1575L15.6771 44.8654L15.6189 44.5653L15.5644 44.2635L15.5138 43.9628L15.4677 43.6665L15.4235 43.3573L15.3846 43.0595L15.3488 42.7558L15.3166 42.4507L15.2887 42.1511L15.2635 41.8389L15.243 41.5389L15.2259 41.2318L15.2123 40.9188L15.203 40.6171L15.1973 40.3087L15.1953 40.0001L15.1973 39.6915L15.203 39.3832L15.2123 39.0814L15.2259 38.768L15.243 38.4609L15.2636 38.1608L15.2887 37.8485L15.3166 37.5495L15.3487 37.245L15.3847 36.94L15.4235 36.6429L15.4676 36.3336L15.5136 36.0383L15.5645 35.7356L15.6188 35.4357L15.6739 35.1508L15.7094 34.7886L15.6771 34.426L15.5781 34.0756L15.4157 33.7498L15.1958 33.4597L14.9258 33.2155L14.6152 33.0256L14.2747 32.8967L13.9162 32.8332ZM74.2083 36.4486L73.845 36.4701L73.4918 36.5588L73.1613 36.7114L72.8649 36.9227L72.6127 37.1854L72.4138 37.4902L72.2749 37.8267L72.2008 38.1831L72.1905 38.4853L72.2041 38.7992L72.2165 39.1991L72.224 39.5992L72.2264 40.0001L72.224 40.4008L72.2166 40.801L72.2041 41.2007L72.1868 41.5997L72.1645 41.9984L72.1373 42.396L72.1052 42.7941L72.0689 43.1843L72.0272 43.5796L71.9805 43.9755L71.9291 44.3688L71.8728 44.7623L71.8129 45.1478L71.7468 45.5404L71.6764 45.9298L71.602 46.3143L71.5219 46.7026L71.4374 47.0883L71.349 47.4697L71.2534 47.86L71.156 48.2375L71.0545 48.6123L70.946 48.9943L70.8333 49.3731L70.7161 49.7507L70.5961 50.1209L70.469 50.497L70.3373 50.8718L70.2047 51.2351L70.0639 51.6065L69.9238 51.9633L69.7728 52.3341L69.6208 52.6947L69.4621 53.0589L69.3023 53.4135L69.1349 53.7736L68.9665 54.1241L68.7902 54.4802L68.608 54.837L68.4734 55.1753L68.404 55.5327L68.402 55.8968L68.4677 56.2548L68.5987 56.5946L68.7904 56.904L69.0363 57.1725L69.3277 57.3907L69.6545 57.5511L70.0054 57.6479L70.3682 57.6781L70.7304 57.6403L71.0791 57.536L71.4025 57.3688L71.6893 57.1445L71.9293 56.8708L72.0872 56.613L72.2765 56.2421L72.2819 56.2315L72.2873 56.2208L72.4723 55.847L72.4776 55.8363L72.4827 55.8257L72.6632 55.4497L72.6683 55.439L72.6734 55.4282L72.8492 55.0501L72.8542 55.0394L72.8591 55.0284L73.0303 54.6484L73.0352 54.6375L73.04 54.6266L73.2065 54.2445L73.2112 54.2336L73.2159 54.2226L73.3777 53.8385L73.3824 53.8275L73.3869 53.8164L73.544 53.4304L73.5485 53.4193L73.5529 53.4083L73.7053 53.0203L73.7097 53.0093L73.7139 52.9981L73.8616 52.6083L73.8659 52.5971L73.8699 52.586L74.0128 52.1943L74.017 52.1832L74.0209 52.1718L74.1591 51.7785L74.1631 51.7672L74.1669 51.756L74.3003 51.3608L74.3041 51.3495L74.3079 51.3382L74.4365 50.9414L74.4402 50.93L74.4437 50.9187L74.5675 50.5202L74.5711 50.5088L74.5745 50.4974L74.6934 50.0974L74.6968 50.0859L74.7001 50.0744L74.8142 49.6729L74.8175 49.6613L74.8206 49.6498L74.9298 49.2468L74.9329 49.2352L74.9359 49.2236L75.0402 48.8191L75.0432 48.8075L75.046 48.7959L75.1454 48.3899L75.1482 48.3783L75.1509 48.3667L75.2454 47.9593L75.2481 47.9476L75.2506 47.9359L75.3402 47.5272L75.3427 47.5156L75.345 47.5039L75.4296 47.0939L75.432 47.0821L75.4343 47.0704L75.5139 46.6592L75.5163 46.6474L75.5184 46.6357L75.5929 46.2232L75.5951 46.2114L75.5971 46.1996L75.6666 45.786L75.6686 45.7741L75.6705 45.7623L75.735 45.3476L75.7369 45.3358L75.7386 45.3239L75.798 44.9082L75.7997 44.8962L75.8013 44.8843L75.8556 44.4675L75.8573 44.4556L75.8586 44.4437L75.9079 44.0259L75.9094 44.0139L75.9106 44.002L75.9547 43.5832L75.956 43.5712L75.9572 43.5593L75.9962 43.1396L75.9973 43.1277L75.9982 43.1157L76.0321 42.6952L76.0331 42.6832L76.0339 42.6711L76.0626 42.2499L76.0636 42.2379L76.0642 42.2258L76.0879 41.8037L76.0885 41.7917L76.089 41.7796L76.1074 41.3569L76.1079 41.3448L76.1083 41.3327L76.1214 40.9093L76.1218 40.8972L76.1222 40.8851L76.1301 40.4611L76.1305 40.4489V40.4368L76.1331 40.0122L76.1321 40.0013L76.1331 39.9879L76.1305 39.5633V39.5512L76.1301 39.5391L76.1223 39.115L76.1219 39.1029L76.1215 39.0908L76.1083 38.6674L76.1079 38.6553L76.1074 38.6433L76.0932 38.3159L76.0435 37.9552L75.9279 37.61L75.7501 37.2923L75.5165 37.0131L75.2351 36.7821L74.9157 36.6073L74.5695 36.4948L74.2084 36.4486H74.2083ZM5.98551 37.739L5.62145 37.7425L5.26437 37.8136L4.92668 37.9496L4.62012 38.146L4.35531 38.3958L4.14152 38.6904L3.98605 39.0196L3.89441 39.372L3.86918 39.6732L3.86719 39.988V40.0122L3.86984 40.4368L3.86992 40.4489L3.87016 40.461L3.87801 40.8851L3.87824 40.8972L3.87863 40.9093L3.89176 41.3327L3.89215 41.3448L3.8927 41.3569L3.91105 41.7796L3.9116 41.7917L3.91223 41.8037L3.93578 42.2258L3.93648 42.2379L3.9373 42.2499L3.96602 42.6711L3.96684 42.6832L3.96781 42.6952L4.00172 43.1157L4.0027 43.1277L4.00387 43.1396L4.04281 43.5593L4.04398 43.5712L4.04527 43.5832L4.08941 44.002L4.09066 44.0139L4.09211 44.0259L4.14141 44.4437L4.14277 44.4556L4.14438 44.4675L4.19867 44.8843L4.20031 44.8962L4.20199 44.9082L4.26148 45.3239L4.26316 45.3358L4.265 45.3476L4.32953 45.7623L4.33137 45.7741L4.33336 45.786L4.40293 46.1996L4.40492 46.2114L4.40707 46.2232L4.4816 46.6357L4.48375 46.6474L4.48602 46.6591L4.56559 47.0704L4.56789 47.0821L4.57031 47.0939L4.65488 47.5039L4.6573 47.5156L4.65984 47.5272L4.74937 47.9359L4.75191 47.9477L4.75465 47.9593L4.8491 48.3667L4.85184 48.3783L4.85469 48.3899L4.9541 48.7959L4.95691 48.8075L4.95988 48.8191L5.06426 49.2236L5.06723 49.2352L5.07035 49.2468L5.17953 49.6498L5.18266 49.6613L5.18594 49.6729L5.3 50.0744L5.30328 50.0859L5.30672 50.0973L5.42566 50.4973L5.42902 50.5088L5.43262 50.5202L5.55637 50.9187L5.55996 50.93L5.56359 50.9414L5.69223 51.3382L5.6959 51.3495L5.69973 51.3608L5.83309 51.756L5.83688 51.7672L5.84086 51.7785L5.97914 52.1719L5.98301 52.1832L5.98711 52.1943L6.13008 52.586L6.13414 52.5971L6.13844 52.6083L6.28609 52.9981L6.29031 53.0093L6.29465 53.0203L6.44711 53.4083L6.45152 53.4193L6.45594 53.4304L6.61312 53.8164L6.61762 53.8275L6.62227 53.8385L6.7841 54.2226L6.78875 54.2336L6.79344 54.2445L6.96 54.6266L6.96477 54.6375L6.96969 54.6484L7.14082 55.0284L7.14578 55.0394L7.15074 55.0501L7.3266 55.4282L7.33168 55.439L7.33676 55.4497L7.51727 55.8257L7.52234 55.8363L7.52773 55.847L7.71273 56.2208L7.71809 56.2315L7.72348 56.2421L7.76973 56.3326L7.96473 56.6401L8.21336 56.906L8.50711 57.1211L8.83562 57.2779L9.1875 57.3711L9.55066 57.3974L9.9123 57.3558L10.26 57.2478L10.5815 57.0772L10.8659 56.8498L11.1031 56.5737L11.2849 56.2582L11.405 55.9145L11.4593 55.5546L11.4459 55.1908L11.3651 54.8358L11.2489 54.5568L11.2099 54.4803L11.0335 54.1241L10.8652 53.7736L10.6977 53.4134L10.5379 53.0589L10.3792 52.6947L10.2273 52.3341L10.0763 51.9633L9.93609 51.6065L9.79531 51.2351L9.66266 50.8718L9.53098 50.497L9.40394 50.1209L9.28395 49.7507L9.16668 49.3731L9.05398 48.9943L8.94551 48.6123L8.84402 48.2375L8.7466 47.86L8.65098 47.4697L8.56258 47.0883L8.47805 46.7026L8.39797 46.3143L8.32363 45.9299L8.2532 45.5404L8.18711 45.1478L8.12715 44.7623L8.07086 44.3688L8.01949 43.9755L7.97281 43.5796L7.93109 43.1843L7.89477 42.794L7.86266 42.396L7.83551 41.9984L7.81324 41.5997L7.7959 41.2007L7.78348 40.801L7.77598 40.4008L7.77355 40L7.77535 39.6974L7.74371 39.3347L7.64527 38.9842L7.48348 38.6582L7.26395 38.3677L6.99441 38.123L6.68414 37.9326L6.34387 37.8031L5.98551 37.7391V37.739ZM66.5048 42.3097L66.1409 42.3273L65.7869 42.4121L65.4547 42.561L65.1559 42.769L64.9009 43.0289L64.6986 43.3314L64.556 43.6665L64.4885 43.9522L64.488 43.9521L64.4866 43.9605V43.9616L64.4358 44.2635L64.3813 44.5653L64.3231 44.8654L64.2629 45.1575L64.1975 45.4559L64.1299 45.7475L64.0556 46.051L63.9813 46.3389L63.9015 46.6333L63.8193 46.9225L63.7325 47.2149L63.6439 47.5L63.55 47.7897L63.4526 48.0783L63.353 48.3619L63.2486 48.6479L63.1409 48.9322L63.03 49.2141L62.9153 49.496L62.7993 49.7711L62.6778 50.05L62.5542 50.3244L62.4284 50.595L62.2956 50.8714L62.162 51.1414L62.0225 51.4146L61.8821 51.6814L61.7399 51.9439L61.5904 52.2122L61.4403 52.474L61.2859 52.7357L61.1293 52.9939L60.9695 53.2502L60.8064 53.5048L60.6393 53.7589L60.468 54.0123L60.2927 54.265L60.12 54.5078L59.9384 54.7564L59.7566 54.9987L59.5664 55.246L59.4664 55.3728L59.2686 55.6783L59.1308 56.0153L59.058 56.3721L59.0527 56.7361L59.1151 57.0947L59.2429 57.4356L59.4317 57.7469L59.675 58.0177L59.9644 58.2386L60.2897 58.402L60.6397 58.5021L61.0022 58.5356L61.3647 58.5012L61.7144 58.4002L62.0393 58.236L62.3281 58.0144L62.5332 57.7922L62.643 57.653L62.6505 57.6435L62.6578 57.634L62.8584 57.3731L62.8657 57.3637L62.8729 57.3541L63.0702 57.091L63.0774 57.0814L63.0845 57.0717L63.2784 56.8064L63.2854 56.7967L63.2924 56.787L63.4828 56.5195L63.4898 56.5097L63.4966 56.4999L63.6836 56.2302L63.6904 56.2204L63.6971 56.2105L63.8807 55.9388L63.8874 55.9289L63.894 55.9189L64.0742 55.6452L64.0807 55.6352L64.0871 55.6251L64.2638 55.3493L64.2703 55.3392L64.2766 55.3291L64.4498 55.0513L64.4562 55.0411L64.4623 55.0309L64.632 54.7511L64.6382 54.7409L64.6443 54.7306L64.8105 54.4489L64.8166 54.4386L64.8225 54.4282L64.9852 54.1446L64.9911 54.1343L64.997 54.1239L65.1561 53.8384L65.1619 53.828L65.1676 53.8175L65.3232 53.5302L65.3289 53.5198L65.3344 53.5091L65.4864 53.2201L65.492 53.2095L65.4974 53.1989L65.6459 52.908L65.6513 52.8974L65.6566 52.8867L65.8015 52.5941L65.8068 52.5835L65.8119 52.5728L65.9532 52.2784L65.9583 52.2678L65.9634 52.2569L66.1011 51.961L66.106 51.9502L66.1109 51.9393L66.245 51.6418L66.2498 51.6309L66.2547 51.62L66.385 51.3209L66.3898 51.3099L66.3943 51.299L66.5211 50.9982L66.5257 50.9873L66.5302 50.9762L66.6532 50.674L66.6577 50.663L66.6621 50.6519L66.7814 50.3481L66.7858 50.3371L66.79 50.3259L66.9057 50.0207L66.9098 50.0096L66.914 49.9985L67.0259 49.6918L67.03 49.6806L67.0339 49.6694L67.1421 49.3614L67.1461 49.3502L67.1499 49.3389L67.2543 49.0295L67.2582 49.0183L67.2618 49.007L67.3625 48.6963L67.3663 48.685L67.3698 48.6736L67.4667 48.3617L67.4703 48.3503L67.4737 48.3389L67.5668 48.0257L67.5702 48.0142L67.5735 48.0028L67.6628 47.6884L67.6661 47.6768L67.6692 47.6654L67.7547 47.3498L67.7578 47.3382L67.7607 47.3268L67.8425 47.01L67.8454 46.9984L67.8482 46.9868L67.926 46.669L67.9288 46.6574L67.9315 46.6457L68.0055 46.3268L68.0082 46.3152L68.0107 46.3035L68.0808 45.9836L68.0834 45.9718L68.0858 45.9602L68.152 45.6392L68.1544 45.6275L68.1567 45.6157L68.219 45.2938L68.2213 45.282L68.2235 45.2703L68.2818 44.9473L68.284 44.9355L68.2859 44.9237L68.3405 44.6L68.3424 44.5882L68.3443 44.5762L68.3467 44.5612L68.3689 44.1978L68.3233 43.8366L68.2114 43.4901L68.0372 43.1705L67.8067 42.8887L67.5279 42.6546L67.2105 42.4763L66.8655 42.36L66.5049 42.3097H66.5048ZM19.3155 55.154L18.9554 55.2078L18.6116 55.3276L18.296 55.509L18.0195 55.7459L17.7919 56.03L17.6208 56.3514L17.5125 56.6989L17.4704 57.0605L17.4963 57.4237L17.5891 57.7757L17.7455 58.1044L17.92 58.3513L18.0094 58.4591L18.0171 58.4683L18.0249 58.4776L18.2389 58.729L18.2467 58.7382L18.2546 58.7473L18.472 58.9964L18.4799 59.0055L18.4879 59.0145L18.7084 59.2612L18.7166 59.2702L18.7247 59.2791L18.9486 59.5233L18.9567 59.5322L18.965 59.541L19.1921 59.7827L19.2004 59.7915L19.2088 59.8002L19.4392 60.0393L19.4476 60.048L19.4562 60.0566L19.6898 60.2931L19.6982 60.3017L19.7068 60.3103L19.9434 60.5439L19.952 60.5525L19.9607 60.5609L20.1998 60.7912L20.2086 60.7996L20.2174 60.8079L20.459 61.035L20.4679 61.0432L20.4767 61.0515L20.7209 61.2753L20.7299 61.2835L20.7389 61.2915L20.9855 61.5121L20.9945 61.5202L21.0036 61.5281L21.2527 61.7454L21.2618 61.7533L21.2709 61.7611L21.5225 61.9751L21.5316 61.9829L21.5409 61.9906L21.7948 62.2013L21.8041 62.2089L21.8135 62.2166L22.0697 62.4239L22.0791 62.4314L22.0885 62.4389L22.3471 62.6429L22.3565 62.6503L22.366 62.6576L22.6268 62.8583L22.6364 62.8656L22.646 62.8728L22.9091 63.07L22.9187 63.0773L22.9284 63.0843L23.1936 63.2781L23.2033 63.2852L23.2131 63.2921L23.4806 63.4826L23.4904 63.4896L23.5002 63.4964L23.7697 63.6834L23.7796 63.6903L23.7895 63.697L24.0613 63.8805L24.0712 63.8873L24.0812 63.8938L24.3549 64.0739L24.3649 64.0806L24.375 64.087L24.6507 64.2637L24.6608 64.2701L24.671 64.2764L24.9488 64.4496L24.9589 64.4559L24.9691 64.4622L25.2489 64.6319L25.2591 64.638L25.2694 64.6442L25.5511 64.8104L25.5614 64.8164L25.5717 64.8224L25.8554 64.985L25.8657 64.991L25.8761 64.9968L26.1616 65.1559L26.172 65.1618L26.1825 65.1674L26.4698 65.323L26.4803 65.3287L26.4908 65.3343L26.78 65.4863L26.7905 65.4919L26.8011 65.4973L27.092 65.6457L27.1025 65.6512L27.1132 65.6564L27.4058 65.8013L27.4165 65.8066L27.4273 65.8118L27.7215 65.9531L27.7323 65.9582L27.7431 65.9632L28.0391 66.1009L28.0498 66.1059L28.0607 66.1108L28.3583 66.2448L28.3691 66.2497L28.38 66.2544L28.6791 66.3848L28.6901 66.3895L28.7011 66.3942L29.0018 66.5209L29.0127 66.5255L29.0238 66.53L29.326 66.653L29.337 66.6576L29.3481 66.6619L29.6392 66.7763L29.9889 66.8773L30.3514 66.9116L30.7138 66.878L31.0639 66.7778L31.3891 66.6144L31.6785 66.3934L31.9217 66.1226L32.1105 65.8113L32.2383 65.4704L32.3006 65.1117L32.2952 64.7477L32.2223 64.3911L32.0845 64.054L31.8866 63.7485L31.6355 63.485L31.3398 63.2726L31.0678 63.1406L30.7879 63.0307L30.5039 62.9151L30.2288 62.7991L29.9529 62.6788L29.6807 62.5563L29.3976 62.4246L29.1287 62.2955L28.8586 62.1618L28.5878 62.0235L28.321 61.8833L28.0559 61.7397L27.7879 61.5903L27.5261 61.4401L27.2661 61.2867L27.0061 61.1291L26.7499 60.9694L26.4909 60.8034L26.2384 60.6373L25.9877 60.4679L25.739 60.2955L25.4885 60.117L25.24 59.9355L24.9946 59.7514L24.7541 59.5664L24.5187 59.3806L24.2796 59.1871L24.0421 58.9901L23.814 58.796L23.5782 58.5904L23.3511 58.3871L23.1266 58.1814L22.901 57.9693L22.6811 57.7575L22.4573 57.5365L22.2456 57.3221L22.0277 57.0959L21.8189 56.8738L21.6098 56.6457L21.4098 56.422L21.2066 56.189L21.007 55.9544L20.9262 55.857L20.6686 55.5997L20.3678 55.3947L20.0341 55.249L19.6792 55.1679L19.3155 55.1539V55.154ZM53.3336 61.2537L52.9709 61.2851L52.6204 61.383L52.3473 61.5127L52.2123 61.5901L51.944 61.7397L51.6789 61.8832L51.4121 62.0236L51.1413 62.1618L50.8713 62.2955L50.6023 62.4246L50.3193 62.5563L50.047 62.6788L49.7711 62.7991L49.496 62.915L49.2121 63.0307L48.9289 63.142L48.6497 63.2478L48.3618 63.3529L48.0801 63.4518L47.7896 63.5499L47.5055 63.642L47.2091 63.7341L46.9208 63.8197L46.6348 63.901L46.3405 63.9807L46.0452 64.0569L45.7544 64.128L45.4557 64.1974L45.1634 64.2614L44.8584 64.3243L44.5584 64.3823L44.2645 64.4355L43.9687 64.4852L43.6603 64.5332L43.363 64.5757L43.0591 64.6155L42.761 64.6506L42.4507 64.6834L42.145 64.7118L41.8454 64.7361L41.5328 64.7573L41.2261 64.7744L40.9245 64.7875L40.6167 64.7971L40.2993 64.8029L39.9375 64.8436L39.5896 64.9507L39.2676 65.1205L38.9827 65.3471L38.7448 65.6227L38.5621 65.9377L38.4411 66.281L38.3859 66.6409L38.3985 67.0047L38.4784 67.3598L38.6227 67.6941L38.8266 67.9957L39.0829 68.2542L39.3828 68.4606L39.7158 68.6079L40.0702 68.6907L40.372 68.7085L40.7007 68.7024L40.7128 68.7021L40.7249 68.7017L41.0564 68.6915L41.0685 68.6911L41.0806 68.6906L41.4114 68.6762L41.4236 68.6757L41.4357 68.675L41.766 68.6565L41.7781 68.6558L41.7901 68.655L42.12 68.6326L42.1319 68.6317L42.144 68.6307L42.4731 68.6042L42.4852 68.6033L42.4971 68.6021L42.8257 68.5715L42.8377 68.5705L42.8496 68.5692L43.1773 68.5346L43.1893 68.5333L43.2013 68.532L43.5283 68.4933L43.5403 68.492L43.5522 68.4904L43.8785 68.4478L43.8904 68.4463L43.9023 68.4445L44.2278 68.398L44.2397 68.3963L44.2515 68.3945L44.5762 68.3439L44.588 68.3421L44.5999 68.3402L44.9237 68.2857L44.9355 68.2837L44.9472 68.2815L45.2701 68.2231L45.282 68.221L45.2937 68.2188L45.6157 68.1564L45.6274 68.1541L45.6391 68.1518L45.96 68.0855L45.9718 68.0831L45.9835 68.0806L46.3034 68.0105L46.3151 68.0079L46.3267 68.0052L46.6456 67.9312L46.6573 67.9285L46.6689 67.9257L46.9867 67.8479L46.9983 67.845L47.0098 67.842L47.3266 67.7604L47.3381 67.7574L47.3496 67.7543L47.6653 67.6687L47.6768 67.6656L47.6882 67.6624L48.0027 67.5731L48.0141 67.5698L48.0255 67.5664L48.3388 67.4733L48.3502 67.4698L48.3615 67.4663L48.6735 67.3695L48.6849 67.3659L48.6962 67.3622L49.0068 67.2616L49.0182 67.2578L49.0295 67.254L49.3388 67.1496L49.3501 67.1457L49.3614 67.1418L49.6693 67.0337L49.6806 67.0297L49.6917 67.0256L49.9984 66.9137L50.0096 66.9096L50.0207 66.9053L50.3259 66.7898L50.337 66.7855L50.3481 66.7812L50.6518 66.6618L50.6629 66.6575L50.6739 66.653L50.9761 66.5299L50.9872 66.5254L50.9981 66.5208L51.2989 66.3941L51.3098 66.3894L51.3208 66.3847L51.6199 66.2543L51.6308 66.2496L51.6416 66.2447L51.9393 66.1107L51.9501 66.1058L51.9609 66.1007L52.2568 65.9631L52.2677 65.958L52.2784 65.953L52.5727 65.8117L52.5834 65.8065L52.5941 65.8012L52.8867 65.6563L52.8974 65.6511L52.908 65.6457L53.1988 65.4972L53.2094 65.4918L53.22 65.4862L53.5091 65.3341L53.5196 65.3286L53.5301 65.3229L53.8174 65.1673L53.828 65.1616L53.8383 65.1559L54.1238 64.9967L54.1343 64.9909L54.1446 64.985L54.291 64.901L54.5884 64.6912L54.8419 64.4298L55.0424 64.1259L55.183 63.7902L55.259 63.4341L55.2675 63.0702L55.2082 62.711L55.0834 62.369L54.8973 62.0561L54.6563 61.7832L54.3688 61.5598L54.045 61.3936L53.6959 61.2904L53.3336 61.2537V61.2537ZM18.1619 64.4302L17.8018 64.4837L17.4579 64.603L17.142 64.7841L16.8654 65.0207L16.6373 65.3045L16.4659 65.6257L16.3572 65.9731L16.3148 66.3348L16.3402 66.6979L16.4327 67.05L16.5888 67.3789L16.8032 67.6731L17.0202 67.8836L17.0912 67.9423L17.1004 67.9501L17.1098 67.9576L17.4371 68.2225L17.4465 68.2301L17.4559 68.2375L17.7862 68.498L17.7956 68.5055L17.8051 68.5128L18.1383 68.7691L18.1479 68.7764L18.1575 68.7836L18.4935 69.0355L18.5031 69.0427L18.5128 69.0498L18.8517 69.2974L18.8614 69.3045L18.8711 69.3114L19.2128 69.5548L19.2225 69.5617L19.2324 69.5686L19.5768 69.8075L19.5865 69.8142L19.5965 69.8209L19.9436 70.0555L19.9535 70.0622L19.9635 70.0687L20.3132 70.2988L20.3231 70.3054L20.3332 70.3119L20.6855 70.5376L20.6956 70.544L20.7058 70.5503L21.0606 70.7716L21.0707 70.7779L21.081 70.7841L21.4383 71.0009L21.4486 71.0071L21.4589 71.0131L21.8186 71.2254L21.8289 71.2316L21.8393 71.2375L22.2016 71.4452L22.212 71.4512L22.2223 71.457L22.587 71.6603L22.5975 71.6661L22.6079 71.6718L22.9749 71.8706L22.9854 71.8762L22.996 71.8818L23.3652 72.076L23.3758 72.0815L23.3864 72.087L23.758 72.2766L23.7686 72.2821L23.7793 72.2873L24.1529 72.4724L24.1636 72.4777L24.1744 72.4828L24.5503 72.6633L24.5611 72.6685L24.5718 72.6735L24.9498 72.8493L24.9607 72.8543L24.9715 72.8592L25.3516 73.0304L25.3625 73.0353L25.3734 73.0401L25.7555 73.2066L25.7665 73.2114L25.7774 73.2159L26.1615 73.3779L26.1725 73.3824L26.1835 73.3869L26.5697 73.5441L26.5806 73.5486L26.5918 73.5529L26.9797 73.7054L26.9908 73.7098L27.0019 73.714L27.3918 73.8617L27.4029 73.8659L27.4141 73.87L27.8057 74.013L27.8169 74.017L27.8281 74.021L28.2216 74.1593L28.2328 74.1632L28.2441 74.167L28.6392 74.3004L28.6505 74.3042L28.6618 74.3079L29.0586 74.4365L29.07 74.4402L29.0814 74.4437L29.4798 74.5675L29.4913 74.571L29.5026 74.5744L29.9027 74.6934L29.9141 74.6968L29.9256 74.7L30.3271 74.8141L30.3387 74.8174L30.3502 74.8205L30.7533 74.9297L30.7648 74.9329L30.7764 74.9359L31.1809 75.0402L31.1925 75.0432L31.2041 75.046L31.6102 75.1454L31.6218 75.1482L31.6333 75.151L32.0407 75.2454L32.0523 75.2481L32.064 75.2507L32.4227 75.3293L32.7841 75.3737L33.1473 75.3503L33.5 75.2599L33.8298 75.1056L34.1251 74.8927L34.3759 74.6288L34.5732 74.323L34.7105 73.9857L34.7828 73.6289L34.7875 73.2649L34.7247 72.9063L34.5964 72.5656L34.407 72.2546L34.1633 71.9843L33.8736 71.7638L33.548 71.6009L33.2586 71.5135L32.9116 71.4375L32.5316 71.3494L32.1457 71.2549L31.7639 71.1564L31.3821 71.053L31.0057 70.9461L30.6268 70.8334L30.2532 70.7173L29.8789 70.5961L29.503 70.4691L29.1358 70.3401L28.7627 70.2039L28.3989 70.066L28.0293 69.9208L27.6659 69.7729L27.3054 69.6209L26.9412 69.4622L26.5866 69.3025L26.2314 69.1373L25.8757 68.9666L25.5246 68.7927L25.1779 68.6157L24.8261 68.4308L24.4814 68.2441L24.134 68.0505L23.7938 67.8554L23.451 67.653L23.118 67.4511L22.7847 67.2432L22.4492 67.0284L22.1208 66.8123L21.7948 66.592L21.4673 66.3648L21.1464 66.1362L20.828 65.9036L20.5127 65.6672L20.1962 65.4238L19.8832 65.1768L19.576 64.9283L19.5146 64.8773L19.2139 64.672L18.8804 64.526L18.5257 64.4445L18.1619 64.4302ZM61.5562 64.6272L61.1928 64.6487L60.8397 64.7371L60.5091 64.8895L60.26 65.0609L60.1168 65.1768L59.8038 65.4238L59.4873 65.6672L59.1719 65.9036L58.8536 66.1362L58.5326 66.3648L58.2051 66.592L57.8791 66.8123L57.5507 67.0283L57.2152 67.2432L56.8819 67.4511L56.549 67.653L56.2061 67.8554L55.8659 68.0505L55.5185 68.2441L55.1738 68.4308L54.822 68.6157L54.4753 68.7927L54.1242 68.9665L53.7685 69.1373L53.4134 69.3025L53.0588 69.4622L52.6946 69.6209L52.334 69.7729L51.9706 69.9208L51.6011 70.066L51.2372 70.2039L50.8641 70.3401L50.497 70.4691L50.121 70.5961L49.7467 70.7173L49.3731 70.8334L48.9942 70.9461L48.6178 71.053L48.236 71.1565L47.8543 71.2549L47.4683 71.3495L47.0882 71.4375L46.707 71.5211L46.4566 71.5727L46.1084 71.6791L45.7861 71.8484L45.5007 72.0745L45.2623 72.3496L45.0791 72.6642L44.9575 73.0073L44.9016 73.3671L44.9134 73.7309L44.9927 74.0863L45.1364 74.4208L45.3398 74.7227L45.5956 74.9817L45.895 75.1888L46.2278 75.3365L46.5821 75.4201L46.9457 75.4364L47.2457 75.3984L47.5038 75.3452L47.5155 75.3428L47.5272 75.3402L47.9359 75.2507L47.9476 75.2481L47.9592 75.2454L48.3666 75.151L48.3782 75.1482L48.3898 75.1454L48.7958 75.046L48.8074 75.0432L48.819 75.0402L49.2235 74.9359L49.2351 74.9328L49.2466 74.9296L49.6497 74.8205L49.6612 74.8173L49.6727 74.8141L50.0743 74.6999L50.0858 74.6967L50.0972 74.6933L50.4973 74.5744L50.5087 74.5709L50.5201 74.5674L50.9186 74.4436L50.9299 74.4401L50.9413 74.4364L51.3381 74.3078L51.3494 74.3042L51.3607 74.3003L51.7559 74.1669L51.7672 74.163L51.7784 74.1591L52.1718 74.0209L52.183 74.017L52.1943 74.0129L52.5859 73.87L52.5971 73.8658L52.6082 73.8616L52.998 73.7139L53.0091 73.7097L53.0202 73.7053L53.4082 73.5528L53.4193 73.5485L53.4303 73.544L53.8164 73.3868L53.8274 73.3823L53.8384 73.3778L54.2225 73.2159L54.2334 73.2113L54.2444 73.2065L54.6265 73.04L54.6374 73.0352L54.6483 73.0303L55.0284 72.8591L55.0393 72.8542L55.0501 72.8492L55.4281 72.6734L55.4389 72.6684L55.4496 72.6632L55.8255 72.4827L55.8363 72.4776L55.847 72.4723L56.2207 72.2872L56.2313 72.282L56.242 72.2765L56.6135 72.0869L56.6241 72.0814L56.6347 72.076L57.004 71.8817L57.0145 71.8761L57.025 71.8705L57.392 71.6718L57.4025 71.666L57.4129 71.6602L57.7776 71.4569L57.788 71.4511L57.7984 71.4452L58.1606 71.2374L58.171 71.2314L58.1813 71.2253L58.5411 71.013L58.5514 71.007L58.5616 71.0008L58.9189 70.784L58.9292 70.7778L58.9393 70.7715L59.2942 70.5502L59.3043 70.5439L59.3144 70.5375L59.6667 70.3118L59.6768 70.3053L59.6868 70.2988L60.0364 70.0687L60.0464 70.0621L60.0563 70.0554L60.4034 69.8209L60.4134 69.8141L60.4232 69.8073L60.7675 69.5685L60.7774 69.5616L60.7871 69.5547L61.1288 69.3114L61.1386 69.3044L61.1483 69.2973L61.4872 69.0498L61.4968 69.0427L61.5064 69.0355L61.8425 68.7835L61.8521 68.7763L61.8616 68.769L62.1948 68.5127L62.2043 68.5054L62.2137 68.4979L62.544 68.2374L62.5534 68.23L62.5628 68.2223L62.7171 68.0975L62.9775 67.8432L63.1862 67.5449L63.3359 67.213L63.4215 66.8592L63.4399 66.4956L63.3905 66.135L63.275 65.7897L63.0974 65.4719L62.8639 65.1925L62.5827 64.9613L62.2634 64.7864L61.9173 64.6737L61.5562 64.6272Z" fill="#327B81"/>
</svg>
