<svg width="80" height="72" viewBox="0 0 80 72" fill="none" xmlns="http://www.w3.org/2000/svg">
<g clip-path="url(#clip0_32_2083)">
<path d="M54.444 8.94129H77.5745L79.9995 0.000112142H26.6662V49.1766H66.6662L69.0912 40.2354H54.444C53.8301 40.2354 53.3328 39.7353 53.3328 39.1178V36.8825C53.3328 36.265 53.8301 35.7648 54.444 35.7648H70.3023L72.7273 26.8236H54.444C53.8301 26.8236 53.3328 26.3235 53.3328 25.706V23.4707C53.3328 22.8532 53.8301 22.3531 54.444 22.3531H73.9384L76.3634 13.4119H54.444C53.8301 13.4119 53.3328 12.9117 53.3328 12.2942V10.0589C53.3328 9.44144 53.8301 8.94129 54.444 8.94129ZM22.0551 46.803L18.4745 37.9652C18.0884 37.0138 17.1134 36.4298 16.0801 36.5318L9.82591 37.1493C7.42591 30.5915 7.37452 23.2094 9.82591 16.5119L16.0801 17.1294C17.112 17.2314 18.0884 16.6461 18.4745 15.6961L22.0551 6.85827C22.4745 5.82585 22.0828 4.64394 21.1273 4.05438L15.6717 0.687465C13.6815 -0.54055 11.1231 -0.0697408 9.57591 1.67239C-3.28104 16.1459 -3.20187 37.9331 9.86757 52.3144C11.2384 53.8232 13.912 54.0579 15.6523 52.985L21.1259 49.6069C22.0828 49.0173 22.4731 47.8368 22.0551 46.803ZM66.6662 53.6472H26.6662C21.7565 53.6472 17.7773 57.6497 17.7773 62.5883V67.0589C17.7773 69.5275 19.7676 71.5295 22.2217 71.5295H71.1106C73.5648 71.5295 75.5551 69.5275 75.5551 67.0589V62.5883C75.5551 57.6497 71.5759 53.6472 66.6662 53.6472ZM46.6662 67.0589C44.212 67.0589 42.2217 65.0569 42.2217 62.5883C42.2217 60.1197 44.212 58.1178 46.6662 58.1178C49.1203 58.1178 51.1106 60.1197 51.1106 62.5883C51.1106 65.0569 49.1203 67.0589 46.6662 67.0589Z" fill="#327B81"/>
</g>
<defs>
<clipPath id="clip0_32_2083">
<rect width="80" height="71.5294" fill="white"/>
</clipPath>
</defs>
</svg>
