<svg width="143" height="37" viewBox="0 0 143 37" fill="none" xmlns="http://www.w3.org/2000/svg">
<g clip-path="url(#clip0_0_3628)">
<path fill-rule="evenodd" clip-rule="evenodd" d="M33.3604 3.06239C32.5407 2.59024 31.5263 2.45109 30.3928 2.68757C29.6939 2.83396 28.9488 3.12352 28.1761 3.56511C27.4342 3.99061 26.7239 4.52389 26.0509 5.14244L28.7809 6.71574C29.4539 6.0972 30.1642 5.56391 30.9053 5.13922C31.678 4.69683 32.4223 4.40726 33.122 4.26087C34.2555 4.02439 35.2699 4.16354 36.0896 4.6357L33.3604 3.06239Z" fill="#F0A72E"/>
<mask id="mask0_0_3628" style="mask-type:alpha" maskUnits="userSpaceOnUse" x="0" y="0" width="27" height="35">
<path fill-rule="evenodd" clip-rule="evenodd" d="M0 0.609169H26.4224V34.2347H0V0.609169Z" fill="white"/>
</mask>
<g mask="url(#mask0_0_3628)">
<path fill-rule="evenodd" clip-rule="evenodd" d="M23.6932 1.17282C22.7462 0.626667 21.5729 0.466602 20.2627 0.74008C19.4535 0.908993 18.5916 1.2436 17.6972 1.75597C16.2094 2.60858 14.8124 3.84728 13.601 5.31199C11.3721 8.00736 9.77157 11.4677 9.38401 14.6891C8.71509 14.8387 7.99833 15.1226 7.26292 15.5441C5.98022 16.2785 4.77617 17.345 3.73265 18.6063C1.49644 21.3065 -0.00842646 24.8971 -0.000318348 28.0228C0.00697895 30.3023 0.816979 31.9069 2.12482 32.6606L4.85401 34.2347C3.54536 33.4803 2.73536 31.8756 2.72887 29.5961C2.71995 26.4704 4.22563 22.8798 6.46103 20.1796C7.50536 18.9183 8.7086 17.8518 9.99211 17.1174C10.7267 16.6959 11.4443 16.412 12.1124 16.2624C12.5 13.041 14.1013 9.58067 16.3302 6.8853C17.5416 5.42058 18.9378 4.18188 20.4264 3.32928C21.32 2.81691 22.1818 2.4823 22.991 2.31338C24.3021 2.0391 25.4745 2.19997 26.4224 2.74612L23.6932 1.17282Z" fill="#F0A72E"/>
</g>
<path fill-rule="evenodd" clip-rule="evenodd" d="M20.4262 3.32944C24.6473 0.911568 28.1548 2.44465 28.7808 6.71574C29.4537 6.0972 30.164 5.56392 30.9051 5.13922C34.9283 2.83476 38.2024 4.68557 38.2154 9.27115C38.2283 13.8575 34.9754 19.4462 30.9521 21.7506L10.0389 33.729C6.00997 36.0366 2.74159 34.1826 2.72862 29.5962C2.71564 25.0098 5.96213 19.4252 9.99105 17.1176C10.7273 16.6961 11.444 16.4122 12.1121 16.2625C12.7105 11.2901 16.1986 5.75052 20.4262 3.32944" fill="#FFCA00"/>
<path fill-rule="evenodd" clip-rule="evenodd" d="M54.6759 5.31441C53.8562 4.84225 52.8418 4.7031 51.7083 4.93958C51.0086 5.08597 50.2643 5.37554 49.4907 5.81712C48.7497 6.24182 48.0394 6.77591 47.3664 7.39445L50.0956 8.96775C50.7686 8.34921 51.4789 7.81512 52.2207 7.39123C52.9926 6.94804 53.7378 6.65928 54.4367 6.51288C55.571 6.27641 56.5845 6.41556 57.4043 6.88771L54.6759 5.31441Z" fill="#D43E3E"/>
<path fill-rule="evenodd" clip-rule="evenodd" d="M45.0047 3.41977C44.0577 2.87361 42.8844 2.71274 41.5742 2.98622C40.765 3.15514 39.9047 3.48974 39.012 4.00131C37.529 4.8507 36.1361 6.08618 34.9271 7.54848C32.6966 10.2463 31.0928 13.713 30.7044 16.9376C30.0299 17.0905 29.3188 17.3712 28.5777 17.7959C27.2966 18.5294 26.0942 19.596 25.0507 20.8564C22.8144 23.5566 21.3063 27.1488 21.3153 30.2745C21.3217 32.5532 22.1334 34.1563 23.4404 34.9108L26.1696 36.4833C24.8617 35.7296 24.0501 34.1265 24.0436 31.8478C24.0347 28.7221 25.5436 25.1299 27.779 22.4297C28.8234 21.1685 30.0258 20.1027 31.3061 19.3692C32.0488 18.9445 32.759 18.6638 33.4336 18.5109C33.822 15.2855 35.4258 11.8196 37.6563 9.12179C38.8653 7.65948 40.2582 6.42401 41.7412 5.57381C42.6331 5.06305 43.4942 4.72844 44.3026 4.55953C45.6136 4.28605 46.7861 4.44692 47.7339 4.99307L45.0047 3.41977Z" fill="#D43E3E"/>
<path fill-rule="evenodd" clip-rule="evenodd" d="M41.7409 5.57397C45.9619 3.1569 49.4703 4.69643 50.0955 8.96751C50.7684 8.34897 51.4787 7.81569 52.2206 7.39099C56.2438 5.08653 59.5171 6.93734 59.5301 11.5229C59.543 16.1093 56.2909 21.6979 52.2676 24.0024L31.3536 35.9807C27.3311 38.2852 24.0571 36.4344 24.0441 31.848C24.0311 27.2616 27.2833 21.673 31.3065 19.3685C32.0484 18.9446 32.7595 18.6639 33.4333 18.5103C34.0317 13.5386 37.5198 7.99184 41.7409 5.57397" fill="#FA7564"/>
<path d="M86.6 14.04V28H83.8V18.92L80.06 28H77.94L74.18 18.92V28H71.38V14.04H74.56L79 24.42L83.44 14.04H86.6ZM88.2985 22.42C88.2985 21.3 88.5185 20.3067 88.9585 19.44C89.4118 18.5733 90.0185 17.9067 90.7785 17.44C91.5518 16.9733 92.4118 16.74 93.3585 16.74C94.1852 16.74 94.9052 16.9067 95.5185 17.24C96.1452 17.5733 96.6452 17.9933 97.0185 18.5V16.92H99.8385V28H97.0185V26.38C96.6585 26.9 96.1585 27.3333 95.5185 27.68C94.8918 28.0133 94.1652 28.18 93.3385 28.18C92.4052 28.18 91.5518 27.94 90.7785 27.46C90.0185 26.98 89.4118 26.3067 88.9585 25.44C88.5185 24.56 88.2985 23.5533 88.2985 22.42ZM97.0185 22.46C97.0185 21.78 96.8852 21.2 96.6185 20.72C96.3518 20.2267 95.9918 19.8533 95.5385 19.6C95.0852 19.3333 94.5985 19.2 94.0785 19.2C93.5585 19.2 93.0785 19.3267 92.6385 19.58C92.1985 19.8333 91.8385 20.2067 91.5585 20.7C91.2918 21.18 91.1585 21.7533 91.1585 22.42C91.1585 23.0867 91.2918 23.6733 91.5585 24.18C91.8385 24.6733 92.1985 25.0533 92.6385 25.32C93.0918 25.5867 93.5718 25.72 94.0785 25.72C94.5985 25.72 95.0852 25.5933 95.5385 25.34C95.9918 25.0733 96.3518 24.7 96.6185 24.22C96.8852 23.7267 97.0185 23.14 97.0185 22.46ZM105.023 18.64C105.383 18.0533 105.85 17.5933 106.423 17.26C107.01 16.9267 107.677 16.76 108.423 16.76V19.7H107.683C106.803 19.7 106.137 19.9067 105.683 20.32C105.243 20.7333 105.023 21.4533 105.023 22.48V28H102.223V16.92H105.023V18.64ZM113.22 19.22V24.58C113.22 24.9533 113.306 25.2267 113.48 25.4C113.666 25.56 113.973 25.64 114.4 25.64H115.7V28H113.94C111.58 28 110.4 26.8533 110.4 24.56V19.22H109.08V16.92H110.4V14.18H113.22V16.92H115.7V19.22H113.22ZM116.644 22.42C116.644 21.3 116.864 20.3067 117.304 19.44C117.757 18.5733 118.364 17.9067 119.124 17.44C119.897 16.9733 120.757 16.74 121.704 16.74C122.53 16.74 123.25 16.9067 123.864 17.24C124.49 17.5733 124.99 17.9933 125.364 18.5V16.92H128.184V28H125.364V26.38C125.004 26.9 124.504 27.3333 123.864 27.68C123.237 28.0133 122.51 28.18 121.684 28.18C120.75 28.18 119.897 27.94 119.124 27.46C118.364 26.98 117.757 26.3067 117.304 25.44C116.864 24.56 116.644 23.5533 116.644 22.42ZM125.364 22.46C125.364 21.78 125.23 21.2 124.964 20.72C124.697 20.2267 124.337 19.8533 123.884 19.6C123.43 19.3333 122.944 19.2 122.424 19.2C121.904 19.2 121.424 19.3267 120.984 19.58C120.544 19.8333 120.184 20.2067 119.904 20.7C119.637 21.18 119.504 21.7533 119.504 22.42C119.504 23.0867 119.637 23.6733 119.904 24.18C120.184 24.6733 120.544 25.0533 120.984 25.32C121.437 25.5867 121.917 25.72 122.424 25.72C122.944 25.72 123.43 25.5933 123.884 25.34C124.337 25.0733 124.697 24.7 124.964 24.22C125.23 23.7267 125.364 23.14 125.364 22.46ZM133.329 14.04V22.68C133.329 23.6267 133.575 24.3533 134.069 24.86C134.562 25.3533 135.255 25.6 136.149 25.6C137.055 25.6 137.755 25.3533 138.249 24.86C138.742 24.3533 138.989 23.6267 138.989 22.68V14.04H141.809V22.66C141.809 23.8467 141.549 24.8533 141.029 25.68C140.522 26.4933 139.835 27.1067 138.969 27.52C138.115 27.9333 137.162 28.14 136.109 28.14C135.069 28.14 134.122 27.9333 133.269 27.52C132.429 27.1067 131.762 26.4933 131.269 25.68C130.775 24.8533 130.529 23.8467 130.529 22.66V14.04H133.329ZM154.344 18.36C154.344 19.1067 154.164 19.8067 153.804 20.46C153.457 21.1133 152.904 21.64 152.144 22.04C151.397 22.44 150.451 22.64 149.304 22.64H146.964V28H144.164V14.04H149.304C150.384 14.04 151.304 14.2267 152.064 14.6C152.824 14.9733 153.391 15.4867 153.764 16.14C154.151 16.7933 154.344 17.5333 154.344 18.36ZM149.184 20.38C149.957 20.38 150.531 20.2067 150.904 19.86C151.277 19.5 151.464 19 151.464 18.36C151.464 17 150.704 16.32 149.184 16.32H146.964V20.38H149.184Z" fill="white"/>
</g>
<defs>
<clipPath id="clip0_0_3628">
<rect width="143" height="37" fill="white"/>
</clipPath>
</defs>
</svg>
