<svg width="194" height="40" viewBox="0 0 194 40" fill="none" xmlns="http://www.w3.org/2000/svg">
<path fill-rule="evenodd" clip-rule="evenodd" d="M0 2L27.2381 35C36.4954 35 44 27.6127 44 18.5C44 9.3873 36.4954 2 27.2381 2H0ZM29.1191 30.7374C35.1698 29.8438 39.8095 24.7053 39.8095 18.5C39.8095 11.6655 34.1811 6.125 27.2381 6.125H20.3412C23.3272 9.40906 25.1429 13.7458 25.1429 18.5C25.1429 20.65 24.7708 22.7169 24.0862 24.6399L29.1191 30.7374ZM20.7914 20.6481C20.8974 19.9476 20.9524 19.2303 20.9524 18.5C20.9524 13.2482 18.1037 8.65135 13.8445 6.125H8.80407L20.7914 20.6481Z" fill="#8B5CF6"/>
<path d="M63.78 2.8V4.64H59.26V16H57.12V4.64H52.6V2.8H63.78ZM64.9303 16V1.5H67.0703V7.6C67.4036 6.97333 67.8503 6.52 68.4103 6.24C68.9836 5.94667 69.617 5.8 70.3103 5.8C71.017 5.8 71.6503 5.94 72.2103 6.22C72.7836 6.48667 73.237 6.9 73.5703 7.46C73.9036 8.00667 74.0703 8.69333 74.0703 9.52V16H71.9303V10.2C71.9303 9.2 71.7236 8.51333 71.3103 8.14C70.9103 7.75333 70.4036 7.56 69.7903 7.56C69.3503 7.56 68.9236 7.66667 68.5103 7.88C68.097 8.08 67.7503 8.41333 67.4703 8.88C67.2036 9.33333 67.0703 9.94667 67.0703 10.72V16H64.9303ZM80.9131 16.2C79.9131 16.2 79.0331 15.9933 78.2731 15.58C77.5265 15.1667 76.9398 14.5733 76.5131 13.8C76.0865 13.0133 75.8731 12.08 75.8731 11C75.8731 9.92 76.0798 8.99333 76.4931 8.22C76.9198 7.43333 77.4998 6.83333 78.2331 6.42C78.9798 6.00667 79.8331 5.8 80.7931 5.8C81.7665 5.8 82.5931 6 83.2731 6.4C83.9531 6.8 84.4731 7.34667 84.8331 8.04C85.1931 8.73333 85.3731 9.52 85.3731 10.4C85.3731 10.6533 85.3665 10.8867 85.3531 11.1C85.3398 11.3133 85.3198 11.4933 85.2931 11.64H77.9731C78.0665 12.5733 78.3665 13.2867 78.8731 13.78C79.3931 14.26 80.0598 14.5 80.8731 14.5C81.5398 14.5 82.0798 14.3733 82.4931 14.12C82.9065 13.8667 83.2331 13.5133 83.4731 13.06L85.1731 13.86C84.8265 14.5933 84.2731 15.1667 83.5131 15.58C82.7665 15.9933 81.8998 16.2 80.9131 16.2ZM80.7531 7.5C80.0198 7.5 79.4131 7.71333 78.9331 8.14C78.4665 8.56667 78.1665 9.18667 78.0331 10H83.2931C83.2398 9.2 82.9865 8.58667 82.5331 8.16C82.0798 7.72 81.4865 7.5 80.7531 7.5ZM97.9395 2.8C100.006 2.8 101.613 3.37333 102.76 4.52C103.92 5.65333 104.5 7.28 104.5 9.4C104.5 11.52 103.92 13.1533 102.76 14.3C101.613 15.4333 100.006 16 97.9395 16H93.2795V2.8H97.9395ZM97.9395 14.18C99.3395 14.18 100.406 13.7667 101.14 12.94C101.886 12.1 102.26 10.92 102.26 9.4C102.26 7.88 101.886 6.70667 101.14 5.88C100.406 5.04 99.3395 4.62 97.9395 4.62H95.4195V14.18H97.9395ZM112.315 9.58C112.315 8.91333 112.128 8.4 111.755 8.04C111.395 7.66667 110.895 7.48 110.255 7.48C109.655 7.48 109.135 7.62 108.695 7.9C108.268 8.18 107.962 8.63333 107.775 9.26L105.975 8.5C106.228 7.68667 106.722 7.03333 107.455 6.54C108.202 6.04667 109.162 5.8 110.335 5.8C111.122 5.8 111.822 5.93333 112.435 6.2C113.062 6.45333 113.548 6.84667 113.895 7.38C114.255 7.9 114.435 8.56 114.435 9.36V13.82C114.435 14.3133 114.682 14.56 115.175 14.56C115.415 14.56 115.648 14.5267 115.875 14.46L115.755 15.94C115.448 16.0867 115.062 16.16 114.595 16.16C114.062 16.16 113.602 16.04 113.215 15.8C112.828 15.56 112.568 15.2 112.435 14.72C112.115 15.2133 111.655 15.5867 111.055 15.84C110.455 16.08 109.855 16.2 109.255 16.2C108.308 16.2 107.522 15.9733 106.895 15.52C106.268 15.0667 105.955 14.3867 105.955 13.48C105.955 12.7467 106.195 12.14 106.675 11.66C107.168 11.18 107.862 10.8467 108.755 10.66L112.315 9.96V9.58ZM108.115 13.32C108.115 13.6933 108.255 13.9933 108.535 14.22C108.828 14.4333 109.215 14.54 109.695 14.54C110.148 14.54 110.575 14.4667 110.975 14.32C111.375 14.1733 111.695 13.9333 111.935 13.6C112.188 13.2667 112.315 12.8333 112.315 12.3V11.46L109.795 11.98C109.222 12.0867 108.795 12.24 108.515 12.44C108.248 12.64 108.115 12.9333 108.115 13.32ZM125.316 6L120.936 17.18C120.496 18.34 119.996 19.1467 119.436 19.6C118.876 20.0667 118.156 20.3 117.276 20.3C116.782 20.3 116.336 20.24 115.936 20.12C115.536 20 115.182 19.8267 114.876 19.6L115.396 17.94C115.876 18.3667 116.456 18.58 117.136 18.58C117.496 18.58 117.816 18.4867 118.096 18.3C118.389 18.1133 118.649 17.7267 118.876 17.14L119.316 16.06L118.256 13.58L115.136 6H117.536L119.756 12.28L120.336 14.16L120.996 12.1L123.096 6H125.316ZM131.857 16V2.8H137.057C138.644 2.8 139.804 3.12 140.537 3.76C141.27 4.4 141.637 5.28667 141.637 6.42C141.637 7.11333 141.437 7.73333 141.037 8.28C140.637 8.81333 140.05 9.15333 139.277 9.3V9.32C140.13 9.46667 140.79 9.82 141.257 10.38C141.737 10.94 141.977 11.5933 141.977 12.34C141.977 13.4733 141.564 14.3667 140.737 15.02C139.91 15.6733 138.71 16 137.137 16H131.857ZM133.957 8.48H136.897C138.577 8.48 139.417 7.83333 139.417 6.54C139.417 5.24667 138.577 4.6 136.897 4.6H133.957V8.48ZM133.957 14.22H137.237C138.077 14.22 138.704 14.0467 139.117 13.7C139.544 13.3533 139.757 12.8667 139.757 12.24C139.757 11.6133 139.544 11.1267 139.117 10.78C138.704 10.4333 138.077 10.26 137.237 10.26H133.957V14.22ZM148.399 16.2C147.399 16.2 146.519 15.9933 145.759 15.58C145.012 15.1667 144.426 14.5733 143.999 13.8C143.572 13.0133 143.359 12.08 143.359 11C143.359 9.92 143.566 8.99333 143.979 8.22C144.406 7.43333 144.986 6.83333 145.719 6.42C146.466 6.00667 147.319 5.8 148.279 5.8C149.252 5.8 150.079 6 150.759 6.4C151.439 6.8 151.959 7.34667 152.319 8.04C152.679 8.73333 152.859 9.52 152.859 10.4C152.859 10.6533 152.852 10.8867 152.839 11.1C152.826 11.3133 152.806 11.4933 152.779 11.64H145.459C145.552 12.5733 145.852 13.2867 146.359 13.78C146.879 14.26 147.546 14.5 148.359 14.5C149.026 14.5 149.566 14.3733 149.979 14.12C150.392 13.8667 150.719 13.5133 150.959 13.06L152.659 13.86C152.312 14.5933 151.759 15.1667 150.999 15.58C150.252 15.9933 149.386 16.2 148.399 16.2ZM148.239 7.5C147.506 7.5 146.899 7.71333 146.419 8.14C145.952 8.56667 145.652 9.18667 145.519 10H150.779C150.726 9.2 150.472 8.58667 150.019 8.16C149.566 7.72 148.972 7.5 148.239 7.5ZM160.542 9.58C160.542 8.91333 160.355 8.4 159.982 8.04C159.622 7.66667 159.122 7.48 158.482 7.48C157.882 7.48 157.362 7.62 156.922 7.9C156.495 8.18 156.188 8.63333 156.002 9.26L154.202 8.5C154.455 7.68667 154.948 7.03333 155.682 6.54C156.428 6.04667 157.388 5.8 158.562 5.8C159.348 5.8 160.048 5.93333 160.662 6.2C161.288 6.45333 161.775 6.84667 162.122 7.38C162.482 7.9 162.662 8.56 162.662 9.36V13.82C162.662 14.3133 162.908 14.56 163.402 14.56C163.642 14.56 163.875 14.5267 164.102 14.46L163.982 15.94C163.675 16.0867 163.288 16.16 162.822 16.16C162.288 16.16 161.828 16.04 161.442 15.8C161.055 15.56 160.795 15.2 160.662 14.72C160.342 15.2133 159.882 15.5867 159.282 15.84C158.682 16.08 158.082 16.2 157.482 16.2C156.535 16.2 155.748 15.9733 155.122 15.52C154.495 15.0667 154.182 14.3867 154.182 13.48C154.182 12.7467 154.422 12.14 154.902 11.66C155.395 11.18 156.088 10.8467 156.982 10.66L160.542 9.96V9.58ZM156.342 13.32C156.342 13.6933 156.482 13.9933 156.762 14.22C157.055 14.4333 157.442 14.54 157.922 14.54C158.375 14.54 158.802 14.4667 159.202 14.32C159.602 14.1733 159.922 13.9333 160.162 13.6C160.415 13.2667 160.542 12.8333 160.542 12.3V11.46L158.022 11.98C157.448 12.0867 157.022 12.24 156.742 12.44C156.475 12.64 156.342 12.9333 156.342 13.32ZM168.928 16.2C168.274 16.2 167.668 16.08 167.108 15.84C166.561 15.6 166.121 15.2133 165.788 14.68C165.454 14.1467 165.288 13.4533 165.288 12.6V6H167.428V12.06C167.428 12.9667 167.614 13.5933 167.988 13.94C168.374 14.2733 168.921 14.44 169.628 14.44C170.081 14.44 170.508 14.34 170.908 14.14C171.308 13.9267 171.628 13.6 171.868 13.16C172.121 12.7067 172.248 12.1267 172.248 11.42V6H174.388V16H172.508L172.408 14.38C172.061 15.0067 171.594 15.4667 171.008 15.76C170.421 16.0533 169.728 16.2 168.928 16.2ZM183.291 6V7.68H179.851V13C179.851 13.48 179.984 13.84 180.251 14.08C180.518 14.3067 180.864 14.42 181.291 14.42C181.664 14.42 181.978 14.3667 182.231 14.26C182.498 14.14 182.744 13.98 182.971 13.78L183.451 15.34C183.144 15.6067 182.764 15.82 182.311 15.98C181.871 16.1267 181.378 16.2 180.831 16.2C179.951 16.2 179.211 15.9867 178.611 15.56C178.011 15.12 177.711 14.3867 177.711 13.36V7.68H175.791V6H177.711V3.66L179.851 3.06V6H183.291ZM193.388 6L189.008 17.18C188.568 18.34 188.068 19.1467 187.508 19.6C186.948 20.0667 186.228 20.3 185.348 20.3C184.854 20.3 184.408 20.24 184.008 20.12C183.608 20 183.254 19.8267 182.948 19.6L183.468 17.94C183.948 18.3667 184.528 18.58 185.208 18.58C185.568 18.58 185.888 18.4867 186.168 18.3C186.461 18.1133 186.721 17.7267 186.948 17.14L187.388 16.06L186.328 13.58L183.208 6H185.608L187.828 12.28L188.408 14.16L189.068 12.1L191.168 6H193.388Z" fill="#8B5CF6"/>
<path d="M53.176 35V27.08H56.296C57.248 27.08 57.944 27.272 58.384 27.656C58.824 28.04 59.044 28.572 59.044 29.252C59.044 29.668 58.924 30.04 58.684 30.368C58.444 30.688 58.092 30.892 57.628 30.98V30.992C58.14 31.08 58.536 31.292 58.816 31.628C59.104 31.964 59.248 32.356 59.248 32.804C59.248 33.484 59 34.02 58.504 34.412C58.008 34.804 57.288 35 56.344 35H53.176ZM54.436 30.488H56.2C57.208 30.488 57.712 30.1 57.712 29.324C57.712 28.548 57.208 28.16 56.2 28.16H54.436V30.488ZM54.436 33.932H56.404C56.908 33.932 57.284 33.828 57.532 33.62C57.788 33.412 57.916 33.12 57.916 32.744C57.916 32.368 57.788 32.076 57.532 31.868C57.284 31.66 56.908 31.556 56.404 31.556H54.436V33.932ZM63.1013 35.12C62.5013 35.12 61.9733 34.996 61.5173 34.748C61.0693 34.5 60.7173 34.144 60.4613 33.68C60.2053 33.208 60.0773 32.648 60.0773 32C60.0773 31.352 60.2013 30.796 60.4493 30.332C60.7053 29.86 61.0533 29.5 61.4933 29.252C61.9413 29.004 62.4533 28.88 63.0293 28.88C63.6133 28.88 64.1093 29 64.5173 29.24C64.9253 29.48 65.2373 29.808 65.4533 30.224C65.6693 30.64 65.7773 31.112 65.7773 31.64C65.7773 31.792 65.7733 31.932 65.7653 32.06C65.7573 32.188 65.7453 32.296 65.7293 32.384H61.3373C61.3933 32.944 61.5733 33.372 61.8773 33.668C62.1893 33.956 62.5893 34.1 63.0773 34.1C63.4773 34.1 63.8013 34.024 64.0493 33.872C64.2973 33.72 64.4933 33.508 64.6373 33.236L65.6573 33.716C65.4493 34.156 65.1173 34.5 64.6613 34.748C64.2133 34.996 63.6933 35.12 63.1013 35.12ZM63.0053 29.9C62.5653 29.9 62.2013 30.028 61.9133 30.284C61.6333 30.54 61.4533 30.912 61.3733 31.4H64.5293C64.4973 30.92 64.3453 30.552 64.0733 30.296C63.8013 30.032 63.4453 29.9 63.0053 29.9ZM70.3868 31.148C70.3868 30.748 70.2748 30.44 70.0508 30.224C69.8348 30 69.5348 29.888 69.1508 29.888C68.7908 29.888 68.4788 29.972 68.2148 30.14C67.9588 30.308 67.7748 30.58 67.6628 30.956L66.5828 30.5C66.7348 30.012 67.0308 29.62 67.4708 29.324C67.9188 29.028 68.4948 28.88 69.1988 28.88C69.6708 28.88 70.0908 28.96 70.4588 29.12C70.8348 29.272 71.1268 29.508 71.3348 29.828C71.5508 30.14 71.6588 30.536 71.6588 31.016V33.692C71.6588 33.988 71.8068 34.136 72.1028 34.136C72.2468 34.136 72.3868 34.116 72.5228 34.076L72.4508 34.964C72.2668 35.052 72.0348 35.096 71.7548 35.096C71.4348 35.096 71.1588 35.024 70.9268 34.88C70.6948 34.736 70.5388 34.52 70.4588 34.232C70.2668 34.528 69.9908 34.752 69.6308 34.904C69.2708 35.048 68.9108 35.12 68.5508 35.12C67.9828 35.12 67.5108 34.984 67.1348 34.712C66.7588 34.44 66.5708 34.032 66.5708 33.488C66.5708 33.048 66.7148 32.684 67.0028 32.396C67.2988 32.108 67.7148 31.908 68.2508 31.796L70.3868 31.376V31.148ZM67.8668 33.392C67.8668 33.616 67.9508 33.796 68.1188 33.932C68.2948 34.06 68.5268 34.124 68.8148 34.124C69.0868 34.124 69.3428 34.08 69.5828 33.992C69.8228 33.904 70.0148 33.76 70.1588 33.56C70.3108 33.36 70.3868 33.1 70.3868 32.78V32.276L68.8748 32.588C68.5308 32.652 68.2748 32.744 68.1068 32.864C67.9468 32.984 67.8668 33.16 67.8668 33.392ZM75.4186 35.12C75.0266 35.12 74.6626 35.048 74.3266 34.904C73.9986 34.76 73.7346 34.528 73.5346 34.208C73.3346 33.888 73.2346 33.472 73.2346 32.96V29H74.5186V32.636C74.5186 33.18 74.6306 33.556 74.8546 33.764C75.0866 33.964 75.4146 34.064 75.8386 34.064C76.1106 34.064 76.3666 34.004 76.6066 33.884C76.8466 33.756 77.0386 33.56 77.1826 33.296C77.3346 33.024 77.4106 32.676 77.4106 32.252V29H78.6946V35H77.5666L77.5066 34.028C77.2986 34.404 77.0186 34.68 76.6666 34.856C76.3146 35.032 75.8986 35.12 75.4186 35.12ZM84.0365 29V30.008H81.9725V33.2C81.9725 33.488 82.0525 33.704 82.2125 33.848C82.3725 33.984 82.5805 34.052 82.8365 34.052C83.0605 34.052 83.2485 34.02 83.4005 33.956C83.5605 33.884 83.7085 33.788 83.8445 33.668L84.1325 34.604C83.9485 34.764 83.7205 34.892 83.4485 34.988C83.1845 35.076 82.8885 35.12 82.5605 35.12C82.0325 35.12 81.5885 34.992 81.2285 34.736C80.8685 34.472 80.6885 34.032 80.6885 33.416V30.008H79.5365V29H80.6885V27.596L81.9725 27.236V29H84.0365ZM90.0945 29L87.4665 35.708C87.2025 36.404 86.9025 36.888 86.5665 37.16C86.2305 37.44 85.7985 37.58 85.2705 37.58C84.9745 37.58 84.7065 37.544 84.4665 37.472C84.2265 37.4 84.0145 37.296 83.8305 37.16L84.1425 36.164C84.4305 36.42 84.7785 36.548 85.1865 36.548C85.4025 36.548 85.5945 36.492 85.7625 36.38C85.9385 36.268 86.0945 36.036 86.2305 35.684L86.4945 35.036L85.8585 33.548L83.9865 29H85.4265L86.7585 32.768L87.1065 33.896L87.5025 32.66L88.7625 29H90.0945ZM95.9391 35.12C95.1311 35.12 94.4951 34.924 94.0311 34.532C93.5671 34.14 93.3351 33.62 93.3351 32.972C93.3351 32.516 93.4591 32.088 93.7071 31.688C93.9551 31.288 94.4191 30.948 95.0991 30.668C94.7871 30.26 94.5711 29.924 94.4511 29.66C94.3391 29.388 94.2831 29.1 94.2831 28.796C94.2831 28.5 94.3551 28.212 94.4991 27.932C94.6511 27.644 94.8831 27.412 95.1951 27.236C95.5071 27.052 95.9111 26.96 96.4071 26.96C96.9991 26.96 97.4631 27.12 97.7991 27.44C98.1351 27.752 98.3031 28.152 98.3031 28.64C98.3031 29.064 98.1831 29.456 97.9431 29.816C97.7111 30.168 97.2631 30.508 96.5991 30.836C96.7111 30.972 96.8311 31.12 96.9591 31.28C97.0871 31.432 97.2311 31.604 97.3911 31.796C97.5671 32.012 97.7311 32.212 97.8831 32.396C98.0431 32.572 98.1871 32.736 98.3151 32.888C98.4591 32.608 98.5671 32.296 98.6391 31.952C98.7191 31.608 98.7431 31.228 98.7111 30.812L99.7071 30.872C99.7231 31.36 99.6671 31.832 99.5391 32.288C99.4111 32.744 99.2071 33.156 98.9271 33.524C99.2231 33.812 99.4751 34 99.6831 34.088C99.8991 34.168 100.147 34.2 100.427 34.184L100.199 35.12C99.9751 35.12 99.7631 35.1 99.5631 35.06C99.3711 35.02 99.1711 34.94 98.9631 34.82C98.7631 34.7 98.5311 34.516 98.2671 34.268C97.9791 34.532 97.6431 34.74 97.2591 34.892C96.8751 35.044 96.4351 35.12 95.9391 35.12ZM95.4351 28.808C95.4351 28.936 95.4511 29.06 95.4831 29.18C95.5151 29.3 95.5791 29.44 95.6751 29.6C95.7711 29.752 95.9151 29.956 96.1071 30.212C96.5071 29.98 96.7951 29.76 96.9711 29.552C97.1551 29.336 97.2471 29.072 97.2471 28.76C97.2471 28.496 97.1671 28.292 97.0071 28.148C96.8471 28.004 96.6351 27.932 96.3711 27.932C96.0511 27.932 95.8151 28.02 95.6631 28.196C95.5111 28.372 95.4351 28.576 95.4351 28.808ZM94.4991 32.864C94.4991 33.272 94.6511 33.592 94.9551 33.824C95.2591 34.056 95.6351 34.172 96.0831 34.172C96.4111 34.172 96.6991 34.128 96.9471 34.04C97.1951 33.952 97.4271 33.824 97.6431 33.656C97.3631 33.352 97.0271 32.968 96.6351 32.504C96.4351 32.272 96.2471 32.056 96.0711 31.856C95.9031 31.656 95.7511 31.472 95.6151 31.304C95.1831 31.544 94.8871 31.78 94.7271 32.012C94.5751 32.236 94.4991 32.52 94.4991 32.864ZM107.969 29V30.008H105.905V33.2C105.905 33.488 105.985 33.704 106.145 33.848C106.305 33.984 106.513 34.052 106.769 34.052C106.993 34.052 107.181 34.02 107.333 33.956C107.493 33.884 107.641 33.788 107.777 33.668L108.065 34.604C107.881 34.764 107.653 34.892 107.381 34.988C107.117 35.076 106.821 35.12 106.493 35.12C105.965 35.12 105.521 34.992 105.161 34.736C104.801 34.472 104.621 34.032 104.621 33.416V30.008H103.469V29H104.621V27.596L105.905 27.236V29H107.969ZM108.759 35V29H109.851L109.971 30.08C110.299 29.28 110.927 28.88 111.855 28.88C111.975 28.88 112.095 28.892 112.215 28.916C112.335 28.932 112.435 28.96 112.515 29L112.335 30.128C112.247 30.096 112.147 30.072 112.035 30.056C111.931 30.032 111.787 30.02 111.603 30.02C111.347 30.02 111.099 30.088 110.859 30.224C110.627 30.352 110.431 30.552 110.271 30.824C110.119 31.088 110.043 31.42 110.043 31.82V35H108.759ZM115.735 35.12C115.135 35.12 114.607 34.996 114.151 34.748C113.703 34.5 113.351 34.144 113.095 33.68C112.839 33.208 112.711 32.648 112.711 32C112.711 31.352 112.835 30.796 113.083 30.332C113.339 29.86 113.687 29.5 114.127 29.252C114.575 29.004 115.087 28.88 115.663 28.88C116.247 28.88 116.743 29 117.151 29.24C117.559 29.48 117.871 29.808 118.087 30.224C118.303 30.64 118.411 31.112 118.411 31.64C118.411 31.792 118.407 31.932 118.399 32.06C118.391 32.188 118.379 32.296 118.363 32.384H113.971C114.027 32.944 114.207 33.372 114.511 33.668C114.823 33.956 115.223 34.1 115.711 34.1C116.111 34.1 116.435 34.024 116.683 33.872C116.931 33.72 117.127 33.508 117.271 33.236L118.291 33.716C118.083 34.156 117.751 34.5 117.295 34.748C116.847 34.996 116.327 35.12 115.735 35.12ZM115.639 29.9C115.199 29.9 114.835 30.028 114.547 30.284C114.267 30.54 114.087 30.912 114.007 31.4H117.163C117.131 30.92 116.979 30.552 116.707 30.296C116.435 30.032 116.079 29.9 115.639 29.9ZM123.02 31.148C123.02 30.748 122.908 30.44 122.684 30.224C122.468 30 122.168 29.888 121.784 29.888C121.424 29.888 121.112 29.972 120.848 30.14C120.592 30.308 120.408 30.58 120.296 30.956L119.216 30.5C119.368 30.012 119.664 29.62 120.104 29.324C120.552 29.028 121.128 28.88 121.832 28.88C122.304 28.88 122.724 28.96 123.092 29.12C123.468 29.272 123.76 29.508 123.968 29.828C124.184 30.14 124.292 30.536 124.292 31.016V33.692C124.292 33.988 124.44 34.136 124.736 34.136C124.88 34.136 125.02 34.116 125.156 34.076L125.084 34.964C124.9 35.052 124.668 35.096 124.388 35.096C124.068 35.096 123.792 35.024 123.56 34.88C123.328 34.736 123.172 34.52 123.092 34.232C122.9 34.528 122.624 34.752 122.264 34.904C121.904 35.048 121.544 35.12 121.184 35.12C120.616 35.12 120.144 34.984 119.768 34.712C119.392 34.44 119.204 34.032 119.204 33.488C119.204 33.048 119.348 32.684 119.636 32.396C119.932 32.108 120.348 31.908 120.884 31.796L123.02 31.376V31.148ZM120.5 33.392C120.5 33.616 120.584 33.796 120.752 33.932C120.928 34.06 121.16 34.124 121.448 34.124C121.72 34.124 121.976 34.08 122.216 33.992C122.456 33.904 122.648 33.76 122.792 33.56C122.944 33.36 123.02 33.1 123.02 32.78V32.276L121.508 32.588C121.164 32.652 120.908 32.744 120.74 32.864C120.58 32.984 120.5 33.16 120.5 33.392ZM129.498 29V30.008H127.434V33.2C127.434 33.488 127.514 33.704 127.674 33.848C127.834 33.984 128.042 34.052 128.298 34.052C128.522 34.052 128.71 34.02 128.862 33.956C129.022 33.884 129.17 33.788 129.306 33.668L129.594 34.604C129.41 34.764 129.182 34.892 128.91 34.988C128.646 35.076 128.35 35.12 128.022 35.12C127.494 35.12 127.05 34.992 126.69 34.736C126.33 34.472 126.15 34.032 126.15 33.416V30.008H124.998V29H126.15V27.596L127.434 27.236V29H129.498ZM130.288 35V29H131.428L131.488 30.008C131.696 29.624 131.972 29.34 132.316 29.156C132.668 28.972 133.04 28.88 133.432 28.88C133.864 28.88 134.26 28.98 134.62 29.18C134.988 29.372 135.264 29.664 135.448 30.056C135.576 29.792 135.752 29.572 135.976 29.396C136.2 29.22 136.448 29.092 136.72 29.012C136.992 28.924 137.26 28.88 137.524 28.88C137.908 28.88 138.268 28.96 138.604 29.12C138.94 29.28 139.212 29.524 139.42 29.852C139.628 30.18 139.732 30.6 139.732 31.112V35H138.448V31.316C138.448 30.82 138.328 30.468 138.088 30.26C137.856 30.044 137.564 29.936 137.212 29.936C136.796 29.936 136.432 30.092 136.12 30.404C135.808 30.708 135.652 31.152 135.652 31.736V35H134.368V31.316C134.368 30.82 134.248 30.468 134.008 30.26C133.776 30.044 133.484 29.936 133.132 29.936C132.892 29.936 132.652 30 132.412 30.128C132.172 30.256 131.972 30.456 131.812 30.728C131.652 31 131.572 31.36 131.572 31.808V35H130.288ZM143.838 35.12C143.238 35.12 142.71 34.996 142.254 34.748C141.806 34.5 141.454 34.144 141.198 33.68C140.942 33.208 140.814 32.648 140.814 32C140.814 31.352 140.938 30.796 141.186 30.332C141.442 29.86 141.79 29.5 142.23 29.252C142.678 29.004 143.19 28.88 143.766 28.88C144.35 28.88 144.846 29 145.254 29.24C145.662 29.48 145.974 29.808 146.19 30.224C146.406 30.64 146.514 31.112 146.514 31.64C146.514 31.792 146.51 31.932 146.502 32.06C146.494 32.188 146.482 32.296 146.466 32.384H142.074C142.13 32.944 142.31 33.372 142.614 33.668C142.926 33.956 143.326 34.1 143.814 34.1C144.214 34.1 144.538 34.024 144.786 33.872C145.034 33.72 145.23 33.508 145.374 33.236L146.394 33.716C146.186 34.156 145.854 34.5 145.398 34.748C144.95 34.996 144.43 35.12 143.838 35.12ZM143.742 29.9C143.302 29.9 142.938 30.028 142.65 30.284C142.37 30.54 142.19 30.912 142.11 31.4H145.266C145.234 30.92 145.082 30.552 144.81 30.296C144.538 30.032 144.182 29.9 143.742 29.9ZM147.656 35V29H148.796L148.856 30.032C149.056 29.632 149.332 29.34 149.684 29.156C150.044 28.972 150.444 28.88 150.884 28.88C151.308 28.88 151.688 28.964 152.024 29.132C152.368 29.292 152.64 29.54 152.84 29.876C153.04 30.204 153.14 30.616 153.14 31.112V35H151.856V31.508C151.856 30.916 151.732 30.508 151.484 30.284C151.244 30.052 150.94 29.936 150.572 29.936C150.308 29.936 150.052 29.996 149.804 30.116C149.556 30.236 149.348 30.436 149.18 30.716C149.02 30.988 148.94 31.352 148.94 31.808V35H147.656ZM158.351 29V30.008H156.287V33.2C156.287 33.488 156.367 33.704 156.527 33.848C156.687 33.984 156.895 34.052 157.151 34.052C157.375 34.052 157.563 34.02 157.715 33.956C157.875 33.884 158.023 33.788 158.159 33.668L158.447 34.604C158.263 34.764 158.035 34.892 157.763 34.988C157.499 35.076 157.203 35.12 156.875 35.12C156.347 35.12 155.903 34.992 155.543 34.736C155.183 34.472 155.003 34.032 155.003 33.416V30.008H153.851V29H155.003V27.596L156.287 27.236V29H158.351ZM164.843 35.12C164.243 35.12 163.695 35.004 163.199 34.772C162.703 34.54 162.311 34.212 162.023 33.788L162.911 33.02C163.087 33.348 163.339 33.612 163.667 33.812C164.003 34.004 164.403 34.1 164.867 34.1C165.235 34.1 165.527 34.036 165.743 33.908C165.959 33.78 166.067 33.6 166.067 33.368C166.067 33.216 166.015 33.084 165.911 32.972C165.815 32.852 165.627 32.76 165.347 32.696L164.087 32.432C163.447 32.304 162.991 32.096 162.719 31.808C162.447 31.52 162.311 31.16 162.311 30.728C162.311 30.4 162.407 30.096 162.599 29.816C162.799 29.536 163.083 29.312 163.451 29.144C163.819 28.968 164.263 28.88 164.783 28.88C165.375 28.88 165.883 28.988 166.307 29.204C166.739 29.412 167.067 29.712 167.291 30.104L166.403 30.848C166.243 30.528 166.015 30.292 165.719 30.14C165.431 29.98 165.127 29.9 164.807 29.9C164.415 29.9 164.111 29.972 163.895 30.116C163.687 30.252 163.583 30.432 163.583 30.656C163.583 30.808 163.643 30.948 163.763 31.076C163.883 31.196 164.099 31.288 164.411 31.352L165.779 31.64C166.355 31.752 166.759 31.944 166.991 32.216C167.231 32.48 167.351 32.804 167.351 33.188C167.351 33.764 167.127 34.232 166.679 34.592C166.231 34.944 165.619 35.12 164.843 35.12ZM172.251 29V30.008H170.187V33.2C170.187 33.488 170.267 33.704 170.427 33.848C170.587 33.984 170.795 34.052 171.051 34.052C171.275 34.052 171.463 34.02 171.615 33.956C171.775 33.884 171.923 33.788 172.059 33.668L172.347 34.604C172.163 34.764 171.935 34.892 171.663 34.988C171.399 35.076 171.103 35.12 170.775 35.12C170.247 35.12 169.803 34.992 169.443 34.736C169.083 34.472 168.903 34.032 168.903 33.416V30.008H167.751V29H168.903V27.596L170.187 27.236V29H172.251ZM175.645 28.88C176.229 28.88 176.745 29.004 177.193 29.252C177.641 29.5 177.989 29.86 178.237 30.332C178.493 30.796 178.621 31.352 178.621 32C178.621 32.648 178.493 33.208 178.237 33.68C177.989 34.144 177.641 34.5 177.193 34.748C176.745 34.996 176.229 35.12 175.645 35.12C175.061 35.12 174.545 34.996 174.097 34.748C173.649 34.5 173.297 34.144 173.041 33.68C172.785 33.208 172.657 32.648 172.657 32C172.657 31.352 172.785 30.796 173.041 30.332C173.297 29.86 173.649 29.5 174.097 29.252C174.545 29.004 175.061 28.88 175.645 28.88ZM175.645 29.888C175.117 29.888 174.701 30.072 174.397 30.44C174.093 30.8 173.941 31.32 173.941 32C173.941 32.68 174.093 33.204 174.397 33.572C174.701 33.932 175.117 34.112 175.645 34.112C176.173 34.112 176.585 33.932 176.881 33.572C177.185 33.204 177.337 32.68 177.337 32C177.337 31.32 177.185 30.8 176.881 30.44C176.585 30.072 176.173 29.888 175.645 29.888ZM179.756 35V29H180.848L180.968 30.08C181.296 29.28 181.924 28.88 182.852 28.88C182.972 28.88 183.092 28.892 183.212 28.916C183.332 28.932 183.432 28.96 183.512 29L183.332 30.128C183.244 30.096 183.144 30.072 183.032 30.056C182.928 30.032 182.784 30.02 182.6 30.02C182.344 30.02 182.096 30.088 181.856 30.224C181.624 30.352 181.428 30.552 181.268 30.824C181.116 31.088 181.04 31.42 181.04 31.82V35H179.756ZM186.733 35.12C186.133 35.12 185.605 34.996 185.149 34.748C184.701 34.5 184.349 34.144 184.093 33.68C183.837 33.208 183.709 32.648 183.709 32C183.709 31.352 183.833 30.796 184.081 30.332C184.337 29.86 184.685 29.5 185.125 29.252C185.573 29.004 186.085 28.88 186.661 28.88C187.245 28.88 187.741 29 188.149 29.24C188.557 29.48 188.869 29.808 189.085 30.224C189.301 30.64 189.409 31.112 189.409 31.64C189.409 31.792 189.405 31.932 189.397 32.06C189.389 32.188 189.377 32.296 189.361 32.384H184.969C185.025 32.944 185.205 33.372 185.509 33.668C185.821 33.956 186.221 34.1 186.709 34.1C187.109 34.1 187.433 34.024 187.681 33.872C187.929 33.72 188.125 33.508 188.269 33.236L189.289 33.716C189.081 34.156 188.749 34.5 188.293 34.748C187.845 34.996 187.325 35.12 186.733 35.12ZM186.637 29.9C186.197 29.9 185.833 30.028 185.545 30.284C185.265 30.54 185.085 30.912 185.005 31.4H188.161C188.129 30.92 187.977 30.552 187.705 30.296C187.433 30.032 187.077 29.9 186.637 29.9Z" fill="#3A2160"/>
</svg>
