<svg width="142" height="41" viewBox="0 0 142 41" fill="none" xmlns="http://www.w3.org/2000/svg">
<g clip-path="url(#clip0_33_3)">
<path d="M37.0313 0.964661C37.0313 0.964661 42.0149 7.16289 32.1821 15.3314L0 40.3912H11.6286L23.4993 31.2717L35.9619 40.3912H47.4761L29.9088 25.5934C29.9088 25.5934 50.7986 14.7704 37.0313 0.964661Z" fill="#41CBD6"/>
<path d="M7.04172 32.3937L0 37.8667V13.3201H7.04172V32.3937Z" fill="#00B8C6"/>
<path d="M16.5383 24.5877L9.49658 30.0607V5.5141H16.5383V24.5877Z" fill="#00B8C6"/>
<path d="M26.2299 17.1375L19.1882 22.0564V0H26.2299V17.1375Z" fill="#00B8C6"/>
<path d="M26.7007 38.804H24.5418V41H26.7007V38.804Z" fill="#6BF5FF"/>
<path d="M26.7007 35.6432H24.5418V37.8393H26.7007V35.6432Z" fill="#6BF5FF"/>
<path d="M23.4926 38.804H21.3336V41H23.4926V38.804Z" fill="#6BF5FF"/>
<path d="M23.4926 35.6432H21.3336V37.8393H23.4926V35.6432Z" fill="#6BF5FF"/>
<path d="M28.6646 0V7.60754C28.6646 7.60754 32.821 6.88236 31.9265 11.8355C31.9265 11.8355 39.0489 5.55515 33.9442 1.21091C33.9442 1.20407 31.987 0 28.6646 0Z" fill="#00B8C6"/>
</g>
<path d="M60.2988 26.4697H69.6299V30H55.9043V8.67188H60.2988V26.4697ZM76.3535 30H72.1055V14.1504H76.3535V30ZM71.8564 10.0488C71.8564 9.41406 72.0664 8.8916 72.4863 8.48145C72.916 8.07129 73.4971 7.86621 74.2295 7.86621C74.9521 7.86621 75.5283 8.07129 75.958 8.48145C76.3877 8.8916 76.6025 9.41406 76.6025 10.0488C76.6025 10.6934 76.3828 11.2207 75.9434 11.6309C75.5137 12.041 74.9424 12.2461 74.2295 12.2461C73.5166 12.2461 72.9404 12.041 72.501 11.6309C72.0713 11.2207 71.8564 10.6934 71.8564 10.0488ZM79.1953 21.9287C79.1953 20.3564 79.498 18.9551 80.1035 17.7246C80.709 16.4941 81.5781 15.542 82.7109 14.8682C83.8535 14.1943 85.1768 13.8574 86.6807 13.8574C88.8193 13.8574 90.5625 14.5117 91.9102 15.8203C93.2676 17.1289 94.0244 18.9062 94.1807 21.1523L94.21 22.2363C94.21 24.668 93.5312 26.6211 92.1738 28.0957C90.8164 29.5605 88.9951 30.293 86.71 30.293C84.4248 30.293 82.5986 29.5605 81.2314 28.0957C79.874 26.6309 79.1953 24.6387 79.1953 22.1191V21.9287ZM83.4287 22.2363C83.4287 23.7402 83.7119 24.8926 84.2783 25.6934C84.8447 26.4844 85.6553 26.8799 86.71 26.8799C87.7354 26.8799 88.5361 26.4893 89.1123 25.708C89.6885 24.917 89.9766 23.6572 89.9766 21.9287C89.9766 20.4541 89.6885 19.3115 89.1123 18.501C88.5361 17.6904 87.7256 17.2852 86.6807 17.2852C85.6455 17.2852 84.8447 17.6904 84.2783 18.501C83.7119 19.3018 83.4287 20.5469 83.4287 22.2363ZM102.501 24.0088L105.431 14.1504H109.972L103.6 32.4609L103.248 33.2959C102.301 35.3662 100.738 36.4014 98.5605 36.4014C97.9453 36.4014 97.3203 36.3086 96.6855 36.123V32.915L97.3301 32.9297C98.1309 32.9297 98.7266 32.8076 99.1172 32.5635C99.5176 32.3193 99.8301 31.9141 100.055 31.3477L100.553 30.0439L95.001 14.1504H99.5566L102.501 24.0088ZM117.574 24.8291L120.519 14.1504H124.942L119.596 30H115.553L110.206 14.1504H114.63L117.574 24.8291ZM125.924 21.9287C125.924 20.3564 126.227 18.9551 126.832 17.7246C127.438 16.4941 128.307 15.542 129.439 14.8682C130.582 14.1943 131.905 13.8574 133.409 13.8574C135.548 13.8574 137.291 14.5117 138.639 15.8203C139.996 17.1289 140.753 18.9062 140.909 21.1523L140.938 22.2363C140.938 24.668 140.26 26.6211 138.902 28.0957C137.545 29.5605 135.724 30.293 133.438 30.293C131.153 30.293 129.327 29.5605 127.96 28.0957C126.603 26.6309 125.924 24.6387 125.924 22.1191V21.9287ZM130.157 22.2363C130.157 23.7402 130.44 24.8926 131.007 25.6934C131.573 26.4844 132.384 26.8799 133.438 26.8799C134.464 26.8799 135.265 26.4893 135.841 25.708C136.417 24.917 136.705 23.6572 136.705 21.9287C136.705 20.4541 136.417 19.3115 135.841 18.501C135.265 17.6904 134.454 17.2852 133.409 17.2852C132.374 17.2852 131.573 17.6904 131.007 18.501C130.44 19.3018 130.157 20.5469 130.157 22.2363Z" fill="#41CBD6"/>
<defs>
<clipPath id="clip0_33_3">
<rect width="54" height="41" fill="white"/>
</clipPath>
</defs>
</svg>
