<svg width="682" height="554" viewBox="0 0 682 554" fill="none" xmlns="http://www.w3.org/2000/svg">
<path fill-rule="evenodd" clip-rule="evenodd" d="M129.421 451.534C113.058 468.447 81.9788 465.434 82 491.572C82.0176 514.754 107.933 525.594 126.38 532.361C187.057 554.608 236.358 562.108 295.433 539.564C336.237 524.001 551.786 397.851 581.641 377.936C622.772 350.49 531.123 324.493 478.827 315.778C402.292 303.017 129.421 451.534 129.421 451.534" fill="#FA7564"/>
<path fill-rule="evenodd" clip-rule="evenodd" d="M448.107 206.817C475.369 171.371 464.893 139.661 460.142 100.73C457.267 77.1817 454.632 35.1 429.119 19.8158C405.366 5.57825 365.78 6.29365 343.417 16.7392C278.56 47.0468 171.793 113.706 118.686 157.634C72.3725 195.938 79.5082 244.68 89.0002 293.966C93.3811 316.703 118.347 357.513 150.192 360.97C185.249 364.78 417.384 246.753 448.107 206.817" fill="#02ECF1"/>
<path fill-rule="evenodd" clip-rule="evenodd" d="M454 267H502V205H454V267Z" fill="#02ECF1"/>
<path fill-rule="evenodd" clip-rule="evenodd" d="M464.025 212.21L464.796 211.882C465.079 211.766 465.326 211.673 465.552 211.592C466.132 212.051 466.039 212.115 466.191 212.654L459.873 215.544V215.56L462.599 216.804C463.959 217.43 465.152 217.984 466.184 218.435C466.03 218.995 466.156 219.039 465.544 219.519C465.203 219.404 464.897 219.273 464.628 219.149C462.825 218.326 460.498 217.277 457.625 215.953V215.523C457.625 215.472 457.72 215.406 457.924 215.318C457.845 215.348 457.771 215.37 457.7 215.399V215.305C457.7 215.217 457.713 215.123 457.823 215.057L464.025 212.21Z" fill="white"/>
<path fill-rule="evenodd" clip-rule="evenodd" d="M464.025 253.426L464.796 253.098C465.079 252.982 465.326 252.888 465.552 252.808C466.132 253.266 466.039 253.331 466.191 253.87L459.873 256.76V256.776L462.599 258.02C463.959 258.646 465.152 259.2 466.184 259.651C466.03 260.211 466.156 260.255 465.544 260.735C465.203 260.618 464.897 260.488 464.628 260.363C462.825 259.541 460.498 258.493 457.625 257.169V256.738C457.625 256.688 457.72 256.622 457.924 256.534C457.845 256.564 457.771 256.586 457.7 256.615V256.521C457.7 256.433 457.713 256.338 457.823 256.272L464.025 253.426Z" fill="white"/>
<path fill-rule="evenodd" clip-rule="evenodd" d="M472.724 216.593H497.293V214.004H472.724V216.593Z" fill="white"/>
<path fill-rule="evenodd" clip-rule="evenodd" d="M478.211 225.656H497.293V223.067H478.211V225.656Z" fill="white"/>
<path fill-rule="evenodd" clip-rule="evenodd" d="M486.832 233.425H497.293V230.835H486.832V233.425Z" fill="white"/>
<path fill-rule="evenodd" clip-rule="evenodd" d="M472.724 257.81H497.293V255.22H472.724V257.81Z" fill="white"/>
<path fill-rule="evenodd" clip-rule="evenodd" d="M478.211 248.747H497.293V246.157H478.211V248.747Z" fill="white"/>
<path fill-rule="evenodd" clip-rule="evenodd" d="M486.832 240.978H497.293V238.388H486.832V240.978Z" fill="white"/>
<path fill-rule="evenodd" clip-rule="evenodd" d="M469.597 252.259L467.038 261.485L468.876 261.633L471.435 252.407L469.597 252.259Z" fill="white"/>
<path fill-rule="evenodd" clip-rule="evenodd" d="M486.174 273.65L487.138 281.857L492.912 296.865L487.632 298.491L483.571 282.838L483.04 274.013L486.174 273.65Z" fill="#250F8A"/>
<path fill-rule="evenodd" clip-rule="evenodd" d="M498.512 313.335L495.933 339.453L496.792 362.413H487.906L487.428 360.704L493.52 359.89L490.27 339.56L487.339 314.278L498.512 313.335Z" fill="white"/>
<path fill-rule="evenodd" clip-rule="evenodd" d="M501.447 313.043L503.468 335.291L517.072 353.385L515.449 361.923H511.387L513.823 360.094L514.23 354.605L501.235 339.967L489.458 313.742L501.447 313.043Z" fill="#E7EEFA"/>
<path fill-rule="evenodd" clip-rule="evenodd" d="M477.013 277.15L479.85 278.091C481.004 281.436 482.926 284.464 485.463 286.932L490.773 292.097L497.31 296.518L502.166 314.555L486.975 315.99L486.473 296.115L480.832 289.055C478.512 286.153 476.943 282.723 476.264 279.069L477.013 277.15Z" fill="#250F8A"/>
<path fill-rule="evenodd" clip-rule="evenodd" d="M480.148 279.081L476.411 280.408L473.999 267.736L474.724 266.66L480.148 279.081Z" fill="#FFD0D4"/>
<path fill-rule="evenodd" clip-rule="evenodd" d="M480.991 278.84L476.29 281.133C476.29 281.133 475.326 280.288 475.446 279.806C475.566 279.323 475.807 278.961 476.169 278.719C476.531 278.478 480.148 277.15 480.148 277.15L480.991 278.84Z" fill="#472BC7"/>
<path fill-rule="evenodd" clip-rule="evenodd" d="M483.04 274.012L482.8 267.254H485.451L486.173 273.65L483.04 274.012Z" fill="#FFD0D4"/>
<path fill-rule="evenodd" clip-rule="evenodd" d="M476.982 267.123C476.947 267.098 475.284 266.183 475.248 266.065C475.213 265.946 474.037 263.105 474.037 263.105L472.345 263.344L472.828 268.011L475.158 268.573L476.982 267.123Z" fill="#FFD0D4"/>
<path fill-rule="evenodd" clip-rule="evenodd" d="M501.366 288.594C500.233 291.194 496.564 293.868 493.968 292.733C491.371 291.599 490.833 287.087 491.965 284.487C493.098 281.888 496.12 280.7 498.716 281.834C501.312 282.969 502.499 285.995 501.366 288.594" fill="#FFD0D4"/>
<path fill-rule="evenodd" clip-rule="evenodd" d="M493.626 282.902C493.176 282.582 492.71 282.287 492.229 282.017C491.881 281.825 491.337 281.706 491.183 282.071C491.108 282.253 491.187 282.458 491.266 282.637C491.528 283.237 491.817 283.869 492.354 284.245C492.806 284.561 493.409 284.651 493.934 284.479C494.408 284.325 494.871 283.964 494.92 283.475C494.445 283.382 494.024 283.185 493.626 282.902" fill="#FFD0D4"/>
<path fill-rule="evenodd" clip-rule="evenodd" d="M494.544 292.916C497.08 293.478 500.315 291.007 501.367 288.595C502.498 285.995 501.313 282.968 498.717 281.835C498.56 281.766 498.398 281.733 498.239 281.681C497.942 281.996 497.702 282.371 497.595 282.727C497.177 284.115 497.494 285.755 498.371 286.909C498.371 286.909 495.434 292.452 494.544 292.916" fill="black"/>
<path fill-rule="evenodd" clip-rule="evenodd" d="M498.713 287.741C499.091 287.939 499.382 288.279 499.563 288.663C500.154 289.901 498.753 291.117 497.558 290.956C497.172 290.905 496.807 290.749 496.469 290.553C496.179 290.382 495.895 290.162 495.765 289.85C495.639 289.547 495.68 289.195 495.816 288.899C495.953 288.602 496.178 288.355 496.422 288.137C496.977 287.642 498.03 287.385 498.713 287.741" fill="#FFD0D4"/>
<path fill-rule="evenodd" clip-rule="evenodd" d="M184.964 428.657H442.218V157.868H184.964V428.657Z" fill="#FFDA4F"/>
<path fill-rule="evenodd" clip-rule="evenodd" d="M178.367 428.657H435.621V157.868H178.367V428.657Z" fill="white"/>
<path fill-rule="evenodd" clip-rule="evenodd" d="M178.367 178.959H435.621V157.868H178.367V178.959Z" fill="#FFCA00"/>
<path fill-rule="evenodd" clip-rule="evenodd" d="M257.079 364.723C256.746 364.633 256.412 364.588 256.081 364.572C256.009 364.569 255.939 364.579 255.867 364.579C255.599 364.579 255.333 364.597 255.074 364.644C255.022 364.652 254.974 364.668 254.923 364.679C254.635 364.74 254.358 364.827 254.089 364.941C254.071 364.95 254.053 364.957 254.034 364.966C252.812 365.505 251.826 366.549 251.444 367.939C250.777 370.385 251.832 374.308 254.274 374.978C255.409 375.29 256.641 374.839 257.705 374.027C257.705 374.027 257.706 374.025 257.707 374.025C258.111 373.716 258.488 373.359 258.828 372.967C258.84 372.952 258.853 372.937 258.866 372.922C259.012 372.749 259.152 372.571 259.284 372.388C259.303 372.361 259.324 372.333 259.344 372.305C259.48 372.11 259.607 371.91 259.721 371.707C259.737 371.681 259.748 371.655 259.764 371.628C259.858 371.457 259.942 371.284 260.017 371.111C260.04 371.058 260.062 371.007 260.084 370.956C260.165 370.757 260.237 370.56 260.29 370.364C260.457 369.753 260.494 369.136 260.414 368.546C260.177 366.772 258.911 365.225 257.079 364.723" fill="#E5FDFD"/>
<path fill-rule="evenodd" clip-rule="evenodd" d="M246.396 349.283H267.056V349.285C267.056 350.177 267.606 350.938 268.384 351.254L259.622 376.22L250.774 375.512L245.298 350.499C245.811 350.259 246.206 349.821 246.396 349.283M242.809 349.968L242.632 349.994L245.818 377.284L248.296 402.802L250.4 428.656H254.087L255.061 402.514L257.475 402.412L259.027 428.656H263.266L264.932 402.093L264.578 378.348L271.304 350.349L271.031 350.31C271.199 350.005 271.304 349.66 271.304 349.285V349.283H286.984V303.257H227.448V349.283H242.408C242.498 349.539 242.634 349.768 242.809 349.968" fill="#E5FDFD"/>
<path fill-rule="evenodd" clip-rule="evenodd" d="M353.127 348.239L356.107 366.196H349.79L352.77 348.239H353.127ZM381.236 348.239L378.256 366.196H357.342L354.362 348.239H381.236ZM382.83 348.239L385.81 366.196H379.492L382.471 348.239H382.83ZM387.971 379.207H377.33L379.289 367.415H386.012L387.971 379.207ZM390.129 392.217H375.172L377.128 380.427H388.173L390.129 392.217ZM392.288 405.227H373.012L374.969 393.437H390.332L392.288 405.227ZM394.449 418.239H370.852L372.808 406.447H392.492L394.449 418.239ZM369.616 418.239H365.982L364.025 406.447H371.574L369.616 418.239ZM341.15 418.239L343.107 406.447H362.79L364.748 418.239H341.15ZM345.267 393.437H360.63L362.588 405.227H343.309L345.267 393.437ZM347.427 380.427H358.47L360.427 392.217H345.47L347.427 380.427ZM359.502 379.207L357.545 367.415H378.054L376.096 379.207H359.502ZM373.734 393.437L371.778 405.227H363.822L361.866 393.437H373.734ZM361.662 392.217L359.705 380.427H375.893L373.936 392.217H361.662ZM349.587 367.415H356.309L358.268 379.207H347.629L349.587 367.415ZM338.185 428.657H339.42L340.947 419.458H364.95L366.477 428.657H367.712L366.186 419.458H369.414L367.886 428.657H369.122L370.649 419.458H394.652L396.179 428.657H397.413L384.065 348.239H386.634V344.58H350.085V348.239H351.535L338.185 428.657Z" fill="black"/>
<path fill-rule="evenodd" clip-rule="evenodd" d="M525.814 262.479H574.121V139.741H525.814V262.479Z" fill="#FFCA00"/>
<path fill-rule="evenodd" clip-rule="evenodd" d="M537.187 145.918L537.96 145.59C538.242 145.474 538.489 145.38 538.715 145.299C539.296 145.758 539.201 145.823 539.354 146.362L533.037 149.251V149.267L535.762 150.511C537.123 151.137 538.315 151.691 539.347 152.142C539.194 152.702 539.318 152.746 538.708 153.227C538.366 153.11 538.061 152.979 537.791 152.856C535.988 152.033 533.661 150.985 530.789 149.66V149.231C530.789 149.179 530.884 149.114 531.087 149.027C531.008 149.055 530.934 149.077 530.863 149.106V149.012C530.863 148.925 530.877 148.829 530.986 148.763L537.187 145.918Z" fill="white"/>
<path fill-rule="evenodd" clip-rule="evenodd" d="M537.187 187.134L537.96 186.805C538.242 186.69 538.489 186.594 538.715 186.515C539.296 186.974 539.201 187.038 539.354 187.578L533.037 190.467V190.482L535.762 191.727C537.123 192.353 538.315 192.907 539.347 193.358C539.194 193.918 539.318 193.962 538.708 194.442C538.366 194.325 538.061 194.195 537.791 194.07C535.988 193.248 533.661 192.201 530.789 190.876V190.445C530.789 190.395 530.884 190.329 531.087 190.242C531.008 190.271 530.934 190.293 530.863 190.322V190.228C530.863 190.14 530.877 190.045 530.986 189.979L537.187 187.134Z" fill="white"/>
<path fill-rule="evenodd" clip-rule="evenodd" d="M545.888 150.301H570.457V147.711H545.888V150.301Z" fill="white"/>
<path fill-rule="evenodd" clip-rule="evenodd" d="M551.375 159.364H570.458V156.774H551.375V159.364Z" fill="white"/>
<path fill-rule="evenodd" clip-rule="evenodd" d="M559.995 167.132H570.457V164.543H559.995V167.132Z" fill="white"/>
<path fill-rule="evenodd" clip-rule="evenodd" d="M545.888 191.517H570.457V188.927H545.888V191.517Z" fill="white"/>
<path fill-rule="evenodd" clip-rule="evenodd" d="M551.375 182.453H570.458V179.863H551.375V182.453Z" fill="white"/>
<path fill-rule="evenodd" clip-rule="evenodd" d="M559.995 174.685H570.457V172.096H559.995V174.685Z" fill="white"/>
<path fill-rule="evenodd" clip-rule="evenodd" d="M542.76 185.966L540.201 195.192L542.04 195.34L544.598 186.114L542.76 185.966Z" fill="white"/>
<path fill-rule="evenodd" clip-rule="evenodd" d="M537.187 201.925L537.96 201.596C538.242 201.481 538.489 201.387 538.715 201.306C539.296 201.765 539.201 201.829 539.354 202.369L533.037 205.258V205.274L535.762 206.518C537.123 207.144 538.315 207.698 539.347 208.149C539.194 208.709 539.318 208.753 538.708 209.234C538.366 209.116 538.061 208.986 537.791 208.863C535.988 208.039 533.661 206.992 530.789 205.667V205.236C530.789 205.186 530.884 205.12 531.087 205.033C531.008 205.062 530.934 205.084 530.863 205.113V205.019C530.863 204.931 530.877 204.836 530.986 204.77L537.187 201.925Z" fill="white"/>
<path fill-rule="evenodd" clip-rule="evenodd" d="M537.187 243.14L537.96 242.812C538.242 242.696 538.489 242.601 538.715 242.522C539.296 242.981 539.201 243.045 539.354 243.584L533.037 246.474V246.489L535.762 247.734C537.123 248.36 538.315 248.914 539.347 249.365C539.194 249.925 539.318 249.969 538.708 250.449C538.366 250.332 538.061 250.202 537.791 250.077C535.988 249.255 533.661 248.207 530.789 246.881V246.452C530.789 246.402 530.884 246.336 531.087 246.248C531.008 246.278 530.934 246.3 530.863 246.329V246.235C530.863 246.147 530.877 246.052 530.986 245.986L537.187 243.14Z" fill="white"/>
<path fill-rule="evenodd" clip-rule="evenodd" d="M545.888 206.308H570.457V203.719H545.888V206.308Z" fill="white"/>
<path fill-rule="evenodd" clip-rule="evenodd" d="M551.375 215.371H570.458V212.781H551.375V215.371Z" fill="white"/>
<path fill-rule="evenodd" clip-rule="evenodd" d="M559.995 223.139H570.457V220.549H559.995V223.139Z" fill="white"/>
<path fill-rule="evenodd" clip-rule="evenodd" d="M545.888 247.523H570.457V244.934H545.888V247.523Z" fill="white"/>
<path fill-rule="evenodd" clip-rule="evenodd" d="M551.375 238.46H570.458V235.871H551.375V238.46Z" fill="white"/>
<path fill-rule="evenodd" clip-rule="evenodd" d="M559.995 230.691H570.457V228.102H559.995V230.691Z" fill="white"/>
<path fill-rule="evenodd" clip-rule="evenodd" d="M542.76 241.972L540.201 251.199L542.04 251.348L544.598 242.12L542.76 241.972Z" fill="white"/>
<path fill-rule="evenodd" clip-rule="evenodd" d="M209.172 361.481H268.71V315.455H209.172V361.481Z" fill="#02ECF1"/>
<path fill-rule="evenodd" clip-rule="evenodd" d="M369.405 443.642L353.229 346.195L354.43 345.995L370.606 443.442L369.405 443.642Z" fill="black"/>
<path fill-rule="evenodd" clip-rule="evenodd" d="M339.704 443.642L323.526 346.195L324.728 345.995L340.905 443.442L339.704 443.642Z" fill="black"/>
<path fill-rule="evenodd" clip-rule="evenodd" d="M327.574 367.415H357.54V366.196H327.574V367.415Z" fill="black"/>
<path fill-rule="evenodd" clip-rule="evenodd" d="M329.696 380.427H359.664V379.207H329.696V380.427Z" fill="black"/>
<path fill-rule="evenodd" clip-rule="evenodd" d="M331.818 393.437H361.785V392.217H331.818V393.437Z" fill="black"/>
<path fill-rule="evenodd" clip-rule="evenodd" d="M333.939 406.447H363.906V405.227H333.939V406.447Z" fill="black"/>
<path fill-rule="evenodd" clip-rule="evenodd" d="M336.06 419.459H366.027V418.239H336.06V419.459Z" fill="black"/>
<path fill-rule="evenodd" clip-rule="evenodd" d="M338.181 432.469H368.149V431.249H338.181V432.469Z" fill="black"/>
<path fill-rule="evenodd" clip-rule="evenodd" d="M307.671 443.642L306.47 443.442L322.646 345.995L323.849 346.195L307.671 443.642Z" fill="#525252"/>
<path fill-rule="evenodd" clip-rule="evenodd" d="M337.373 443.642L336.172 443.442L352.348 345.995L353.549 346.195L337.373 443.642Z" fill="#525252"/>
<path fill-rule="evenodd" clip-rule="evenodd" d="M319.534 367.415H349.501V366.196H319.534V367.415Z" fill="#525252"/>
<path fill-rule="evenodd" clip-rule="evenodd" d="M317.413 380.427H347.38V379.207H317.413V380.427Z" fill="#525252"/>
<path fill-rule="evenodd" clip-rule="evenodd" d="M315.291 393.437H345.258V392.217H315.291V393.437Z" fill="#525252"/>
<path fill-rule="evenodd" clip-rule="evenodd" d="M313.17 406.447H343.137V405.227H313.17V406.447Z" fill="#525252"/>
<path fill-rule="evenodd" clip-rule="evenodd" d="M311.048 419.459H341.015V418.239H311.048V419.459Z" fill="#525252"/>
<path fill-rule="evenodd" clip-rule="evenodd" d="M308.927 432.469H338.894V431.249H308.927V432.469Z" fill="#525252"/>
<path fill-rule="evenodd" clip-rule="evenodd" d="M320.824 348.239H357.372V344.58H320.824V348.239Z" fill="black"/>
<path fill-rule="evenodd" clip-rule="evenodd" d="M453.992 491.412L451.514 465.894L448.328 438.604L450.806 438.25L456.47 464.122L465.319 464.831L474.522 438.604L477 438.959L470.274 466.957L470.628 490.703L453.992 491.412Z" fill="#FFCA00"/>
<path fill-rule="evenodd" clip-rule="evenodd" d="M457.141 456.55C456.472 458.995 457.527 462.919 459.97 463.589C462.413 464.257 465.318 461.42 465.987 458.975C466.656 456.529 465.218 454.003 462.776 453.333C460.332 452.663 457.81 454.104 457.141 456.55" fill="#FFD0D4"/>
<path fill-rule="evenodd" clip-rule="evenodd" d="M460.407 455.138C459.907 455.001 459.208 454.656 458.941 454.186C458.916 454.143 458.906 454.1 458.89 454.057C459.975 453.273 461.383 452.952 462.774 453.334C465.218 454.002 466.655 456.53 465.986 458.975C465.509 460.721 463.89 462.66 462.115 463.387C462.148 462.893 462.267 462.405 462.393 461.926C462.899 459.991 463.463 458.074 464.083 456.175C462.832 455.925 461.602 455.577 460.407 455.138" fill="black"/>
<path fill-rule="evenodd" clip-rule="evenodd" d="M463.261 458.877C463.591 458.636 464.045 458.525 464.422 458.687C464.508 458.725 464.591 458.776 464.658 458.844C464.841 459.026 464.895 459.304 464.871 459.561C464.809 460.271 464.227 460.867 463.547 461.078C463.355 461.137 463.15 461.17 462.95 461.14C462.75 461.109 462.556 461.011 462.44 460.845C462.013 460.234 462.785 459.224 463.261 458.877" fill="#FFD0D4"/>
<path fill-rule="evenodd" clip-rule="evenodd" d="M470.629 490.703L468.172 529.842H465.468L463.172 491.022L460.756 491.124L459.281 530.8L457.194 530.751L453.992 491.412L453.521 486.565L470.569 486.788L470.629 490.703Z" fill="white"/>
<path fill-rule="evenodd" clip-rule="evenodd" d="M468.172 529.842L474.118 530.499L473.903 531.422H465.196L465.468 529.842H468.172Z" fill="#250F8A"/>
<path fill-rule="evenodd" clip-rule="evenodd" d="M459.28 530.8V531.911L451.112 532.221V531.198L457.193 530.751L459.28 530.8Z" fill="#250F8A"/>
<path fill-rule="evenodd" clip-rule="evenodd" d="M452.222 437.187C452.222 438.361 451.271 439.313 450.098 439.313C448.925 439.313 447.975 438.361 447.975 437.187C447.975 436.012 448.925 435.061 450.098 435.061C451.271 435.061 452.222 436.012 452.222 437.187" fill="#FFD0D4"/>
<path fill-rule="evenodd" clip-rule="evenodd" d="M477 437.895C477 439.07 476.049 440.021 474.876 440.021C473.703 440.021 472.753 439.07 472.753 437.895C472.753 436.721 473.703 435.769 474.876 435.769C476.049 435.769 477 436.721 477 437.895" fill="#FFD0D4"/>
<path fill-rule="evenodd" clip-rule="evenodd" d="M230.021 415.001L227.543 389.483L224.357 362.193L226.835 361.838L232.499 387.71L241.347 388.419L250.551 362.193L253.029 362.548L246.303 390.545L246.657 414.292L230.021 415.001Z" fill="#2D109F"/>
<path fill-rule="evenodd" clip-rule="evenodd" d="M228.25 360.775C228.25 361.95 227.3 362.901 226.127 362.901C224.954 362.901 224.004 361.95 224.004 360.775C224.004 359.601 224.954 358.649 226.127 358.649C227.3 358.649 228.25 359.601 228.25 360.775" fill="#FFD0D4"/>
<path fill-rule="evenodd" clip-rule="evenodd" d="M253.028 361.484C253.028 362.659 252.078 363.61 250.905 363.61C249.732 363.61 248.782 362.659 248.782 361.484C248.782 360.309 249.732 359.358 250.905 359.358C252.078 359.358 253.028 360.309 253.028 361.484" fill="#FFD0D4"/>
<path fill-rule="evenodd" clip-rule="evenodd" d="M241.009 384.586C241.028 384.559 241.049 384.531 241.067 384.504C241.205 384.308 241.332 384.108 241.446 383.905C241.462 383.88 241.473 383.853 241.489 383.827C241.583 383.655 241.667 383.483 241.742 383.31C241.765 383.258 241.787 383.206 241.809 383.155C241.89 382.956 241.962 382.759 242.015 382.562C242.182 381.951 242.219 381.335 242.139 380.744C242.087 380.356 241.97 379.987 241.825 379.631C241.531 378.909 241.071 378.26 240.456 377.766C240.316 377.654 240.155 377.564 240 377.467C239.889 377.398 239.788 377.316 239.67 377.256C239.398 377.118 239.108 377.005 238.804 376.922H238.801C238.469 376.831 238.136 376.785 237.806 376.771C237.734 376.767 237.664 376.778 237.59 376.778C237.322 376.778 237.058 376.795 236.799 376.842C236.747 376.851 236.697 376.866 236.647 376.878C236.36 376.938 236.083 377.026 235.814 377.14L235.759 377.165C234.537 377.701 233.549 378.748 233.169 380.139C232.502 382.583 233.557 386.507 235.999 387.177C237.134 387.488 238.365 387.038 239.429 386.227C239.43 386.225 239.432 386.224 239.434 386.223C239.836 385.915 240.213 385.557 240.552 385.167C240.565 385.151 240.578 385.135 240.591 385.119C240.738 384.947 240.877 384.768 241.009 384.586" fill="black"/>
<path fill-rule="evenodd" clip-rule="evenodd" d="M246.657 414.292L244.201 453.431H241.497L239.2 414.609L236.785 414.713L235.309 454.389L233.222 454.34L230.02 415.001L229.55 410.153L246.599 410.377L246.657 414.292Z" fill="#FFCA00"/>
<path fill-rule="evenodd" clip-rule="evenodd" d="M244.201 453.431L250.147 454.087L249.932 455.009H241.224L241.497 453.431H244.201Z" fill="#2D109F"/>
<path fill-rule="evenodd" clip-rule="evenodd" d="M235.308 454.389V455.5L227.141 455.81V454.786L233.223 454.34L235.308 454.389Z" fill="#2D109F"/>
<path fill-rule="evenodd" clip-rule="evenodd" d="M411.321 437.345H513.654V376.356H411.321V437.345Z" fill="white"/>
<path fill-rule="evenodd" clip-rule="evenodd" d="M462.529 429.343H508.181V384.062H462.529V429.343Z" fill="#250F8A"/>
<path fill-rule="evenodd" clip-rule="evenodd" d="M417.115 388.334H456.984V384.49H417.115V388.334Z" fill="#250F8A"/>
<path fill-rule="evenodd" clip-rule="evenodd" d="M417.115 397.732H456.984V393.888H417.115V397.732Z" fill="#250F8A"/>
<path fill-rule="evenodd" clip-rule="evenodd" d="M417.115 407.13H456.984V403.285H417.115V407.13Z" fill="#250F8A"/>
<path fill-rule="evenodd" clip-rule="evenodd" d="M417.115 416.529H456.984V412.684H417.115V416.529Z" fill="#250F8A"/>
<path fill-rule="evenodd" clip-rule="evenodd" d="M417.115 425.926H456.984V422.082H417.115V425.926Z" fill="#250F8A"/>
<path fill-rule="evenodd" clip-rule="evenodd" d="M337.75 266.936C338.205 267.297 338.689 267.656 339.245 267.794C339.243 267.945 339.222 268.091 339.233 268.245C339.446 271.072 342.027 274.81 344.851 274.598C345.055 274.583 345.252 274.543 345.447 274.489V274.488C346.212 274.278 346.901 273.786 347.483 273.131C347.501 273.111 347.521 273.094 347.538 273.073C347.63 272.966 347.719 272.853 347.806 272.739C347.834 272.701 347.864 272.664 347.891 272.626C347.97 272.519 348.043 272.408 348.116 272.296C348.15 272.245 348.183 272.193 348.216 272.141C348.282 272.034 348.344 271.925 348.405 271.815C348.44 271.752 348.476 271.688 348.509 271.625C348.563 271.519 348.616 271.412 348.666 271.303C348.7 271.23 348.734 271.155 348.767 271.081C348.811 270.979 348.853 270.875 348.895 270.771C348.928 270.687 348.958 270.603 348.989 270.519C349.024 270.42 349.058 270.321 349.09 270.221C349.119 270.128 349.146 270.037 349.171 269.944C349.197 269.85 349.224 269.758 349.248 269.662C349.272 269.562 349.293 269.464 349.313 269.364C349.331 269.276 349.35 269.189 349.366 269.101C349.385 268.994 349.398 268.888 349.411 268.78C349.422 268.702 349.434 268.623 349.443 268.545C349.454 268.426 349.459 268.308 349.465 268.193C349.467 268.129 349.473 268.063 349.475 268.001C349.476 267.929 349.472 267.862 349.47 267.792C349.847 267.958 350.262 268.055 350.699 268.055C352.381 268.055 353.745 266.69 353.745 265.005C353.745 263.321 352.381 261.956 350.699 261.956C349.338 261.956 348.199 262.856 347.809 264.09C347.768 264.051 347.734 264.005 347.692 263.968C347.443 263.754 347.173 263.563 346.888 263.4C346.316 263.073 345.679 262.854 345.001 262.767C344.664 262.723 344.317 262.713 343.964 262.74C341.918 262.894 340.257 264.237 339.569 266.035C339.151 265.991 338.733 265.948 338.312 265.938C337.917 265.93 337.38 266.08 337.414 266.475C337.431 266.67 337.598 266.814 337.75 266.936" fill="#E5FDFD"/>
<path fill-rule="evenodd" clip-rule="evenodd" d="M321.926 264.774L324.412 267.313C323.495 266.645 322.636 265.998 321.869 265.4L321.926 264.774ZM389.612 307.793L373.276 308.536L362.05 290.209L362.287 290.053L349.573 276.379L346.793 276.079L329.838 267.674L323.732 262.114L321.996 264.017L325.526 225.773L274.705 221.069C274.901 220.608 275.009 220.101 275.009 219.568C275.009 217.657 273.611 216.083 271.783 215.789V138.656H270.565V215.789C268.738 216.083 267.339 217.657 267.339 219.568C267.339 219.853 267.374 220.129 267.434 220.397L223.521 216.334L218.662 268.967L320.667 278.405L321.468 269.746C324.874 272.921 329.279 276.517 331.522 277.493L339.805 281.095L349.342 298.102L349.278 298.143L349.43 298.263L349.524 298.43L349.591 298.388L349.898 298.628L352.575 321.714L355.823 342.042L349.731 342.856L350.21 344.567H359.096L358.236 321.605L359.744 306.331L370.801 314.98L388.942 310.817L390.699 315.423L392.12 314.813L389.612 307.793Z" fill="#E5FDFD"/>
<path fill-rule="evenodd" clip-rule="evenodd" d="M194.295 268.967L296.3 278.405L301.16 225.773L199.153 216.334L194.295 268.967Z" fill="#02ECF1"/>
<path fill-rule="evenodd" clip-rule="evenodd" d="M299.366 262.114L305.471 267.675L325.596 277.65L316.743 279.904L303.422 270.757L297.238 264.446L299.366 262.114Z" fill="#FF7E6E"/>
<path fill-rule="evenodd" clip-rule="evenodd" d="M325.095 267.476C325.307 270.304 323.31 274.386 320.485 274.597C317.661 274.811 315.078 271.072 314.866 268.245C314.654 265.417 316.771 262.952 319.597 262.74C322.421 262.528 324.883 264.649 325.095 267.476" fill="#FFD0D4"/>
<path fill-rule="evenodd" clip-rule="evenodd" d="M295.062 261.08C295.039 261.082 294.19 260.642 294.19 260.642L293.369 261.99L289.2 259.648L287.816 261.191L293.697 265.638L294.978 264.028L294.311 263.118L294.583 262.121L295.062 261.08Z" fill="#FFD0D4"/>
<path fill-rule="evenodd" clip-rule="evenodd" d="M336.449 295.488L333.868 321.606L334.728 344.567H325.842L325.365 342.856L331.456 342.043L328.207 321.713L325.277 296.431L336.449 295.488Z" fill="#250F8A"/>
<path fill-rule="evenodd" clip-rule="evenodd" d="M295.059 263.368C297.641 265.786 306.865 272.454 310.259 273.448L317.364 275.53L325.207 276.379L337.919 290.053L325.158 298.431L315.438 281.095L307.156 277.493C303.751 276.012 295.357 268.492 293.05 265.581L295.059 263.368Z" fill="#FA7564"/>
<path fill-rule="evenodd" clip-rule="evenodd" d="M315.595 266.065C315.048 265.993 314.497 265.951 313.945 265.939C313.549 265.93 313.012 266.08 313.047 266.475C313.064 266.67 313.23 266.814 313.384 266.936C313.897 267.345 314.446 267.768 315.097 267.849C315.645 267.917 316.22 267.713 316.604 267.316C316.95 266.958 317.192 266.422 317.006 265.967C316.541 266.107 316.078 266.13 315.595 266.065" fill="#FFD0D4"/>
<path fill-rule="evenodd" clip-rule="evenodd" d="M123.899 408.118H145.015C145.498 408.118 145.937 407.832 146.132 407.386C146.326 406.942 146.238 406.425 145.909 406.069L125.604 384.114L123.817 385.771L142.226 405.678H123.899V408.118Z" fill="#250F8A"/>
<path fill-rule="evenodd" clip-rule="evenodd" d="M321.081 274.489C323.584 273.8 325.291 270.1 325.095 267.476C324.883 264.649 322.421 262.528 319.597 262.74C319.426 262.752 319.268 262.8 319.103 262.828C318.989 263.246 318.95 263.689 319.022 264.054C319.301 265.476 320.346 266.779 321.659 267.389C321.659 267.389 321.651 273.662 321.081 274.489" fill="#FA7564"/>
<path fill-rule="evenodd" clip-rule="evenodd" d="M322.351 267.964C322.776 267.961 323.192 268.126 323.534 268.381C324.634 269.199 323.962 270.93 322.831 271.346C322.465 271.481 322.069 271.516 321.679 271.499C321.342 271.484 320.989 271.423 320.728 271.208C320.477 271 320.348 270.669 320.329 270.342C320.312 270.017 320.396 269.692 320.51 269.386C320.77 268.688 321.581 267.967 322.351 267.964" fill="#FFD0D4"/>
<path fill-rule="evenodd" clip-rule="evenodd" d="M365.245 307.793L348.91 308.536L337.525 289.95L324.911 298.142L346.436 314.98L364.574 310.817L366.332 315.423L367.754 314.813L365.245 307.793Z" fill="#472BC7"/>
<path fill-rule="evenodd" clip-rule="evenodd" d="M329.378 265.005C329.378 266.69 328.015 268.055 326.332 268.055C324.65 268.055 323.287 266.69 323.287 265.005C323.287 263.322 324.65 261.956 326.332 261.956C328.015 261.956 329.378 263.322 329.378 265.005" fill="#FA7564"/>
<path fill-rule="evenodd" clip-rule="evenodd" d="M125.247 415.552H144.21V158.582H125.247V415.552ZM122.81 417.991H146.647V156.142H122.81V417.991Z" fill="#250F8A"/>
<path fill-rule="evenodd" clip-rule="evenodd" d="M119.547 426.937H149.91V405.153H119.547V426.937Z" fill="#472BC7"/>
<path fill-rule="evenodd" clip-rule="evenodd" d="M123.899 317.964H145.015C145.498 317.964 145.937 317.677 146.132 317.232C146.326 316.788 146.238 316.271 145.909 315.915L125.604 293.96L123.817 295.616L142.226 315.524H123.899V317.964Z" fill="#250F8A"/>
<path fill-rule="evenodd" clip-rule="evenodd" d="M123.899 340.502H145.015C145.498 340.502 145.937 340.216 146.132 339.77C146.326 339.326 146.238 338.809 145.909 338.453L125.604 316.498L123.817 318.156L142.226 338.063H123.899V340.502Z" fill="#250F8A"/>
<path fill-rule="evenodd" clip-rule="evenodd" d="M123.899 363.041H145.015C145.498 363.041 145.937 362.754 146.132 362.309C146.326 361.865 146.238 361.348 145.909 360.992L125.604 339.037L123.817 340.695L142.226 360.601H123.899V363.041Z" fill="#250F8A"/>
<path fill-rule="evenodd" clip-rule="evenodd" d="M123.899 385.579H145.015C145.498 385.579 145.937 385.293 146.132 384.848C146.326 384.404 146.238 383.886 145.909 383.53L125.604 361.575L123.817 363.233L142.226 383.14H123.899V385.579Z" fill="#250F8A"/>
<path fill-rule="evenodd" clip-rule="evenodd" d="M123.899 295.966H145.015C145.498 295.966 145.937 295.679 146.132 295.234C146.326 294.79 146.238 294.273 145.909 293.918L125.604 271.962L123.817 273.618L142.226 293.526H123.899V295.966Z" fill="#250F8A"/>
<path fill-rule="evenodd" clip-rule="evenodd" d="M123.899 273.968H145.015C145.498 273.968 145.937 273.682 146.132 273.237C146.326 272.793 146.238 272.275 145.909 271.92L125.604 249.964L123.817 251.621L142.226 271.529H123.899V273.968Z" fill="#250F8A"/>
<path fill-rule="evenodd" clip-rule="evenodd" d="M123.899 251.971H145.015C145.498 251.971 145.937 251.684 146.132 251.239C146.326 250.795 146.238 250.278 145.909 249.923L125.604 227.967L123.817 229.624L142.226 249.532H123.899V251.971Z" fill="#250F8A"/>
<path fill-rule="evenodd" clip-rule="evenodd" d="M123.899 229.973H145.015C145.498 229.973 145.937 229.687 146.132 229.241C146.326 228.797 146.238 228.28 145.909 227.925L125.604 205.969L123.817 207.626L142.226 227.534H123.899V229.973Z" fill="#250F8A"/>
<path fill-rule="evenodd" clip-rule="evenodd" d="M123.899 207.976H145.015C145.498 207.976 145.937 207.689 146.132 207.244C146.326 206.8 146.238 206.283 145.909 205.928L125.604 183.972L123.817 185.628L142.226 205.536H123.899V207.976Z" fill="#250F8A"/>
<path fill-rule="evenodd" clip-rule="evenodd" d="M123.899 185.978H145.015C145.498 185.978 145.937 185.691 146.132 185.246C146.326 184.802 146.238 184.285 145.909 183.93L125.604 161.974L123.817 163.63L142.226 183.538H123.899V185.978Z" fill="#250F8A"/>
<path fill-rule="evenodd" clip-rule="evenodd" d="M123.899 163.981H145.015C145.498 163.981 145.937 163.694 146.132 163.249C146.326 162.805 146.238 162.288 145.909 161.933L125.604 139.977L123.817 141.633L142.226 161.541H123.899V163.981Z" fill="#0089C7"/>
<path fill-rule="evenodd" clip-rule="evenodd" d="M122.851 164.418H161.493V131.8H122.851V164.418Z" fill="#472BC7"/>
<path fill-rule="evenodd" clip-rule="evenodd" d="M64.7809 150.536H103.423V131.8H64.7809V150.536Z" fill="#472BC7"/>
<path fill-rule="evenodd" clip-rule="evenodd" d="M65.422 134.183H256.284C256.956 134.183 257.502 133.637 257.502 132.963C257.502 132.29 256.956 131.744 256.284 131.744H65.422C64.7495 131.744 64.2037 132.29 64.2037 132.963C64.2037 133.637 64.7495 134.183 65.422 134.183" fill="#250F8A"/>
<path fill-rule="evenodd" clip-rule="evenodd" d="M246.199 217.942H247.417V138.656H246.199V217.942Z" fill="#472BC7"/>
<path fill-rule="evenodd" clip-rule="evenodd" d="M109.191 432.628H160.266V423.043H109.191V432.628Z" fill="#250F8A"/>
<path fill-rule="evenodd" clip-rule="evenodd" d="M142.03 133.864C142.186 133.864 142.342 133.804 142.461 133.686L152.637 123.496H245.939L255.506 133.076C255.745 133.314 256.13 133.314 256.369 133.076C256.606 132.837 256.606 132.452 256.369 132.212L246.443 122.276H152.133L141.599 132.822C141.361 133.061 141.361 133.447 141.599 133.686C141.718 133.804 141.874 133.864 142.03 133.864" fill="#250F8A"/>
<path fill-rule="evenodd" clip-rule="evenodd" d="M64.6088 133.864C64.8281 133.864 65.0401 133.744 65.1485 133.537L75.3332 114.057H100.032L109.609 132.921C109.761 133.22 110.129 133.338 110.428 133.188C110.727 133.036 110.848 132.669 110.696 132.367L100.779 112.837H74.5961L64.0703 132.971C63.9132 133.27 64.0289 133.638 64.3274 133.794C64.4175 133.842 64.5138 133.864 64.6088 133.864" fill="#250F8A"/>
<path fill-rule="evenodd" clip-rule="evenodd" d="M242.341 138.656C242.341 141.126 244.341 143.129 246.808 143.129C249.274 143.129 251.274 141.126 251.274 138.656C251.274 136.186 249.274 134.183 246.808 134.183C244.341 134.183 242.341 136.186 242.341 138.656" fill="#472BC7"/>
<path fill-rule="evenodd" clip-rule="evenodd" d="M220.397 123.487C220.657 123.487 220.9 123.317 220.979 123.055C221.078 122.733 220.896 122.391 220.574 122.294L130.383 94.7586C130.245 94.7183 130.098 94.7244 129.967 94.7805L87.221 112.844C86.9103 112.975 86.7653 113.332 86.8957 113.643C87.0273 113.954 87.3842 114.099 87.6937 113.968L130.238 95.9906L220.219 123.46C220.278 123.478 220.338 123.487 220.397 123.487" fill="#250F8A"/>
<path fill-rule="evenodd" clip-rule="evenodd" d="M144.394 133.946C144.538 133.946 144.684 133.92 144.827 133.865C145.457 133.626 145.772 132.922 145.533 132.291L131.331 94.876C131.14 94.3685 130.639 94.0489 130.093 94.0941C129.552 94.138 129.105 94.5356 128.998 95.0687L121.657 131.56C121.524 132.22 121.952 132.864 122.611 132.997C123.269 133.126 123.913 132.701 124.046 132.041L130.554 99.6929L143.255 133.159C143.441 133.645 143.903 133.946 144.394 133.946" fill="#250F8A"/>
<path fill-rule="evenodd" clip-rule="evenodd" d="M127.738 95.3092C127.738 96.6668 128.837 97.767 130.193 97.767C131.549 97.767 132.647 96.6668 132.647 95.3092C132.647 93.9516 131.549 92.8513 130.193 92.8513C128.837 92.8513 127.738 93.9516 127.738 95.3092" fill="#472BC7"/>
<path fill-rule="evenodd" clip-rule="evenodd" d="M233.238 133.98C233.372 133.98 233.508 133.936 233.621 133.845L245.583 124.163V133.215C245.583 133.552 245.856 133.825 246.192 133.825C246.53 133.825 246.801 133.552 246.801 133.215V122.886C246.801 122.651 246.666 122.437 246.455 122.336C246.244 122.234 245.992 122.263 245.81 122.412L232.855 132.896C232.593 133.108 232.552 133.492 232.764 133.753C232.884 133.903 233.06 133.98 233.238 133.98" fill="#250F8A"/>
<path fill-rule="evenodd" clip-rule="evenodd" d="M221.67 133.98C221.804 133.98 221.939 133.936 222.053 133.845L234.016 124.163V133.215C234.016 133.552 234.288 133.825 234.625 133.825C234.961 133.825 235.234 133.552 235.234 133.215V122.886C235.234 122.651 235.099 122.437 234.887 122.336C234.678 122.234 234.425 122.263 234.241 122.412L221.286 132.896C221.025 133.108 220.984 133.492 221.196 133.753C221.316 133.903 221.492 133.98 221.67 133.98" fill="#250F8A"/>
<path fill-rule="evenodd" clip-rule="evenodd" d="M210.102 133.98C210.236 133.98 210.371 133.936 210.485 133.845L222.448 124.163V133.215C222.448 133.552 222.72 133.825 223.057 133.825C223.393 133.825 223.666 133.552 223.666 133.215V122.886C223.666 122.651 223.531 122.437 223.319 122.336C223.109 122.234 222.857 122.263 222.673 122.412L209.718 132.896C209.456 133.108 209.416 133.492 209.628 133.753C209.748 133.903 209.924 133.98 210.102 133.98" fill="#250F8A"/>
<path fill-rule="evenodd" clip-rule="evenodd" d="M198.535 133.98C198.669 133.98 198.804 133.936 198.917 133.845L210.879 124.163V133.215C210.879 133.552 211.152 133.825 211.488 133.825C211.826 133.825 212.097 133.552 212.097 133.215V122.886C212.097 122.651 211.962 122.437 211.751 122.336C211.541 122.234 211.29 122.263 211.106 122.412L198.151 132.896C197.889 133.108 197.849 133.492 198.061 133.753C198.18 133.903 198.357 133.98 198.535 133.98" fill="#250F8A"/>
<path fill-rule="evenodd" clip-rule="evenodd" d="M186.966 133.98C187.1 133.98 187.236 133.936 187.349 133.845L199.312 124.163V133.215C199.312 133.552 199.584 133.825 199.921 133.825C200.258 133.825 200.53 133.552 200.53 133.215V122.886C200.53 122.651 200.395 122.437 200.183 122.336C199.973 122.234 199.722 122.263 199.538 122.412L186.583 132.896C186.321 133.108 186.28 133.492 186.492 133.753C186.612 133.903 186.788 133.98 186.966 133.98" fill="#250F8A"/>
<path fill-rule="evenodd" clip-rule="evenodd" d="M175.398 133.98C175.532 133.98 175.667 133.936 175.781 133.845L187.744 124.163V133.215C187.744 133.552 188.016 133.825 188.353 133.825C188.689 133.825 188.962 133.552 188.962 133.215V122.886C188.962 122.651 188.827 122.437 188.615 122.336C188.406 122.234 188.153 122.263 187.969 122.412L175.014 132.896C174.753 133.108 174.712 133.492 174.924 133.753C175.044 133.903 175.22 133.98 175.398 133.98" fill="#250F8A"/>
<path fill-rule="evenodd" clip-rule="evenodd" d="M163.831 133.98C163.965 133.98 164.1 133.936 164.213 133.845L176.177 124.163V133.215C176.177 133.552 176.448 133.825 176.786 133.825C177.122 133.825 177.395 133.552 177.395 133.215V122.886C177.395 122.651 177.26 122.437 177.048 122.336C176.838 122.234 176.586 122.263 176.402 122.412L163.447 132.896C163.185 133.108 163.145 133.492 163.357 133.753C163.476 133.903 163.653 133.98 163.831 133.98" fill="#250F8A"/>
<path fill-rule="evenodd" clip-rule="evenodd" d="M152.262 133.98C152.396 133.98 152.532 133.936 152.645 133.845L164.608 124.163V133.215C164.608 133.552 164.88 133.825 165.217 133.825C165.554 133.825 165.827 133.552 165.827 133.215V122.886C165.827 122.651 165.691 122.437 165.479 122.336C165.269 122.234 165.016 122.263 164.834 122.412L151.879 132.896C151.617 133.108 151.577 133.492 151.789 133.753C151.908 133.903 152.085 133.98 152.262 133.98" fill="#250F8A"/>
<path fill-rule="evenodd" clip-rule="evenodd" d="M83.8756 133.98C84.0486 133.98 84.2204 133.907 84.341 133.764L99.8775 115.405V133.215C99.8775 133.552 100.15 133.825 100.487 133.825C100.824 133.825 101.096 133.552 101.096 133.215V113.743C101.096 113.487 100.936 113.257 100.697 113.169C100.456 113.08 100.188 113.152 100.022 113.347L83.4115 132.976C83.1934 133.232 83.2263 133.618 83.4821 133.835C83.5966 133.932 83.7367 133.98 83.8756 133.98" fill="#250F8A"/>
<path fill-rule="evenodd" clip-rule="evenodd" d="M71.9261 133.98C72.1235 133.98 72.3172 133.884 72.4342 133.707L84.2732 115.771V133.215C84.2732 133.552 84.5449 133.825 84.8824 133.825C85.2186 133.825 85.4915 133.552 85.4915 133.215V113.743C85.4915 113.473 85.3149 113.235 85.0578 113.158C84.7971 113.083 84.5218 113.182 84.3744 113.406L71.4181 133.034C71.233 133.315 71.3109 133.693 71.5911 133.879C71.6947 133.947 71.8104 133.98 71.9261 133.98" fill="#250F8A"/>
<path fill-rule="evenodd" clip-rule="evenodd" d="M242.972 219.568C242.972 221.69 244.69 223.408 246.807 223.408C248.926 223.408 250.643 221.69 250.643 219.568C250.643 217.447 248.926 215.729 246.807 215.729C244.69 215.729 242.972 217.447 242.972 219.568" fill="#472BC7"/>
<path fill-rule="evenodd" clip-rule="evenodd" d="M559.474 317.035L558.496 303.512L560.006 293.559L565.136 264.228L562.658 263.873L556.996 289.745L548.147 290.453L538.943 264.228L536.465 264.582L543.191 292.581L545.55 303.283L545.274 316.326L559.474 317.035Z" fill="white"/>
<path fill-rule="evenodd" clip-rule="evenodd" d="M547.101 282.995C547.101 285.531 549.154 289.037 551.686 289.037C554.219 289.037 556.271 285.531 556.271 282.995C556.271 280.459 554.219 278.404 551.686 278.404C549.154 278.404 547.101 280.459 547.101 282.995" fill="#FFD0D4"/>
<path fill-rule="evenodd" clip-rule="evenodd" d="M553.617 283.622C553.873 283.301 554.28 283.075 554.687 283.131C554.78 283.145 554.873 283.173 554.956 283.219C555.18 283.347 555.306 283.602 555.352 283.856C555.479 284.556 555.074 285.286 554.473 285.669C554.303 285.777 554.115 285.862 553.914 285.887C553.713 285.91 553.5 285.866 553.344 285.737C552.772 285.261 553.249 284.083 553.617 283.622" fill="#FFD0D4"/>
<path fill-rule="evenodd" clip-rule="evenodd" d="M553.613 283.367C553.717 283.417 553.838 283.464 553.944 283.422C554.051 283.38 554.107 283.266 554.177 283.174C554.453 282.814 555.057 282.814 555.377 283.134C555.699 283.453 555.731 283.999 555.509 284.393C555.286 284.788 554.851 285.034 554.403 285.1C554.108 286.153 553.987 287.253 554.045 288.345C554.774 288.398 555.504 288.452 556.233 288.506C556.375 288.517 556.531 288.523 556.643 288.436C556.748 288.353 556.786 288.213 556.814 288.083C557.087 286.831 557.222 285.549 557.219 284.267C557.217 283.018 557.068 281.724 556.425 280.654C555.654 279.375 552.493 277.268 550.949 278.449C549.251 279.75 552.437 282.801 553.613 283.367" fill="black"/>
<path fill-rule="evenodd" clip-rule="evenodd" d="M549.746 281.496C549.052 282.546 548.053 283.448 546.836 283.766C546.486 282.405 546.79 280.889 547.64 279.77C548.119 279.141 549.849 277.604 550.77 277.965C551.723 278.339 550.215 280.785 549.746 281.496" fill="black"/>
<path fill-rule="evenodd" clip-rule="evenodd" d="M558.957 307.443L545.419 306.809L535.004 353.513L530.173 350.567L536.054 357.72L549.922 319.224L549.711 336.684L559.114 349.157L559.714 353.659L559.963 355.573L561.639 355.374L561.944 348.513L554.666 336.663L559.801 317.048L558.957 307.443Z" fill="#250F8A"/>
<path fill-rule="evenodd" clip-rule="evenodd" d="M559.812 276.882L562.743 277.911L565.137 264.228L562.659 263.873L559.812 276.882Z" fill="#FFD0D4"/>
<path fill-rule="evenodd" clip-rule="evenodd" d="M542.743 275.057L539.308 276.414L536.465 264.582L538.943 264.227L542.743 275.057Z" fill="#FFD0D4"/>
<path fill-rule="evenodd" clip-rule="evenodd" d="M554.227 289.967L551.686 294.484L550.407 290.272L554.227 289.967Z" fill="#FFD0D4"/>
<path fill-rule="evenodd" clip-rule="evenodd" d="M535.356 262.81C535.356 263.985 536.308 264.936 537.481 264.936C538.654 264.936 539.604 263.985 539.604 262.81C539.604 261.635 538.654 260.684 537.481 260.684C536.308 260.684 535.356 261.635 535.356 262.81" fill="#FFD0D4"/>
<path fill-rule="evenodd" clip-rule="evenodd" d="M562.019 263.208C562.019 264.381 562.969 265.334 564.142 265.334C565.315 265.334 566.266 264.381 566.266 263.208C566.266 262.033 565.315 261.08 564.142 261.08C562.969 261.08 562.019 262.033 562.019 263.208" fill="#FFD0D4"/>
<path fill-rule="evenodd" clip-rule="evenodd" d="M406.002 175H342C339.799 175 338 173.172 338 170.938V168.062C338 165.828 339.799 164 342 164H406.002C408.202 164 410 165.828 410 168.062V170.938C410 173.172 408.202 175 406.002 175" fill="white"/>
<path fill-rule="evenodd" clip-rule="evenodd" d="M81.382 487.58L81.3333 491.239L227.513 493.186L259.179 477.143L259.228 473.484L81.382 487.58Z" fill="#FFCA00"/>
<path fill-rule="evenodd" clip-rule="evenodd" d="M227.512 493.186L81.3329 491.239L113 475.198L259.18 477.144L227.512 493.186Z" fill="#FFCA00"/>
<path fill-rule="evenodd" clip-rule="evenodd" d="M227.56 489.526L81.3823 487.58L113.049 471.538L259.228 473.485L227.56 489.526Z" fill="white"/>
<path fill-rule="evenodd" clip-rule="evenodd" d="M193.607 475.43L113.286 474.36L115.681 473.146L196.001 474.216L193.607 475.43Z" fill="#FA7564"/>
<path fill-rule="evenodd" clip-rule="evenodd" d="M187.621 478.461L107.299 477.393L109.695 476.179L190.016 477.249L187.621 478.461Z" fill="#FA7564"/>
<path fill-rule="evenodd" clip-rule="evenodd" d="M181.874 481.373L101.552 480.304L103.948 479.09L184.269 480.16L181.874 481.373Z" fill="#FA7564"/>
<path fill-rule="evenodd" clip-rule="evenodd" d="M176.367 484.164L96.0453 483.094L98.4405 481.88L178.762 482.95L176.367 484.164Z" fill="#FA7564"/>
<path fill-rule="evenodd" clip-rule="evenodd" d="M227.452 487.208L175.502 486.518L199.686 474.265L251.637 474.957L227.452 487.208Z" fill="#FA7564"/>
<path fill-rule="evenodd" clip-rule="evenodd" d="M106.23 523.326L106.181 526.986L252.359 528.932L284.027 512.89L284.075 509.23L106.23 523.326Z" fill="#2D109F"/>
<path fill-rule="evenodd" clip-rule="evenodd" d="M252.359 528.932L106.181 526.985L137.847 510.944L284.027 512.891L252.359 528.932Z" fill="#2D109F"/>
<path fill-rule="evenodd" clip-rule="evenodd" d="M252.408 525.273L106.23 523.326L137.896 507.285L284.076 509.231L252.408 525.273Z" fill="white"/>
<path fill-rule="evenodd" clip-rule="evenodd" d="M218.455 511.175L138.134 510.107L140.528 508.893L220.849 509.963L218.455 511.175Z" fill="#FA7564"/>
<path fill-rule="evenodd" clip-rule="evenodd" d="M212.468 514.208L132.147 513.139L134.542 511.926L214.862 512.995L212.468 514.208Z" fill="#FA7564"/>
<path fill-rule="evenodd" clip-rule="evenodd" d="M206.721 517.119L126.4 516.051L128.795 514.837L209.117 515.907L206.721 517.119Z" fill="#FA7564"/>
<path fill-rule="evenodd" clip-rule="evenodd" d="M201.214 519.91L120.893 518.84L123.288 517.626L203.608 518.696L201.214 519.91Z" fill="#FA7564"/>
<path fill-rule="evenodd" clip-rule="evenodd" d="M252.3 522.955L200.348 522.264L224.533 510.012L276.485 510.703L252.3 522.955Z" fill="#FA7564"/>
<path fill-rule="evenodd" clip-rule="evenodd" d="M335.877 204.22H427.247V194.461H335.877V204.22Z" fill="#E5FDFD"/>
<path fill-rule="evenodd" clip-rule="evenodd" d="M335.877 253.759H427.247V212.758H335.877V253.759Z" fill="#E5FDFD"/>
<path fill-rule="evenodd" clip-rule="evenodd" d="M315.415 469.494L319.619 476.08L323.708 488.702L336.093 508.623L334.2 509.141L319.449 492.626L312.249 478.688L315.415 469.494Z" fill="#E7F8FC"/>
<path fill-rule="evenodd" clip-rule="evenodd" d="M289.928 478.389L274.181 504.671L276.227 505.403L295.241 481.095L289.928 478.389Z" fill="#2D109F"/>
<path fill-rule="evenodd" clip-rule="evenodd" d="M283.126 472.894C285.879 473.359 289.318 476.295 288.866 479.124C288.414 481.954 284.24 483.604 281.487 483.14C278.734 482.675 276.87 480.004 277.322 477.175C277.774 474.346 280.374 472.43 283.126 472.894" fill="#FFD0D4"/>
<path fill-rule="evenodd" clip-rule="evenodd" d="M279.573 481.903C279.377 482.424 279.208 482.957 279.069 483.495C278.969 483.883 278.988 484.447 279.373 484.507C279.564 484.536 279.741 484.407 279.892 484.286C280.402 483.879 280.935 483.439 281.163 482.818C281.353 482.294 281.293 481.681 281.003 481.209C280.741 480.784 280.284 480.418 279.805 480.491C279.833 480.982 279.747 481.442 279.573 481.903" fill="#FFD0D4"/>
<path fill-rule="evenodd" clip-rule="evenodd" d="M288.899 478.512C288.821 475.886 285.681 473.326 283.126 472.894C280.373 472.429 277.774 474.345 277.323 477.174C277.295 477.346 277.302 477.511 277.291 477.681C277.665 477.893 278.079 478.036 278.445 478.053C279.87 478.118 281.357 477.399 282.245 476.253C282.245 476.253 288.241 477.755 288.899 478.512" fill="black"/>
<path fill-rule="evenodd" clip-rule="evenodd" d="M282.955 475.709C283.051 475.289 283.306 474.92 283.628 474.646C284.666 473.759 286.165 474.831 286.301 476.043C286.345 476.435 286.286 476.833 286.18 477.212C286.086 477.539 285.947 477.873 285.68 478.078C285.424 478.276 285.077 478.324 284.761 478.264C284.444 478.203 284.154 478.044 283.888 477.859C283.28 477.436 282.78 476.467 282.955 475.709" fill="#FFD0D4"/>
<path fill-rule="evenodd" clip-rule="evenodd" d="M288.355 492.309L278.691 509.558L280.895 509.731L293.271 496.84L294.967 480.289C294.967 480.289 294.967 475.235 292.762 475.584C290.558 475.933 289.541 478.72 289.541 478.72L288.355 492.309Z" fill="#1E0880"/>
<path fill-rule="evenodd" clip-rule="evenodd" d="M288.622 475.746C298.605 470.669 309.969 469.088 309.969 469.088L315.408 480.018L290.897 484.121L288.622 475.746Z" fill="#1E0880"/>
<path fill-rule="evenodd" clip-rule="evenodd" d="M309.968 469.088L311.491 469.034C315.6 468.888 319.007 472.276 319.001 476.502L310.899 491.562L312.375 513.216H310.171L305.363 492.769L309.968 469.088Z" fill="white"/>
<path fill-rule="evenodd" clip-rule="evenodd" d="M276.863 507.275C276.863 508.745 275.756 509.936 274.391 509.936C273.026 509.936 271.919 508.745 271.919 507.275C271.919 505.806 273.026 504.614 274.391 504.614C275.756 504.614 276.863 505.806 276.863 507.275" fill="#FFD0D4"/>
<path fill-rule="evenodd" clip-rule="evenodd" d="M282.481 509.94C282.481 511.408 281.375 512.601 280.009 512.601C278.645 512.601 277.537 511.408 277.537 509.94C277.537 508.47 278.645 507.279 280.009 507.279C281.375 507.279 282.481 508.47 282.481 509.94" fill="#FFD0D4"/>
<path fill-rule="evenodd" clip-rule="evenodd" d="M312.376 513.216L312.781 515.367L302.19 515.609C302.19 515.609 302.778 514.036 303.132 514.158C303.485 514.278 310.171 513.216 310.171 513.216H312.376Z" fill="#250F8A"/>
<path fill-rule="evenodd" clip-rule="evenodd" d="M335.014 509.287L336.054 511.694L326.495 511.938L326.73 510.73L333.149 509.81L335.014 509.287Z" fill="#250F8A"/>
<rect opacity="0.5" x="514" y="121" width="120" height="15" rx="7.5" transform="rotate(-30 514 121)" fill="url(#paint0_linear_1_11)"/>
<rect opacity="0.5" x="570" y="410" width="120" height="15" rx="7.5" transform="rotate(-30 570 410)" fill="url(#paint1_linear_1_11)"/>
<rect opacity="0.5" x="364" y="60" width="120" height="15" rx="7.5" transform="rotate(-30 364 60)" fill="url(#paint2_linear_1_11)"/>
<rect opacity="0.3" x="24" y="278" width="100" height="20.3575" rx="10.1788" transform="rotate(-30 24 278)" fill="url(#paint3_linear_1_11)"/>
<rect opacity="0.5" y="490" width="100" height="20.3575" rx="10.1788" transform="rotate(-30 0 490)" fill="url(#paint4_linear_1_11)"/>
<defs>
<linearGradient id="paint0_linear_1_11" x1="634" y1="121" x2="514" y2="121" gradientUnits="userSpaceOnUse">
<stop stop-color="white" stop-opacity="0.01"/>
<stop offset="1" stop-color="#FFCA00"/>
<stop offset="1" stop-color="white"/>
</linearGradient>
<linearGradient id="paint1_linear_1_11" x1="690" y1="410" x2="570" y2="410" gradientUnits="userSpaceOnUse">
<stop stop-color="white" stop-opacity="0.01"/>
<stop offset="1" stop-color="#FA7564"/>
<stop offset="1" stop-color="white"/>
</linearGradient>
<linearGradient id="paint2_linear_1_11" x1="484" y1="60" x2="364" y2="60" gradientUnits="userSpaceOnUse">
<stop stop-color="white" stop-opacity="0.01"/>
<stop offset="1" stop-color="white"/>
<stop offset="1" stop-color="white"/>
</linearGradient>
<linearGradient id="paint3_linear_1_11" x1="124" y1="278" x2="24" y2="278" gradientUnits="userSpaceOnUse">
<stop stop-color="white" stop-opacity="0.01"/>
<stop offset="1" stop-color="#06CCE2"/>
<stop offset="1" stop-color="white"/>
</linearGradient>
<linearGradient id="paint4_linear_1_11" x1="100" y1="490" x2="0" y2="490" gradientUnits="userSpaceOnUse">
<stop stop-color="white" stop-opacity="0.01"/>
<stop offset="1" stop-color="#FA7564"/>
<stop offset="1" stop-color="white"/>
</linearGradient>
</defs>
</svg>
