<svg width="252" height="205" viewBox="0 0 252 205" fill="none" xmlns="http://www.w3.org/2000/svg">
<path opacity="0.1" fill-rule="evenodd" clip-rule="evenodd" d="M228.524 115.834C225.399 66.0452 152.176 26.0478 74.1793 28.8115C-3.81716 31.5752 74.6768 88.6492 26.5147 88.7296C-21.6475 88.8101 52.3211 176.279 136.084 160.357C219.848 144.436 231.649 165.622 228.524 115.834Z" fill="#02ECF1"/>
<path fill-rule="evenodd" clip-rule="evenodd" d="M140.016 138.794C139.99 138.933 139.949 139.075 139.914 139.212C139.951 139.065 139.992 138.92 140.017 138.77C140.016 138.779 140.016 138.786 140.016 138.794M139.752 139.815C139.706 139.95 139.644 140.085 139.589 140.217C139.646 140.078 139.709 139.938 139.758 139.795C139.755 139.801 139.754 139.808 139.752 139.815M139.317 140.831C139.253 140.956 139.174 141.076 139.103 141.198C139.178 141.074 139.258 140.945 139.323 140.814C139.321 140.821 139.32 140.826 139.317 140.831M138.669 141.88C138.602 141.974 138.527 142.067 138.455 142.158C138.53 142.063 138.607 141.966 138.676 141.868C138.673 141.872 138.672 141.875 138.669 141.88M138.091 142.627C137.955 142.782 137.795 142.931 137.644 143.083C137.799 142.927 137.962 142.774 138.1 142.613C138.096 142.619 138.095 142.621 138.091 142.627M136.812 143.851C136.751 143.902 136.691 143.952 136.629 144.005C136.694 143.951 136.756 143.896 136.819 143.845C136.817 143.846 136.814 143.849 136.812 143.851M140.08 138.191C140.317 135.287 138.617 132.332 134.945 130.116C128.07 125.962 116.965 125.962 110.139 130.11C106.739 132.178 105.043 134.887 105.047 137.598C105.047 137.589 105.045 137.58 105.045 137.572L105.035 141.323C105.028 144.062 106.756 146.806 110.217 148.897C110.63 149.144 111.061 149.379 111.502 149.6C111.653 149.671 111.81 149.739 111.964 149.809C112.224 149.929 112.479 150.055 112.746 150.165C112.777 150.178 112.811 150.186 112.841 150.198C113.451 150.447 114.083 150.667 114.729 150.865C114.779 150.881 114.825 150.903 114.876 150.917C115.02 150.959 115.171 150.99 115.315 151.03C115.68 151.13 116.045 151.227 116.417 151.312C116.514 151.334 116.607 151.365 116.705 151.386C116.848 151.416 116.996 151.437 117.14 151.464C117.449 151.526 117.76 151.584 118.073 151.636C118.198 151.656 118.318 151.684 118.443 151.702C118.58 151.723 118.719 151.733 118.856 151.751C119.146 151.788 119.435 151.823 119.728 151.853C119.87 151.868 120.007 151.89 120.149 151.903C120.281 151.913 120.414 151.914 120.545 151.925C120.839 151.946 121.131 151.96 121.426 151.974C121.577 151.98 121.726 151.996 121.877 151.999C121.997 152.003 122.116 151.996 122.236 151.997C122.557 152.003 122.876 151.999 123.196 151.991C123.356 151.989 123.514 151.996 123.673 151.989C123.766 151.987 123.858 151.974 123.953 151.97C124.349 151.951 124.744 151.922 125.139 151.889C125.298 151.874 125.459 151.87 125.619 151.854C125.668 151.849 125.716 151.84 125.765 151.835C126.437 151.759 127.102 151.665 127.756 151.542C127.789 151.537 127.823 151.534 127.856 151.527C128.047 151.493 128.232 151.441 128.42 151.4C128.745 151.331 129.071 151.267 129.39 151.184C129.621 151.126 129.848 151.057 130.077 150.991C130.38 150.904 130.684 150.819 130.98 150.721C131.045 150.7 131.112 150.684 131.176 150.664C131.283 150.627 131.38 150.577 131.486 150.541C131.957 150.373 132.418 150.19 132.866 149.993C133.032 149.92 133.199 149.849 133.361 149.772C133.933 149.5 134.491 149.214 135.016 148.897C135.088 148.853 135.16 148.808 135.23 148.764C135.388 148.665 135.523 148.557 135.673 148.456C135.89 148.309 136.112 148.162 136.313 148.007C136.486 147.876 136.641 147.738 136.803 147.603C136.986 147.448 137.175 147.296 137.342 147.137C137.376 147.104 137.418 147.076 137.451 147.043C137.676 146.825 137.883 146.602 138.081 146.379C138.121 146.331 138.155 146.286 138.195 146.24C138.311 146.102 138.431 145.962 138.538 145.821C138.584 145.759 138.615 145.694 138.659 145.633C138.81 145.421 138.943 145.21 139.07 144.995C139.124 144.902 139.194 144.816 139.244 144.724C139.268 144.677 139.282 144.631 139.306 144.585C139.403 144.395 139.483 144.203 139.563 144.011C139.609 143.9 139.671 143.792 139.711 143.68C139.725 143.643 139.728 143.606 139.741 143.569C139.804 143.387 139.847 143.2 139.893 143.015C139.923 142.891 139.97 142.772 139.994 142.649C140 142.616 139.998 142.583 140.006 142.551C140.04 142.355 140.052 142.161 140.069 141.966C140.079 141.842 140.106 141.718 140.109 141.595C140.111 141.545 140.112 141.493 140.112 141.443C140.112 141.439 140.112 141.438 140.112 141.435C140.114 140.184 140.118 138.932 140.121 137.682C140.121 137.851 140.094 138.021 140.08 138.191" fill="#250F8A"/>
<mask id="mask0_1_7" style="mask-type:alpha" maskUnits="userSpaceOnUse" x="104" y="136" width="36" height="16">
<path fill-rule="evenodd" clip-rule="evenodd" d="M104.843 140.629C104.835 143.388 106.533 146.151 109.93 148.256V148.256C116.677 152.436 127.581 152.436 134.282 148.256V148.256C137.611 146.18 139.278 143.463 139.284 140.741V140.741C139.287 139.481 139.292 138.221 139.294 136.961V136.961C139.287 139.683 137.621 142.401 134.292 144.475V144.475C127.589 148.655 116.686 148.655 109.941 144.475V144.475C106.542 142.372 104.845 139.608 104.852 136.852V136.852" fill="white"/>
</mask>
<g mask="url(#mask0_1_7)">
<path fill-rule="evenodd" clip-rule="evenodd" d="M139.294 136.962L139.284 140.742C139.284 140.795 139.283 140.849 139.282 140.903L139.293 137.125C139.293 137.07 139.294 137.015 139.294 136.962" fill="#872D24"/>
</g>
<mask id="mask1_1_7" style="mask-type:alpha" maskUnits="userSpaceOnUse" x="104" y="136" width="36" height="16">
<path fill-rule="evenodd" clip-rule="evenodd" d="M104.843 140.629C104.835 143.388 106.533 146.151 109.93 148.256V148.256C116.677 152.436 127.581 152.436 134.282 148.256V148.256C137.611 146.18 139.278 143.463 139.284 140.741V140.741C139.287 139.481 139.292 138.221 139.294 136.961V136.961C139.287 139.683 137.621 142.401 134.292 144.475V144.475C127.589 148.655 116.686 148.655 109.941 144.475V144.475C106.542 142.372 104.845 139.608 104.852 136.852V136.852" fill="white"/>
</mask>
<g mask="url(#mask1_1_7)">
<path fill-rule="evenodd" clip-rule="evenodd" d="M139.293 137.125L139.283 140.904C139.273 141.258 139.235 141.612 139.169 141.965L139.179 138.184C139.245 137.833 139.283 137.478 139.293 137.125" fill="#250F8A"/>
</g>
<path fill-rule="evenodd" clip-rule="evenodd" d="M139.18 138.183L139.17 141.965C139.104 142.313 139.011 142.659 138.891 143.003L138.901 139.223C139.021 138.881 139.114 138.534 139.18 138.183" fill="#250F8A"/>
<path fill-rule="evenodd" clip-rule="evenodd" d="M138.901 139.224L138.891 143.004C138.767 143.36 138.614 143.709 138.433 144.055L138.443 140.275C138.624 139.928 138.777 139.577 138.901 139.224" fill="#250F8A"/>
<path fill-rule="evenodd" clip-rule="evenodd" d="M138.442 140.275L138.432 144.055C138.235 144.429 138.004 144.797 137.739 145.159L137.749 141.38C138.014 141.017 138.245 140.651 138.442 140.275" fill="#250F8A"/>
<path fill-rule="evenodd" clip-rule="evenodd" d="M137.749 141.38L137.739 145.159C137.43 145.579 137.074 145.992 136.672 146.391L136.682 142.611C137.084 142.212 137.44 141.801 137.749 141.38" fill="#250F8A"/>
<path fill-rule="evenodd" clip-rule="evenodd" d="M136.681 142.611L136.672 146.391C136.055 147.003 135.328 147.583 134.492 148.124L134.502 144.344C135.337 143.804 136.064 143.223 136.681 142.611" fill="#250F8A"/>
<path fill-rule="evenodd" clip-rule="evenodd" d="M134.501 144.344L134.491 148.124C134.423 148.168 134.352 148.212 134.281 148.257C133.133 148.973 131.862 149.565 130.511 150.037L130.52 146.257C131.872 145.785 133.144 145.192 134.291 144.476C134.363 144.432 134.432 144.388 134.501 144.344" fill="#250F8A"/>
<path fill-rule="evenodd" clip-rule="evenodd" d="M130.52 146.256L130.51 150.036C129.465 150.399 128.372 150.69 127.25 150.906L127.259 147.127C128.382 146.91 129.475 146.619 130.52 146.256" fill="#250F8A"/>
<path fill-rule="evenodd" clip-rule="evenodd" d="M127.259 147.127L127.251 150.906C126.529 151.045 125.794 151.155 125.054 151.235L125.062 147.454C125.804 147.377 126.539 147.266 127.259 147.127" fill="#250F8A"/>
<path fill-rule="evenodd" clip-rule="evenodd" d="M125.063 147.454L125.054 151.236C124.421 151.302 123.783 151.348 123.144 151.372L123.153 147.593C123.794 147.569 124.431 147.522 125.063 147.454" fill="#250F8A"/>
<path fill-rule="evenodd" clip-rule="evenodd" d="M123.154 147.592L123.144 151.371C122.556 151.394 121.967 151.396 121.379 151.38L121.389 147.602C121.977 147.618 122.566 147.614 123.154 147.592" fill="#250F8A"/>
<path fill-rule="evenodd" clip-rule="evenodd" d="M121.389 147.601L121.379 151.38C120.813 151.365 120.246 151.332 119.683 151.285L119.693 147.504C120.256 147.553 120.823 147.585 121.389 147.601" fill="#250F8A"/>
<path fill-rule="evenodd" clip-rule="evenodd" d="M119.693 147.504L119.684 151.285C119.122 151.234 118.563 151.166 118.009 151.082L118.018 147.302C118.573 147.386 119.132 147.454 119.693 147.504" fill="#250F8A"/>
<path fill-rule="evenodd" clip-rule="evenodd" d="M118.019 147.302L118.009 151.082C117.434 150.994 116.863 150.889 116.302 150.763L116.31 146.985C116.873 147.109 117.442 147.214 118.019 147.302" fill="#250F8A"/>
<path fill-rule="evenodd" clip-rule="evenodd" d="M116.311 146.984L116.301 150.763C115.692 150.628 115.093 150.47 114.505 150.291L114.515 146.512C115.103 146.691 115.702 146.847 116.311 146.984" fill="#250F8A"/>
<path fill-rule="evenodd" clip-rule="evenodd" d="M114.515 146.512L114.505 150.292C113.788 150.072 113.089 149.818 112.415 149.534L112.424 145.754C113.099 146.04 113.797 146.293 114.515 146.512" fill="#250F8A"/>
<path fill-rule="evenodd" clip-rule="evenodd" d="M112.424 145.754L112.414 149.534C111.541 149.163 110.708 148.738 109.93 148.256C106.532 146.151 104.836 143.388 104.842 140.628L104.852 136.851C104.845 139.608 106.542 142.371 109.94 144.475C110.718 144.956 111.55 145.384 112.424 145.754" fill="#250F8A"/>
<path fill-rule="evenodd" clip-rule="evenodd" d="M129.999 142.477H137.583C140.837 138.495 139.749 133.512 134.305 130.186C130.552 127.891 125.522 126.869 120.635 127.111L114.068 132.741L129.999 142.477Z" fill="#02ECF1"/>
<path fill-rule="evenodd" clip-rule="evenodd" d="M129.999 142.477L114.068 132.741L120.635 127.111C116.68 127.306 112.819 128.325 109.803 130.18C103.062 134.33 103.098 141.056 109.89 145.208C116.675 149.356 127.644 149.356 134.385 145.208C135.722 144.387 136.779 143.461 137.583 142.477H129.999Z" fill="#02ECF1"/>
<path fill-rule="evenodd" clip-rule="evenodd" d="M130.112 99.9589L132.411 98.544L132.297 141.064L130 142.477L130.112 99.9589Z" fill="#4F34CE"/>
<path fill-rule="evenodd" clip-rule="evenodd" d="M114.182 90.2185L116.48 88.8049L132.411 98.5435L130.112 99.9583L114.182 90.2185Z" fill="#263543"/>
<path fill-rule="evenodd" clip-rule="evenodd" d="M130.112 99.9588L129.999 142.477L114.068 132.741L114.182 90.219L130.112 99.9588Z" fill="#250F8A"/>
<path fill-rule="evenodd" clip-rule="evenodd" d="M70.9665 21.8589C70.9715 21.8589 70.9765 21.8576 70.9803 21.8563C70.8853 21.8788 70.804 21.9264 70.7153 21.9595C70.799 21.9291 70.8765 21.8801 70.9665 21.8589M72.4303 21.9886C72.4328 21.9886 72.434 21.99 72.4353 21.99C72.3478 21.9595 72.269 21.9529 72.1828 21.9317C72.2665 21.9529 72.3453 21.9595 72.4303 21.9886M71.6728 21.8179H71.6853C71.5853 21.81 71.4953 21.8298 71.4003 21.8311C71.4915 21.8298 71.5765 21.81 71.6728 21.8179M174.715 152.538C174.744 152.469 174.763 152.383 174.787 152.309C174.749 152.424 174.724 152.557 174.677 152.662C174.694 152.626 174.7 152.577 174.715 152.538M174.512 152.936C174.442 153.054 174.38 153.185 174.298 153.284C174.38 153.185 174.442 153.054 174.512 152.936M178.989 86.9819C178.979 86.7966 178.962 86.61 178.937 86.4207C178.933 86.3863 178.925 86.3532 178.92 86.3188C178.915 86.2923 178.91 86.2632 178.907 86.2354C178.892 86.1441 178.88 86.0541 178.863 85.9641C178.837 85.8291 178.808 85.6914 178.774 85.5591C178.747 85.4386 178.714 85.3195 178.68 85.2004C178.68 85.1991 178.679 85.1951 178.679 85.1938L178.675 85.1819C178.643 85.0641 178.607 84.9476 178.568 84.8298C178.53 84.7147 178.49 84.6008 178.449 84.487C178.408 84.3745 178.364 84.2633 178.319 84.1522C178.314 84.1416 178.31 84.131 178.305 84.1191C178.302 84.1125 178.298 84.1045 178.295 84.0966C178.257 84.0039 178.218 83.9126 178.178 83.8213C178.128 83.7101 178.077 83.6003 178.024 83.4917C177.969 83.3792 177.913 83.268 177.854 83.1582C177.84 83.133 177.824 83.1066 177.81 83.0801C177.802 83.0642 177.793 83.0483 177.784 83.0338C177.745 82.9623 177.707 82.8895 177.665 82.8194C177.598 82.7016 177.527 82.5851 177.453 82.4686C177.374 82.3442 177.293 82.2198 177.209 82.0994C177.205 82.0954 177.202 82.0901 177.198 82.0848C177.19 82.0729 177.18 82.061 177.172 82.0491C177.087 81.9273 177.002 81.8082 176.912 81.6917C176.783 81.525 176.65 81.3635 176.514 81.2073C176.51 81.2047 176.507 81.2007 176.503 81.198C176.333 81.0048 176.152 80.838 175.97 80.6686C175.888 80.5866 175.809 80.4966 175.723 80.4211C175.452 80.1869 175.172 79.9791 174.884 79.8044L77.1365 20.0497C77.0678 20.0086 77.0015 19.9703 76.934 19.9332C76.774 19.8445 76.6153 19.7678 76.4603 19.7029C76.4178 19.6857 76.3765 19.6751 76.334 19.6592C76.309 19.6486 76.284 19.6407 76.259 19.6301C76.2103 19.6155 76.1615 19.593 76.114 19.5785C76.014 19.5507 75.9153 19.5242 75.819 19.5057C75.7303 19.4872 75.6428 19.4726 75.5578 19.4633C75.5478 19.462 75.5378 19.462 75.5265 19.4607H75.5028C75.4403 19.4554 75.379 19.4501 75.3178 19.4501C75.2428 19.4488 75.1678 19.4514 75.094 19.4567C75.024 19.4607 74.9515 19.47 74.8828 19.4845C74.8628 19.4872 74.8453 19.4925 74.8253 19.4978C74.8153 19.5004 74.8053 19.5017 74.7965 19.5044C74.7578 19.5136 74.7178 19.5189 74.6803 19.5295C74.6128 19.5507 74.5478 19.5719 74.484 19.5983C74.4203 19.6235 74.3565 19.6539 74.2953 19.6857C74.2615 19.7042 74.229 19.7241 74.1965 19.7426C73.559 20.1357 72.9203 20.5275 72.2828 20.9219C71.644 21.315 71.0065 21.708 70.3678 22.0998C70.3703 22.0972 70.3728 22.0972 70.3753 22.0958C69.6315 22.5485 69.1678 23.5213 69.164 24.9057L69.0003 86.1083C68.9953 88.0804 69.9303 90.3436 71.2865 91.9954C71.839 92.6691 72.4553 93.2541 73.1165 93.6564L170.864 153.412C171.465 153.779 172.033 153.962 172.549 153.995C173.15 154.035 173.665 153.844 174.074 153.477C173.984 153.558 173.903 153.655 173.802 153.716C173.993 153.596 174.185 153.48 174.377 153.362C174.434 153.326 174.51 153.28 174.568 153.246C175.079 152.931 175.589 152.616 176.099 152.302C176.547 152.028 176.993 151.753 177.44 151.477C177.498 151.442 177.574 151.394 177.633 151.358C178.373 150.903 178.832 149.934 178.835 148.555L178.999 87.3511C178.999 87.2294 178.995 87.1063 178.989 86.9819" fill="#250F8A"/>
<mask id="mask2_1_7" style="mask-type:alpha" maskUnits="userSpaceOnUse" x="70" y="19" width="7" height="4">
<path fill-rule="evenodd" clip-rule="evenodd" d="M73.9412 19.7373C73.2963 20.1347 72.6502 20.5307 72.0042 20.9253V20.9253C71.3581 21.32 70.7145 21.716 70.0671 22.1107V22.1107C70.8258 21.6453 71.8764 21.712 73.0397 22.42V22.42L76.9137 20.048C76.2373 19.636 75.6 19.4413 75.0348 19.4413V19.4413C74.6277 19.4413 74.2585 19.5427 73.9412 19.7373" fill="white"/>
</mask>
<g mask="url(#mask2_1_7)">
<path fill-rule="evenodd" clip-rule="evenodd" d="M70.0674 22.1106L73.9401 19.7372C73.973 19.7186 74.0059 19.6986 74.04 19.6826L70.166 22.0546C70.1319 22.0732 70.099 22.0906 70.0674 22.1106" fill="#1A242E"/>
</g>
<mask id="mask3_1_7" style="mask-type:alpha" maskUnits="userSpaceOnUse" x="70" y="19" width="7" height="4">
<path fill-rule="evenodd" clip-rule="evenodd" d="M73.9412 19.7373C73.2963 20.1347 72.6502 20.5307 72.0042 20.9253V20.9253C71.3581 21.32 70.7145 21.716 70.0671 22.1107V22.1107C70.8258 21.6453 71.8764 21.712 73.0397 22.42V22.42L76.9137 20.048C76.2373 19.636 75.6 19.4413 75.0348 19.4413V19.4413C74.6277 19.4413 74.2585 19.5427 73.9412 19.7373" fill="white"/>
</mask>
<g mask="url(#mask3_1_7)">
<path fill-rule="evenodd" clip-rule="evenodd" d="M70.1655 22.0545L74.0396 19.6825C74.1015 19.6465 74.166 19.6185 74.2317 19.5905L70.3577 21.9665C70.2932 21.9918 70.2287 22.0225 70.1655 22.0545" fill="#1B252F"/>
</g>
<mask id="mask4_1_7" style="mask-type:alpha" maskUnits="userSpaceOnUse" x="70" y="19" width="7" height="4">
<path fill-rule="evenodd" clip-rule="evenodd" d="M73.9412 19.7373C73.2963 20.1347 72.6502 20.5307 72.0042 20.9253V20.9253C71.3581 21.32 70.7145 21.716 70.0671 22.1107V22.1107C70.8258 21.6453 71.8764 21.712 73.0397 22.42V22.42L76.9137 20.048C76.2373 19.636 75.6 19.4413 75.0348 19.4413V19.4413C74.6277 19.4413 74.2585 19.5427 73.9412 19.7373" fill="white"/>
</mask>
<g mask="url(#mask4_1_7)">
<path fill-rule="evenodd" clip-rule="evenodd" d="M70.3582 21.966L74.231 19.5913C74.2955 19.5647 74.3625 19.5433 74.4295 19.5247L70.5555 21.898C70.4884 21.9167 70.4227 21.9393 70.3582 21.966" fill="#1C2631"/>
</g>
<mask id="mask5_1_7" style="mask-type:alpha" maskUnits="userSpaceOnUse" x="70" y="19" width="7" height="4">
<path fill-rule="evenodd" clip-rule="evenodd" d="M73.9412 19.7373C73.2963 20.1347 72.6502 20.5307 72.0042 20.9253V20.9253C71.3581 21.32 70.7145 21.716 70.0671 22.1107V22.1107C70.8258 21.6453 71.8764 21.712 73.0397 22.42V22.42L76.9137 20.048C76.2373 19.636 75.6 19.4413 75.0348 19.4413V19.4413C74.6277 19.4413 74.2585 19.5427 73.9412 19.7373" fill="white"/>
</mask>
<g mask="url(#mask5_1_7)">
<path fill-rule="evenodd" clip-rule="evenodd" d="M70.5557 21.8983L74.4285 19.5249C74.4968 19.5036 74.565 19.4876 74.6346 19.4769L70.7606 21.8503C70.691 21.8636 70.6227 21.8783 70.5557 21.8983" fill="#1D2732"/>
</g>
<mask id="mask6_1_7" style="mask-type:alpha" maskUnits="userSpaceOnUse" x="70" y="19" width="7" height="4">
<path fill-rule="evenodd" clip-rule="evenodd" d="M73.9412 19.7373C73.2963 20.1347 72.6502 20.5307 72.0042 20.9253V20.9253C71.3581 21.32 70.7145 21.716 70.0671 22.1107V22.1107C70.8258 21.6453 71.8764 21.712 73.0397 22.42V22.42L76.9137 20.048C76.2373 19.636 75.6 19.4413 75.0348 19.4413V19.4413C74.6277 19.4413 74.2585 19.5427 73.9412 19.7373" fill="white"/>
</mask>
<g mask="url(#mask6_1_7)">
<path fill-rule="evenodd" clip-rule="evenodd" d="M70.7601 21.8501L74.6342 19.4768C74.7037 19.4648 74.777 19.4555 74.8478 19.4488L70.9751 21.8221C70.9017 21.8275 70.8309 21.8381 70.7601 21.8501" fill="#1D2934"/>
</g>
<mask id="mask7_1_7" style="mask-type:alpha" maskUnits="userSpaceOnUse" x="70" y="19" width="7" height="4">
<path fill-rule="evenodd" clip-rule="evenodd" d="M73.9412 19.7373C73.2963 20.1347 72.6502 20.5307 72.0042 20.9253V20.9253C71.3581 21.32 70.7145 21.716 70.0671 22.1107V22.1107C70.8258 21.6453 71.8764 21.712 73.0397 22.42V22.42L76.9137 20.048C76.2373 19.636 75.6 19.4413 75.0348 19.4413V19.4413C74.6277 19.4413 74.2585 19.5427 73.9412 19.7373" fill="white"/>
</mask>
<g mask="url(#mask7_1_7)">
<path fill-rule="evenodd" clip-rule="evenodd" d="M70.9756 21.8228L74.8483 19.4495C74.9229 19.4428 74.9988 19.4415 75.0747 19.4415L71.2019 21.8148C71.1248 21.8148 71.0502 21.8161 70.9756 21.8228" fill="#1E2A35"/>
</g>
<mask id="mask8_1_7" style="mask-type:alpha" maskUnits="userSpaceOnUse" x="70" y="19" width="7" height="4">
<path fill-rule="evenodd" clip-rule="evenodd" d="M73.9412 19.7373C73.2963 20.1347 72.6502 20.5307 72.0042 20.9253V20.9253C71.3581 21.32 70.7145 21.716 70.0671 22.1107V22.1107C70.8258 21.6453 71.8764 21.712 73.0397 22.42V22.42L76.9137 20.048C76.2373 19.636 75.6 19.4413 75.0348 19.4413V19.4413C74.6277 19.4413 74.2585 19.5427 73.9412 19.7373" fill="white"/>
</mask>
<g mask="url(#mask8_1_7)">
<path fill-rule="evenodd" clip-rule="evenodd" d="M71.2015 21.8149L75.0743 19.4416C75.154 19.4429 75.2349 19.4496 75.3171 19.4563L71.443 21.8309C71.3608 21.8229 71.2812 21.8163 71.2015 21.8149" fill="#1F2B37"/>
</g>
<mask id="mask9_1_7" style="mask-type:alpha" maskUnits="userSpaceOnUse" x="70" y="19" width="7" height="4">
<path fill-rule="evenodd" clip-rule="evenodd" d="M73.9412 19.7373C73.2963 20.1347 72.6502 20.5307 72.0042 20.9253V20.9253C71.3581 21.32 70.7145 21.716 70.0671 22.1107V22.1107C70.8258 21.6453 71.8764 21.712 73.0397 22.42V22.42L76.9137 20.048C76.2373 19.636 75.6 19.4413 75.0348 19.4413V19.4413C74.6277 19.4413 74.2585 19.5427 73.9412 19.7373" fill="white"/>
</mask>
<g mask="url(#mask9_1_7)">
<path fill-rule="evenodd" clip-rule="evenodd" d="M71.4435 21.8307L75.3163 19.4573C75.4035 19.4667 75.492 19.48 75.5806 19.4973L71.7065 21.8707C71.618 21.8547 71.5295 21.84 71.4435 21.8307" fill="#202C38"/>
</g>
<mask id="mask10_1_7" style="mask-type:alpha" maskUnits="userSpaceOnUse" x="70" y="19" width="7" height="4">
<path fill-rule="evenodd" clip-rule="evenodd" d="M73.9412 19.7373C73.2963 20.1347 72.6502 20.5307 72.0042 20.9253V20.9253C71.3581 21.32 70.7145 21.716 70.0671 22.1107V22.1107C70.8258 21.6453 71.8764 21.712 73.0397 22.42V22.42L76.9137 20.048C76.2373 19.636 75.6 19.4413 75.0348 19.4413V19.4413C74.6277 19.4413 74.2585 19.5427 73.9412 19.7373" fill="white"/>
</mask>
<g mask="url(#mask10_1_7)">
<path fill-rule="evenodd" clip-rule="evenodd" d="M71.7072 21.871L75.5812 19.4976C75.6798 19.5176 75.7784 19.543 75.8796 19.5723L72.0055 21.947C71.9044 21.9163 71.8045 21.8936 71.7072 21.871" fill="#212D3A"/>
</g>
<path fill-rule="evenodd" clip-rule="evenodd" d="M73.9412 19.7373C73.2963 20.1347 72.6502 20.5307 72.0042 20.9253V20.9253C71.3581 21.32 70.7145 21.716 70.0671 22.1107V22.1107C70.8258 21.6453 71.8764 21.712 73.0397 22.42V22.42L76.9137 20.048C76.2373 19.636 75.6 19.4413 75.0348 19.4413V19.4413C74.6277 19.4413 74.2585 19.5427 73.9412 19.7373" fill="#250F8A"/>
<mask id="mask11_1_7" style="mask-type:alpha" maskUnits="userSpaceOnUse" x="70" y="19" width="7" height="4">
<path fill-rule="evenodd" clip-rule="evenodd" d="M73.9412 19.7373C73.2963 20.1347 72.6502 20.5307 72.0042 20.9253V20.9253C71.3581 21.32 70.7145 21.716 70.0671 22.1107V22.1107C70.8258 21.6453 71.8764 21.712 73.0397 22.42V22.42L76.9137 20.048C76.2373 19.636 75.6 19.4413 75.0348 19.4413V19.4413C74.6277 19.4413 74.2585 19.5427 73.9412 19.7373" fill="white"/>
</mask>
<g mask="url(#mask11_1_7)">
<path fill-rule="evenodd" clip-rule="evenodd" d="M72.0053 21.9465L75.8793 19.5732C75.9944 19.6078 76.1107 19.6492 76.2296 19.6972L72.3555 22.0718C72.238 22.0252 72.1204 21.9812 72.0053 21.9465" fill="#250F8A"/>
</g>
<path fill-rule="evenodd" clip-rule="evenodd" d="M72.356 22.0715L76.2288 19.6981C76.3868 19.7621 76.5461 19.8381 76.7092 19.9301L72.8352 22.3035C72.6734 22.2128 72.5141 22.1355 72.356 22.0715" fill="#250F8A"/>
<path fill-rule="evenodd" clip-rule="evenodd" d="M72.8358 22.3032L76.7085 19.9299C76.7781 19.9659 76.8438 20.0045 76.9146 20.0485L73.0393 22.4205C72.971 22.3805 72.904 22.3379 72.8358 22.3032" fill="#250F8A"/>
<mask id="mask12_1_7" style="mask-type:alpha" maskUnits="userSpaceOnUse" x="173" y="148" width="6" height="6">
<path fill-rule="evenodd" clip-rule="evenodd" d="M174.756 150.721C174.754 152.179 174.266 153.205 173.479 153.689V153.689C173.682 153.565 173.886 153.439 174.088 153.314V153.314C174.15 153.276 174.231 153.227 174.292 153.188V153.188C174.835 152.858 175.377 152.524 175.92 152.191V152.191C176.394 151.901 176.869 151.612 177.343 151.32V151.32C177.404 151.284 177.485 151.235 177.548 151.196V151.196C178.334 150.713 178.821 149.688 178.825 148.228V148.228" fill="white"/>
</mask>
<g mask="url(#mask12_1_7)">
<path fill-rule="evenodd" clip-rule="evenodd" d="M174.757 150.721L178.824 148.228C178.822 149.688 178.333 150.713 177.547 151.196L173.479 153.688C174.265 153.205 174.754 152.179 174.757 150.721" fill="#250F8A"/>
</g>
<path fill-rule="evenodd" clip-rule="evenodd" d="M175.171 89.5077L178.998 87.1581L178.836 148.198L175.006 150.548L175.171 89.5077Z" fill="#250F8A"/>
<path fill-rule="evenodd" clip-rule="evenodd" d="M73.3489 22.3862L77.1773 20.0379L174.886 79.6319L171.057 81.9815L73.3489 22.3862Z" fill="#250F8A"/>
<mask id="mask13_1_7" style="mask-type:alpha" maskUnits="userSpaceOnUse" x="171" y="79" width="8" height="11">
<path fill-rule="evenodd" clip-rule="evenodd" d="M171.249 81.6187C173.477 83.024 175.27 86.4214 175.264 89.22V89.22L178.999 86.8467C179.006 84.048 177.211 80.6507 174.985 79.2454V79.2454" fill="white"/>
</mask>
<g mask="url(#mask13_1_7)">
<path fill-rule="evenodd" clip-rule="evenodd" d="M171.249 81.6184L174.985 79.2451C175.551 79.6011 176.087 80.0864 176.575 80.6584L172.839 83.0317C172.353 82.4597 171.815 81.9757 171.249 81.6184" fill="#23313E"/>
</g>
<mask id="mask14_1_7" style="mask-type:alpha" maskUnits="userSpaceOnUse" x="171" y="79" width="8" height="11">
<path fill-rule="evenodd" clip-rule="evenodd" d="M171.249 81.6187C173.477 83.024 175.27 86.4214 175.264 89.22V89.22L178.999 86.8467C179.006 84.048 177.211 80.6507 174.985 79.2454V79.2454" fill="white"/>
</mask>
<g mask="url(#mask14_1_7)">
<path fill-rule="evenodd" clip-rule="evenodd" d="M172.84 83.0311L176.574 80.6591C176.708 80.8137 176.837 80.9764 176.963 81.1457L173.227 83.5191C173.103 83.3497 172.972 83.1871 172.84 83.0311" fill="#22303D"/>
</g>
<mask id="mask15_1_7" style="mask-type:alpha" maskUnits="userSpaceOnUse" x="171" y="79" width="8" height="11">
<path fill-rule="evenodd" clip-rule="evenodd" d="M171.249 81.6187C173.477 83.024 175.27 86.4214 175.264 89.22V89.22L178.999 86.8467C179.006 84.048 177.211 80.6507 174.985 79.2454V79.2454" fill="white"/>
</mask>
<g mask="url(#mask15_1_7)">
<path fill-rule="evenodd" clip-rule="evenodd" d="M173.228 83.5195L176.962 81.1461C177.063 81.2795 177.16 81.4168 177.254 81.5568L173.518 83.9315C173.424 83.7901 173.328 83.6528 173.228 83.5195" fill="#222E3B"/>
</g>
<mask id="mask16_1_7" style="mask-type:alpha" maskUnits="userSpaceOnUse" x="171" y="79" width="8" height="11">
<path fill-rule="evenodd" clip-rule="evenodd" d="M171.249 81.6187C173.477 83.024 175.27 86.4214 175.264 89.22V89.22L178.999 86.8467C179.006 84.048 177.211 80.6507 174.985 79.2454V79.2454" fill="white"/>
</mask>
<g mask="url(#mask16_1_7)">
<path fill-rule="evenodd" clip-rule="evenodd" d="M173.518 83.931L177.253 81.5576C177.335 81.679 177.414 81.8016 177.491 81.9296L173.757 84.303C173.68 84.1776 173.599 84.0523 173.518 83.931" fill="#212D3A"/>
</g>
<mask id="mask17_1_7" style="mask-type:alpha" maskUnits="userSpaceOnUse" x="171" y="79" width="8" height="11">
<path fill-rule="evenodd" clip-rule="evenodd" d="M171.249 81.6187C173.477 83.024 175.27 86.4214 175.264 89.22V89.22L178.999 86.8467C179.006 84.048 177.211 80.6507 174.985 79.2454V79.2454" fill="white"/>
</mask>
<g mask="url(#mask17_1_7)">
<path fill-rule="evenodd" clip-rule="evenodd" d="M173.757 84.3032L177.491 81.9299C177.562 82.0459 177.632 82.1632 177.698 82.2805L173.963 84.6552C173.896 84.5365 173.828 84.4192 173.757 84.3032" fill="#202C38"/>
</g>
<mask id="mask18_1_7" style="mask-type:alpha" maskUnits="userSpaceOnUse" x="171" y="79" width="8" height="11">
<path fill-rule="evenodd" clip-rule="evenodd" d="M171.249 81.6187C173.477 83.024 175.27 86.4214 175.264 89.22V89.22L178.999 86.8467C179.006 84.048 177.211 80.6507 174.985 79.2454V79.2454" fill="white"/>
</mask>
<g mask="url(#mask18_1_7)">
<path fill-rule="evenodd" clip-rule="evenodd" d="M173.963 84.6548L177.697 82.2815C177.762 82.3948 177.823 82.5082 177.883 82.6242L174.146 84.9975C174.087 84.8815 174.026 84.7682 173.963 84.6548" fill="#1F2B37"/>
</g>
<mask id="mask19_1_7" style="mask-type:alpha" maskUnits="userSpaceOnUse" x="171" y="79" width="8" height="11">
<path fill-rule="evenodd" clip-rule="evenodd" d="M171.249 81.6187C173.477 83.024 175.27 86.4214 175.264 89.22V89.22L178.999 86.8467C179.006 84.048 177.211 80.6507 174.985 79.2454V79.2454" fill="white"/>
</mask>
<g mask="url(#mask19_1_7)">
<path fill-rule="evenodd" clip-rule="evenodd" d="M174.146 84.9974L177.882 82.624C177.939 82.7347 177.994 82.8467 178.048 82.96L174.312 85.332C174.26 85.22 174.204 85.1067 174.146 84.9974" fill="#1E2A35"/>
</g>
<mask id="mask20_1_7" style="mask-type:alpha" maskUnits="userSpaceOnUse" x="171" y="79" width="8" height="11">
<path fill-rule="evenodd" clip-rule="evenodd" d="M171.249 81.6187C173.477 83.024 175.27 86.4214 175.264 89.22V89.22L178.999 86.8467C179.006 84.048 177.211 80.6507 174.985 79.2454V79.2454" fill="white"/>
</mask>
<g mask="url(#mask20_1_7)">
<path fill-rule="evenodd" clip-rule="evenodd" d="M174.312 85.3318L178.048 82.9598C178.099 83.0692 178.15 83.1785 178.198 83.2905L174.463 85.6652C174.414 85.5518 174.364 85.4412 174.312 85.3318" fill="#1D2934"/>
</g>
<mask id="mask21_1_7" style="mask-type:alpha" maskUnits="userSpaceOnUse" x="171" y="79" width="8" height="11">
<path fill-rule="evenodd" clip-rule="evenodd" d="M171.249 81.6187C173.477 83.024 175.27 86.4214 175.264 89.22V89.22L178.999 86.8467C179.006 84.048 177.211 80.6507 174.985 79.2454V79.2454" fill="white"/>
</mask>
<g mask="url(#mask21_1_7)">
<path fill-rule="evenodd" clip-rule="evenodd" d="M174.462 85.6652L178.197 83.2905C178.247 83.4012 178.292 83.5132 178.336 83.6239L174.6 85.9972C174.556 85.8865 174.51 85.7759 174.462 85.6652" fill="#1D2732"/>
</g>
<mask id="mask22_1_7" style="mask-type:alpha" maskUnits="userSpaceOnUse" x="171" y="79" width="8" height="11">
<path fill-rule="evenodd" clip-rule="evenodd" d="M171.249 81.6187C173.477 83.024 175.27 86.4214 175.264 89.22V89.22L178.999 86.8467C179.006 84.048 177.211 80.6507 174.985 79.2454V79.2454" fill="white"/>
</mask>
<g mask="url(#mask22_1_7)">
<path fill-rule="evenodd" clip-rule="evenodd" d="M174.601 85.9974L178.335 83.624C178.38 83.736 178.423 83.8494 178.463 83.9627L174.726 86.3374C174.687 86.2227 174.644 86.1107 174.601 85.9974" fill="#1C2631"/>
</g>
<mask id="mask23_1_7" style="mask-type:alpha" maskUnits="userSpaceOnUse" x="171" y="79" width="8" height="11">
<path fill-rule="evenodd" clip-rule="evenodd" d="M171.249 81.6187C173.477 83.024 175.27 86.4214 175.264 89.22V89.22L178.999 86.8467C179.006 84.048 177.211 80.6507 174.985 79.2454V79.2454" fill="white"/>
</mask>
<g mask="url(#mask23_1_7)">
<path fill-rule="evenodd" clip-rule="evenodd" d="M174.726 86.3371L178.463 83.9624C178.503 84.0771 178.541 84.1917 178.579 84.3064L174.843 86.6811C174.807 86.5651 174.769 86.4504 174.726 86.3371" fill="#1B252F"/>
</g>
<mask id="mask24_1_7" style="mask-type:alpha" maskUnits="userSpaceOnUse" x="171" y="79" width="8" height="11">
<path fill-rule="evenodd" clip-rule="evenodd" d="M171.249 81.6187C173.477 83.024 175.27 86.4214 175.264 89.22V89.22L178.999 86.8467C179.006 84.048 177.211 80.6507 174.985 79.2454V79.2454" fill="white"/>
</mask>
<g mask="url(#mask24_1_7)">
<path fill-rule="evenodd" clip-rule="evenodd" d="M174.843 86.6809L178.578 84.3063C178.616 84.4249 178.652 84.5436 178.683 84.6623L174.948 87.0369C174.916 86.9169 174.881 86.7983 174.843 86.6809" fill="#1A242E"/>
</g>
<mask id="mask25_1_7" style="mask-type:alpha" maskUnits="userSpaceOnUse" x="171" y="79" width="8" height="11">
<path fill-rule="evenodd" clip-rule="evenodd" d="M171.249 81.6187C173.477 83.024 175.27 86.4214 175.264 89.22V89.22L178.999 86.8467C179.006 84.048 177.211 80.6507 174.985 79.2454V79.2454" fill="white"/>
</mask>
<g mask="url(#mask25_1_7)">
<path fill-rule="evenodd" clip-rule="evenodd" d="M174.948 87.0364L178.684 84.6631C178.719 84.7871 178.751 84.9138 178.78 85.0404L175.046 87.4138C175.016 87.2871 174.984 87.1631 174.948 87.0364" fill="#19232C"/>
</g>
<mask id="mask26_1_7" style="mask-type:alpha" maskUnits="userSpaceOnUse" x="171" y="79" width="8" height="11">
<path fill-rule="evenodd" clip-rule="evenodd" d="M171.249 81.6187C173.477 83.024 175.27 86.4214 175.264 89.22V89.22L178.999 86.8467C179.006 84.048 177.211 80.6507 174.985 79.2454V79.2454" fill="white"/>
</mask>
<g mask="url(#mask26_1_7)">
<path fill-rule="evenodd" clip-rule="evenodd" d="M175.045 87.414L178.78 85.0406C178.813 85.1766 178.841 85.3126 178.866 85.4486L175.131 87.8233C175.106 87.6873 175.076 87.5513 175.045 87.414" fill="#18222B"/>
</g>
<mask id="mask27_1_7" style="mask-type:alpha" maskUnits="userSpaceOnUse" x="171" y="79" width="8" height="11">
<path fill-rule="evenodd" clip-rule="evenodd" d="M171.249 81.6187C173.477 83.024 175.27 86.4214 175.264 89.22V89.22L178.999 86.8467C179.006 84.048 177.211 80.6507 174.985 79.2454V79.2454" fill="white"/>
</mask>
<g mask="url(#mask27_1_7)">
<path fill-rule="evenodd" clip-rule="evenodd" d="M175.13 87.8228L178.866 85.4495C178.894 85.6028 178.918 85.7548 178.938 85.9081L175.204 88.2828C175.183 88.1295 175.16 87.9761 175.13 87.8228" fill="#182029"/>
</g>
<path fill-rule="evenodd" clip-rule="evenodd" d="M171.249 81.6187C173.477 83.024 175.27 86.4214 175.264 89.22V89.22L178.999 86.8467C179.006 84.048 177.211 80.6507 174.985 79.2454V79.2454" fill="#250F8A"/>
<mask id="mask28_1_7" style="mask-type:alpha" maskUnits="userSpaceOnUse" x="171" y="79" width="8" height="11">
<path fill-rule="evenodd" clip-rule="evenodd" d="M171.249 81.6187C173.477 83.024 175.27 86.4214 175.264 89.22V89.22L178.999 86.8467C179.006 84.048 177.211 80.6507 174.985 79.2454V79.2454" fill="white"/>
</mask>
<g mask="url(#mask28_1_7)">
<path fill-rule="evenodd" clip-rule="evenodd" d="M175.203 88.2824L178.937 85.9091C178.962 86.0984 178.979 86.2877 178.99 86.4771L175.254 88.8504C175.244 88.6624 175.227 88.4731 175.203 88.2824" fill="#250F8A"/>
</g>
<path fill-rule="evenodd" clip-rule="evenodd" d="M175.254 88.8501L178.99 86.4768C178.996 86.6008 178.998 86.7235 178.998 86.8461L175.264 89.2195C175.264 89.0995 175.26 88.9741 175.254 88.8501" fill="#250F8A"/>
<path fill-rule="evenodd" clip-rule="evenodd" d="M171.012 82.3422C173.295 83.7335 175.133 87.0982 175.126 89.8675L174.962 150.908C174.955 153.678 173.104 154.792 170.822 153.4L73.1134 93.8051C70.8318 92.4138 68.9925 89.0478 69 86.2784L69.1637 25.2377C69.1712 22.4696 71.023 21.3542 73.3045 22.7468L171.012 82.3422Z" fill="#0AD7DD"/>
<path fill-rule="evenodd" clip-rule="evenodd" d="M170.41 87.113L76.2972 29.7101L76.1672 85.1528L170.262 142.535L170.41 87.113ZM109.909 64.4116L109.934 55.2271L165.481 89.1062L165.456 98.2907L109.909 64.4116ZM80.4318 46.4332L80.4567 37.2487L104.856 52.129L104.832 61.3149L104.728 99.6741L80.328 84.7898L80.4318 46.4332ZM109.805 102.768L109.909 64.4116L165.456 98.2907L165.352 136.649L109.805 102.768Z" fill="white"/>
<path fill-rule="evenodd" clip-rule="evenodd" d="M125.978 120.796L117.982 115.92L117.975 118.344L125.971 123.221L125.978 120.796Z" fill="#250F8A"/>
<path fill-rule="evenodd" clip-rule="evenodd" d="M104.855 52.1291L80.4564 37.2488L80.4326 46.4333L104.831 61.315L104.855 52.1291ZM98.9476 55.7869L98.9626 50.4659L103.346 53.1403L103.331 58.4599L98.9476 55.7869ZM93.0188 52.1714L93.0325 46.8491L97.4157 49.5221L97.402 54.8444L93.0188 52.1714ZM87.0887 48.5533L87.1024 43.2323L91.4856 45.9053L91.4719 51.2263L87.0887 48.5533Z" fill="#FA7564"/>
<path fill-rule="evenodd" clip-rule="evenodd" d="M104.831 61.315L80.4325 46.4333L80.3288 84.7899L104.728 99.6742L104.831 61.315ZM81.7832 60.5732L81.8069 51.6143L103.314 64.7338L103.291 73.69L81.7832 60.5732ZM81.7245 82.2608L81.732 79.9627L103.238 93.0795L103.232 95.3789L81.7245 82.2608Z" fill="#E5FDFD"/>
<path fill-rule="evenodd" clip-rule="evenodd" d="M165.456 98.2904L109.908 64.4113L109.804 102.769L165.352 136.65L165.456 98.2904ZM111.426 78.6515L111.45 69.6953L163.904 101.688L163.88 110.646L111.426 78.6515ZM111.413 83.2504L111.419 80.9509L163.874 112.945L163.868 115.243L111.413 83.2504ZM111.401 87.8545L111.408 85.5564L163.861 117.549L163.855 119.849L111.401 87.8545ZM111.37 99.1973L111.394 90.2371L163.849 122.231L163.825 131.189L111.37 99.1973Z" fill="#E5FDFD"/>
<path fill-rule="evenodd" clip-rule="evenodd" d="M165.481 89.1059L109.933 55.2267L109.908 64.4113L165.456 98.2904L165.481 89.1059ZM159.537 92.7425L159.552 87.4215L163.935 90.0945L163.921 95.4155L159.537 92.7425ZM153.608 89.1257L153.622 83.8047L158.005 86.4791L157.99 91.7987L153.608 89.1257ZM147.678 85.5089L147.692 80.1866L152.075 82.8609L152.06 88.1819L147.678 85.5089Z" fill="#FA7564"/>
<path fill-rule="evenodd" clip-rule="evenodd" d="M163.935 90.0946L159.552 87.4216L159.537 92.7425L163.921 95.4155L163.935 90.0946Z" fill="#FFCA00"/>
<path fill-rule="evenodd" clip-rule="evenodd" d="M158.005 86.4788L153.622 83.8058L153.607 89.1254L157.99 91.7984L158.005 86.4788Z" fill="white"/>
<path fill-rule="evenodd" clip-rule="evenodd" d="M152.074 82.8604L147.691 80.1874L147.677 85.5097L152.06 88.1814L152.074 82.8604Z" fill="white"/>
<path fill-rule="evenodd" clip-rule="evenodd" d="M103.346 53.1397L98.9626 50.4667L98.9476 55.7877L103.331 58.4593L103.346 53.1397Z" fill="#FFCA00"/>
<path fill-rule="evenodd" clip-rule="evenodd" d="M97.4162 49.5227L93.033 46.8497L93.018 52.1719L97.4012 54.8436L97.4162 49.5227Z" fill="white"/>
<path fill-rule="evenodd" clip-rule="evenodd" d="M91.486 45.9056L87.1016 43.2326L87.0878 48.5535L91.4711 51.2265L91.486 45.9056Z" fill="white"/>
<path fill-rule="evenodd" clip-rule="evenodd" d="M103.315 64.7336L81.8072 51.6154L81.7834 60.5743L103.29 73.6898L103.315 64.7336Z" fill="white"/>
<path fill-rule="evenodd" clip-rule="evenodd" d="M163.904 101.688L111.45 69.6956L111.425 78.6518L163.879 110.646L163.904 101.688Z" fill="white"/>
<path fill-rule="evenodd" clip-rule="evenodd" d="M163.849 122.231L111.394 90.238L111.37 99.1969L163.824 131.188L163.849 122.231Z" fill="white"/>
<path fill-rule="evenodd" clip-rule="evenodd" d="M103.238 93.08L81.732 79.9619L81.7245 82.2613L103.232 95.3781L103.238 93.08Z" fill="#FFCA00"/>
<path fill-rule="evenodd" clip-rule="evenodd" d="M163.874 112.945L111.42 80.9517L111.412 83.2512L163.867 115.243L163.874 112.945Z" fill="#FFCA00"/>
<path fill-rule="evenodd" clip-rule="evenodd" d="M163.861 117.549L111.407 85.5563L111.401 87.8544L163.856 119.849L163.861 117.549Z" fill="#FFCA00"/>
<path fill-rule="evenodd" clip-rule="evenodd" d="M76.2084 84.9698L73.7628 86.2365L73.9176 27.9542L76.3382 29.4338L76.2084 84.9698Z" fill="#172029"/>
<path fill-rule="evenodd" clip-rule="evenodd" d="M170.218 142.449L170.211 145.216L73.7623 86.2361L76.2079 84.9694L170.218 142.449Z" fill="#263442"/>
</svg>
